<?xml version="1.0" encoding="utf-8" standalone="no"?>
<!DOCTYPE svg PUBLIC "-//W3C//DTD SVG 1.1//EN"
  "http://www.w3.org/Graphics/SVG/1.1/DTD/svg11.dtd">
<!-- Created with matplotlib (https://matplotlib.org/) -->
<svg height="360pt" version="1.1" viewBox="0 0 720 360" width="720pt" xmlns="http://www.w3.org/2000/svg" xmlns:xlink="http://www.w3.org/1999/xlink">
 <defs>
  <style type="text/css">
*{stroke-linecap:butt;stroke-linejoin:round;white-space:pre;}
  </style>
 </defs>
 <g id="figure_1">
  <g id="patch_1">
   <path d="M 0 360 
L 720 360 
L 720 0 
L 0 0 
z
" style="fill:#ffffff;"/>
  </g>
  <g id="axes_1">
   <g id="patch_2">
    <path d="M 90 315 
L 648 315 
L 648 43.2 
L 90 43.2 
z
" style="fill:#eaeaf2;"/>
   </g>
   <g id="matplotlib.axis_1">
    <g id="xtick_1">
     <g id="line2d_1">
      <path clip-path="url(#p0663c47ccf)" d="M 90 315 
L 90 43.2 
" style="fill:none;stroke:#ffffff;stroke-linecap:round;"/>
     </g>
     <g id="text_1">
      <!-- −50 -->
      <defs>
       <path d="M 10.59375 35.5 
L 73.1875 35.5 
L 73.1875 27.203125 
L 10.59375 27.203125 
z
" id="DejaVuSans-8722"/>
       <path d="M 10.796875 72.90625 
L 49.515625 72.90625 
L 49.515625 64.59375 
L 19.828125 64.59375 
L 19.828125 46.734375 
Q 21.96875 47.46875 24.109375 47.828125 
Q 26.265625 48.1875 28.421875 48.1875 
Q 40.625 48.1875 47.75 41.5 
Q 54.890625 34.8125 54.890625 23.390625 
Q 54.890625 11.625 47.5625 5.09375 
Q 40.234375 -1.421875 26.90625 -1.421875 
Q 22.3125 -1.421875 17.546875 -0.640625 
Q 12.796875 0.140625 7.71875 1.703125 
L 7.71875 11.625 
Q 12.109375 9.234375 16.796875 8.0625 
Q 21.484375 6.890625 26.703125 6.890625 
Q 35.15625 6.890625 40.078125 11.328125 
Q 45.015625 15.765625 45.015625 23.390625 
Q 45.015625 31 40.078125 35.4375 
Q 35.15625 39.890625 26.703125 39.890625 
Q 22.75 39.890625 18.8125 39.015625 
Q 14.890625 38.140625 10.796875 36.28125 
z
" id="DejaVuSans-53"/>
       <path d="M 31.78125 66.40625 
Q 24.171875 66.40625 20.328125 58.90625 
Q 16.5 51.421875 16.5 36.375 
Q 16.5 21.390625 20.328125 13.890625 
Q 24.171875 6.390625 31.78125 6.390625 
Q 39.453125 6.390625 43.28125 13.890625 
Q 47.125 21.390625 47.125 36.375 
Q 47.125 51.421875 43.28125 58.90625 
Q 39.453125 66.40625 31.78125 66.40625 
z
M 31.78125 74.21875 
Q 44.046875 74.21875 50.515625 64.515625 
Q 56.984375 54.828125 56.984375 36.375 
Q 56.984375 17.96875 50.515625 8.265625 
Q 44.046875 -1.421875 31.78125 -1.421875 
Q 19.53125 -1.421875 13.0625 8.265625 
Q 6.59375 17.96875 6.59375 36.375 
Q 6.59375 54.828125 13.0625 64.515625 
Q 19.53125 74.21875 31.78125 74.21875 
z
" id="DejaVuSans-48"/>
      </defs>
      <g style="fill:#262626;" transform="translate(78.392422 332.858281)scale(0.11 -0.11)">
       <use xlink:href="#DejaVuSans-8722"/>
       <use x="83.789062" xlink:href="#DejaVuSans-53"/>
       <use x="147.412109" xlink:href="#DejaVuSans-48"/>
      </g>
     </g>
    </g>
    <g id="xtick_2">
     <g id="line2d_2">
      <path clip-path="url(#p0663c47ccf)" d="M 159.75 315 
L 159.75 43.2 
" style="fill:none;stroke:#ffffff;stroke-linecap:round;"/>
     </g>
     <g id="text_2">
      <!-- −25 -->
      <defs>
       <path d="M 19.1875 8.296875 
L 53.609375 8.296875 
L 53.609375 0 
L 7.328125 0 
L 7.328125 8.296875 
Q 12.9375 14.109375 22.625 23.890625 
Q 32.328125 33.6875 34.8125 36.53125 
Q 39.546875 41.84375 41.421875 45.53125 
Q 43.3125 49.21875 43.3125 52.78125 
Q 43.3125 58.59375 39.234375 62.25 
Q 35.15625 65.921875 28.609375 65.921875 
Q 23.96875 65.921875 18.8125 64.3125 
Q 13.671875 62.703125 7.8125 59.421875 
L 7.8125 69.390625 
Q 13.765625 71.78125 18.9375 73 
Q 24.125 74.21875 28.421875 74.21875 
Q 39.75 74.21875 46.484375 68.546875 
Q 53.21875 62.890625 53.21875 53.421875 
Q 53.21875 48.921875 51.53125 44.890625 
Q 49.859375 40.875 45.40625 35.40625 
Q 44.1875 33.984375 37.640625 27.21875 
Q 31.109375 20.453125 19.1875 8.296875 
z
" id="DejaVuSans-50"/>
      </defs>
      <g style="fill:#262626;" transform="translate(148.142422 332.858281)scale(0.11 -0.11)">
       <use xlink:href="#DejaVuSans-8722"/>
       <use x="83.789062" xlink:href="#DejaVuSans-50"/>
       <use x="147.412109" xlink:href="#DejaVuSans-53"/>
      </g>
     </g>
    </g>
    <g id="xtick_3">
     <g id="line2d_3">
      <path clip-path="url(#p0663c47ccf)" d="M 229.5 315 
L 229.5 43.2 
" style="fill:none;stroke:#ffffff;stroke-linecap:round;"/>
     </g>
     <g id="text_3">
      <!-- 0 -->
      <g style="fill:#262626;" transform="translate(226.000625 332.858281)scale(0.11 -0.11)">
       <use xlink:href="#DejaVuSans-48"/>
      </g>
     </g>
    </g>
    <g id="xtick_4">
     <g id="line2d_4">
      <path clip-path="url(#p0663c47ccf)" d="M 299.25 315 
L 299.25 43.2 
" style="fill:none;stroke:#ffffff;stroke-linecap:round;"/>
     </g>
     <g id="text_4">
      <!-- 25 -->
      <g style="fill:#262626;" transform="translate(292.25125 332.858281)scale(0.11 -0.11)">
       <use xlink:href="#DejaVuSans-50"/>
       <use x="63.623047" xlink:href="#DejaVuSans-53"/>
      </g>
     </g>
    </g>
    <g id="xtick_5">
     <g id="line2d_5">
      <path clip-path="url(#p0663c47ccf)" d="M 369 315 
L 369 43.2 
" style="fill:none;stroke:#ffffff;stroke-linecap:round;"/>
     </g>
     <g id="text_5">
      <!-- 50 -->
      <g style="fill:#262626;" transform="translate(362.00125 332.858281)scale(0.11 -0.11)">
       <use xlink:href="#DejaVuSans-53"/>
       <use x="63.623047" xlink:href="#DejaVuSans-48"/>
      </g>
     </g>
    </g>
    <g id="xtick_6">
     <g id="line2d_6">
      <path clip-path="url(#p0663c47ccf)" d="M 438.75 315 
L 438.75 43.2 
" style="fill:none;stroke:#ffffff;stroke-linecap:round;"/>
     </g>
     <g id="text_6">
      <!-- 75 -->
      <defs>
       <path d="M 8.203125 72.90625 
L 55.078125 72.90625 
L 55.078125 68.703125 
L 28.609375 0 
L 18.3125 0 
L 43.21875 64.59375 
L 8.203125 64.59375 
z
" id="DejaVuSans-55"/>
      </defs>
      <g style="fill:#262626;" transform="translate(431.75125 332.858281)scale(0.11 -0.11)">
       <use xlink:href="#DejaVuSans-55"/>
       <use x="63.623047" xlink:href="#DejaVuSans-53"/>
      </g>
     </g>
    </g>
    <g id="xtick_7">
     <g id="line2d_7">
      <path clip-path="url(#p0663c47ccf)" d="M 508.5 315 
L 508.5 43.2 
" style="fill:none;stroke:#ffffff;stroke-linecap:round;"/>
     </g>
     <g id="text_7">
      <!-- 100 -->
      <defs>
       <path d="M 12.40625 8.296875 
L 28.515625 8.296875 
L 28.515625 63.921875 
L 10.984375 60.40625 
L 10.984375 69.390625 
L 28.421875 72.90625 
L 38.28125 72.90625 
L 38.28125 8.296875 
L 54.390625 8.296875 
L 54.390625 0 
L 12.40625 0 
z
" id="DejaVuSans-49"/>
      </defs>
      <g style="fill:#262626;" transform="translate(498.001875 332.858281)scale(0.11 -0.11)">
       <use xlink:href="#DejaVuSans-49"/>
       <use x="63.623047" xlink:href="#DejaVuSans-48"/>
       <use x="127.246094" xlink:href="#DejaVuSans-48"/>
      </g>
     </g>
    </g>
    <g id="xtick_8">
     <g id="line2d_8">
      <path clip-path="url(#p0663c47ccf)" d="M 578.25 315 
L 578.25 43.2 
" style="fill:none;stroke:#ffffff;stroke-linecap:round;"/>
     </g>
     <g id="text_8">
      <!-- 125 -->
      <g style="fill:#262626;" transform="translate(567.751875 332.858281)scale(0.11 -0.11)">
       <use xlink:href="#DejaVuSans-49"/>
       <use x="63.623047" xlink:href="#DejaVuSans-50"/>
       <use x="127.246094" xlink:href="#DejaVuSans-53"/>
      </g>
     </g>
    </g>
    <g id="xtick_9">
     <g id="line2d_9">
      <path clip-path="url(#p0663c47ccf)" d="M 648 315 
L 648 43.2 
" style="fill:none;stroke:#ffffff;stroke-linecap:round;"/>
     </g>
     <g id="text_9">
      <!-- 150 -->
      <g style="fill:#262626;" transform="translate(637.501875 332.858281)scale(0.11 -0.11)">
       <use xlink:href="#DejaVuSans-49"/>
       <use x="63.623047" xlink:href="#DejaVuSans-53"/>
       <use x="127.246094" xlink:href="#DejaVuSans-48"/>
      </g>
     </g>
    </g>
   </g>
   <g id="matplotlib.axis_2">
    <g id="ytick_1">
     <g id="line2d_10">
      <path clip-path="url(#p0663c47ccf)" d="M 90 315 
L 648 315 
" style="fill:none;stroke:#ffffff;stroke-linecap:round;"/>
     </g>
     <g id="text_10">
      <!-- 0 -->
      <g style="fill:#262626;" transform="translate(73.50125 319.179141)scale(0.11 -0.11)">
       <use xlink:href="#DejaVuSans-48"/>
      </g>
     </g>
    </g>
    <g id="ytick_2">
     <g id="line2d_11">
      <path clip-path="url(#p0663c47ccf)" d="M 90 267.415966 
L 648 267.415966 
" style="fill:none;stroke:#ffffff;stroke-linecap:round;"/>
     </g>
     <g id="text_11">
      <!-- 500 -->
      <g style="fill:#262626;" transform="translate(59.50375 271.595107)scale(0.11 -0.11)">
       <use xlink:href="#DejaVuSans-53"/>
       <use x="63.623047" xlink:href="#DejaVuSans-48"/>
       <use x="127.246094" xlink:href="#DejaVuSans-48"/>
      </g>
     </g>
    </g>
    <g id="ytick_3">
     <g id="line2d_12">
      <path clip-path="url(#p0663c47ccf)" d="M 90 219.831933 
L 648 219.831933 
" style="fill:none;stroke:#ffffff;stroke-linecap:round;"/>
     </g>
     <g id="text_12">
      <!-- 1000 -->
      <g style="fill:#262626;" transform="translate(52.505 224.011073)scale(0.11 -0.11)">
       <use xlink:href="#DejaVuSans-49"/>
       <use x="63.623047" xlink:href="#DejaVuSans-48"/>
       <use x="127.246094" xlink:href="#DejaVuSans-48"/>
       <use x="190.869141" xlink:href="#DejaVuSans-48"/>
      </g>
     </g>
    </g>
    <g id="ytick_4">
     <g id="line2d_13">
      <path clip-path="url(#p0663c47ccf)" d="M 90 172.247899 
L 648 172.247899 
" style="fill:none;stroke:#ffffff;stroke-linecap:round;"/>
     </g>
     <g id="text_13">
      <!-- 1500 -->
      <g style="fill:#262626;" transform="translate(52.505 176.42704)scale(0.11 -0.11)">
       <use xlink:href="#DejaVuSans-49"/>
       <use x="63.623047" xlink:href="#DejaVuSans-53"/>
       <use x="127.246094" xlink:href="#DejaVuSans-48"/>
       <use x="190.869141" xlink:href="#DejaVuSans-48"/>
      </g>
     </g>
    </g>
    <g id="ytick_5">
     <g id="line2d_14">
      <path clip-path="url(#p0663c47ccf)" d="M 90 124.663866 
L 648 124.663866 
" style="fill:none;stroke:#ffffff;stroke-linecap:round;"/>
     </g>
     <g id="text_14">
      <!-- 2000 -->
      <g style="fill:#262626;" transform="translate(52.505 128.843006)scale(0.11 -0.11)">
       <use xlink:href="#DejaVuSans-50"/>
       <use x="63.623047" xlink:href="#DejaVuSans-48"/>
       <use x="127.246094" xlink:href="#DejaVuSans-48"/>
       <use x="190.869141" xlink:href="#DejaVuSans-48"/>
      </g>
     </g>
    </g>
    <g id="ytick_6">
     <g id="line2d_15">
      <path clip-path="url(#p0663c47ccf)" d="M 90 77.079832 
L 648 77.079832 
" style="fill:none;stroke:#ffffff;stroke-linecap:round;"/>
     </g>
     <g id="text_15">
      <!-- 2500 -->
      <g style="fill:#262626;" transform="translate(52.505 81.258973)scale(0.11 -0.11)">
       <use xlink:href="#DejaVuSans-50"/>
       <use x="63.623047" xlink:href="#DejaVuSans-53"/>
       <use x="127.246094" xlink:href="#DejaVuSans-48"/>
       <use x="190.869141" xlink:href="#DejaVuSans-48"/>
      </g>
     </g>
    </g>
    <g id="text_16">
     <!-- Count -->
     <defs>
      <path d="M 64.40625 67.28125 
L 64.40625 56.890625 
Q 59.421875 61.53125 53.78125 63.8125 
Q 48.140625 66.109375 41.796875 66.109375 
Q 29.296875 66.109375 22.65625 58.46875 
Q 16.015625 50.828125 16.015625 36.375 
Q 16.015625 21.96875 22.65625 14.328125 
Q 29.296875 6.6875 41.796875 6.6875 
Q 48.140625 6.6875 53.78125 8.984375 
Q 59.421875 11.28125 64.40625 15.921875 
L 64.40625 5.609375 
Q 59.234375 2.09375 53.4375 0.328125 
Q 47.65625 -1.421875 41.21875 -1.421875 
Q 24.65625 -1.421875 15.125 8.703125 
Q 5.609375 18.84375 5.609375 36.375 
Q 5.609375 53.953125 15.125 64.078125 
Q 24.65625 74.21875 41.21875 74.21875 
Q 47.75 74.21875 53.53125 72.484375 
Q 59.328125 70.75 64.40625 67.28125 
z
" id="DejaVuSans-67"/>
      <path d="M 30.609375 48.390625 
Q 23.390625 48.390625 19.1875 42.75 
Q 14.984375 37.109375 14.984375 27.296875 
Q 14.984375 17.484375 19.15625 11.84375 
Q 23.34375 6.203125 30.609375 6.203125 
Q 37.796875 6.203125 41.984375 11.859375 
Q 46.1875 17.53125 46.1875 27.296875 
Q 46.1875 37.015625 41.984375 42.703125 
Q 37.796875 48.390625 30.609375 48.390625 
z
M 30.609375 56 
Q 42.328125 56 49.015625 48.375 
Q 55.71875 40.765625 55.71875 27.296875 
Q 55.71875 13.875 49.015625 6.21875 
Q 42.328125 -1.421875 30.609375 -1.421875 
Q 18.84375 -1.421875 12.171875 6.21875 
Q 5.515625 13.875 5.515625 27.296875 
Q 5.515625 40.765625 12.171875 48.375 
Q 18.84375 56 30.609375 56 
z
" id="DejaVuSans-111"/>
      <path d="M 8.5 21.578125 
L 8.5 54.6875 
L 17.484375 54.6875 
L 17.484375 21.921875 
Q 17.484375 14.15625 20.5 10.265625 
Q 23.53125 6.390625 29.59375 6.390625 
Q 36.859375 6.390625 41.078125 11.03125 
Q 45.3125 15.671875 45.3125 23.6875 
L 45.3125 54.6875 
L 54.296875 54.6875 
L 54.296875 0 
L 45.3125 0 
L 45.3125 8.40625 
Q 42.046875 3.421875 37.71875 1 
Q 33.40625 -1.421875 27.6875 -1.421875 
Q 18.265625 -1.421875 13.375 4.4375 
Q 8.5 10.296875 8.5 21.578125 
z
M 31.109375 56 
z
" id="DejaVuSans-117"/>
      <path d="M 54.890625 33.015625 
L 54.890625 0 
L 45.90625 0 
L 45.90625 32.71875 
Q 45.90625 40.484375 42.875 44.328125 
Q 39.84375 48.1875 33.796875 48.1875 
Q 26.515625 48.1875 22.3125 43.546875 
Q 18.109375 38.921875 18.109375 30.90625 
L 18.109375 0 
L 9.078125 0 
L 9.078125 54.6875 
L 18.109375 54.6875 
L 18.109375 46.1875 
Q 21.34375 51.125 25.703125 53.5625 
Q 30.078125 56 35.796875 56 
Q 45.21875 56 50.046875 50.171875 
Q 54.890625 44.34375 54.890625 33.015625 
z
" id="DejaVuSans-110"/>
      <path d="M 18.3125 70.21875 
L 18.3125 54.6875 
L 36.8125 54.6875 
L 36.8125 47.703125 
L 18.3125 47.703125 
L 18.3125 18.015625 
Q 18.3125 11.328125 20.140625 9.421875 
Q 21.96875 7.515625 27.59375 7.515625 
L 36.8125 7.515625 
L 36.8125 0 
L 27.59375 0 
Q 17.1875 0 13.234375 3.875 
Q 9.28125 7.765625 9.28125 18.015625 
L 9.28125 47.703125 
L 2.6875 47.703125 
L 2.6875 54.6875 
L 9.28125 54.6875 
L 9.28125 70.21875 
z
" id="DejaVuSans-116"/>
     </defs>
     <g style="fill:#262626;" transform="translate(46.009375 196.918125)rotate(-90)scale(0.12 -0.12)">
      <use xlink:href="#DejaVuSans-67"/>
      <use x="69.824219" xlink:href="#DejaVuSans-111"/>
      <use x="131.005859" xlink:href="#DejaVuSans-117"/>
      <use x="194.384766" xlink:href="#DejaVuSans-110"/>
      <use x="257.763672" xlink:href="#DejaVuSans-116"/>
     </g>
    </g>
   </g>
   <g id="patch_3">
    <path clip-path="url(#p0663c47ccf)" d="M 202.180425 315 
L 209.661829 315 
L 209.661829 314.714496 
L 202.180425 314.714496 
z
" style="fill:#4c72b0;fill-opacity:0.75;stroke:#ffffff;stroke-linejoin:miter;stroke-width:0.745989;"/>
   </g>
   <g id="patch_4">
    <path clip-path="url(#p0663c47ccf)" d="M 209.661829 315 
L 217.143234 315 
L 217.143234 314.52416 
L 209.661829 314.52416 
z
" style="fill:#4c72b0;fill-opacity:0.75;stroke:#ffffff;stroke-linejoin:miter;stroke-width:0.745989;"/>
   </g>
   <g id="patch_5">
    <path clip-path="url(#p0663c47ccf)" d="M 217.143234 315 
L 224.624638 315 
L 224.624638 313.572479 
L 217.143234 313.572479 
z
" style="fill:#4c72b0;fill-opacity:0.75;stroke:#ffffff;stroke-linejoin:miter;stroke-width:0.745989;"/>
   </g>
   <g id="patch_6">
    <path clip-path="url(#p0663c47ccf)" d="M 224.624638 315 
L 232.106042 315 
L 232.106042 313.001471 
L 224.624638 313.001471 
z
" style="fill:#4c72b0;fill-opacity:0.75;stroke:#ffffff;stroke-linejoin:miter;stroke-width:0.745989;"/>
   </g>
   <g id="patch_7">
    <path clip-path="url(#p0663c47ccf)" d="M 232.106042 315 
L 239.587447 315 
L 239.587447 309.670588 
L 232.106042 309.670588 
z
" style="fill:#4c72b0;fill-opacity:0.75;stroke:#ffffff;stroke-linejoin:miter;stroke-width:0.745989;"/>
   </g>
   <g id="patch_8">
    <path clip-path="url(#p0663c47ccf)" d="M 239.587447 315 
L 247.068851 315 
L 247.068851 303.484664 
L 239.587447 303.484664 
z
" style="fill:#4c72b0;fill-opacity:0.75;stroke:#ffffff;stroke-linejoin:miter;stroke-width:0.745989;"/>
   </g>
   <g id="patch_9">
    <path clip-path="url(#p0663c47ccf)" d="M 247.068851 315 
L 254.550255 315 
L 254.550255 293.682353 
L 247.068851 293.682353 
z
" style="fill:#4c72b0;fill-opacity:0.75;stroke:#ffffff;stroke-linejoin:miter;stroke-width:0.745989;"/>
   </g>
   <g id="patch_10">
    <path clip-path="url(#p0663c47ccf)" d="M 254.550255 315 
L 262.03166 315 
L 262.03166 275.981092 
L 254.550255 275.981092 
z
" style="fill:#4c72b0;fill-opacity:0.75;stroke:#ffffff;stroke-linejoin:miter;stroke-width:0.745989;"/>
   </g>
   <g id="patch_11">
    <path clip-path="url(#p0663c47ccf)" d="M 262.03166 315 
L 269.513064 315 
L 269.513064 249.714706 
L 262.03166 249.714706 
z
" style="fill:#4c72b0;fill-opacity:0.75;stroke:#ffffff;stroke-linejoin:miter;stroke-width:0.745989;"/>
   </g>
   <g id="patch_12">
    <path clip-path="url(#p0663c47ccf)" d="M 269.513064 315 
L 276.994468 315 
L 276.994468 221.735294 
L 269.513064 221.735294 
z
" style="fill:#4c72b0;fill-opacity:0.75;stroke:#ffffff;stroke-linejoin:miter;stroke-width:0.745989;"/>
   </g>
   <g id="patch_13">
    <path clip-path="url(#p0663c47ccf)" d="M 276.994468 315 
L 284.475872 315 
L 284.475872 185.285924 
L 276.994468 185.285924 
z
" style="fill:#4c72b0;fill-opacity:0.75;stroke:#ffffff;stroke-linejoin:miter;stroke-width:0.745989;"/>
   </g>
   <g id="patch_14">
    <path clip-path="url(#p0663c47ccf)" d="M 284.475872 315 
L 291.957277 315 
L 291.957277 146.076681 
L 284.475872 146.076681 
z
" style="fill:#4c72b0;fill-opacity:0.75;stroke:#ffffff;stroke-linejoin:miter;stroke-width:0.745989;"/>
   </g>
   <g id="patch_15">
    <path clip-path="url(#p0663c47ccf)" d="M 291.957277 315 
L 299.438681 315 
L 299.438681 100.30084 
L 291.957277 100.30084 
z
" style="fill:#4c72b0;fill-opacity:0.75;stroke:#ffffff;stroke-linejoin:miter;stroke-width:0.745989;"/>
   </g>
   <g id="patch_16">
    <path clip-path="url(#p0663c47ccf)" d="M 299.438681 315 
L 306.920085 315 
L 306.920085 63.661134 
L 299.438681 63.661134 
z
" style="fill:#4c72b0;fill-opacity:0.75;stroke:#ffffff;stroke-linejoin:miter;stroke-width:0.745989;"/>
   </g>
   <g id="patch_17">
    <path clip-path="url(#p0663c47ccf)" d="M 306.920085 315 
L 314.40149 315 
L 314.40149 60.806092 
L 306.920085 60.806092 
z
" style="fill:#4c72b0;fill-opacity:0.75;stroke:#ffffff;stroke-linejoin:miter;stroke-width:0.745989;"/>
   </g>
   <g id="patch_18">
    <path clip-path="url(#p0663c47ccf)" d="M 314.40149 315 
L 321.882894 315 
L 321.882894 56.142857 
L 314.40149 56.142857 
z
" style="fill:#4c72b0;fill-opacity:0.75;stroke:#ffffff;stroke-linejoin:miter;stroke-width:0.745989;"/>
   </g>
   <g id="patch_19">
    <path clip-path="url(#p0663c47ccf)" d="M 321.882894 315 
L 329.364298 315 
L 329.364298 68.895378 
L 321.882894 68.895378 
z
" style="fill:#4c72b0;fill-opacity:0.75;stroke:#ffffff;stroke-linejoin:miter;stroke-width:0.745989;"/>
   </g>
   <g id="patch_20">
    <path clip-path="url(#p0663c47ccf)" d="M 329.364298 315 
L 336.845703 315 
L 336.845703 100.586345 
L 329.364298 100.586345 
z
" style="fill:#4c72b0;fill-opacity:0.75;stroke:#ffffff;stroke-linejoin:miter;stroke-width:0.745989;"/>
   </g>
   <g id="patch_21">
    <path clip-path="url(#p0663c47ccf)" d="M 336.845703 315 
L 344.327107 315 
L 344.327107 135.417857 
L 336.845703 135.417857 
z
" style="fill:#4c72b0;fill-opacity:0.75;stroke:#ffffff;stroke-linejoin:miter;stroke-width:0.745989;"/>
   </g>
   <g id="patch_22">
    <path clip-path="url(#p0663c47ccf)" d="M 344.327107 315 
L 351.808511 315 
L 351.808511 168.155672 
L 344.327107 168.155672 
z
" style="fill:#4c72b0;fill-opacity:0.75;stroke:#ffffff;stroke-linejoin:miter;stroke-width:0.745989;"/>
   </g>
   <g id="patch_23">
    <path clip-path="url(#p0663c47ccf)" d="M 351.808511 315 
L 359.289915 315 
L 359.289915 201.75 
L 351.808511 201.75 
z
" style="fill:#4c72b0;fill-opacity:0.75;stroke:#ffffff;stroke-linejoin:miter;stroke-width:0.745989;"/>
   </g>
   <g id="patch_24">
    <path clip-path="url(#p0663c47ccf)" d="M 359.289915 315 
L 366.77132 315 
L 366.77132 223.257983 
L 359.289915 223.257983 
z
" style="fill:#4c72b0;fill-opacity:0.75;stroke:#ffffff;stroke-linejoin:miter;stroke-width:0.745989;"/>
   </g>
   <g id="patch_25">
    <path clip-path="url(#p0663c47ccf)" d="M 366.77132 315 
L 374.252724 315 
L 374.252724 239.055882 
L 366.77132 239.055882 
z
" style="fill:#4c72b0;fill-opacity:0.75;stroke:#ffffff;stroke-linejoin:miter;stroke-width:0.745989;"/>
   </g>
   <g id="patch_26">
    <path clip-path="url(#p0663c47ccf)" d="M 374.252724 315 
L 381.734128 315 
L 381.734128 247.240336 
L 374.252724 247.240336 
z
" style="fill:#4c72b0;fill-opacity:0.75;stroke:#ffffff;stroke-linejoin:miter;stroke-width:0.745989;"/>
   </g>
   <g id="patch_27">
    <path clip-path="url(#p0663c47ccf)" d="M 381.734128 315 
L 389.215533 315 
L 389.215533 242.196429 
L 381.734128 242.196429 
z
" style="fill:#4c72b0;fill-opacity:0.75;stroke:#ffffff;stroke-linejoin:miter;stroke-width:0.745989;"/>
   </g>
   <g id="patch_28">
    <path clip-path="url(#p0663c47ccf)" d="M 389.215533 315 
L 396.696937 315 
L 396.696937 238.19937 
L 389.215533 238.19937 
z
" style="fill:#4c72b0;fill-opacity:0.75;stroke:#ffffff;stroke-linejoin:miter;stroke-width:0.745989;"/>
   </g>
   <g id="patch_29">
    <path clip-path="url(#p0663c47ccf)" d="M 396.696937 315 
L 404.178341 315 
L 404.178341 225.351681 
L 396.696937 225.351681 
z
" style="fill:#4c72b0;fill-opacity:0.75;stroke:#ffffff;stroke-linejoin:miter;stroke-width:0.745989;"/>
   </g>
   <g id="patch_30">
    <path clip-path="url(#p0663c47ccf)" d="M 404.178341 315 
L 411.659746 315 
L 411.659746 217.643067 
L 404.178341 217.643067 
z
" style="fill:#4c72b0;fill-opacity:0.75;stroke:#ffffff;stroke-linejoin:miter;stroke-width:0.745989;"/>
   </g>
   <g id="patch_31">
    <path clip-path="url(#p0663c47ccf)" d="M 411.659746 315 
L 419.14115 315 
L 419.14115 215.073529 
L 411.659746 215.073529 
z
" style="fill:#4c72b0;fill-opacity:0.75;stroke:#ffffff;stroke-linejoin:miter;stroke-width:0.745989;"/>
   </g>
   <g id="patch_32">
    <path clip-path="url(#p0663c47ccf)" d="M 419.14115 315 
L 426.622554 315 
L 426.622554 206.032563 
L 419.14115 206.032563 
z
" style="fill:#4c72b0;fill-opacity:0.75;stroke:#ffffff;stroke-linejoin:miter;stroke-width:0.745989;"/>
   </g>
   <g id="patch_33">
    <path clip-path="url(#p0663c47ccf)" d="M 426.622554 315 
L 434.103958 315 
L 434.103958 196.801261 
L 426.622554 196.801261 
z
" style="fill:#4c72b0;fill-opacity:0.75;stroke:#ffffff;stroke-linejoin:miter;stroke-width:0.745989;"/>
   </g>
   <g id="patch_34">
    <path clip-path="url(#p0663c47ccf)" d="M 434.103958 315 
L 441.585363 315 
L 441.585363 191.757353 
L 434.103958 191.757353 
z
" style="fill:#4c72b0;fill-opacity:0.75;stroke:#ffffff;stroke-linejoin:miter;stroke-width:0.745989;"/>
   </g>
   <g id="patch_35">
    <path clip-path="url(#p0663c47ccf)" d="M 441.585363 315 
L 449.066767 315 
L 449.066767 187.855462 
L 441.585363 187.855462 
z
" style="fill:#4c72b0;fill-opacity:0.75;stroke:#ffffff;stroke-linejoin:miter;stroke-width:0.745989;"/>
   </g>
   <g id="patch_36">
    <path clip-path="url(#p0663c47ccf)" d="M 449.066767 315 
L 456.548171 315 
L 456.548171 187.569958 
L 449.066767 187.569958 
z
" style="fill:#4c72b0;fill-opacity:0.75;stroke:#ffffff;stroke-linejoin:miter;stroke-width:0.745989;"/>
   </g>
   <g id="patch_37">
    <path clip-path="url(#p0663c47ccf)" d="M 456.548171 315 
L 464.029576 315 
L 464.029576 191.091176 
L 456.548171 191.091176 
z
" style="fill:#4c72b0;fill-opacity:0.75;stroke:#ffffff;stroke-linejoin:miter;stroke-width:0.745989;"/>
   </g>
   <g id="patch_38">
    <path clip-path="url(#p0663c47ccf)" d="M 464.029576 315 
L 471.51098 315 
L 471.51098 189.473319 
L 464.029576 189.473319 
z
" style="fill:#4c72b0;fill-opacity:0.75;stroke:#ffffff;stroke-linejoin:miter;stroke-width:0.745989;"/>
   </g>
   <g id="patch_39">
    <path clip-path="url(#p0663c47ccf)" d="M 471.51098 315 
L 478.992384 315 
L 478.992384 200.607983 
L 471.51098 200.607983 
z
" style="fill:#4c72b0;fill-opacity:0.75;stroke:#ffffff;stroke-linejoin:miter;stroke-width:0.745989;"/>
   </g>
   <g id="patch_40">
    <path clip-path="url(#p0663c47ccf)" d="M 478.992384 315 
L 486.473789 315 
L 486.473789 206.032563 
L 478.992384 206.032563 
z
" style="fill:#4c72b0;fill-opacity:0.75;stroke:#ffffff;stroke-linejoin:miter;stroke-width:0.745989;"/>
   </g>
   <g id="patch_41">
    <path clip-path="url(#p0663c47ccf)" d="M 486.473789 315 
L 493.955193 315 
L 493.955193 210.790966 
L 486.473789 210.790966 
z
" style="fill:#4c72b0;fill-opacity:0.75;stroke:#ffffff;stroke-linejoin:miter;stroke-width:0.745989;"/>
   </g>
   <g id="patch_42">
    <path clip-path="url(#p0663c47ccf)" d="M 493.955193 315 
L 501.436597 315 
L 501.436597 219.736765 
L 493.955193 219.736765 
z
" style="fill:#4c72b0;fill-opacity:0.75;stroke:#ffffff;stroke-linejoin:miter;stroke-width:0.745989;"/>
   </g>
   <g id="patch_43">
    <path clip-path="url(#p0663c47ccf)" d="M 501.436597 315 
L 508.918001 315 
L 508.918001 230.776261 
L 501.436597 230.776261 
z
" style="fill:#4c72b0;fill-opacity:0.75;stroke:#ffffff;stroke-linejoin:miter;stroke-width:0.745989;"/>
   </g>
   <g id="patch_44">
    <path clip-path="url(#p0663c47ccf)" d="M 508.918001 315 
L 516.399406 315 
L 516.399406 240.293067 
L 508.918001 240.293067 
z
" style="fill:#4c72b0;fill-opacity:0.75;stroke:#ffffff;stroke-linejoin:miter;stroke-width:0.745989;"/>
   </g>
   <g id="patch_45">
    <path clip-path="url(#p0663c47ccf)" d="M 516.399406 315 
L 523.88081 315 
L 523.88081 254.663445 
L 516.399406 254.663445 
z
" style="fill:#4c72b0;fill-opacity:0.75;stroke:#ffffff;stroke-linejoin:miter;stroke-width:0.745989;"/>
   </g>
   <g id="patch_46">
    <path clip-path="url(#p0663c47ccf)" d="M 523.88081 315 
L 531.362214 315 
L 531.362214 267.035294 
L 523.88081 267.035294 
z
" style="fill:#4c72b0;fill-opacity:0.75;stroke:#ffffff;stroke-linejoin:miter;stroke-width:0.745989;"/>
   </g>
   <g id="patch_47">
    <path clip-path="url(#p0663c47ccf)" d="M 531.362214 315 
L 538.843619 315 
L 538.843619 274.458403 
L 531.362214 274.458403 
z
" style="fill:#4c72b0;fill-opacity:0.75;stroke:#ffffff;stroke-linejoin:miter;stroke-width:0.745989;"/>
   </g>
   <g id="patch_48">
    <path clip-path="url(#p0663c47ccf)" d="M 538.843619 315 
L 546.325023 315 
L 546.325023 276.837605 
L 538.843619 276.837605 
z
" style="fill:#4c72b0;fill-opacity:0.75;stroke:#ffffff;stroke-linejoin:miter;stroke-width:0.745989;"/>
   </g>
   <g id="patch_49">
    <path clip-path="url(#p0663c47ccf)" d="M 546.325023 315 
L 553.806427 315 
L 553.806427 283.97521 
L 546.325023 283.97521 
z
" style="fill:#4c72b0;fill-opacity:0.75;stroke:#ffffff;stroke-linejoin:miter;stroke-width:0.745989;"/>
   </g>
   <g id="patch_50">
    <path clip-path="url(#p0663c47ccf)" d="M 553.806427 315 
L 561.287832 315 
L 561.287832 291.493487 
L 553.806427 291.493487 
z
" style="fill:#4c72b0;fill-opacity:0.75;stroke:#ffffff;stroke-linejoin:miter;stroke-width:0.745989;"/>
   </g>
   <g id="patch_51">
    <path clip-path="url(#p0663c47ccf)" d="M 561.287832 315 
L 568.769236 315 
L 568.769236 298.155252 
L 561.287832 298.155252 
z
" style="fill:#4c72b0;fill-opacity:0.75;stroke:#ffffff;stroke-linejoin:miter;stroke-width:0.745989;"/>
   </g>
   <g id="patch_52">
    <path clip-path="url(#p0663c47ccf)" d="M 568.769236 315 
L 576.25064 315 
L 576.25064 299.582773 
L 568.769236 299.582773 
z
" style="fill:#4c72b0;fill-opacity:0.75;stroke:#ffffff;stroke-linejoin:miter;stroke-width:0.745989;"/>
   </g>
   <g id="patch_53">
    <path clip-path="url(#p0663c47ccf)" d="M 576.25064 315 
L 583.732044 315 
L 583.732044 305.102521 
L 576.25064 305.102521 
z
" style="fill:#4c72b0;fill-opacity:0.75;stroke:#ffffff;stroke-linejoin:miter;stroke-width:0.745989;"/>
   </g>
   <g id="patch_54">
    <path clip-path="url(#p0663c47ccf)" d="M 583.732044 315 
L 591.213449 315 
L 591.213449 307.576891 
L 583.732044 307.576891 
z
" style="fill:#4c72b0;fill-opacity:0.75;stroke:#ffffff;stroke-linejoin:miter;stroke-width:0.745989;"/>
   </g>
   <g id="patch_55">
    <path clip-path="url(#p0663c47ccf)" d="M 591.213449 315 
L 598.694853 315 
L 598.694853 308.052731 
L 591.213449 308.052731 
z
" style="fill:#4c72b0;fill-opacity:0.75;stroke:#ffffff;stroke-linejoin:miter;stroke-width:0.745989;"/>
   </g>
   <g id="patch_56">
    <path clip-path="url(#p0663c47ccf)" d="M 598.694853 315 
L 606.176257 315 
L 606.176257 312.335294 
L 598.694853 312.335294 
z
" style="fill:#4c72b0;fill-opacity:0.75;stroke:#ffffff;stroke-linejoin:miter;stroke-width:0.745989;"/>
   </g>
   <g id="patch_57">
    <path clip-path="url(#p0663c47ccf)" d="M 606.176257 315 
L 613.657662 315 
L 613.657662 312.04979 
L 606.176257 312.04979 
z
" style="fill:#4c72b0;fill-opacity:0.75;stroke:#ffffff;stroke-linejoin:miter;stroke-width:0.745989;"/>
   </g>
   <g id="patch_58">
    <path clip-path="url(#p0663c47ccf)" d="M 613.657662 315 
L 621.139066 315 
L 621.139066 312.811134 
L 613.657662 312.811134 
z
" style="fill:#4c72b0;fill-opacity:0.75;stroke:#ffffff;stroke-linejoin:miter;stroke-width:0.745989;"/>
   </g>
   <g id="patch_59">
    <path clip-path="url(#p0663c47ccf)" d="M 621.139066 315 
L 628.62047 315 
L 628.62047 313.667647 
L 621.139066 313.667647 
z
" style="fill:#4c72b0;fill-opacity:0.75;stroke:#ffffff;stroke-linejoin:miter;stroke-width:0.745989;"/>
   </g>
   <g id="patch_60">
    <path clip-path="url(#p0663c47ccf)" d="M 628.62047 315 
L 636.101875 315 
L 636.101875 314.048319 
L 628.62047 314.048319 
z
" style="fill:#4c72b0;fill-opacity:0.75;stroke:#ffffff;stroke-linejoin:miter;stroke-width:0.745989;"/>
   </g>
   <g id="patch_61">
    <path clip-path="url(#p0663c47ccf)" d="M 636.101875 315 
L 643.583279 315 
L 643.583279 314.428992 
L 636.101875 314.428992 
z
" style="fill:#4c72b0;fill-opacity:0.75;stroke:#ffffff;stroke-linejoin:miter;stroke-width:0.745989;"/>
   </g>
   <g id="patch_62">
    <path clip-path="url(#p0663c47ccf)" d="M 643.583279 315 
L 651.064683 315 
L 651.064683 314.714496 
L 643.583279 314.714496 
z
" style="fill:#4c72b0;fill-opacity:0.75;stroke:#ffffff;stroke-linejoin:miter;stroke-width:0.745989;"/>
   </g>
   <g id="patch_63">
    <path clip-path="url(#p0663c47ccf)" d="M 651.064683 315 
L 658.546087 315 
L 658.546087 314.904832 
L 651.064683 314.904832 
z
" style="fill:#4c72b0;fill-opacity:0.75;stroke:#ffffff;stroke-linejoin:miter;stroke-width:0.745989;"/>
   </g>
   <g id="patch_64">
    <path clip-path="url(#p0663c47ccf)" d="M 658.546087 315 
L 666.027492 315 
L 666.027492 314.904832 
L 658.546087 314.904832 
z
" style="fill:#4c72b0;fill-opacity:0.75;stroke:#ffffff;stroke-linejoin:miter;stroke-width:0.745989;"/>
   </g>
   <g id="patch_65">
    <path clip-path="url(#p0663c47ccf)" d="M 666.027492 315 
L 673.508896 315 
L 673.508896 315 
L 666.027492 315 
z
" style="fill:#4c72b0;fill-opacity:0.75;stroke:#ffffff;stroke-linejoin:miter;stroke-width:0.745989;"/>
   </g>
   <g id="patch_66">
    <path clip-path="url(#p0663c47ccf)" d="M 673.508896 315 
L 680.9903 315 
L 680.9903 315 
L 673.508896 315 
z
" style="fill:#4c72b0;fill-opacity:0.75;stroke:#ffffff;stroke-linejoin:miter;stroke-width:0.745989;"/>
   </g>
   <g id="patch_67">
    <path clip-path="url(#p0663c47ccf)" d="M 680.9903 315 
L 688.471705 315 
L 688.471705 315 
L 680.9903 315 
z
" style="fill:#4c72b0;fill-opacity:0.75;stroke:#ffffff;stroke-linejoin:miter;stroke-width:0.745989;"/>
   </g>
   <g id="patch_68">
    <path clip-path="url(#p0663c47ccf)" d="M 688.471705 315 
L 695.953109 315 
L 695.953109 315 
L 688.471705 315 
z
" style="fill:#4c72b0;fill-opacity:0.75;stroke:#ffffff;stroke-linejoin:miter;stroke-width:0.745989;"/>
   </g>
   <g id="patch_69">
    <path clip-path="url(#p0663c47ccf)" d="M 695.953109 315 
L 703.434513 315 
L 703.434513 315 
L 695.953109 315 
z
" style="fill:#4c72b0;fill-opacity:0.75;stroke:#ffffff;stroke-linejoin:miter;stroke-width:0.745989;"/>
   </g>
   <g id="patch_70">
    <path clip-path="url(#p0663c47ccf)" d="M 703.434513 315 
L 710.915918 315 
L 710.915918 314.904832 
L 703.434513 314.904832 
z
" style="fill:#4c72b0;fill-opacity:0.75;stroke:#ffffff;stroke-linejoin:miter;stroke-width:0.745989;"/>
   </g>
   <g id="patch_71">
    <path d="M 90 315 
L 90 43.2 
" style="fill:none;stroke:#ffffff;stroke-linecap:square;stroke-linejoin:miter;stroke-width:1.25;"/>
   </g>
   <g id="patch_72">
    <path d="M 648 315 
L 648 43.2 
" style="fill:none;stroke:#ffffff;stroke-linecap:square;stroke-linejoin:miter;stroke-width:1.25;"/>
   </g>
   <g id="patch_73">
    <path d="M 90 315 
L 648 315 
" style="fill:none;stroke:#ffffff;stroke-linecap:square;stroke-linejoin:miter;stroke-width:1.25;"/>
   </g>
   <g id="patch_74">
    <path d="M 90 43.2 
L 648 43.2 
" style="fill:none;stroke:#ffffff;stroke-linecap:square;stroke-linejoin:miter;stroke-width:1.25;"/>
   </g>
  </g>
 </g>
 <defs>
  <clipPath id="p0663c47ccf">
   <rect height="271.8" width="558" x="90" y="43.2"/>
  </clipPath>
 </defs>
</svg>
