<?xml version="1.0" encoding="utf-8" standalone="no"?>
<!DOCTYPE svg PUBLIC "-//W3C//DTD SVG 1.1//EN"
  "http://www.w3.org/Graphics/SVG/1.1/DTD/svg11.dtd">
<!-- Created with matplotlib (https://matplotlib.org/) -->
<svg height="358.56pt" version="1.1" viewBox="0 0 584.64 358.56" width="584.64pt" xmlns="http://www.w3.org/2000/svg" xmlns:xlink="http://www.w3.org/1999/xlink">
 <metadata>
  <rdf:RDF xmlns:cc="http://creativecommons.org/ns#" xmlns:dc="http://purl.org/dc/elements/1.1/" xmlns:rdf="http://www.w3.org/1999/02/22-rdf-syntax-ns#">
   <cc:Work>
    <dc:type rdf:resource="http://purl.org/dc/dcmitype/StillImage"/>
    <dc:date>2021-05-17T13:39:58.130375</dc:date>
    <dc:format>image/svg+xml</dc:format>
    <dc:creator>
     <cc:Agent>
      <dc:title>Matplotlib v3.3.4, https://matplotlib.org/</dc:title>
     </cc:Agent>
    </dc:creator>
   </cc:Work>
  </rdf:RDF>
 </metadata>
 <defs>
  <style type="text/css">*{stroke-linecap:butt;stroke-linejoin:round;}</style>
 </defs>
 <g id="figure_1">
  <g id="patch_1">
   <path d="M 0 358.56 
L 584.64 358.56 
L 584.64 0 
L 0 0 
z
" style="fill:#ffffff;"/>
  </g>
  <g id="axes_1">
   <g id="patch_2">
    <path d="M 58.52 312.28 
L 573.84 312.28 
L 573.84 10.8 
L 58.52 10.8 
z
" style="fill:#ffffff;"/>
   </g>
   <g id="matplotlib.axis_1">
    <g id="xtick_1">
     <g id="line2d_1">
      <defs>
       <path d="M 0 0 
L 0 3.5 
" id="mdd93f97313" style="stroke:#000000;stroke-width:0.8;"/>
      </defs>
      <g>
       <use style="stroke:#000000;stroke-width:0.8;" x="81.943636" xlink:href="#mdd93f97313" y="312.28"/>
      </g>
     </g>
     <g id="text_1">
      <!-- −4 -->
      <g transform="translate(74.572543 326.878438)scale(0.1 -0.1)">
       <defs>
        <path d="M 10.59375 35.5 
L 73.1875 35.5 
L 73.1875 27.203125 
L 10.59375 27.203125 
z
" id="DejaVuSans-8722"/>
        <path d="M 37.796875 64.3125 
L 12.890625 25.390625 
L 37.796875 25.390625 
z
M 35.203125 72.90625 
L 47.609375 72.90625 
L 47.609375 25.390625 
L 58.015625 25.390625 
L 58.015625 17.1875 
L 47.609375 17.1875 
L 47.609375 0 
L 37.796875 0 
L 37.796875 17.1875 
L 4.890625 17.1875 
L 4.890625 26.703125 
z
" id="DejaVuSans-52"/>
       </defs>
       <use xlink:href="#DejaVuSans-8722"/>
       <use x="83.789062" xlink:href="#DejaVuSans-52"/>
      </g>
     </g>
    </g>
    <g id="xtick_2">
     <g id="line2d_2">
      <g>
       <use style="stroke:#000000;stroke-width:0.8;" x="140.502727" xlink:href="#mdd93f97313" y="312.28"/>
      </g>
     </g>
     <g id="text_2">
      <!-- −3 -->
      <g transform="translate(133.131634 326.878438)scale(0.1 -0.1)">
       <defs>
        <path d="M 40.578125 39.3125 
Q 47.65625 37.796875 51.625 33 
Q 55.609375 28.21875 55.609375 21.1875 
Q 55.609375 10.40625 48.1875 4.484375 
Q 40.765625 -1.421875 27.09375 -1.421875 
Q 22.515625 -1.421875 17.65625 -0.515625 
Q 12.796875 0.390625 7.625 2.203125 
L 7.625 11.71875 
Q 11.71875 9.328125 16.59375 8.109375 
Q 21.484375 6.890625 26.8125 6.890625 
Q 36.078125 6.890625 40.9375 10.546875 
Q 45.796875 14.203125 45.796875 21.1875 
Q 45.796875 27.640625 41.28125 31.265625 
Q 36.765625 34.90625 28.71875 34.90625 
L 20.21875 34.90625 
L 20.21875 43.015625 
L 29.109375 43.015625 
Q 36.375 43.015625 40.234375 45.921875 
Q 44.09375 48.828125 44.09375 54.296875 
Q 44.09375 59.90625 40.109375 62.90625 
Q 36.140625 65.921875 28.71875 65.921875 
Q 24.65625 65.921875 20.015625 65.03125 
Q 15.375 64.15625 9.8125 62.3125 
L 9.8125 71.09375 
Q 15.4375 72.65625 20.34375 73.4375 
Q 25.25 74.21875 29.59375 74.21875 
Q 40.828125 74.21875 47.359375 69.109375 
Q 53.90625 64.015625 53.90625 55.328125 
Q 53.90625 49.265625 50.4375 45.09375 
Q 46.96875 40.921875 40.578125 39.3125 
z
" id="DejaVuSans-51"/>
       </defs>
       <use xlink:href="#DejaVuSans-8722"/>
       <use x="83.789062" xlink:href="#DejaVuSans-51"/>
      </g>
     </g>
    </g>
    <g id="xtick_3">
     <g id="line2d_3">
      <g>
       <use style="stroke:#000000;stroke-width:0.8;" x="199.061818" xlink:href="#mdd93f97313" y="312.28"/>
      </g>
     </g>
     <g id="text_3">
      <!-- −2 -->
      <g transform="translate(191.690724 326.878438)scale(0.1 -0.1)">
       <defs>
        <path d="M 19.1875 8.296875 
L 53.609375 8.296875 
L 53.609375 0 
L 7.328125 0 
L 7.328125 8.296875 
Q 12.9375 14.109375 22.625 23.890625 
Q 32.328125 33.6875 34.8125 36.53125 
Q 39.546875 41.84375 41.421875 45.53125 
Q 43.3125 49.21875 43.3125 52.78125 
Q 43.3125 58.59375 39.234375 62.25 
Q 35.15625 65.921875 28.609375 65.921875 
Q 23.96875 65.921875 18.8125 64.3125 
Q 13.671875 62.703125 7.8125 59.421875 
L 7.8125 69.390625 
Q 13.765625 71.78125 18.9375 73 
Q 24.125 74.21875 28.421875 74.21875 
Q 39.75 74.21875 46.484375 68.546875 
Q 53.21875 62.890625 53.21875 53.421875 
Q 53.21875 48.921875 51.53125 44.890625 
Q 49.859375 40.875 45.40625 35.40625 
Q 44.1875 33.984375 37.640625 27.21875 
Q 31.109375 20.453125 19.1875 8.296875 
z
" id="DejaVuSans-50"/>
       </defs>
       <use xlink:href="#DejaVuSans-8722"/>
       <use x="83.789062" xlink:href="#DejaVuSans-50"/>
      </g>
     </g>
    </g>
    <g id="xtick_4">
     <g id="line2d_4">
      <g>
       <use style="stroke:#000000;stroke-width:0.8;" x="257.620909" xlink:href="#mdd93f97313" y="312.28"/>
      </g>
     </g>
     <g id="text_4">
      <!-- −1 -->
      <g transform="translate(250.249815 326.878438)scale(0.1 -0.1)">
       <defs>
        <path d="M 12.40625 8.296875 
L 28.515625 8.296875 
L 28.515625 63.921875 
L 10.984375 60.40625 
L 10.984375 69.390625 
L 28.421875 72.90625 
L 38.28125 72.90625 
L 38.28125 8.296875 
L 54.390625 8.296875 
L 54.390625 0 
L 12.40625 0 
z
" id="DejaVuSans-49"/>
       </defs>
       <use xlink:href="#DejaVuSans-8722"/>
       <use x="83.789062" xlink:href="#DejaVuSans-49"/>
      </g>
     </g>
    </g>
    <g id="xtick_5">
     <g id="line2d_5">
      <g>
       <use style="stroke:#000000;stroke-width:0.8;" x="316.18" xlink:href="#mdd93f97313" y="312.28"/>
      </g>
     </g>
     <g id="text_5">
      <!-- 0 -->
      <g transform="translate(312.99875 326.878438)scale(0.1 -0.1)">
       <defs>
        <path d="M 31.78125 66.40625 
Q 24.171875 66.40625 20.328125 58.90625 
Q 16.5 51.421875 16.5 36.375 
Q 16.5 21.390625 20.328125 13.890625 
Q 24.171875 6.390625 31.78125 6.390625 
Q 39.453125 6.390625 43.28125 13.890625 
Q 47.125 21.390625 47.125 36.375 
Q 47.125 51.421875 43.28125 58.90625 
Q 39.453125 66.40625 31.78125 66.40625 
z
M 31.78125 74.21875 
Q 44.046875 74.21875 50.515625 64.515625 
Q 56.984375 54.828125 56.984375 36.375 
Q 56.984375 17.96875 50.515625 8.265625 
Q 44.046875 -1.421875 31.78125 -1.421875 
Q 19.53125 -1.421875 13.0625 8.265625 
Q 6.59375 17.96875 6.59375 36.375 
Q 6.59375 54.828125 13.0625 64.515625 
Q 19.53125 74.21875 31.78125 74.21875 
z
" id="DejaVuSans-48"/>
       </defs>
       <use xlink:href="#DejaVuSans-48"/>
      </g>
     </g>
    </g>
    <g id="xtick_6">
     <g id="line2d_6">
      <g>
       <use style="stroke:#000000;stroke-width:0.8;" x="374.739091" xlink:href="#mdd93f97313" y="312.28"/>
      </g>
     </g>
     <g id="text_6">
      <!-- 1 -->
      <g transform="translate(371.557841 326.878438)scale(0.1 -0.1)">
       <use xlink:href="#DejaVuSans-49"/>
      </g>
     </g>
    </g>
    <g id="xtick_7">
     <g id="line2d_7">
      <g>
       <use style="stroke:#000000;stroke-width:0.8;" x="433.298182" xlink:href="#mdd93f97313" y="312.28"/>
      </g>
     </g>
     <g id="text_7">
      <!-- 2 -->
      <g transform="translate(430.116932 326.878438)scale(0.1 -0.1)">
       <use xlink:href="#DejaVuSans-50"/>
      </g>
     </g>
    </g>
    <g id="xtick_8">
     <g id="line2d_8">
      <g>
       <use style="stroke:#000000;stroke-width:0.8;" x="491.857273" xlink:href="#mdd93f97313" y="312.28"/>
      </g>
     </g>
     <g id="text_8">
      <!-- 3 -->
      <g transform="translate(488.676023 326.878438)scale(0.1 -0.1)">
       <use xlink:href="#DejaVuSans-51"/>
      </g>
     </g>
    </g>
    <g id="xtick_9">
     <g id="line2d_9">
      <g>
       <use style="stroke:#000000;stroke-width:0.8;" x="550.416364" xlink:href="#mdd93f97313" y="312.28"/>
      </g>
     </g>
     <g id="text_9">
      <!-- 4 -->
      <g transform="translate(547.235114 326.878438)scale(0.1 -0.1)">
       <use xlink:href="#DejaVuSans-52"/>
      </g>
     </g>
    </g>
    <g id="text_10">
     <!-- x -->
     <g transform="translate(311.740938 344.355781)scale(0.15 -0.15)">
      <defs>
       <path d="M 54.890625 54.6875 
L 35.109375 28.078125 
L 55.90625 0 
L 45.3125 0 
L 29.390625 21.484375 
L 13.484375 0 
L 2.875 0 
L 24.125 28.609375 
L 4.6875 54.6875 
L 15.28125 54.6875 
L 29.78125 35.203125 
L 44.28125 54.6875 
z
" id="DejaVuSans-120"/>
      </defs>
      <use xlink:href="#DejaVuSans-120"/>
     </g>
    </g>
   </g>
   <g id="matplotlib.axis_2">
    <g id="ytick_1">
     <g id="line2d_10">
      <defs>
       <path d="M 0 0 
L -3.5 0 
" id="maded8ce6e3" style="stroke:#000000;stroke-width:0.8;"/>
      </defs>
      <g>
       <use style="stroke:#000000;stroke-width:0.8;" x="58.52" xlink:href="#maded8ce6e3" y="291.874321"/>
      </g>
     </g>
     <g id="text_11">
      <!-- 0.00 -->
      <g transform="translate(29.254375 295.673539)scale(0.1 -0.1)">
       <defs>
        <path d="M 10.6875 12.40625 
L 21 12.40625 
L 21 0 
L 10.6875 0 
z
" id="DejaVuSans-46"/>
       </defs>
       <use xlink:href="#DejaVuSans-48"/>
       <use x="63.623047" xlink:href="#DejaVuSans-46"/>
       <use x="95.410156" xlink:href="#DejaVuSans-48"/>
       <use x="159.033203" xlink:href="#DejaVuSans-48"/>
      </g>
     </g>
    </g>
    <g id="ytick_2">
     <g id="line2d_11">
      <g>
       <use style="stroke:#000000;stroke-width:0.8;" x="58.52" xlink:href="#maded8ce6e3" y="258.364106"/>
      </g>
     </g>
     <g id="text_12">
      <!-- 0.05 -->
      <g transform="translate(29.254375 262.163325)scale(0.1 -0.1)">
       <defs>
        <path d="M 10.796875 72.90625 
L 49.515625 72.90625 
L 49.515625 64.59375 
L 19.828125 64.59375 
L 19.828125 46.734375 
Q 21.96875 47.46875 24.109375 47.828125 
Q 26.265625 48.1875 28.421875 48.1875 
Q 40.625 48.1875 47.75 41.5 
Q 54.890625 34.8125 54.890625 23.390625 
Q 54.890625 11.625 47.5625 5.09375 
Q 40.234375 -1.421875 26.90625 -1.421875 
Q 22.3125 -1.421875 17.546875 -0.640625 
Q 12.796875 0.140625 7.71875 1.703125 
L 7.71875 11.625 
Q 12.109375 9.234375 16.796875 8.0625 
Q 21.484375 6.890625 26.703125 6.890625 
Q 35.15625 6.890625 40.078125 11.328125 
Q 45.015625 15.765625 45.015625 23.390625 
Q 45.015625 31 40.078125 35.4375 
Q 35.15625 39.890625 26.703125 39.890625 
Q 22.75 39.890625 18.8125 39.015625 
Q 14.890625 38.140625 10.796875 36.28125 
z
" id="DejaVuSans-53"/>
       </defs>
       <use xlink:href="#DejaVuSans-48"/>
       <use x="63.623047" xlink:href="#DejaVuSans-46"/>
       <use x="95.410156" xlink:href="#DejaVuSans-48"/>
       <use x="159.033203" xlink:href="#DejaVuSans-53"/>
      </g>
     </g>
    </g>
    <g id="ytick_3">
     <g id="line2d_12">
      <g>
       <use style="stroke:#000000;stroke-width:0.8;" x="58.52" xlink:href="#maded8ce6e3" y="224.853892"/>
      </g>
     </g>
     <g id="text_13">
      <!-- 0.10 -->
      <g transform="translate(29.254375 228.653111)scale(0.1 -0.1)">
       <use xlink:href="#DejaVuSans-48"/>
       <use x="63.623047" xlink:href="#DejaVuSans-46"/>
       <use x="95.410156" xlink:href="#DejaVuSans-49"/>
       <use x="159.033203" xlink:href="#DejaVuSans-48"/>
      </g>
     </g>
    </g>
    <g id="ytick_4">
     <g id="line2d_13">
      <g>
       <use style="stroke:#000000;stroke-width:0.8;" x="58.52" xlink:href="#maded8ce6e3" y="191.343677"/>
      </g>
     </g>
     <g id="text_14">
      <!-- 0.15 -->
      <g transform="translate(29.254375 195.142896)scale(0.1 -0.1)">
       <use xlink:href="#DejaVuSans-48"/>
       <use x="63.623047" xlink:href="#DejaVuSans-46"/>
       <use x="95.410156" xlink:href="#DejaVuSans-49"/>
       <use x="159.033203" xlink:href="#DejaVuSans-53"/>
      </g>
     </g>
    </g>
    <g id="ytick_5">
     <g id="line2d_14">
      <g>
       <use style="stroke:#000000;stroke-width:0.8;" x="58.52" xlink:href="#maded8ce6e3" y="157.833463"/>
      </g>
     </g>
     <g id="text_15">
      <!-- 0.20 -->
      <g transform="translate(29.254375 161.632682)scale(0.1 -0.1)">
       <use xlink:href="#DejaVuSans-48"/>
       <use x="63.623047" xlink:href="#DejaVuSans-46"/>
       <use x="95.410156" xlink:href="#DejaVuSans-50"/>
       <use x="159.033203" xlink:href="#DejaVuSans-48"/>
      </g>
     </g>
    </g>
    <g id="ytick_6">
     <g id="line2d_15">
      <g>
       <use style="stroke:#000000;stroke-width:0.8;" x="58.52" xlink:href="#maded8ce6e3" y="124.323248"/>
      </g>
     </g>
     <g id="text_16">
      <!-- 0.25 -->
      <g transform="translate(29.254375 128.122467)scale(0.1 -0.1)">
       <use xlink:href="#DejaVuSans-48"/>
       <use x="63.623047" xlink:href="#DejaVuSans-46"/>
       <use x="95.410156" xlink:href="#DejaVuSans-50"/>
       <use x="159.033203" xlink:href="#DejaVuSans-53"/>
      </g>
     </g>
    </g>
    <g id="ytick_7">
     <g id="line2d_16">
      <g>
       <use style="stroke:#000000;stroke-width:0.8;" x="58.52" xlink:href="#maded8ce6e3" y="90.813034"/>
      </g>
     </g>
     <g id="text_17">
      <!-- 0.30 -->
      <g transform="translate(29.254375 94.612253)scale(0.1 -0.1)">
       <use xlink:href="#DejaVuSans-48"/>
       <use x="63.623047" xlink:href="#DejaVuSans-46"/>
       <use x="95.410156" xlink:href="#DejaVuSans-51"/>
       <use x="159.033203" xlink:href="#DejaVuSans-48"/>
      </g>
     </g>
    </g>
    <g id="ytick_8">
     <g id="line2d_17">
      <g>
       <use style="stroke:#000000;stroke-width:0.8;" x="58.52" xlink:href="#maded8ce6e3" y="57.302819"/>
      </g>
     </g>
     <g id="text_18">
      <!-- 0.35 -->
      <g transform="translate(29.254375 61.102038)scale(0.1 -0.1)">
       <use xlink:href="#DejaVuSans-48"/>
       <use x="63.623047" xlink:href="#DejaVuSans-46"/>
       <use x="95.410156" xlink:href="#DejaVuSans-51"/>
       <use x="159.033203" xlink:href="#DejaVuSans-53"/>
      </g>
     </g>
    </g>
    <g id="ytick_9">
     <g id="line2d_18">
      <g>
       <use style="stroke:#000000;stroke-width:0.8;" x="58.52" xlink:href="#maded8ce6e3" y="23.792605"/>
      </g>
     </g>
     <g id="text_19">
      <!-- 0.40 -->
      <g transform="translate(29.254375 27.591824)scale(0.1 -0.1)">
       <use xlink:href="#DejaVuSans-48"/>
       <use x="63.623047" xlink:href="#DejaVuSans-46"/>
       <use x="95.410156" xlink:href="#DejaVuSans-52"/>
       <use x="159.033203" xlink:href="#DejaVuSans-48"/>
      </g>
     </g>
    </g>
    <g id="text_20">
     <!-- p(x) -->
     <g transform="translate(22.134844 176.592734)rotate(-90)scale(0.15 -0.15)">
      <defs>
       <path d="M 18.109375 8.203125 
L 18.109375 -20.796875 
L 9.078125 -20.796875 
L 9.078125 54.6875 
L 18.109375 54.6875 
L 18.109375 46.390625 
Q 20.953125 51.265625 25.265625 53.625 
Q 29.59375 56 35.59375 56 
Q 45.5625 56 51.78125 48.09375 
Q 58.015625 40.1875 58.015625 27.296875 
Q 58.015625 14.40625 51.78125 6.484375 
Q 45.5625 -1.421875 35.59375 -1.421875 
Q 29.59375 -1.421875 25.265625 0.953125 
Q 20.953125 3.328125 18.109375 8.203125 
z
M 48.6875 27.296875 
Q 48.6875 37.203125 44.609375 42.84375 
Q 40.53125 48.484375 33.40625 48.484375 
Q 26.265625 48.484375 22.1875 42.84375 
Q 18.109375 37.203125 18.109375 27.296875 
Q 18.109375 17.390625 22.1875 11.75 
Q 26.265625 6.109375 33.40625 6.109375 
Q 40.53125 6.109375 44.609375 11.75 
Q 48.6875 17.390625 48.6875 27.296875 
z
" id="DejaVuSans-112"/>
       <path d="M 31 75.875 
Q 24.46875 64.65625 21.28125 53.65625 
Q 18.109375 42.671875 18.109375 31.390625 
Q 18.109375 20.125 21.3125 9.0625 
Q 24.515625 -2 31 -13.1875 
L 23.1875 -13.1875 
Q 15.875 -1.703125 12.234375 9.375 
Q 8.59375 20.453125 8.59375 31.390625 
Q 8.59375 42.28125 12.203125 53.3125 
Q 15.828125 64.359375 23.1875 75.875 
z
" id="DejaVuSans-40"/>
       <path d="M 8.015625 75.875 
L 15.828125 75.875 
Q 23.140625 64.359375 26.78125 53.3125 
Q 30.421875 42.28125 30.421875 31.390625 
Q 30.421875 20.453125 26.78125 9.375 
Q 23.140625 -1.703125 15.828125 -13.1875 
L 8.015625 -13.1875 
Q 14.5 -2 17.703125 9.0625 
Q 20.90625 20.125 20.90625 31.390625 
Q 20.90625 42.671875 17.703125 53.65625 
Q 14.5 64.65625 8.015625 75.875 
z
" id="DejaVuSans-41"/>
      </defs>
      <use xlink:href="#DejaVuSans-112"/>
      <use x="63.476562" xlink:href="#DejaVuSans-40"/>
      <use x="102.490234" xlink:href="#DejaVuSans-120"/>
      <use x="161.669922" xlink:href="#DejaVuSans-41"/>
     </g>
    </g>
   </g>
   <g id="line2d_19">
    <path clip-path="url(#pb1cc7bcb30)" d="M 81.943636 291.784627 
L 101.170245 291.558298 
L 113.362728 291.210103 
L 122.741562 290.73237 
L 130.244628 290.144919 
L 136.809812 289.420941 
L 142.437112 288.596439 
L 147.59547 287.633859 
L 152.284887 286.551482 
L 156.974303 285.23554 
L 161.194778 283.819467 
L 165.415253 282.151975 
L 169.166787 280.432072 
L 172.91832 278.46307 
L 176.669853 276.219622 
L 179.952445 274.011045 
L 183.235037 271.554831 
L 186.517629 268.833401 
L 189.80022 265.829453 
L 193.082812 262.526232 
L 196.365404 258.907823 
L 199.647995 254.959469 
L 202.930587 250.667911 
L 206.213179 246.021745 
L 209.49577 241.011782 
L 212.778362 235.631429 
L 216.529895 229.024398 
L 220.281429 221.92888 
L 224.032962 214.351128 
L 227.784495 206.304337 
L 232.00497 196.717065 
L 236.694387 185.449956 
L 241.852745 172.397569 
L 247.480046 157.520551 
L 254.983112 137.004566 
L 268.582421 99.71752 
L 273.740779 86.254059 
L 277.961254 75.79052 
L 281.712787 67.02606 
L 284.995379 59.848516 
L 288.277971 53.193036 
L 291.091621 47.947422 
L 293.905271 43.161369 
L 296.718921 38.866183 
L 299.063629 35.682452 
L 301.408337 32.874222 
L 303.753046 30.454655 
L 305.628812 28.806573 
L 307.504579 27.419585 
L 309.380346 26.297919 
L 311.256112 25.445005 
L 313.131879 24.86346 
L 315.007646 24.555069 
L 316.883413 24.520782 
L 318.759179 24.760703 
L 320.634946 25.274094 
L 322.510713 26.059378 
L 324.386479 27.114147 
L 326.262246 28.43517 
L 328.138013 30.018418 
L 330.013779 31.859076 
L 332.358488 34.513325 
L 334.703196 37.548543 
L 337.047904 40.950569 
L 339.392613 44.70367 
L 342.206263 49.64652 
L 345.019913 55.037919 
L 348.302504 61.848564 
L 351.585096 69.164276 
L 355.336629 78.064881 
L 359.557104 88.653003 
L 364.715463 102.227135 
L 371.749588 121.432845 
L 386.28678 161.292047 
L 391.91408 176.019221 
L 397.072438 188.894116 
L 401.761855 199.973566 
L 405.98233 209.375707 
L 410.202805 218.199628 
L 413.954338 225.537465 
L 417.705871 232.389111 
L 421.457405 238.751554 
L 425.208938 244.627789 
L 428.49153 249.377066 
L 431.774121 253.768867 
L 435.056713 257.814 
L 438.339305 261.525233 
L 441.621896 264.916928 
L 444.904488 268.004704 
L 448.18708 270.805107 
L 451.469671 273.33531 
L 454.752263 275.61284 
L 458.503797 277.928944 
L 462.25533 279.964151 
L 466.006863 281.743999 
L 469.758397 283.293159 
L 473.978872 284.789502 
L 478.199347 286.055225 
L 482.888763 287.226606 
L 488.047122 288.27148 
L 493.674422 289.169408 
L 499.770663 289.912039 
L 506.804788 290.537491 
L 515.245738 291.046794 
L 525.562455 291.426663 
L 539.161764 291.684382 
L 550.416364 291.784627 
L 550.416364 291.784627 
" style="fill:none;stroke:#1f77b4;stroke-dasharray:12.8,3.2,2,3.2;stroke-dashoffset:0;stroke-width:2;"/>
   </g>
   <g id="line2d_20">
    <path clip-path="url(#pb1cc7bcb30)" d="M 81.943636 291.794808 
L 102.108128 291.577315 
L 114.769553 291.234257 
L 124.617328 290.74774 
L 132.589337 290.1298 
L 139.15452 289.407564 
L 145.250762 288.509061 
L 150.40912 287.533827 
L 155.098537 286.440146 
L 159.787953 285.113702 
L 164.008428 283.689487 
L 168.228903 282.015782 
L 171.980437 280.292607 
L 175.73197 278.323099 
L 179.483504 276.082602 
L 182.766095 273.880035 
L 186.048687 271.433591 
L 189.331279 268.726251 
L 192.61387 265.741291 
L 195.896462 262.46254 
L 199.179054 258.874661 
L 202.461645 254.963458 
L 205.744237 250.716202 
L 209.026829 246.12197 
L 212.30942 241.171993 
L 215.592012 235.860012 
L 219.343545 229.341699 
L 223.095079 222.346337 
L 226.846612 214.880128 
L 231.067087 205.934147 
L 235.287562 196.437989 
L 239.976979 185.292245 
L 245.135337 172.397122 
L 250.762637 157.717867 
L 258.734646 136.224257 
L 271.396071 102.044278 
L 276.554429 88.751011 
L 281.243846 77.287234 
L 284.995379 68.668948 
L 288.277971 61.608913 
L 291.560562 55.059248 
L 294.374212 49.893668 
L 297.187862 45.176707 
L 300.001512 40.938734 
L 302.346221 37.79301 
L 304.690929 35.013556 
L 307.035637 32.613193 
L 308.911404 30.973398 
L 310.787171 29.588291 
L 312.662937 28.462029 
L 314.538704 27.598002 
L 316.414471 26.998818 
L 318.290238 26.666287 
L 320.166004 26.601418 
L 322.041771 26.804406 
L 323.917538 27.274636 
L 325.793304 28.010687 
L 327.669071 29.010333 
L 329.544838 30.270563 
L 331.420604 31.787589 
L 333.296371 33.556866 
L 335.641079 36.115087 
L 337.985788 39.047306 
L 340.330496 42.34004 
L 342.675204 45.978277 
L 345.488854 50.777002 
L 348.302504 56.018703 
L 351.585096 62.64953 
L 354.867688 69.782005 
L 358.619221 78.471904 
L 362.839696 88.825258 
L 367.998054 102.121961 
L 374.563238 119.705887 
L 391.445138 165.20316 
L 397.072438 179.580333 
L 401.761855 191.009518 
L 406.451271 201.845591 
L 410.671746 211.03655 
L 414.892221 219.659424 
L 418.643755 226.828711 
L 422.395288 233.522486 
L 426.146821 239.738479 
L 429.898355 245.480131 
L 433.180946 250.121528 
L 436.463538 254.414642 
L 439.74613 258.370129 
L 443.028721 262.000495 
L 446.311313 265.31976 
L 449.593905 268.343126 
L 452.876496 271.086669 
L 456.159088 273.567056 
L 459.44168 275.801278 
L 463.193213 278.07516 
L 466.944747 280.07512 
L 470.69628 281.8259 
L 474.447813 283.351401 
L 478.668288 284.826693 
L 482.888763 286.076341 
L 487.57818 287.234647 
L 492.736538 288.269757 
L 498.363838 289.16121 
L 504.46008 289.90033 
L 511.494205 290.524688 
L 519.935155 291.03502 
L 530.251872 291.417535 
L 543.85118 291.678812 
L 550.416364 291.746972 
L 550.416364 291.746972 
" style="fill:none;stroke:#ff7f0e;stroke-dasharray:7.4,3.2;stroke-dashoffset:0;stroke-width:2;"/>
   </g>
   <g id="line2d_21">
    <defs>
     <path d="M -3 3 
L 3 -3 
M -3 -3 
L 3 3 
" id="m12fdacc227" style="stroke:#1f77b4;"/>
    </defs>
    <g clip-path="url(#pb1cc7bcb30)">
     <use style="fill:#1f77b4;stroke:#1f77b4;" x="419.481302" xlink:href="#m12fdacc227" y="291.874321"/>
     <use style="fill:#1f77b4;stroke:#1f77b4;" x="339.612842" xlink:href="#m12fdacc227" y="291.874321"/>
     <use style="fill:#1f77b4;stroke:#1f77b4;" x="373.494007" xlink:href="#m12fdacc227" y="291.874321"/>
     <use style="fill:#1f77b4;stroke:#1f77b4;" x="447.404669" xlink:href="#m12fdacc227" y="291.874321"/>
     <use style="fill:#1f77b4;stroke:#1f77b4;" x="425.542498" xlink:href="#m12fdacc227" y="291.874321"/>
     <use style="fill:#1f77b4;stroke:#1f77b4;" x="258.951496" xlink:href="#m12fdacc227" y="291.874321"/>
     <use style="fill:#1f77b4;stroke:#1f77b4;" x="371.816314" xlink:href="#m12fdacc227" y="291.874321"/>
     <use style="fill:#1f77b4;stroke:#1f77b4;" x="307.316659" xlink:href="#m12fdacc227" y="291.874321"/>
     <use style="fill:#1f77b4;stroke:#1f77b4;" x="310.135598" xlink:href="#m12fdacc227" y="291.874321"/>
     <use style="fill:#1f77b4;stroke:#1f77b4;" x="340.224275" xlink:href="#m12fdacc227" y="291.874321"/>
     <use style="fill:#1f77b4;stroke:#1f77b4;" x="324.615061" xlink:href="#m12fdacc227" y="291.874321"/>
     <use style="fill:#1f77b4;stroke:#1f77b4;" x="401.340935" xlink:href="#m12fdacc227" y="291.874321"/>
     <use style="fill:#1f77b4;stroke:#1f77b4;" x="360.745677" xlink:href="#m12fdacc227" y="291.874321"/>
     <use style="fill:#1f77b4;stroke:#1f77b4;" x="323.305178" xlink:href="#m12fdacc227" y="291.874321"/>
     <use style="fill:#1f77b4;stroke:#1f77b4;" x="342.172227" xlink:href="#m12fdacc227" y="291.874321"/>
     <use style="fill:#1f77b4;stroke:#1f77b4;" x="335.719665" xlink:href="#m12fdacc227" y="291.874321"/>
     <use style="fill:#1f77b4;stroke:#1f77b4;" x="403.671912" xlink:href="#m12fdacc227" y="291.874321"/>
     <use style="fill:#1f77b4;stroke:#1f77b4;" x="304.166119" xlink:href="#m12fdacc227" y="291.874321"/>
     <use style="fill:#1f77b4;stroke:#1f77b4;" x="334.51296" xlink:href="#m12fdacc227" y="291.874321"/>
     <use style="fill:#1f77b4;stroke:#1f77b4;" x="266.16493" xlink:href="#m12fdacc227" y="291.874321"/>
     <use style="fill:#1f77b4;stroke:#1f77b4;" x="166.679237" xlink:href="#m12fdacc227" y="291.874321"/>
     <use style="fill:#1f77b4;stroke:#1f77b4;" x="354.455311" xlink:href="#m12fdacc227" y="291.874321"/>
     <use style="fill:#1f77b4;stroke:#1f77b4;" x="366.800598" xlink:href="#m12fdacc227" y="291.874321"/>
     <use style="fill:#1f77b4;stroke:#1f77b4;" x="272.719491" xlink:href="#m12fdacc227" y="291.874321"/>
     <use style="fill:#1f77b4;stroke:#1f77b4;" x="449.094767" xlink:href="#m12fdacc227" y="291.874321"/>
     <use style="fill:#1f77b4;stroke:#1f77b4;" x="231.013668" xlink:href="#m12fdacc227" y="291.874321"/>
     <use style="fill:#1f77b4;stroke:#1f77b4;" x="318.859577" xlink:href="#m12fdacc227" y="291.874321"/>
     <use style="fill:#1f77b4;stroke:#1f77b4;" x="305.218684" xlink:href="#m12fdacc227" y="291.874321"/>
     <use style="fill:#1f77b4;stroke:#1f77b4;" x="405.938157" xlink:href="#m12fdacc227" y="291.874321"/>
     <use style="fill:#1f77b4;stroke:#1f77b4;" x="402.224314" xlink:href="#m12fdacc227" y="291.874321"/>
     <use style="fill:#1f77b4;stroke:#1f77b4;" x="325.25358" xlink:href="#m12fdacc227" y="291.874321"/>
     <use style="fill:#1f77b4;stroke:#1f77b4;" x="338.324853" xlink:href="#m12fdacc227" y="291.874321"/>
     <use style="fill:#1f77b4;stroke:#1f77b4;" x="264.192074" xlink:href="#m12fdacc227" y="291.874321"/>
     <use style="fill:#1f77b4;stroke:#1f77b4;" x="200.18636" xlink:href="#m12fdacc227" y="291.874321"/>
     <use style="fill:#1f77b4;stroke:#1f77b4;" x="295.806581" xlink:href="#m12fdacc227" y="291.874321"/>
     <use style="fill:#1f77b4;stroke:#1f77b4;" x="325.335653" xlink:href="#m12fdacc227" y="291.874321"/>
     <use style="fill:#1f77b4;stroke:#1f77b4;" x="388.224704" xlink:href="#m12fdacc227" y="291.874321"/>
     <use style="fill:#1f77b4;stroke:#1f77b4;" x="386.590271" xlink:href="#m12fdacc227" y="291.874321"/>
     <use style="fill:#1f77b4;stroke:#1f77b4;" x="293.498494" xlink:href="#m12fdacc227" y="291.874321"/>
     <use style="fill:#1f77b4;stroke:#1f77b4;" x="298.477426" xlink:href="#m12fdacc227" y="291.874321"/>
     <use style="fill:#1f77b4;stroke:#1f77b4;" x="254.777692" xlink:href="#m12fdacc227" y="291.874321"/>
     <use style="fill:#1f77b4;stroke:#1f77b4;" x="233.025041" xlink:href="#m12fdacc227" y="291.874321"/>
     <use style="fill:#1f77b4;stroke:#1f77b4;" x="216.262369" xlink:href="#m12fdacc227" y="291.874321"/>
     <use style="fill:#1f77b4;stroke:#1f77b4;" x="430.415634" xlink:href="#m12fdacc227" y="291.874321"/>
     <use style="fill:#1f77b4;stroke:#1f77b4;" x="286.335232" xlink:href="#m12fdacc227" y="291.874321"/>
     <use style="fill:#1f77b4;stroke:#1f77b4;" x="290.526767" xlink:href="#m12fdacc227" y="291.874321"/>
     <use style="fill:#1f77b4;stroke:#1f77b4;" x="242.817443" xlink:href="#m12fdacc227" y="291.874321"/>
     <use style="fill:#1f77b4;stroke:#1f77b4;" x="361.709128" xlink:href="#m12fdacc227" y="291.874321"/>
     <use style="fill:#1f77b4;stroke:#1f77b4;" x="221.671609" xlink:href="#m12fdacc227" y="291.874321"/>
     <use style="fill:#1f77b4;stroke:#1f77b4;" x="303.722123" xlink:href="#m12fdacc227" y="291.874321"/>
     <use style="fill:#1f77b4;stroke:#1f77b4;" x="263.742292" xlink:href="#m12fdacc227" y="291.874321"/>
     <use style="fill:#1f77b4;stroke:#1f77b4;" x="338.836659" xlink:href="#m12fdacc227" y="291.874321"/>
     <use style="fill:#1f77b4;stroke:#1f77b4;" x="286.267716" xlink:href="#m12fdacc227" y="291.874321"/>
     <use style="fill:#1f77b4;stroke:#1f77b4;" x="247.043253" xlink:href="#m12fdacc227" y="291.874321"/>
     <use style="fill:#1f77b4;stroke:#1f77b4;" x="314.529674" xlink:href="#m12fdacc227" y="291.874321"/>
     <use style="fill:#1f77b4;stroke:#1f77b4;" x="341.262725" xlink:href="#m12fdacc227" y="291.874321"/>
     <use style="fill:#1f77b4;stroke:#1f77b4;" x="320.075188" xlink:href="#m12fdacc227" y="291.874321"/>
     <use style="fill:#1f77b4;stroke:#1f77b4;" x="333.892479" xlink:href="#m12fdacc227" y="291.874321"/>
     <use style="fill:#1f77b4;stroke:#1f77b4;" x="279.034675" xlink:href="#m12fdacc227" y="291.874321"/>
     <use style="fill:#1f77b4;stroke:#1f77b4;" x="294.938207" xlink:href="#m12fdacc227" y="291.874321"/>
     <use style="fill:#1f77b4;stroke:#1f77b4;" x="276.801328" xlink:href="#m12fdacc227" y="291.874321"/>
     <use style="fill:#1f77b4;stroke:#1f77b4;" x="295.124894" xlink:href="#m12fdacc227" y="291.874321"/>
     <use style="fill:#1f77b4;stroke:#1f77b4;" x="268.562893" xlink:href="#m12fdacc227" y="291.874321"/>
     <use style="fill:#1f77b4;stroke:#1f77b4;" x="215.09046" xlink:href="#m12fdacc227" y="291.874321"/>
     <use style="fill:#1f77b4;stroke:#1f77b4;" x="326.569914" xlink:href="#m12fdacc227" y="291.874321"/>
     <use style="fill:#1f77b4;stroke:#1f77b4;" x="292.652074" xlink:href="#m12fdacc227" y="291.874321"/>
     <use style="fill:#1f77b4;stroke:#1f77b4;" x="220.717067" xlink:href="#m12fdacc227" y="291.874321"/>
     <use style="fill:#1f77b4;stroke:#1f77b4;" x="343.280108" xlink:href="#m12fdacc227" y="291.874321"/>
     <use style="fill:#1f77b4;stroke:#1f77b4;" x="263.049433" xlink:href="#m12fdacc227" y="291.874321"/>
     <use style="fill:#1f77b4;stroke:#1f77b4;" x="319.221875" xlink:href="#m12fdacc227" y="291.874321"/>
     <use style="fill:#1f77b4;stroke:#1f77b4;" x="358.874881" xlink:href="#m12fdacc227" y="291.874321"/>
     <use style="fill:#1f77b4;stroke:#1f77b4;" x="323.733122" xlink:href="#m12fdacc227" y="291.874321"/>
     <use style="fill:#1f77b4;stroke:#1f77b4;" x="382.902268" xlink:href="#m12fdacc227" y="291.874321"/>
     <use style="fill:#1f77b4;stroke:#1f77b4;" x="243.869723" xlink:href="#m12fdacc227" y="291.874321"/>
     <use style="fill:#1f77b4;stroke:#1f77b4;" x="339.740761" xlink:href="#m12fdacc227" y="291.874321"/>
     <use style="fill:#1f77b4;stroke:#1f77b4;" x="276.078144" xlink:href="#m12fdacc227" y="291.874321"/>
     <use style="fill:#1f77b4;stroke:#1f77b4;" x="265.186911" xlink:href="#m12fdacc227" y="291.874321"/>
     <use style="fill:#1f77b4;stroke:#1f77b4;" x="282.28309" xlink:href="#m12fdacc227" y="291.874321"/>
     <use style="fill:#1f77b4;stroke:#1f77b4;" x="297.935767" xlink:href="#m12fdacc227" y="291.874321"/>
     <use style="fill:#1f77b4;stroke:#1f77b4;" x="319.468991" xlink:href="#m12fdacc227" y="291.874321"/>
     <use style="fill:#1f77b4;stroke:#1f77b4;" x="247.949885" xlink:href="#m12fdacc227" y="291.874321"/>
     <use style="fill:#1f77b4;stroke:#1f77b4;" x="368.93158" xlink:href="#m12fdacc227" y="291.874321"/>
     <use style="fill:#1f77b4;stroke:#1f77b4;" x="343.448769" xlink:href="#m12fdacc227" y="291.874321"/>
     <use style="fill:#1f77b4;stroke:#1f77b4;" x="226.218966" xlink:href="#m12fdacc227" y="291.874321"/>
     <use style="fill:#1f77b4;stroke:#1f77b4;" x="403.330696" xlink:href="#m12fdacc227" y="291.874321"/>
     <use style="fill:#1f77b4;stroke:#1f77b4;" x="427.201547" xlink:href="#m12fdacc227" y="291.874321"/>
     <use style="fill:#1f77b4;stroke:#1f77b4;" x="385.20826" xlink:href="#m12fdacc227" y="291.874321"/>
     <use style="fill:#1f77b4;stroke:#1f77b4;" x="305.643765" xlink:href="#m12fdacc227" y="291.874321"/>
     <use style="fill:#1f77b4;stroke:#1f77b4;" x="253.4777" xlink:href="#m12fdacc227" y="291.874321"/>
     <use style="fill:#1f77b4;stroke:#1f77b4;" x="377.927735" xlink:href="#m12fdacc227" y="291.874321"/>
     <use style="fill:#1f77b4;stroke:#1f77b4;" x="292.570325" xlink:href="#m12fdacc227" y="291.874321"/>
     <use style="fill:#1f77b4;stroke:#1f77b4;" x="387.765272" xlink:href="#m12fdacc227" y="291.874321"/>
     <use style="fill:#1f77b4;stroke:#1f77b4;" x="328.376393" xlink:href="#m12fdacc227" y="291.874321"/>
     <use style="fill:#1f77b4;stroke:#1f77b4;" x="373.371094" xlink:href="#m12fdacc227" y="291.874321"/>
     <use style="fill:#1f77b4;stroke:#1f77b4;" x="337.048492" xlink:href="#m12fdacc227" y="291.874321"/>
     <use style="fill:#1f77b4;stroke:#1f77b4;" x="357.556282" xlink:href="#m12fdacc227" y="291.874321"/>
     <use style="fill:#1f77b4;stroke:#1f77b4;" x="316.794872" xlink:href="#m12fdacc227" y="291.874321"/>
     <use style="fill:#1f77b4;stroke:#1f77b4;" x="420.758953" xlink:href="#m12fdacc227" y="291.874321"/>
     <use style="fill:#1f77b4;stroke:#1f77b4;" x="323.611857" xlink:href="#m12fdacc227" y="291.874321"/>
     <use style="fill:#1f77b4;stroke:#1f77b4;" x="339.720132" xlink:href="#m12fdacc227" y="291.874321"/>
    </g>
   </g>
   <g id="line2d_22">
    <defs>
     <path d="M -3 0 
L 3 0 
M 0 3 
L 0 -3 
" id="m1d7ce271b0" style="stroke:#ff7f0e;"/>
    </defs>
    <g clip-path="url(#pb1cc7bcb30)">
     <use style="fill:#ff7f0e;stroke:#ff7f0e;" x="430.827115" xlink:href="#m1d7ce271b0" y="298.576364"/>
     <use style="fill:#ff7f0e;stroke:#ff7f0e;" x="240.136663" xlink:href="#m1d7ce271b0" y="298.576364"/>
     <use style="fill:#ff7f0e;stroke:#ff7f0e;" x="244.69743" xlink:href="#m1d7ce271b0" y="298.576364"/>
     <use style="fill:#ff7f0e;stroke:#ff7f0e;" x="376.896744" xlink:href="#m1d7ce271b0" y="298.576364"/>
     <use style="fill:#ff7f0e;stroke:#ff7f0e;" x="250.443776" xlink:href="#m1d7ce271b0" y="298.576364"/>
     <use style="fill:#ff7f0e;stroke:#ff7f0e;" x="434.396124" xlink:href="#m1d7ce271b0" y="298.576364"/>
     <use style="fill:#ff7f0e;stroke:#ff7f0e;" x="295.270234" xlink:href="#m1d7ce271b0" y="298.576364"/>
     <use style="fill:#ff7f0e;stroke:#ff7f0e;" x="275.567021" xlink:href="#m1d7ce271b0" y="298.576364"/>
     <use style="fill:#ff7f0e;stroke:#ff7f0e;" x="433.175626" xlink:href="#m1d7ce271b0" y="298.576364"/>
     <use style="fill:#ff7f0e;stroke:#ff7f0e;" x="407.063275" xlink:href="#m1d7ce271b0" y="298.576364"/>
     <use style="fill:#ff7f0e;stroke:#ff7f0e;" x="429.90688" xlink:href="#m1d7ce271b0" y="298.576364"/>
     <use style="fill:#ff7f0e;stroke:#ff7f0e;" x="373.157664" xlink:href="#m1d7ce271b0" y="298.576364"/>
     <use style="fill:#ff7f0e;stroke:#ff7f0e;" x="268.852188" xlink:href="#m1d7ce271b0" y="298.576364"/>
     <use style="fill:#ff7f0e;stroke:#ff7f0e;" x="432.415612" xlink:href="#m1d7ce271b0" y="298.576364"/>
     <use style="fill:#ff7f0e;stroke:#ff7f0e;" x="303.864565" xlink:href="#m1d7ce271b0" y="298.576364"/>
     <use style="fill:#ff7f0e;stroke:#ff7f0e;" x="367.043816" xlink:href="#m1d7ce271b0" y="298.576364"/>
     <use style="fill:#ff7f0e;stroke:#ff7f0e;" x="375.589747" xlink:href="#m1d7ce271b0" y="298.576364"/>
     <use style="fill:#ff7f0e;stroke:#ff7f0e;" x="310.533504" xlink:href="#m1d7ce271b0" y="298.576364"/>
     <use style="fill:#ff7f0e;stroke:#ff7f0e;" x="355.925678" xlink:href="#m1d7ce271b0" y="298.576364"/>
     <use style="fill:#ff7f0e;stroke:#ff7f0e;" x="374.111557" xlink:href="#m1d7ce271b0" y="298.576364"/>
     <use style="fill:#ff7f0e;stroke:#ff7f0e;" x="341.899189" xlink:href="#m1d7ce271b0" y="298.576364"/>
     <use style="fill:#ff7f0e;stroke:#ff7f0e;" x="254.794934" xlink:href="#m1d7ce271b0" y="298.576364"/>
     <use style="fill:#ff7f0e;stroke:#ff7f0e;" x="337.284519" xlink:href="#m1d7ce271b0" y="298.576364"/>
     <use style="fill:#ff7f0e;stroke:#ff7f0e;" x="397.966485" xlink:href="#m1d7ce271b0" y="298.576364"/>
     <use style="fill:#ff7f0e;stroke:#ff7f0e;" x="278.688444" xlink:href="#m1d7ce271b0" y="298.576364"/>
     <use style="fill:#ff7f0e;stroke:#ff7f0e;" x="310.850772" xlink:href="#m1d7ce271b0" y="298.576364"/>
     <use style="fill:#ff7f0e;stroke:#ff7f0e;" x="293.99925" xlink:href="#m1d7ce271b0" y="298.576364"/>
     <use style="fill:#ff7f0e;stroke:#ff7f0e;" x="428.827084" xlink:href="#m1d7ce271b0" y="298.576364"/>
     <use style="fill:#ff7f0e;stroke:#ff7f0e;" x="359.361589" xlink:href="#m1d7ce271b0" y="298.576364"/>
     <use style="fill:#ff7f0e;stroke:#ff7f0e;" x="343.730973" xlink:href="#m1d7ce271b0" y="298.576364"/>
     <use style="fill:#ff7f0e;stroke:#ff7f0e;" x="274.241342" xlink:href="#m1d7ce271b0" y="298.576364"/>
     <use style="fill:#ff7f0e;stroke:#ff7f0e;" x="351.509151" xlink:href="#m1d7ce271b0" y="298.576364"/>
     <use style="fill:#ff7f0e;stroke:#ff7f0e;" x="279.882739" xlink:href="#m1d7ce271b0" y="298.576364"/>
     <use style="fill:#ff7f0e;stroke:#ff7f0e;" x="321.560964" xlink:href="#m1d7ce271b0" y="298.576364"/>
     <use style="fill:#ff7f0e;stroke:#ff7f0e;" x="282.154243" xlink:href="#m1d7ce271b0" y="298.576364"/>
     <use style="fill:#ff7f0e;stroke:#ff7f0e;" x="359.605848" xlink:href="#m1d7ce271b0" y="298.576364"/>
     <use style="fill:#ff7f0e;stroke:#ff7f0e;" x="353.713078" xlink:href="#m1d7ce271b0" y="298.576364"/>
     <use style="fill:#ff7f0e;stroke:#ff7f0e;" x="307.388371" xlink:href="#m1d7ce271b0" y="298.576364"/>
     <use style="fill:#ff7f0e;stroke:#ff7f0e;" x="343.054884" xlink:href="#m1d7ce271b0" y="298.576364"/>
     <use style="fill:#ff7f0e;stroke:#ff7f0e;" x="255.169083" xlink:href="#m1d7ce271b0" y="298.576364"/>
     <use style="fill:#ff7f0e;stroke:#ff7f0e;" x="231.667284" xlink:href="#m1d7ce271b0" y="298.576364"/>
     <use style="fill:#ff7f0e;stroke:#ff7f0e;" x="345.615495" xlink:href="#m1d7ce271b0" y="298.576364"/>
     <use style="fill:#ff7f0e;stroke:#ff7f0e;" x="329.519484" xlink:href="#m1d7ce271b0" y="298.576364"/>
     <use style="fill:#ff7f0e;stroke:#ff7f0e;" x="357.162283" xlink:href="#m1d7ce271b0" y="298.576364"/>
     <use style="fill:#ff7f0e;stroke:#ff7f0e;" x="460.3371" xlink:href="#m1d7ce271b0" y="298.576364"/>
     <use style="fill:#ff7f0e;stroke:#ff7f0e;" x="375.426113" xlink:href="#m1d7ce271b0" y="298.576364"/>
     <use style="fill:#ff7f0e;stroke:#ff7f0e;" x="265.806926" xlink:href="#m1d7ce271b0" y="298.576364"/>
     <use style="fill:#ff7f0e;stroke:#ff7f0e;" x="385.609351" xlink:href="#m1d7ce271b0" y="298.576364"/>
     <use style="fill:#ff7f0e;stroke:#ff7f0e;" x="242.016569" xlink:href="#m1d7ce271b0" y="298.576364"/>
     <use style="fill:#ff7f0e;stroke:#ff7f0e;" x="292.439271" xlink:href="#m1d7ce271b0" y="298.576364"/>
     <use style="fill:#ff7f0e;stroke:#ff7f0e;" x="315.654638" xlink:href="#m1d7ce271b0" y="298.576364"/>
     <use style="fill:#ff7f0e;stroke:#ff7f0e;" x="420.804935" xlink:href="#m1d7ce271b0" y="298.576364"/>
     <use style="fill:#ff7f0e;stroke:#ff7f0e;" x="275.726376" xlink:href="#m1d7ce271b0" y="298.576364"/>
     <use style="fill:#ff7f0e;stroke:#ff7f0e;" x="270.905348" xlink:href="#m1d7ce271b0" y="298.576364"/>
     <use style="fill:#ff7f0e;stroke:#ff7f0e;" x="313.871569" xlink:href="#m1d7ce271b0" y="298.576364"/>
     <use style="fill:#ff7f0e;stroke:#ff7f0e;" x="280.523371" xlink:href="#m1d7ce271b0" y="298.576364"/>
     <use style="fill:#ff7f0e;stroke:#ff7f0e;" x="386.177108" xlink:href="#m1d7ce271b0" y="298.576364"/>
     <use style="fill:#ff7f0e;stroke:#ff7f0e;" x="255.944024" xlink:href="#m1d7ce271b0" y="298.576364"/>
     <use style="fill:#ff7f0e;stroke:#ff7f0e;" x="251.957937" xlink:href="#m1d7ce271b0" y="298.576364"/>
     <use style="fill:#ff7f0e;stroke:#ff7f0e;" x="293.841872" xlink:href="#m1d7ce271b0" y="298.576364"/>
     <use style="fill:#ff7f0e;stroke:#ff7f0e;" x="290.288095" xlink:href="#m1d7ce271b0" y="298.576364"/>
     <use style="fill:#ff7f0e;stroke:#ff7f0e;" x="433.564574" xlink:href="#m1d7ce271b0" y="298.576364"/>
     <use style="fill:#ff7f0e;stroke:#ff7f0e;" x="375.717753" xlink:href="#m1d7ce271b0" y="298.576364"/>
     <use style="fill:#ff7f0e;stroke:#ff7f0e;" x="324.849636" xlink:href="#m1d7ce271b0" y="298.576364"/>
     <use style="fill:#ff7f0e;stroke:#ff7f0e;" x="247.35628" xlink:href="#m1d7ce271b0" y="298.576364"/>
     <use style="fill:#ff7f0e;stroke:#ff7f0e;" x="369.51717" xlink:href="#m1d7ce271b0" y="298.576364"/>
     <use style="fill:#ff7f0e;stroke:#ff7f0e;" x="260.648925" xlink:href="#m1d7ce271b0" y="298.576364"/>
     <use style="fill:#ff7f0e;stroke:#ff7f0e;" x="228.508881" xlink:href="#m1d7ce271b0" y="298.576364"/>
     <use style="fill:#ff7f0e;stroke:#ff7f0e;" x="389.800615" xlink:href="#m1d7ce271b0" y="298.576364"/>
     <use style="fill:#ff7f0e;stroke:#ff7f0e;" x="338.388468" xlink:href="#m1d7ce271b0" y="298.576364"/>
     <use style="fill:#ff7f0e;stroke:#ff7f0e;" x="374.032006" xlink:href="#m1d7ce271b0" y="298.576364"/>
     <use style="fill:#ff7f0e;stroke:#ff7f0e;" x="338.493822" xlink:href="#m1d7ce271b0" y="298.576364"/>
     <use style="fill:#ff7f0e;stroke:#ff7f0e;" x="370.253018" xlink:href="#m1d7ce271b0" y="298.576364"/>
     <use style="fill:#ff7f0e;stroke:#ff7f0e;" x="281.258338" xlink:href="#m1d7ce271b0" y="298.576364"/>
     <use style="fill:#ff7f0e;stroke:#ff7f0e;" x="258.6406" xlink:href="#m1d7ce271b0" y="298.576364"/>
     <use style="fill:#ff7f0e;stroke:#ff7f0e;" x="359.910467" xlink:href="#m1d7ce271b0" y="298.576364"/>
     <use style="fill:#ff7f0e;stroke:#ff7f0e;" x="272.264528" xlink:href="#m1d7ce271b0" y="298.576364"/>
     <use style="fill:#ff7f0e;stroke:#ff7f0e;" x="278.984615" xlink:href="#m1d7ce271b0" y="298.576364"/>
     <use style="fill:#ff7f0e;stroke:#ff7f0e;" x="292.79647" xlink:href="#m1d7ce271b0" y="298.576364"/>
     <use style="fill:#ff7f0e;stroke:#ff7f0e;" x="320.713935" xlink:href="#m1d7ce271b0" y="298.576364"/>
     <use style="fill:#ff7f0e;stroke:#ff7f0e;" x="298.789346" xlink:href="#m1d7ce271b0" y="298.576364"/>
     <use style="fill:#ff7f0e;stroke:#ff7f0e;" x="238.531759" xlink:href="#m1d7ce271b0" y="298.576364"/>
     <use style="fill:#ff7f0e;stroke:#ff7f0e;" x="281.695515" xlink:href="#m1d7ce271b0" y="298.576364"/>
     <use style="fill:#ff7f0e;stroke:#ff7f0e;" x="188.455564" xlink:href="#m1d7ce271b0" y="298.576364"/>
     <use style="fill:#ff7f0e;stroke:#ff7f0e;" x="356.583881" xlink:href="#m1d7ce271b0" y="298.576364"/>
     <use style="fill:#ff7f0e;stroke:#ff7f0e;" x="225.12779" xlink:href="#m1d7ce271b0" y="298.576364"/>
     <use style="fill:#ff7f0e;stroke:#ff7f0e;" x="254.500861" xlink:href="#m1d7ce271b0" y="298.576364"/>
     <use style="fill:#ff7f0e;stroke:#ff7f0e;" x="322.761121" xlink:href="#m1d7ce271b0" y="298.576364"/>
     <use style="fill:#ff7f0e;stroke:#ff7f0e;" x="276.032801" xlink:href="#m1d7ce271b0" y="298.576364"/>
     <use style="fill:#ff7f0e;stroke:#ff7f0e;" x="410.752055" xlink:href="#m1d7ce271b0" y="298.576364"/>
     <use style="fill:#ff7f0e;stroke:#ff7f0e;" x="243.377025" xlink:href="#m1d7ce271b0" y="298.576364"/>
     <use style="fill:#ff7f0e;stroke:#ff7f0e;" x="335.443824" xlink:href="#m1d7ce271b0" y="298.576364"/>
     <use style="fill:#ff7f0e;stroke:#ff7f0e;" x="317.363805" xlink:href="#m1d7ce271b0" y="298.576364"/>
     <use style="fill:#ff7f0e;stroke:#ff7f0e;" x="250.740645" xlink:href="#m1d7ce271b0" y="298.576364"/>
     <use style="fill:#ff7f0e;stroke:#ff7f0e;" x="350.566441" xlink:href="#m1d7ce271b0" y="298.576364"/>
     <use style="fill:#ff7f0e;stroke:#ff7f0e;" x="309.557524" xlink:href="#m1d7ce271b0" y="298.576364"/>
     <use style="fill:#ff7f0e;stroke:#ff7f0e;" x="365.233897" xlink:href="#m1d7ce271b0" y="298.576364"/>
     <use style="fill:#ff7f0e;stroke:#ff7f0e;" x="368.286068" xlink:href="#m1d7ce271b0" y="298.576364"/>
     <use style="fill:#ff7f0e;stroke:#ff7f0e;" x="447.357934" xlink:href="#m1d7ce271b0" y="298.576364"/>
     <use style="fill:#ff7f0e;stroke:#ff7f0e;" x="398.565075" xlink:href="#m1d7ce271b0" y="298.576364"/>
    </g>
   </g>
   <g id="patch_3">
    <path d="M 58.52 312.28 
L 58.52 10.8 
" style="fill:none;stroke:#000000;stroke-linecap:square;stroke-linejoin:miter;stroke-width:0.8;"/>
   </g>
   <g id="patch_4">
    <path d="M 573.84 312.28 
L 573.84 10.8 
" style="fill:none;stroke:#000000;stroke-linecap:square;stroke-linejoin:miter;stroke-width:0.8;"/>
   </g>
   <g id="patch_5">
    <path d="M 58.52 312.28 
L 573.84 312.28 
" style="fill:none;stroke:#000000;stroke-linecap:square;stroke-linejoin:miter;stroke-width:0.8;"/>
   </g>
   <g id="patch_6">
    <path d="M 58.52 10.8 
L 573.84 10.8 
" style="fill:none;stroke:#000000;stroke-linecap:square;stroke-linejoin:miter;stroke-width:0.8;"/>
   </g>
   <g id="legend_1">
    <g id="patch_7">
     <path d="M 384.282187 104.1975 
L 564.04 104.1975 
Q 566.84 104.1975 566.84 101.3975 
L 566.84 20.6 
Q 566.84 17.8 564.04 17.8 
L 384.282187 17.8 
Q 381.482187 17.8 381.482187 20.6 
L 381.482187 101.3975 
Q 381.482187 104.1975 384.282187 104.1975 
z
" style="fill:#ffffff;opacity:0.8;stroke:#cccccc;stroke-linejoin:miter;"/>
    </g>
    <g id="line2d_23">
     <path d="M 387.082187 29.137813 
L 415.082187 29.137813 
" style="fill:none;stroke:#1f77b4;stroke-dasharray:12.8,3.2,2,3.2;stroke-dashoffset:0;stroke-width:2;"/>
    </g>
    <g id="line2d_24"/>
    <g id="text_21">
     <!-- true distribution -->
     <g transform="translate(426.282187 34.037813)scale(0.14 -0.14)">
      <defs>
       <path d="M 18.3125 70.21875 
L 18.3125 54.6875 
L 36.8125 54.6875 
L 36.8125 47.703125 
L 18.3125 47.703125 
L 18.3125 18.015625 
Q 18.3125 11.328125 20.140625 9.421875 
Q 21.96875 7.515625 27.59375 7.515625 
L 36.8125 7.515625 
L 36.8125 0 
L 27.59375 0 
Q 17.1875 0 13.234375 3.875 
Q 9.28125 7.765625 9.28125 18.015625 
L 9.28125 47.703125 
L 2.6875 47.703125 
L 2.6875 54.6875 
L 9.28125 54.6875 
L 9.28125 70.21875 
z
" id="DejaVuSans-116"/>
       <path d="M 41.109375 46.296875 
Q 39.59375 47.171875 37.8125 47.578125 
Q 36.03125 48 33.890625 48 
Q 26.265625 48 22.1875 43.046875 
Q 18.109375 38.09375 18.109375 28.8125 
L 18.109375 0 
L 9.078125 0 
L 9.078125 54.6875 
L 18.109375 54.6875 
L 18.109375 46.1875 
Q 20.953125 51.171875 25.484375 53.578125 
Q 30.03125 56 36.53125 56 
Q 37.453125 56 38.578125 55.875 
Q 39.703125 55.765625 41.0625 55.515625 
z
" id="DejaVuSans-114"/>
       <path d="M 8.5 21.578125 
L 8.5 54.6875 
L 17.484375 54.6875 
L 17.484375 21.921875 
Q 17.484375 14.15625 20.5 10.265625 
Q 23.53125 6.390625 29.59375 6.390625 
Q 36.859375 6.390625 41.078125 11.03125 
Q 45.3125 15.671875 45.3125 23.6875 
L 45.3125 54.6875 
L 54.296875 54.6875 
L 54.296875 0 
L 45.3125 0 
L 45.3125 8.40625 
Q 42.046875 3.421875 37.71875 1 
Q 33.40625 -1.421875 27.6875 -1.421875 
Q 18.265625 -1.421875 13.375 4.4375 
Q 8.5 10.296875 8.5 21.578125 
z
M 31.109375 56 
z
" id="DejaVuSans-117"/>
       <path d="M 56.203125 29.59375 
L 56.203125 25.203125 
L 14.890625 25.203125 
Q 15.484375 15.921875 20.484375 11.0625 
Q 25.484375 6.203125 34.421875 6.203125 
Q 39.59375 6.203125 44.453125 7.46875 
Q 49.3125 8.734375 54.109375 11.28125 
L 54.109375 2.78125 
Q 49.265625 0.734375 44.1875 -0.34375 
Q 39.109375 -1.421875 33.890625 -1.421875 
Q 20.796875 -1.421875 13.15625 6.1875 
Q 5.515625 13.8125 5.515625 26.8125 
Q 5.515625 40.234375 12.765625 48.109375 
Q 20.015625 56 32.328125 56 
Q 43.359375 56 49.78125 48.890625 
Q 56.203125 41.796875 56.203125 29.59375 
z
M 47.21875 32.234375 
Q 47.125 39.59375 43.09375 43.984375 
Q 39.0625 48.390625 32.421875 48.390625 
Q 24.90625 48.390625 20.390625 44.140625 
Q 15.875 39.890625 15.1875 32.171875 
z
" id="DejaVuSans-101"/>
       <path id="DejaVuSans-32"/>
       <path d="M 45.40625 46.390625 
L 45.40625 75.984375 
L 54.390625 75.984375 
L 54.390625 0 
L 45.40625 0 
L 45.40625 8.203125 
Q 42.578125 3.328125 38.25 0.953125 
Q 33.9375 -1.421875 27.875 -1.421875 
Q 17.96875 -1.421875 11.734375 6.484375 
Q 5.515625 14.40625 5.515625 27.296875 
Q 5.515625 40.1875 11.734375 48.09375 
Q 17.96875 56 27.875 56 
Q 33.9375 56 38.25 53.625 
Q 42.578125 51.265625 45.40625 46.390625 
z
M 14.796875 27.296875 
Q 14.796875 17.390625 18.875 11.75 
Q 22.953125 6.109375 30.078125 6.109375 
Q 37.203125 6.109375 41.296875 11.75 
Q 45.40625 17.390625 45.40625 27.296875 
Q 45.40625 37.203125 41.296875 42.84375 
Q 37.203125 48.484375 30.078125 48.484375 
Q 22.953125 48.484375 18.875 42.84375 
Q 14.796875 37.203125 14.796875 27.296875 
z
" id="DejaVuSans-100"/>
       <path d="M 9.421875 54.6875 
L 18.40625 54.6875 
L 18.40625 0 
L 9.421875 0 
z
M 9.421875 75.984375 
L 18.40625 75.984375 
L 18.40625 64.59375 
L 9.421875 64.59375 
z
" id="DejaVuSans-105"/>
       <path d="M 44.28125 53.078125 
L 44.28125 44.578125 
Q 40.484375 46.53125 36.375 47.5 
Q 32.28125 48.484375 27.875 48.484375 
Q 21.1875 48.484375 17.84375 46.4375 
Q 14.5 44.390625 14.5 40.28125 
Q 14.5 37.15625 16.890625 35.375 
Q 19.28125 33.59375 26.515625 31.984375 
L 29.59375 31.296875 
Q 39.15625 29.25 43.1875 25.515625 
Q 47.21875 21.78125 47.21875 15.09375 
Q 47.21875 7.46875 41.1875 3.015625 
Q 35.15625 -1.421875 24.609375 -1.421875 
Q 20.21875 -1.421875 15.453125 -0.5625 
Q 10.6875 0.296875 5.421875 2 
L 5.421875 11.28125 
Q 10.40625 8.6875 15.234375 7.390625 
Q 20.0625 6.109375 24.8125 6.109375 
Q 31.15625 6.109375 34.5625 8.28125 
Q 37.984375 10.453125 37.984375 14.40625 
Q 37.984375 18.0625 35.515625 20.015625 
Q 33.0625 21.96875 24.703125 23.78125 
L 21.578125 24.515625 
Q 13.234375 26.265625 9.515625 29.90625 
Q 5.8125 33.546875 5.8125 39.890625 
Q 5.8125 47.609375 11.28125 51.796875 
Q 16.75 56 26.8125 56 
Q 31.78125 56 36.171875 55.265625 
Q 40.578125 54.546875 44.28125 53.078125 
z
" id="DejaVuSans-115"/>
       <path d="M 48.6875 27.296875 
Q 48.6875 37.203125 44.609375 42.84375 
Q 40.53125 48.484375 33.40625 48.484375 
Q 26.265625 48.484375 22.1875 42.84375 
Q 18.109375 37.203125 18.109375 27.296875 
Q 18.109375 17.390625 22.1875 11.75 
Q 26.265625 6.109375 33.40625 6.109375 
Q 40.53125 6.109375 44.609375 11.75 
Q 48.6875 17.390625 48.6875 27.296875 
z
M 18.109375 46.390625 
Q 20.953125 51.265625 25.265625 53.625 
Q 29.59375 56 35.59375 56 
Q 45.5625 56 51.78125 48.09375 
Q 58.015625 40.1875 58.015625 27.296875 
Q 58.015625 14.40625 51.78125 6.484375 
Q 45.5625 -1.421875 35.59375 -1.421875 
Q 29.59375 -1.421875 25.265625 0.953125 
Q 20.953125 3.328125 18.109375 8.203125 
L 18.109375 0 
L 9.078125 0 
L 9.078125 75.984375 
L 18.109375 75.984375 
z
" id="DejaVuSans-98"/>
       <path d="M 30.609375 48.390625 
Q 23.390625 48.390625 19.1875 42.75 
Q 14.984375 37.109375 14.984375 27.296875 
Q 14.984375 17.484375 19.15625 11.84375 
Q 23.34375 6.203125 30.609375 6.203125 
Q 37.796875 6.203125 41.984375 11.859375 
Q 46.1875 17.53125 46.1875 27.296875 
Q 46.1875 37.015625 41.984375 42.703125 
Q 37.796875 48.390625 30.609375 48.390625 
z
M 30.609375 56 
Q 42.328125 56 49.015625 48.375 
Q 55.71875 40.765625 55.71875 27.296875 
Q 55.71875 13.875 49.015625 6.21875 
Q 42.328125 -1.421875 30.609375 -1.421875 
Q 18.84375 -1.421875 12.171875 6.21875 
Q 5.515625 13.875 5.515625 27.296875 
Q 5.515625 40.765625 12.171875 48.375 
Q 18.84375 56 30.609375 56 
z
" id="DejaVuSans-111"/>
       <path d="M 54.890625 33.015625 
L 54.890625 0 
L 45.90625 0 
L 45.90625 32.71875 
Q 45.90625 40.484375 42.875 44.328125 
Q 39.84375 48.1875 33.796875 48.1875 
Q 26.515625 48.1875 22.3125 43.546875 
Q 18.109375 38.921875 18.109375 30.90625 
L 18.109375 0 
L 9.078125 0 
L 9.078125 54.6875 
L 18.109375 54.6875 
L 18.109375 46.1875 
Q 21.34375 51.125 25.703125 53.5625 
Q 30.078125 56 35.796875 56 
Q 45.21875 56 50.046875 50.171875 
Q 54.890625 44.34375 54.890625 33.015625 
z
" id="DejaVuSans-110"/>
      </defs>
      <use xlink:href="#DejaVuSans-116"/>
      <use x="39.208984" xlink:href="#DejaVuSans-114"/>
      <use x="80.322266" xlink:href="#DejaVuSans-117"/>
      <use x="143.701172" xlink:href="#DejaVuSans-101"/>
      <use x="205.224609" xlink:href="#DejaVuSans-32"/>
      <use x="237.011719" xlink:href="#DejaVuSans-100"/>
      <use x="300.488281" xlink:href="#DejaVuSans-105"/>
      <use x="328.271484" xlink:href="#DejaVuSans-115"/>
      <use x="380.371094" xlink:href="#DejaVuSans-116"/>
      <use x="419.580078" xlink:href="#DejaVuSans-114"/>
      <use x="460.693359" xlink:href="#DejaVuSans-105"/>
      <use x="488.476562" xlink:href="#DejaVuSans-98"/>
      <use x="551.953125" xlink:href="#DejaVuSans-117"/>
      <use x="615.332031" xlink:href="#DejaVuSans-116"/>
      <use x="654.541016" xlink:href="#DejaVuSans-105"/>
      <use x="682.324219" xlink:href="#DejaVuSans-111"/>
      <use x="743.505859" xlink:href="#DejaVuSans-110"/>
     </g>
    </g>
    <g id="line2d_25"/>
    <g id="line2d_26">
     <g>
      <use style="fill:#1f77b4;stroke:#1f77b4;" x="401.082187" xlink:href="#m12fdacc227" y="49.687188"/>
     </g>
    </g>
    <g id="text_22">
     <!-- training samples -->
     <g transform="translate(426.282187 54.587188)scale(0.14 -0.14)">
      <defs>
       <path d="M 34.28125 27.484375 
Q 23.390625 27.484375 19.1875 25 
Q 14.984375 22.515625 14.984375 16.5 
Q 14.984375 11.71875 18.140625 8.90625 
Q 21.296875 6.109375 26.703125 6.109375 
Q 34.1875 6.109375 38.703125 11.40625 
Q 43.21875 16.703125 43.21875 25.484375 
L 43.21875 27.484375 
z
M 52.203125 31.203125 
L 52.203125 0 
L 43.21875 0 
L 43.21875 8.296875 
Q 40.140625 3.328125 35.546875 0.953125 
Q 30.953125 -1.421875 24.3125 -1.421875 
Q 15.921875 -1.421875 10.953125 3.296875 
Q 6 8.015625 6 15.921875 
Q 6 25.140625 12.171875 29.828125 
Q 18.359375 34.515625 30.609375 34.515625 
L 43.21875 34.515625 
L 43.21875 35.40625 
Q 43.21875 41.609375 39.140625 45 
Q 35.0625 48.390625 27.6875 48.390625 
Q 23 48.390625 18.546875 47.265625 
Q 14.109375 46.140625 10.015625 43.890625 
L 10.015625 52.203125 
Q 14.9375 54.109375 19.578125 55.046875 
Q 24.21875 56 28.609375 56 
Q 40.484375 56 46.34375 49.84375 
Q 52.203125 43.703125 52.203125 31.203125 
z
" id="DejaVuSans-97"/>
       <path d="M 45.40625 27.984375 
Q 45.40625 37.75 41.375 43.109375 
Q 37.359375 48.484375 30.078125 48.484375 
Q 22.859375 48.484375 18.828125 43.109375 
Q 14.796875 37.75 14.796875 27.984375 
Q 14.796875 18.265625 18.828125 12.890625 
Q 22.859375 7.515625 30.078125 7.515625 
Q 37.359375 7.515625 41.375 12.890625 
Q 45.40625 18.265625 45.40625 27.984375 
z
M 54.390625 6.78125 
Q 54.390625 -7.171875 48.1875 -13.984375 
Q 42 -20.796875 29.203125 -20.796875 
Q 24.46875 -20.796875 20.265625 -20.09375 
Q 16.0625 -19.390625 12.109375 -17.921875 
L 12.109375 -9.1875 
Q 16.0625 -11.328125 19.921875 -12.34375 
Q 23.78125 -13.375 27.78125 -13.375 
Q 36.625 -13.375 41.015625 -8.765625 
Q 45.40625 -4.15625 45.40625 5.171875 
L 45.40625 9.625 
Q 42.625 4.78125 38.28125 2.390625 
Q 33.9375 0 27.875 0 
Q 17.828125 0 11.671875 7.65625 
Q 5.515625 15.328125 5.515625 27.984375 
Q 5.515625 40.671875 11.671875 48.328125 
Q 17.828125 56 27.875 56 
Q 33.9375 56 38.28125 53.609375 
Q 42.625 51.21875 45.40625 46.390625 
L 45.40625 54.6875 
L 54.390625 54.6875 
z
" id="DejaVuSans-103"/>
       <path d="M 52 44.1875 
Q 55.375 50.25 60.0625 53.125 
Q 64.75 56 71.09375 56 
Q 79.640625 56 84.28125 50.015625 
Q 88.921875 44.046875 88.921875 33.015625 
L 88.921875 0 
L 79.890625 0 
L 79.890625 32.71875 
Q 79.890625 40.578125 77.09375 44.375 
Q 74.3125 48.1875 68.609375 48.1875 
Q 61.625 48.1875 57.5625 43.546875 
Q 53.515625 38.921875 53.515625 30.90625 
L 53.515625 0 
L 44.484375 0 
L 44.484375 32.71875 
Q 44.484375 40.625 41.703125 44.40625 
Q 38.921875 48.1875 33.109375 48.1875 
Q 26.21875 48.1875 22.15625 43.53125 
Q 18.109375 38.875 18.109375 30.90625 
L 18.109375 0 
L 9.078125 0 
L 9.078125 54.6875 
L 18.109375 54.6875 
L 18.109375 46.1875 
Q 21.1875 51.21875 25.484375 53.609375 
Q 29.78125 56 35.6875 56 
Q 41.65625 56 45.828125 52.96875 
Q 50 49.953125 52 44.1875 
z
" id="DejaVuSans-109"/>
       <path d="M 9.421875 75.984375 
L 18.40625 75.984375 
L 18.40625 0 
L 9.421875 0 
z
" id="DejaVuSans-108"/>
      </defs>
      <use xlink:href="#DejaVuSans-116"/>
      <use x="39.208984" xlink:href="#DejaVuSans-114"/>
      <use x="80.322266" xlink:href="#DejaVuSans-97"/>
      <use x="141.601562" xlink:href="#DejaVuSans-105"/>
      <use x="169.384766" xlink:href="#DejaVuSans-110"/>
      <use x="232.763672" xlink:href="#DejaVuSans-105"/>
      <use x="260.546875" xlink:href="#DejaVuSans-110"/>
      <use x="323.925781" xlink:href="#DejaVuSans-103"/>
      <use x="387.402344" xlink:href="#DejaVuSans-32"/>
      <use x="419.189453" xlink:href="#DejaVuSans-115"/>
      <use x="471.289062" xlink:href="#DejaVuSans-97"/>
      <use x="532.568359" xlink:href="#DejaVuSans-109"/>
      <use x="629.980469" xlink:href="#DejaVuSans-112"/>
      <use x="693.457031" xlink:href="#DejaVuSans-108"/>
      <use x="721.240234" xlink:href="#DejaVuSans-101"/>
      <use x="782.763672" xlink:href="#DejaVuSans-115"/>
     </g>
    </g>
    <g id="line2d_27">
     <path d="M 387.082187 70.236563 
L 415.082187 70.236563 
" style="fill:none;stroke:#ff7f0e;stroke-dasharray:7.4,3.2;stroke-dashoffset:0;stroke-width:2;"/>
    </g>
    <g id="line2d_28"/>
    <g id="text_23">
     <!-- model distribution -->
     <g transform="translate(426.282187 75.136563)scale(0.14 -0.14)">
      <use xlink:href="#DejaVuSans-109"/>
      <use x="97.412109" xlink:href="#DejaVuSans-111"/>
      <use x="158.59375" xlink:href="#DejaVuSans-100"/>
      <use x="222.070312" xlink:href="#DejaVuSans-101"/>
      <use x="283.59375" xlink:href="#DejaVuSans-108"/>
      <use x="311.376953" xlink:href="#DejaVuSans-32"/>
      <use x="343.164062" xlink:href="#DejaVuSans-100"/>
      <use x="406.640625" xlink:href="#DejaVuSans-105"/>
      <use x="434.423828" xlink:href="#DejaVuSans-115"/>
      <use x="486.523438" xlink:href="#DejaVuSans-116"/>
      <use x="525.732422" xlink:href="#DejaVuSans-114"/>
      <use x="566.845703" xlink:href="#DejaVuSans-105"/>
      <use x="594.628906" xlink:href="#DejaVuSans-98"/>
      <use x="658.105469" xlink:href="#DejaVuSans-117"/>
      <use x="721.484375" xlink:href="#DejaVuSans-116"/>
      <use x="760.693359" xlink:href="#DejaVuSans-105"/>
      <use x="788.476562" xlink:href="#DejaVuSans-111"/>
      <use x="849.658203" xlink:href="#DejaVuSans-110"/>
     </g>
    </g>
    <g id="line2d_29"/>
    <g id="line2d_30">
     <g>
      <use style="fill:#ff7f0e;stroke:#ff7f0e;" x="401.082187" xlink:href="#m1d7ce271b0" y="90.785938"/>
     </g>
    </g>
    <g id="text_24">
     <!-- generated samples -->
     <g transform="translate(426.282187 95.685938)scale(0.14 -0.14)">
      <use xlink:href="#DejaVuSans-103"/>
      <use x="63.476562" xlink:href="#DejaVuSans-101"/>
      <use x="125" xlink:href="#DejaVuSans-110"/>
      <use x="188.378906" xlink:href="#DejaVuSans-101"/>
      <use x="249.902344" xlink:href="#DejaVuSans-114"/>
      <use x="291.015625" xlink:href="#DejaVuSans-97"/>
      <use x="352.294922" xlink:href="#DejaVuSans-116"/>
      <use x="391.503906" xlink:href="#DejaVuSans-101"/>
      <use x="453.027344" xlink:href="#DejaVuSans-100"/>
      <use x="516.503906" xlink:href="#DejaVuSans-32"/>
      <use x="548.291016" xlink:href="#DejaVuSans-115"/>
      <use x="600.390625" xlink:href="#DejaVuSans-97"/>
      <use x="661.669922" xlink:href="#DejaVuSans-109"/>
      <use x="759.082031" xlink:href="#DejaVuSans-112"/>
      <use x="822.558594" xlink:href="#DejaVuSans-108"/>
      <use x="850.341797" xlink:href="#DejaVuSans-101"/>
      <use x="911.865234" xlink:href="#DejaVuSans-115"/>
     </g>
    </g>
   </g>
  </g>
 </g>
 <defs>
  <clipPath id="pb1cc7bcb30">
   <rect height="301.48" width="515.32" x="58.52" y="10.8"/>
  </clipPath>
 </defs>
</svg>
