<?xml version="1.0" encoding="utf-8" standalone="no"?>
<!DOCTYPE svg PUBLIC "-//W3C//DTD SVG 1.1//EN"
  "http://www.w3.org/Graphics/SVG/1.1/DTD/svg11.dtd">
<!-- Created with matplotlib (https://matplotlib.org/) -->
<svg height="288pt" version="1.1" viewBox="0 0 720 288" width="720pt" xmlns="http://www.w3.org/2000/svg" xmlns:xlink="http://www.w3.org/1999/xlink">
 <metadata>
  <rdf:RDF xmlns:cc="http://creativecommons.org/ns#" xmlns:dc="http://purl.org/dc/elements/1.1/" xmlns:rdf="http://www.w3.org/1999/02/22-rdf-syntax-ns#">
   <cc:Work>
    <dc:type rdf:resource="http://purl.org/dc/dcmitype/StillImage"/>
    <dc:date>2020-09-25T15:03:28.005052</dc:date>
    <dc:format>image/svg+xml</dc:format>
    <dc:creator>
     <cc:Agent>
      <dc:title>Matplotlib v3.3.1, https://matplotlib.org/</dc:title>
     </cc:Agent>
    </dc:creator>
   </cc:Work>
  </rdf:RDF>
 </metadata>
 <defs>
  <style type="text/css">*{stroke-linecap:butt;stroke-linejoin:round;}</style>
 </defs>
 <g id="figure_1">
  <g id="patch_1">
   <path d="M 0 288 
L 720 288 
L 720 0 
L 0 0 
z
" style="fill:none;"/>
  </g>
  <g id="axes_1">
   <g id="patch_2">
    <path d="M 90 252 
L 648 252 
L 648 34.56 
L 90 34.56 
z
" style="fill:#ffffff;"/>
   </g>
   <g id="patch_3">
    <path clip-path="url(#pe7f57b9263)" d="M 115.363636 252 
L 115.363636 251.985877 
L 120.436364 251.985877 
L 120.436364 251.992938 
L 125.509091 251.992938 
L 125.509091 251.978815 
L 130.581818 251.978815 
L 130.581818 251.964691 
L 135.654545 251.964691 
L 135.654545 251.964691 
L 140.727273 251.964691 
L 140.727273 251.985877 
L 145.8 251.985877 
L 145.8 251.943506 
L 150.872727 251.943506 
L 150.872727 251.936444 
L 155.945455 251.936444 
L 155.945455 251.95763 
L 161.018182 251.95763 
L 161.018182 251.971753 
L 166.090909 251.971753 
L 166.090909 251.964691 
L 171.163636 251.964691 
L 171.163636 251.908197 
L 176.236364 251.908197 
L 176.236364 251.872889 
L 181.309091 251.872889 
L 181.309091 251.901136 
L 186.381818 251.901136 
L 186.381818 251.844642 
L 191.454545 251.844642 
L 191.454545 251.872889 
L 196.527273 251.872889 
L 196.527273 251.795209 
L 201.6 251.795209 
L 201.6 251.865827 
L 206.672727 251.865827 
L 206.672727 251.802271 
L 211.745455 251.802271 
L 211.745455 251.823456 
L 216.818182 251.823456 
L 216.818182 251.703407 
L 221.890909 251.703407 
L 221.890909 251.816395 
L 226.963636 251.816395 
L 226.963636 251.745777 
L 232.036364 251.745777 
L 232.036364 251.618666 
L 237.109091 251.618666 
L 237.109091 251.604542 
L 242.181818 251.604542 
L 242.181818 251.611604 
L 247.254545 251.611604 
L 247.254545 251.646913 
L 252.327273 251.646913 
L 252.327273 251.540986 
L 257.4 251.540986 
L 257.4 251.583357 
L 262.472727 251.583357 
L 262.472727 251.526863 
L 267.545455 251.526863 
L 267.545455 251.484493 
L 272.618182 251.484493 
L 272.618182 251.371505 
L 277.690909 251.371505 
L 277.690909 251.491554 
L 282.763636 251.491554 
L 282.763636 251.470369 
L 287.836364 251.470369 
L 287.836364 251.336196 
L 292.909091 251.336196 
L 292.909091 251.237331 
L 297.981818 251.237331 
L 297.981818 251.209084 
L 303.054545 251.209084 
L 303.054545 251.096096 
L 308.127273 251.096096 
L 308.127273 250.968985 
L 313.2 250.968985 
L 313.2 250.672392 
L 318.272727 250.672392 
L 318.272727 250.248687 
L 323.345455 250.248687 
L 323.345455 250.128637 
L 328.418182 250.128637 
L 328.418182 249.542512 
L 333.490909 249.542512 
L 333.490909 248.546806 
L 338.563636 248.546806 
L 338.563636 246.294109 
L 343.636364 246.294109 
L 343.636364 245.757416 
L 348.709091 245.757416 
L 348.709091 243.596522 
L 353.781818 243.596522 
L 353.781818 232.290666 
L 358.854545 232.290666 
L 358.854545 170.458014 
L 363.927273 170.458014 
L 363.927273 44.914286 
L 369 44.914286 
L 369 200.011423 
L 374.072727 200.011423 
L 374.072727 235.150673 
L 379.145455 235.150673 
L 379.145455 243.455287 
L 384.218182 243.455287 
L 384.218182 245.983392 
L 389.290909 245.983392 
L 389.290909 247.529915 
L 394.363636 247.529915 
L 394.363636 247.974805 
L 399.436364 247.974805 
L 399.436364 249.436586 
L 404.509091 249.436586 
L 404.509091 249.959155 
L 409.581818 249.959155 
L 409.581818 250.728886 
L 414.654545 250.728886 
L 414.654545 250.714762 
L 419.727273 250.714762 
L 419.727273 251.089035 
L 424.8 251.089035 
L 424.8 251.279702 
L 429.872727 251.279702 
L 429.872727 251.265578 
L 434.945455 251.265578 
L 434.945455 251.180837 
L 440.018182 251.180837 
L 440.018182 251.237331 
L 445.090909 251.237331 
L 445.090909 251.484493 
L 450.163636 251.484493 
L 450.163636 251.646913 
L 455.236364 251.646913 
L 455.236364 251.618666 
L 460.309091 251.618666 
L 460.309091 251.533925 
L 465.381818 251.533925 
L 465.381818 251.59748 
L 470.454545 251.59748 
L 470.454545 251.583357 
L 475.527273 251.583357 
L 475.527273 251.653974 
L 480.6 251.653974 
L 480.6 251.703407 
L 485.672727 251.703407 
L 485.672727 251.682221 
L 490.745455 251.682221 
L 490.745455 251.689283 
L 495.818182 251.689283 
L 495.818182 251.752839 
L 500.890909 251.752839 
L 500.890909 251.682221 
L 505.963636 251.682221 
L 505.963636 251.752839 
L 511.036364 251.752839 
L 511.036364 251.745777 
L 516.109091 251.745777 
L 516.109091 251.703407 
L 521.181818 251.703407 
L 521.181818 251.731654 
L 526.254545 251.731654 
L 526.254545 251.83758 
L 531.327273 251.83758 
L 531.327273 251.809333 
L 536.4 251.809333 
L 536.4 251.830518 
L 541.472727 251.830518 
L 541.472727 251.823456 
L 546.545455 251.823456 
L 546.545455 251.894074 
L 551.618182 251.894074 
L 551.618182 251.901136 
L 556.690909 251.901136 
L 556.690909 251.901136 
L 561.763636 251.901136 
L 561.763636 251.936444 
L 566.836364 251.936444 
L 566.836364 251.971753 
L 571.909091 251.971753 
L 571.909091 251.971753 
L 576.981818 251.971753 
L 576.981818 251.950568 
L 582.054545 251.950568 
L 582.054545 251.936444 
L 587.127273 251.936444 
L 587.127273 251.978815 
L 592.2 251.978815 
L 592.2 251.978815 
L 597.272727 251.978815 
L 597.272727 251.964691 
L 602.345455 251.964691 
L 602.345455 251.985877 
L 607.418182 251.985877 
L 607.418182 251.95763 
L 612.490909 251.95763 
L 612.490909 251.985877 
L 617.563636 251.985877 
L 617.563636 251.985877 
L 622.636364 251.985877 
L 622.636364 252 
L 617.563636 252 
L 617.563636 252 
L 612.490909 252 
L 612.490909 252 
L 607.418182 252 
L 607.418182 252 
L 602.345455 252 
L 602.345455 252 
L 597.272727 252 
L 597.272727 252 
L 592.2 252 
L 592.2 252 
L 587.127273 252 
L 587.127273 252 
L 582.054545 252 
L 582.054545 252 
L 576.981818 252 
L 576.981818 252 
L 571.909091 252 
L 571.909091 252 
L 566.836364 252 
L 566.836364 252 
L 561.763636 252 
L 561.763636 252 
L 556.690909 252 
L 556.690909 252 
L 551.618182 252 
L 551.618182 252 
L 546.545455 252 
L 546.545455 252 
L 541.472727 252 
L 541.472727 252 
L 536.4 252 
L 536.4 252 
L 531.327273 252 
L 531.327273 252 
L 526.254545 252 
L 526.254545 252 
L 521.181818 252 
L 521.181818 252 
L 516.109091 252 
L 516.109091 252 
L 511.036364 252 
L 511.036364 252 
L 505.963636 252 
L 505.963636 252 
L 500.890909 252 
L 500.890909 252 
L 495.818182 252 
L 495.818182 252 
L 490.745455 252 
L 490.745455 252 
L 485.672727 252 
L 485.672727 252 
L 480.6 252 
L 480.6 252 
L 475.527273 252 
L 475.527273 252 
L 470.454545 252 
L 470.454545 252 
L 465.381818 252 
L 465.381818 252 
L 460.309091 252 
L 460.309091 252 
L 455.236364 252 
L 455.236364 252 
L 450.163636 252 
L 450.163636 252 
L 445.090909 252 
L 445.090909 252 
L 440.018182 252 
L 440.018182 252 
L 434.945455 252 
L 434.945455 252 
L 429.872727 252 
L 429.872727 252 
L 424.8 252 
L 424.8 252 
L 419.727273 252 
L 419.727273 252 
L 414.654545 252 
L 414.654545 252 
L 409.581818 252 
L 409.581818 252 
L 404.509091 252 
L 404.509091 252 
L 399.436364 252 
L 399.436364 252 
L 394.363636 252 
L 394.363636 252 
L 389.290909 252 
L 389.290909 252 
L 384.218182 252 
L 384.218182 252 
L 379.145455 252 
L 379.145455 252 
L 374.072727 252 
L 374.072727 252 
L 369 252 
L 369 252 
L 363.927273 252 
L 363.927273 252 
L 358.854545 252 
L 358.854545 252 
L 353.781818 252 
L 353.781818 252 
L 348.709091 252 
L 348.709091 252 
L 343.636364 252 
L 343.636364 252 
L 338.563636 252 
L 338.563636 252 
L 333.490909 252 
L 333.490909 252 
L 328.418182 252 
L 328.418182 252 
L 323.345455 252 
L 323.345455 252 
L 318.272727 252 
L 318.272727 252 
L 313.2 252 
L 313.2 252 
L 308.127273 252 
L 308.127273 252 
L 303.054545 252 
L 303.054545 252 
L 297.981818 252 
L 297.981818 252 
L 292.909091 252 
L 292.909091 252 
L 287.836364 252 
L 287.836364 252 
L 282.763636 252 
L 282.763636 252 
L 277.690909 252 
L 277.690909 252 
L 272.618182 252 
L 272.618182 252 
L 267.545455 252 
L 267.545455 252 
L 262.472727 252 
L 262.472727 252 
L 257.4 252 
L 257.4 252 
L 252.327273 252 
L 252.327273 252 
L 247.254545 252 
L 247.254545 252 
L 242.181818 252 
L 242.181818 252 
L 237.109091 252 
L 237.109091 252 
L 232.036364 252 
L 232.036364 252 
L 226.963636 252 
L 226.963636 252 
L 221.890909 252 
L 221.890909 252 
L 216.818182 252 
L 216.818182 252 
L 211.745455 252 
L 211.745455 252 
L 206.672727 252 
L 206.672727 252 
L 201.6 252 
L 201.6 252 
L 196.527273 252 
L 196.527273 252 
L 191.454545 252 
L 191.454545 252 
L 186.381818 252 
L 186.381818 252 
L 181.309091 252 
L 181.309091 252 
L 176.236364 252 
L 176.236364 252 
L 171.163636 252 
L 171.163636 252 
L 166.090909 252 
L 166.090909 252 
L 161.018182 252 
L 161.018182 252 
L 155.945455 252 
L 155.945455 252 
L 150.872727 252 
L 150.872727 252 
L 145.8 252 
L 145.8 252 
L 140.727273 252 
L 140.727273 252 
L 135.654545 252 
L 135.654545 252 
L 130.581818 252 
L 130.581818 252 
L 125.509091 252 
L 125.509091 252 
L 120.436364 252 
L 120.436364 252 
z
" style="fill:#1f77b4;opacity:0.5;"/>
   </g>
   <g id="matplotlib.axis_1">
    <g id="xtick_1">
     <g id="line2d_1">
      <defs>
       <path d="M 0 0 
L 0 3.5 
" id="md6f43e7ecd" style="stroke:#000000;stroke-width:0.8;"/>
      </defs>
      <g>
       <use style="stroke:#000000;stroke-width:0.8;" x="137.743316" xlink:href="#md6f43e7ecd" y="252"/>
      </g>
     </g>
     <g id="text_1">
      <!-- −1.5 -->
      <g transform="translate(125.601909 266.598437)scale(0.1 -0.1)">
       <defs>
        <path d="M 10.59375 35.5 
L 73.1875 35.5 
L 73.1875 27.203125 
L 10.59375 27.203125 
z
" id="DejaVuSans-8722"/>
        <path d="M 12.40625 8.296875 
L 28.515625 8.296875 
L 28.515625 63.921875 
L 10.984375 60.40625 
L 10.984375 69.390625 
L 28.421875 72.90625 
L 38.28125 72.90625 
L 38.28125 8.296875 
L 54.390625 8.296875 
L 54.390625 0 
L 12.40625 0 
z
" id="DejaVuSans-49"/>
        <path d="M 10.6875 12.40625 
L 21 12.40625 
L 21 0 
L 10.6875 0 
z
" id="DejaVuSans-46"/>
        <path d="M 10.796875 72.90625 
L 49.515625 72.90625 
L 49.515625 64.59375 
L 19.828125 64.59375 
L 19.828125 46.734375 
Q 21.96875 47.46875 24.109375 47.828125 
Q 26.265625 48.1875 28.421875 48.1875 
Q 40.625 48.1875 47.75 41.5 
Q 54.890625 34.8125 54.890625 23.390625 
Q 54.890625 11.625 47.5625 5.09375 
Q 40.234375 -1.421875 26.90625 -1.421875 
Q 22.3125 -1.421875 17.546875 -0.640625 
Q 12.796875 0.140625 7.71875 1.703125 
L 7.71875 11.625 
Q 12.109375 9.234375 16.796875 8.0625 
Q 21.484375 6.890625 26.703125 6.890625 
Q 35.15625 6.890625 40.078125 11.328125 
Q 45.015625 15.765625 45.015625 23.390625 
Q 45.015625 31 40.078125 35.4375 
Q 35.15625 39.890625 26.703125 39.890625 
Q 22.75 39.890625 18.8125 39.015625 
Q 14.890625 38.140625 10.796875 36.28125 
z
" id="DejaVuSans-53"/>
       </defs>
       <use xlink:href="#DejaVuSans-8722"/>
       <use x="83.789062" xlink:href="#DejaVuSans-49"/>
       <use x="147.412109" xlink:href="#DejaVuSans-46"/>
       <use x="179.199219" xlink:href="#DejaVuSans-53"/>
      </g>
     </g>
    </g>
    <g id="xtick_2">
     <g id="line2d_2">
      <g>
       <use style="stroke:#000000;stroke-width:0.8;" x="213.834225" xlink:href="#md6f43e7ecd" y="252"/>
      </g>
     </g>
     <g id="text_2">
      <!-- −1.0 -->
      <g transform="translate(201.692818 266.598437)scale(0.1 -0.1)">
       <defs>
        <path d="M 31.78125 66.40625 
Q 24.171875 66.40625 20.328125 58.90625 
Q 16.5 51.421875 16.5 36.375 
Q 16.5 21.390625 20.328125 13.890625 
Q 24.171875 6.390625 31.78125 6.390625 
Q 39.453125 6.390625 43.28125 13.890625 
Q 47.125 21.390625 47.125 36.375 
Q 47.125 51.421875 43.28125 58.90625 
Q 39.453125 66.40625 31.78125 66.40625 
z
M 31.78125 74.21875 
Q 44.046875 74.21875 50.515625 64.515625 
Q 56.984375 54.828125 56.984375 36.375 
Q 56.984375 17.96875 50.515625 8.265625 
Q 44.046875 -1.421875 31.78125 -1.421875 
Q 19.53125 -1.421875 13.0625 8.265625 
Q 6.59375 17.96875 6.59375 36.375 
Q 6.59375 54.828125 13.0625 64.515625 
Q 19.53125 74.21875 31.78125 74.21875 
z
" id="DejaVuSans-48"/>
       </defs>
       <use xlink:href="#DejaVuSans-8722"/>
       <use x="83.789062" xlink:href="#DejaVuSans-49"/>
       <use x="147.412109" xlink:href="#DejaVuSans-46"/>
       <use x="179.199219" xlink:href="#DejaVuSans-48"/>
      </g>
     </g>
    </g>
    <g id="xtick_3">
     <g id="line2d_3">
      <g>
       <use style="stroke:#000000;stroke-width:0.8;" x="289.925134" xlink:href="#md6f43e7ecd" y="252"/>
      </g>
     </g>
     <g id="text_3">
      <!-- −0.5 -->
      <g transform="translate(277.783727 266.598437)scale(0.1 -0.1)">
       <use xlink:href="#DejaVuSans-8722"/>
       <use x="83.789062" xlink:href="#DejaVuSans-48"/>
       <use x="147.412109" xlink:href="#DejaVuSans-46"/>
       <use x="179.199219" xlink:href="#DejaVuSans-53"/>
      </g>
     </g>
    </g>
    <g id="xtick_4">
     <g id="line2d_4">
      <g>
       <use style="stroke:#000000;stroke-width:0.8;" x="366.016043" xlink:href="#md6f43e7ecd" y="252"/>
      </g>
     </g>
     <g id="text_4">
      <!-- 0.0 -->
      <g transform="translate(358.06448 266.598437)scale(0.1 -0.1)">
       <use xlink:href="#DejaVuSans-48"/>
       <use x="63.623047" xlink:href="#DejaVuSans-46"/>
       <use x="95.410156" xlink:href="#DejaVuSans-48"/>
      </g>
     </g>
    </g>
    <g id="xtick_5">
     <g id="line2d_5">
      <g>
       <use style="stroke:#000000;stroke-width:0.8;" x="442.106952" xlink:href="#md6f43e7ecd" y="252"/>
      </g>
     </g>
     <g id="text_5">
      <!-- 0.5 -->
      <g transform="translate(434.155389 266.598437)scale(0.1 -0.1)">
       <use xlink:href="#DejaVuSans-48"/>
       <use x="63.623047" xlink:href="#DejaVuSans-46"/>
       <use x="95.410156" xlink:href="#DejaVuSans-53"/>
      </g>
     </g>
    </g>
    <g id="xtick_6">
     <g id="line2d_6">
      <g>
       <use style="stroke:#000000;stroke-width:0.8;" x="518.197861" xlink:href="#md6f43e7ecd" y="252"/>
      </g>
     </g>
     <g id="text_6">
      <!-- 1.0 -->
      <g transform="translate(510.246298 266.598437)scale(0.1 -0.1)">
       <use xlink:href="#DejaVuSans-49"/>
       <use x="63.623047" xlink:href="#DejaVuSans-46"/>
       <use x="95.410156" xlink:href="#DejaVuSans-48"/>
      </g>
     </g>
    </g>
    <g id="xtick_7">
     <g id="line2d_7">
      <g>
       <use style="stroke:#000000;stroke-width:0.8;" x="594.28877" xlink:href="#md6f43e7ecd" y="252"/>
      </g>
     </g>
     <g id="text_7">
      <!-- 1.5 -->
      <g transform="translate(586.337208 266.598437)scale(0.1 -0.1)">
       <use xlink:href="#DejaVuSans-49"/>
       <use x="63.623047" xlink:href="#DejaVuSans-46"/>
       <use x="95.410156" xlink:href="#DejaVuSans-53"/>
      </g>
     </g>
    </g>
   </g>
   <g id="matplotlib.axis_2">
    <g id="ytick_1">
     <g id="line2d_8">
      <defs>
       <path d="M 0 0 
L -3.5 0 
" id="ma6d2a91011" style="stroke:#000000;stroke-width:0.8;"/>
      </defs>
      <g>
       <use style="stroke:#000000;stroke-width:0.8;" x="90" xlink:href="#ma6d2a91011" y="252"/>
      </g>
     </g>
     <g id="text_8">
      <!-- 0 -->
      <g transform="translate(76.6375 255.799219)scale(0.1 -0.1)">
       <use xlink:href="#DejaVuSans-48"/>
      </g>
     </g>
    </g>
    <g id="ytick_2">
     <g id="line2d_9">
      <g>
       <use style="stroke:#000000;stroke-width:0.8;" x="90" xlink:href="#ma6d2a91011" y="221.26728"/>
      </g>
     </g>
     <g id="text_9">
      <!-- 2 -->
      <g transform="translate(76.6375 225.066498)scale(0.1 -0.1)">
       <defs>
        <path d="M 19.1875 8.296875 
L 53.609375 8.296875 
L 53.609375 0 
L 7.328125 0 
L 7.328125 8.296875 
Q 12.9375 14.109375 22.625 23.890625 
Q 32.328125 33.6875 34.8125 36.53125 
Q 39.546875 41.84375 41.421875 45.53125 
Q 43.3125 49.21875 43.3125 52.78125 
Q 43.3125 58.59375 39.234375 62.25 
Q 35.15625 65.921875 28.609375 65.921875 
Q 23.96875 65.921875 18.8125 64.3125 
Q 13.671875 62.703125 7.8125 59.421875 
L 7.8125 69.390625 
Q 13.765625 71.78125 18.9375 73 
Q 24.125 74.21875 28.421875 74.21875 
Q 39.75 74.21875 46.484375 68.546875 
Q 53.21875 62.890625 53.21875 53.421875 
Q 53.21875 48.921875 51.53125 44.890625 
Q 49.859375 40.875 45.40625 35.40625 
Q 44.1875 33.984375 37.640625 27.21875 
Q 31.109375 20.453125 19.1875 8.296875 
z
" id="DejaVuSans-50"/>
       </defs>
       <use xlink:href="#DejaVuSans-50"/>
      </g>
     </g>
    </g>
    <g id="ytick_3">
     <g id="line2d_10">
      <g>
       <use style="stroke:#000000;stroke-width:0.8;" x="90" xlink:href="#ma6d2a91011" y="190.534559"/>
      </g>
     </g>
     <g id="text_10">
      <!-- 4 -->
      <g transform="translate(76.6375 194.333778)scale(0.1 -0.1)">
       <defs>
        <path d="M 37.796875 64.3125 
L 12.890625 25.390625 
L 37.796875 25.390625 
z
M 35.203125 72.90625 
L 47.609375 72.90625 
L 47.609375 25.390625 
L 58.015625 25.390625 
L 58.015625 17.1875 
L 47.609375 17.1875 
L 47.609375 0 
L 37.796875 0 
L 37.796875 17.1875 
L 4.890625 17.1875 
L 4.890625 26.703125 
z
" id="DejaVuSans-52"/>
       </defs>
       <use xlink:href="#DejaVuSans-52"/>
      </g>
     </g>
    </g>
    <g id="ytick_4">
     <g id="line2d_11">
      <g>
       <use style="stroke:#000000;stroke-width:0.8;" x="90" xlink:href="#ma6d2a91011" y="159.801839"/>
      </g>
     </g>
     <g id="text_11">
      <!-- 6 -->
      <g transform="translate(76.6375 163.601057)scale(0.1 -0.1)">
       <defs>
        <path d="M 33.015625 40.375 
Q 26.375 40.375 22.484375 35.828125 
Q 18.609375 31.296875 18.609375 23.390625 
Q 18.609375 15.53125 22.484375 10.953125 
Q 26.375 6.390625 33.015625 6.390625 
Q 39.65625 6.390625 43.53125 10.953125 
Q 47.40625 15.53125 47.40625 23.390625 
Q 47.40625 31.296875 43.53125 35.828125 
Q 39.65625 40.375 33.015625 40.375 
z
M 52.59375 71.296875 
L 52.59375 62.3125 
Q 48.875 64.0625 45.09375 64.984375 
Q 41.3125 65.921875 37.59375 65.921875 
Q 27.828125 65.921875 22.671875 59.328125 
Q 17.53125 52.734375 16.796875 39.40625 
Q 19.671875 43.65625 24.015625 45.921875 
Q 28.375 48.1875 33.59375 48.1875 
Q 44.578125 48.1875 50.953125 41.515625 
Q 57.328125 34.859375 57.328125 23.390625 
Q 57.328125 12.15625 50.6875 5.359375 
Q 44.046875 -1.421875 33.015625 -1.421875 
Q 20.359375 -1.421875 13.671875 8.265625 
Q 6.984375 17.96875 6.984375 36.375 
Q 6.984375 53.65625 15.1875 63.9375 
Q 23.390625 74.21875 37.203125 74.21875 
Q 40.921875 74.21875 44.703125 73.484375 
Q 48.484375 72.75 52.59375 71.296875 
z
" id="DejaVuSans-54"/>
       </defs>
       <use xlink:href="#DejaVuSans-54"/>
      </g>
     </g>
    </g>
    <g id="ytick_5">
     <g id="line2d_12">
      <g>
       <use style="stroke:#000000;stroke-width:0.8;" x="90" xlink:href="#ma6d2a91011" y="129.069118"/>
      </g>
     </g>
     <g id="text_12">
      <!-- 8 -->
      <g transform="translate(76.6375 132.868337)scale(0.1 -0.1)">
       <defs>
        <path d="M 31.78125 34.625 
Q 24.75 34.625 20.71875 30.859375 
Q 16.703125 27.09375 16.703125 20.515625 
Q 16.703125 13.921875 20.71875 10.15625 
Q 24.75 6.390625 31.78125 6.390625 
Q 38.8125 6.390625 42.859375 10.171875 
Q 46.921875 13.96875 46.921875 20.515625 
Q 46.921875 27.09375 42.890625 30.859375 
Q 38.875 34.625 31.78125 34.625 
z
M 21.921875 38.8125 
Q 15.578125 40.375 12.03125 44.71875 
Q 8.5 49.078125 8.5 55.328125 
Q 8.5 64.0625 14.71875 69.140625 
Q 20.953125 74.21875 31.78125 74.21875 
Q 42.671875 74.21875 48.875 69.140625 
Q 55.078125 64.0625 55.078125 55.328125 
Q 55.078125 49.078125 51.53125 44.71875 
Q 48 40.375 41.703125 38.8125 
Q 48.828125 37.15625 52.796875 32.3125 
Q 56.78125 27.484375 56.78125 20.515625 
Q 56.78125 9.90625 50.3125 4.234375 
Q 43.84375 -1.421875 31.78125 -1.421875 
Q 19.734375 -1.421875 13.25 4.234375 
Q 6.78125 9.90625 6.78125 20.515625 
Q 6.78125 27.484375 10.78125 32.3125 
Q 14.796875 37.15625 21.921875 38.8125 
z
M 18.3125 54.390625 
Q 18.3125 48.734375 21.84375 45.5625 
Q 25.390625 42.390625 31.78125 42.390625 
Q 38.140625 42.390625 41.71875 45.5625 
Q 45.3125 48.734375 45.3125 54.390625 
Q 45.3125 60.0625 41.71875 63.234375 
Q 38.140625 66.40625 31.78125 66.40625 
Q 25.390625 66.40625 21.84375 63.234375 
Q 18.3125 60.0625 18.3125 54.390625 
z
" id="DejaVuSans-56"/>
       </defs>
       <use xlink:href="#DejaVuSans-56"/>
      </g>
     </g>
    </g>
    <g id="ytick_6">
     <g id="line2d_13">
      <g>
       <use style="stroke:#000000;stroke-width:0.8;" x="90" xlink:href="#ma6d2a91011" y="98.336398"/>
      </g>
     </g>
     <g id="text_13">
      <!-- 10 -->
      <g transform="translate(70.275 102.135616)scale(0.1 -0.1)">
       <use xlink:href="#DejaVuSans-49"/>
       <use x="63.623047" xlink:href="#DejaVuSans-48"/>
      </g>
     </g>
    </g>
    <g id="ytick_7">
     <g id="line2d_14">
      <g>
       <use style="stroke:#000000;stroke-width:0.8;" x="90" xlink:href="#ma6d2a91011" y="67.603677"/>
      </g>
     </g>
     <g id="text_14">
      <!-- 12 -->
      <g transform="translate(70.275 71.402896)scale(0.1 -0.1)">
       <use xlink:href="#DejaVuSans-49"/>
       <use x="63.623047" xlink:href="#DejaVuSans-50"/>
      </g>
     </g>
    </g>
    <g id="ytick_8">
     <g id="line2d_15">
      <g>
       <use style="stroke:#000000;stroke-width:0.8;" x="90" xlink:href="#ma6d2a91011" y="36.870957"/>
      </g>
     </g>
     <g id="text_15">
      <!-- 14 -->
      <g transform="translate(70.275 40.670175)scale(0.1 -0.1)">
       <use xlink:href="#DejaVuSans-49"/>
       <use x="63.623047" xlink:href="#DejaVuSans-52"/>
      </g>
     </g>
    </g>
   </g>
   <g id="line2d_16">
    <path clip-path="url(#pe7f57b9263)" d="M 137.743316 252 
L 142.354886 252 
L 146.966456 252 
L 151.578026 252 
L 156.189596 252 
L 160.801167 252 
L 165.412737 252 
L 170.024307 252 
L 174.635877 252 
L 179.247448 252 
L 183.859018 252 
L 188.470588 252 
L 193.082158 252 
L 197.693729 252 
L 202.305299 252 
L 206.916869 251.999999 
L 211.528439 251.999997 
L 216.14001 251.999991 
L 220.75158 251.999978 
L 225.36315 251.999947 
L 229.97472 251.999874 
L 234.586291 251.99971 
L 239.197861 251.999351 
L 243.809431 251.998588 
L 248.421001 251.997016 
L 253.032572 251.993874 
L 257.644142 251.987779 
L 262.255712 251.976315 
L 266.867282 251.955399 
L 271.478853 251.918393 
L 276.090423 251.854922 
L 280.701993 251.749402 
L 285.313563 251.579416 
L 289.925134 251.314154 
L 294.536704 250.913325 
L 299.148274 250.327092 
L 303.759844 249.497678 
L 308.371415 248.363251 
L 312.982985 246.864502 
L 317.594555 244.953866 
L 322.206125 242.606699 
L 326.817696 239.832968 
L 331.429266 236.687358 
L 336.040836 233.275309 
L 340.652406 229.752653 
L 345.263977 226.317289 
L 349.875547 223.1927 
L 354.487117 220.604797 
L 359.098687 218.755249 
L 363.710258 217.795604 
L 368.321828 217.806793 
L 372.933398 218.787866 
L 377.544968 220.656118 
L 382.156539 223.258604 
L 386.768109 226.392808 
L 391.379679 229.832581 
L 395.991249 233.354787 
L 400.60282 236.762328 
L 405.21439 239.900457 
L 409.82596 242.664914 
L 414.43753 245.002115 
L 419.049101 246.903004 
L 423.660671 248.392878 
L 428.272241 249.519687 
L 432.883811 250.342891 
L 437.495382 250.924291 
L 442.106952 251.321519 
L 446.718522 251.584205 
L 451.330092 251.752417 
L 455.941663 251.856761 
L 460.553233 251.919481 
L 465.164803 251.956022 
L 469.776373 251.976661 
L 474.387944 251.987966 
L 478.999514 251.993971 
L 483.611084 251.997065 
L 488.222654 251.998612 
L 492.834225 251.999362 
L 497.445795 251.999715 
L 502.057365 251.999876 
L 506.668935 251.999948 
L 511.280506 251.999979 
L 515.892076 251.999992 
L 520.503646 251.999997 
L 525.115216 251.999999 
L 529.726787 252 
L 534.338357 252 
L 538.949927 252 
L 543.561497 252 
L 548.173068 252 
L 552.784638 252 
L 557.396208 252 
L 562.007778 252 
L 566.619349 252 
L 571.230919 252 
L 575.842489 252 
L 580.454059 252 
L 585.06563 252 
L 589.6772 252 
L 594.28877 252 
" style="fill:none;stroke:#000000;stroke-linecap:square;stroke-opacity:0.6;stroke-width:2;"/>
   </g>
   <g id="patch_4">
    <path d="M 90 252 
L 90 34.56 
" style="fill:none;stroke:#000000;stroke-linecap:square;stroke-linejoin:miter;stroke-width:0.8;"/>
   </g>
   <g id="patch_5">
    <path d="M 648 252 
L 648 34.56 
" style="fill:none;stroke:#000000;stroke-linecap:square;stroke-linejoin:miter;stroke-width:0.8;"/>
   </g>
   <g id="patch_6">
    <path d="M 90 252 
L 648 252 
" style="fill:none;stroke:#000000;stroke-linecap:square;stroke-linejoin:miter;stroke-width:0.8;"/>
   </g>
   <g id="patch_7">
    <path d="M 90 34.56 
L 648 34.56 
" style="fill:none;stroke:#000000;stroke-linecap:square;stroke-linejoin:miter;stroke-width:0.8;"/>
   </g>
   <g id="legend_1">
    <g id="patch_8">
     <path d="M 475.625 86.85875 
L 638.2 86.85875 
Q 641 86.85875 641 84.05875 
L 641 44.36 
Q 641 41.56 638.2 41.56 
L 475.625 41.56 
Q 472.825 41.56 472.825 44.36 
L 472.825 84.05875 
Q 472.825 86.85875 475.625 86.85875 
z
" style="fill:#ffffff;opacity:0.8;stroke:#cccccc;stroke-linejoin:miter;"/>
    </g>
    <g id="patch_9">
     <path d="M 478.425 57.797813 
L 506.425 57.797813 
L 506.425 47.997813 
L 478.425 47.997813 
z
" style="fill:#1f77b4;opacity:0.5;"/>
    </g>
    <g id="text_16">
     <!-- histogram -->
     <g transform="translate(517.625 57.797813)scale(0.14 -0.14)">
      <defs>
       <path d="M 54.890625 33.015625 
L 54.890625 0 
L 45.90625 0 
L 45.90625 32.71875 
Q 45.90625 40.484375 42.875 44.328125 
Q 39.84375 48.1875 33.796875 48.1875 
Q 26.515625 48.1875 22.3125 43.546875 
Q 18.109375 38.921875 18.109375 30.90625 
L 18.109375 0 
L 9.078125 0 
L 9.078125 75.984375 
L 18.109375 75.984375 
L 18.109375 46.1875 
Q 21.34375 51.125 25.703125 53.5625 
Q 30.078125 56 35.796875 56 
Q 45.21875 56 50.046875 50.171875 
Q 54.890625 44.34375 54.890625 33.015625 
z
" id="DejaVuSans-104"/>
       <path d="M 9.421875 54.6875 
L 18.40625 54.6875 
L 18.40625 0 
L 9.421875 0 
z
M 9.421875 75.984375 
L 18.40625 75.984375 
L 18.40625 64.59375 
L 9.421875 64.59375 
z
" id="DejaVuSans-105"/>
       <path d="M 44.28125 53.078125 
L 44.28125 44.578125 
Q 40.484375 46.53125 36.375 47.5 
Q 32.28125 48.484375 27.875 48.484375 
Q 21.1875 48.484375 17.84375 46.4375 
Q 14.5 44.390625 14.5 40.28125 
Q 14.5 37.15625 16.890625 35.375 
Q 19.28125 33.59375 26.515625 31.984375 
L 29.59375 31.296875 
Q 39.15625 29.25 43.1875 25.515625 
Q 47.21875 21.78125 47.21875 15.09375 
Q 47.21875 7.46875 41.1875 3.015625 
Q 35.15625 -1.421875 24.609375 -1.421875 
Q 20.21875 -1.421875 15.453125 -0.5625 
Q 10.6875 0.296875 5.421875 2 
L 5.421875 11.28125 
Q 10.40625 8.6875 15.234375 7.390625 
Q 20.0625 6.109375 24.8125 6.109375 
Q 31.15625 6.109375 34.5625 8.28125 
Q 37.984375 10.453125 37.984375 14.40625 
Q 37.984375 18.0625 35.515625 20.015625 
Q 33.0625 21.96875 24.703125 23.78125 
L 21.578125 24.515625 
Q 13.234375 26.265625 9.515625 29.90625 
Q 5.8125 33.546875 5.8125 39.890625 
Q 5.8125 47.609375 11.28125 51.796875 
Q 16.75 56 26.8125 56 
Q 31.78125 56 36.171875 55.265625 
Q 40.578125 54.546875 44.28125 53.078125 
z
" id="DejaVuSans-115"/>
       <path d="M 18.3125 70.21875 
L 18.3125 54.6875 
L 36.8125 54.6875 
L 36.8125 47.703125 
L 18.3125 47.703125 
L 18.3125 18.015625 
Q 18.3125 11.328125 20.140625 9.421875 
Q 21.96875 7.515625 27.59375 7.515625 
L 36.8125 7.515625 
L 36.8125 0 
L 27.59375 0 
Q 17.1875 0 13.234375 3.875 
Q 9.28125 7.765625 9.28125 18.015625 
L 9.28125 47.703125 
L 2.6875 47.703125 
L 2.6875 54.6875 
L 9.28125 54.6875 
L 9.28125 70.21875 
z
" id="DejaVuSans-116"/>
       <path d="M 30.609375 48.390625 
Q 23.390625 48.390625 19.1875 42.75 
Q 14.984375 37.109375 14.984375 27.296875 
Q 14.984375 17.484375 19.15625 11.84375 
Q 23.34375 6.203125 30.609375 6.203125 
Q 37.796875 6.203125 41.984375 11.859375 
Q 46.1875 17.53125 46.1875 27.296875 
Q 46.1875 37.015625 41.984375 42.703125 
Q 37.796875 48.390625 30.609375 48.390625 
z
M 30.609375 56 
Q 42.328125 56 49.015625 48.375 
Q 55.71875 40.765625 55.71875 27.296875 
Q 55.71875 13.875 49.015625 6.21875 
Q 42.328125 -1.421875 30.609375 -1.421875 
Q 18.84375 -1.421875 12.171875 6.21875 
Q 5.515625 13.875 5.515625 27.296875 
Q 5.515625 40.765625 12.171875 48.375 
Q 18.84375 56 30.609375 56 
z
" id="DejaVuSans-111"/>
       <path d="M 45.40625 27.984375 
Q 45.40625 37.75 41.375 43.109375 
Q 37.359375 48.484375 30.078125 48.484375 
Q 22.859375 48.484375 18.828125 43.109375 
Q 14.796875 37.75 14.796875 27.984375 
Q 14.796875 18.265625 18.828125 12.890625 
Q 22.859375 7.515625 30.078125 7.515625 
Q 37.359375 7.515625 41.375 12.890625 
Q 45.40625 18.265625 45.40625 27.984375 
z
M 54.390625 6.78125 
Q 54.390625 -7.171875 48.1875 -13.984375 
Q 42 -20.796875 29.203125 -20.796875 
Q 24.46875 -20.796875 20.265625 -20.09375 
Q 16.0625 -19.390625 12.109375 -17.921875 
L 12.109375 -9.1875 
Q 16.0625 -11.328125 19.921875 -12.34375 
Q 23.78125 -13.375 27.78125 -13.375 
Q 36.625 -13.375 41.015625 -8.765625 
Q 45.40625 -4.15625 45.40625 5.171875 
L 45.40625 9.625 
Q 42.625 4.78125 38.28125 2.390625 
Q 33.9375 0 27.875 0 
Q 17.828125 0 11.671875 7.65625 
Q 5.515625 15.328125 5.515625 27.984375 
Q 5.515625 40.671875 11.671875 48.328125 
Q 17.828125 56 27.875 56 
Q 33.9375 56 38.28125 53.609375 
Q 42.625 51.21875 45.40625 46.390625 
L 45.40625 54.6875 
L 54.390625 54.6875 
z
" id="DejaVuSans-103"/>
       <path d="M 41.109375 46.296875 
Q 39.59375 47.171875 37.8125 47.578125 
Q 36.03125 48 33.890625 48 
Q 26.265625 48 22.1875 43.046875 
Q 18.109375 38.09375 18.109375 28.8125 
L 18.109375 0 
L 9.078125 0 
L 9.078125 54.6875 
L 18.109375 54.6875 
L 18.109375 46.1875 
Q 20.953125 51.171875 25.484375 53.578125 
Q 30.03125 56 36.53125 56 
Q 37.453125 56 38.578125 55.875 
Q 39.703125 55.765625 41.0625 55.515625 
z
" id="DejaVuSans-114"/>
       <path d="M 34.28125 27.484375 
Q 23.390625 27.484375 19.1875 25 
Q 14.984375 22.515625 14.984375 16.5 
Q 14.984375 11.71875 18.140625 8.90625 
Q 21.296875 6.109375 26.703125 6.109375 
Q 34.1875 6.109375 38.703125 11.40625 
Q 43.21875 16.703125 43.21875 25.484375 
L 43.21875 27.484375 
z
M 52.203125 31.203125 
L 52.203125 0 
L 43.21875 0 
L 43.21875 8.296875 
Q 40.140625 3.328125 35.546875 0.953125 
Q 30.953125 -1.421875 24.3125 -1.421875 
Q 15.921875 -1.421875 10.953125 3.296875 
Q 6 8.015625 6 15.921875 
Q 6 25.140625 12.171875 29.828125 
Q 18.359375 34.515625 30.609375 34.515625 
L 43.21875 34.515625 
L 43.21875 35.40625 
Q 43.21875 41.609375 39.140625 45 
Q 35.0625 48.390625 27.6875 48.390625 
Q 23 48.390625 18.546875 47.265625 
Q 14.109375 46.140625 10.015625 43.890625 
L 10.015625 52.203125 
Q 14.9375 54.109375 19.578125 55.046875 
Q 24.21875 56 28.609375 56 
Q 40.484375 56 46.34375 49.84375 
Q 52.203125 43.703125 52.203125 31.203125 
z
" id="DejaVuSans-97"/>
       <path d="M 52 44.1875 
Q 55.375 50.25 60.0625 53.125 
Q 64.75 56 71.09375 56 
Q 79.640625 56 84.28125 50.015625 
Q 88.921875 44.046875 88.921875 33.015625 
L 88.921875 0 
L 79.890625 0 
L 79.890625 32.71875 
Q 79.890625 40.578125 77.09375 44.375 
Q 74.3125 48.1875 68.609375 48.1875 
Q 61.625 48.1875 57.5625 43.546875 
Q 53.515625 38.921875 53.515625 30.90625 
L 53.515625 0 
L 44.484375 0 
L 44.484375 32.71875 
Q 44.484375 40.625 41.703125 44.40625 
Q 38.921875 48.1875 33.109375 48.1875 
Q 26.21875 48.1875 22.15625 43.53125 
Q 18.109375 38.875 18.109375 30.90625 
L 18.109375 0 
L 9.078125 0 
L 9.078125 54.6875 
L 18.109375 54.6875 
L 18.109375 46.1875 
Q 21.1875 51.21875 25.484375 53.609375 
Q 29.78125 56 35.6875 56 
Q 41.65625 56 45.828125 52.96875 
Q 50 49.953125 52 44.1875 
z
" id="DejaVuSans-109"/>
      </defs>
      <use xlink:href="#DejaVuSans-104"/>
      <use x="63.378906" xlink:href="#DejaVuSans-105"/>
      <use x="91.162109" xlink:href="#DejaVuSans-115"/>
      <use x="143.261719" xlink:href="#DejaVuSans-116"/>
      <use x="182.470703" xlink:href="#DejaVuSans-111"/>
      <use x="243.652344" xlink:href="#DejaVuSans-103"/>
      <use x="307.128906" xlink:href="#DejaVuSans-114"/>
      <use x="348.242188" xlink:href="#DejaVuSans-97"/>
      <use x="409.521484" xlink:href="#DejaVuSans-109"/>
     </g>
    </g>
    <g id="line2d_17">
     <path d="M 478.425 73.447188 
L 506.425 73.447188 
" style="fill:none;stroke:#000000;stroke-linecap:square;stroke-opacity:0.6;stroke-width:2;"/>
    </g>
    <g id="line2d_18"/>
    <g id="text_17">
     <!-- Gaussian log-pdf -->
     <g transform="translate(517.625 78.347188)scale(0.14 -0.14)">
      <defs>
       <path d="M 59.515625 10.40625 
L 59.515625 29.984375 
L 43.40625 29.984375 
L 43.40625 38.09375 
L 69.28125 38.09375 
L 69.28125 6.78125 
Q 63.578125 2.734375 56.6875 0.65625 
Q 49.8125 -1.421875 42 -1.421875 
Q 24.90625 -1.421875 15.25 8.5625 
Q 5.609375 18.5625 5.609375 36.375 
Q 5.609375 54.25 15.25 64.234375 
Q 24.90625 74.21875 42 74.21875 
Q 49.125 74.21875 55.546875 72.453125 
Q 61.96875 70.703125 67.390625 67.28125 
L 67.390625 56.78125 
Q 61.921875 61.421875 55.765625 63.765625 
Q 49.609375 66.109375 42.828125 66.109375 
Q 29.4375 66.109375 22.71875 58.640625 
Q 16.015625 51.171875 16.015625 36.375 
Q 16.015625 21.625 22.71875 14.15625 
Q 29.4375 6.6875 42.828125 6.6875 
Q 48.046875 6.6875 52.140625 7.59375 
Q 56.25 8.5 59.515625 10.40625 
z
" id="DejaVuSans-71"/>
       <path d="M 8.5 21.578125 
L 8.5 54.6875 
L 17.484375 54.6875 
L 17.484375 21.921875 
Q 17.484375 14.15625 20.5 10.265625 
Q 23.53125 6.390625 29.59375 6.390625 
Q 36.859375 6.390625 41.078125 11.03125 
Q 45.3125 15.671875 45.3125 23.6875 
L 45.3125 54.6875 
L 54.296875 54.6875 
L 54.296875 0 
L 45.3125 0 
L 45.3125 8.40625 
Q 42.046875 3.421875 37.71875 1 
Q 33.40625 -1.421875 27.6875 -1.421875 
Q 18.265625 -1.421875 13.375 4.4375 
Q 8.5 10.296875 8.5 21.578125 
z
M 31.109375 56 
z
" id="DejaVuSans-117"/>
       <path d="M 54.890625 33.015625 
L 54.890625 0 
L 45.90625 0 
L 45.90625 32.71875 
Q 45.90625 40.484375 42.875 44.328125 
Q 39.84375 48.1875 33.796875 48.1875 
Q 26.515625 48.1875 22.3125 43.546875 
Q 18.109375 38.921875 18.109375 30.90625 
L 18.109375 0 
L 9.078125 0 
L 9.078125 54.6875 
L 18.109375 54.6875 
L 18.109375 46.1875 
Q 21.34375 51.125 25.703125 53.5625 
Q 30.078125 56 35.796875 56 
Q 45.21875 56 50.046875 50.171875 
Q 54.890625 44.34375 54.890625 33.015625 
z
" id="DejaVuSans-110"/>
       <path id="DejaVuSans-32"/>
       <path d="M 9.421875 75.984375 
L 18.40625 75.984375 
L 18.40625 0 
L 9.421875 0 
z
" id="DejaVuSans-108"/>
       <path d="M 4.890625 31.390625 
L 31.203125 31.390625 
L 31.203125 23.390625 
L 4.890625 23.390625 
z
" id="DejaVuSans-45"/>
       <path d="M 18.109375 8.203125 
L 18.109375 -20.796875 
L 9.078125 -20.796875 
L 9.078125 54.6875 
L 18.109375 54.6875 
L 18.109375 46.390625 
Q 20.953125 51.265625 25.265625 53.625 
Q 29.59375 56 35.59375 56 
Q 45.5625 56 51.78125 48.09375 
Q 58.015625 40.1875 58.015625 27.296875 
Q 58.015625 14.40625 51.78125 6.484375 
Q 45.5625 -1.421875 35.59375 -1.421875 
Q 29.59375 -1.421875 25.265625 0.953125 
Q 20.953125 3.328125 18.109375 8.203125 
z
M 48.6875 27.296875 
Q 48.6875 37.203125 44.609375 42.84375 
Q 40.53125 48.484375 33.40625 48.484375 
Q 26.265625 48.484375 22.1875 42.84375 
Q 18.109375 37.203125 18.109375 27.296875 
Q 18.109375 17.390625 22.1875 11.75 
Q 26.265625 6.109375 33.40625 6.109375 
Q 40.53125 6.109375 44.609375 11.75 
Q 48.6875 17.390625 48.6875 27.296875 
z
" id="DejaVuSans-112"/>
       <path d="M 45.40625 46.390625 
L 45.40625 75.984375 
L 54.390625 75.984375 
L 54.390625 0 
L 45.40625 0 
L 45.40625 8.203125 
Q 42.578125 3.328125 38.25 0.953125 
Q 33.9375 -1.421875 27.875 -1.421875 
Q 17.96875 -1.421875 11.734375 6.484375 
Q 5.515625 14.40625 5.515625 27.296875 
Q 5.515625 40.1875 11.734375 48.09375 
Q 17.96875 56 27.875 56 
Q 33.9375 56 38.25 53.625 
Q 42.578125 51.265625 45.40625 46.390625 
z
M 14.796875 27.296875 
Q 14.796875 17.390625 18.875 11.75 
Q 22.953125 6.109375 30.078125 6.109375 
Q 37.203125 6.109375 41.296875 11.75 
Q 45.40625 17.390625 45.40625 27.296875 
Q 45.40625 37.203125 41.296875 42.84375 
Q 37.203125 48.484375 30.078125 48.484375 
Q 22.953125 48.484375 18.875 42.84375 
Q 14.796875 37.203125 14.796875 27.296875 
z
" id="DejaVuSans-100"/>
       <path d="M 37.109375 75.984375 
L 37.109375 68.5 
L 28.515625 68.5 
Q 23.6875 68.5 21.796875 66.546875 
Q 19.921875 64.59375 19.921875 59.515625 
L 19.921875 54.6875 
L 34.71875 54.6875 
L 34.71875 47.703125 
L 19.921875 47.703125 
L 19.921875 0 
L 10.890625 0 
L 10.890625 47.703125 
L 2.296875 47.703125 
L 2.296875 54.6875 
L 10.890625 54.6875 
L 10.890625 58.5 
Q 10.890625 67.625 15.140625 71.796875 
Q 19.390625 75.984375 28.609375 75.984375 
z
" id="DejaVuSans-102"/>
      </defs>
      <use xlink:href="#DejaVuSans-71"/>
      <use x="77.490234" xlink:href="#DejaVuSans-97"/>
      <use x="138.769531" xlink:href="#DejaVuSans-117"/>
      <use x="202.148438" xlink:href="#DejaVuSans-115"/>
      <use x="254.248047" xlink:href="#DejaVuSans-115"/>
      <use x="306.347656" xlink:href="#DejaVuSans-105"/>
      <use x="334.130859" xlink:href="#DejaVuSans-97"/>
      <use x="395.410156" xlink:href="#DejaVuSans-110"/>
      <use x="458.789062" xlink:href="#DejaVuSans-32"/>
      <use x="490.576172" xlink:href="#DejaVuSans-108"/>
      <use x="518.359375" xlink:href="#DejaVuSans-111"/>
      <use x="579.541016" xlink:href="#DejaVuSans-103"/>
      <use x="643.017578" xlink:href="#DejaVuSans-45"/>
      <use x="679.101562" xlink:href="#DejaVuSans-112"/>
      <use x="742.578125" xlink:href="#DejaVuSans-100"/>
      <use x="806.054688" xlink:href="#DejaVuSans-102"/>
     </g>
    </g>
   </g>
  </g>
 </g>
 <defs>
  <clipPath id="pe7f57b9263">
   <rect height="217.44" width="558" x="90" y="34.56"/>
  </clipPath>
 </defs>
</svg>
