<?xml version="1.0" encoding="utf-8" standalone="no"?>
<!DOCTYPE svg PUBLIC "-//W3C//DTD SVG 1.1//EN"
  "http://www.w3.org/Graphics/SVG/1.1/DTD/svg11.dtd">
<!-- Created with matplotlib (https://matplotlib.org/) -->
<svg height="288pt" version="1.1" viewBox="0 0 720 288" width="720pt" xmlns="http://www.w3.org/2000/svg" xmlns:xlink="http://www.w3.org/1999/xlink">
 <metadata>
  <rdf:RDF xmlns:cc="http://creativecommons.org/ns#" xmlns:dc="http://purl.org/dc/elements/1.1/" xmlns:rdf="http://www.w3.org/1999/02/22-rdf-syntax-ns#">
   <cc:Work>
    <dc:type rdf:resource="http://purl.org/dc/dcmitype/StillImage"/>
    <dc:date>2020-09-25T15:03:30.233994</dc:date>
    <dc:format>image/svg+xml</dc:format>
    <dc:creator>
     <cc:Agent>
      <dc:title>Matplotlib v3.3.1, https://matplotlib.org/</dc:title>
     </cc:Agent>
    </dc:creator>
   </cc:Work>
  </rdf:RDF>
 </metadata>
 <defs>
  <style type="text/css">*{stroke-linecap:butt;stroke-linejoin:round;}</style>
 </defs>
 <g id="figure_1">
  <g id="patch_1">
   <path d="M 0 288 
L 720 288 
L 720 0 
L 0 0 
z
" style="fill:none;"/>
  </g>
  <g id="axes_1">
   <g id="patch_2">
    <path d="M 90 252 
L 648 252 
L 648 34.56 
L 90 34.56 
z
" style="fill:#ffffff;"/>
   </g>
   <g id="patch_3">
    <path clip-path="url(#pff7228be6a)" d="M 115.363636 54503.28 
L 115.363636 308.351147 
L 120.436364 308.351147 
L 120.436364 324.715137 
L 125.509091 324.715137 
L 125.509091 298.778826 
L 130.581818 298.778826 
L 130.581818 286.719128 
L 135.654545 286.719128 
L 135.654545 286.719128 
L 140.727273 286.719128 
L 140.727273 308.351147 
L 145.8 308.351147 
L 145.8 275.623166 
L 150.872727 275.623166 
L 150.872727 272.842515 
L 155.945455 272.842515 
L 155.945455 282.414835 
L 161.018182 282.414835 
L 161.018182 291.987156 
L 166.090909 291.987156 
L 166.090909 286.719128 
L 171.163636 286.719128 
L 171.163636 264.161177 
L 176.236364 264.161177 
L 176.236364 256.478524 
L 181.309091 256.478524 
L 181.309091 262.411617 
L 186.381818 262.411617 
L 186.381818 251.74104 
L 191.454545 251.74104 
L 191.454545 256.478524 
L 196.527273 256.478524 
L 196.527273 245.219182 
L 201.6 245.219182 
L 201.6 255.202092 
L 206.672727 255.202092 
L 206.672727 246.047627 
L 211.745455 246.047627 
L 211.745455 248.723118 
L 216.818182 248.723118 
L 216.818182 236.475306 
L 221.890909 236.475306 
L 221.890909 247.797186 
L 226.963636 247.797186 
L 226.963636 240.114533 
L 232.036364 240.114533 
L 232.036364 230.542213 
L 237.109091 230.542213 
L 237.109091 229.683636 
L 242.181818 229.683636 
L 242.181818 230.109022 
L 247.254545 230.109022 
L 247.254545 232.359128 
L 252.327273 232.359128 
L 252.327273 226.165167 
L 257.4 226.165167 
L 257.4 228.451622 
L 262.472727 228.451622 
L 262.472727 225.449711 
L 267.545455 225.449711 
L 267.545455 223.424907 
L 272.618182 223.424907 
L 272.618182 218.746297 
L 277.690909 218.746297 
L 277.690909 223.750543 
L 282.763636 223.750543 
L 282.763636 222.786807 
L 287.836364 222.786807 
L 287.836364 217.455907 
L 292.909091 217.455907 
L 292.909091 214.178222 
L 297.981818 214.178222 
L 297.981818 213.319646 
L 303.054545 213.319646 
L 303.054545 210.167203 
L 308.127273 210.167203 
L 308.127273 207.060916 
L 313.2 207.060916 
L 313.2 201.091917 
L 318.272727 201.091917 
L 318.272727 194.552744 
L 323.345455 194.552744 
L 323.345455 192.987492 
L 328.418182 192.987492 
L 328.418182 186.55489 
L 333.490909 186.55489 
L 333.490909 178.524308 
L 338.563636 178.524308 
L 338.563636 166.668256 
L 343.636364 166.668256 
L 343.636364 164.545992 
L 348.709091 164.545992 
L 348.709091 157.528404 
L 353.781818 157.528404 
L 353.781818 137.403633 
L 358.854545 137.403633 
L 358.854545 103.879313 
L 363.927273 103.879313 
L 363.927273 81.876079 
L 369 81.876079 
L 369 114.505245 
L 374.072727 114.505245 
L 374.072727 141.104972 
L 379.145455 141.104972 
L 379.145455 157.134925 
L 384.218182 157.134925 
L 384.218182 165.416441 
L 389.290909 165.416441 
L 389.290909 172.430832 
L 394.363636 172.430832 
L 394.363636 174.90578 
L 399.436364 174.90578 
L 399.436364 185.558613 
L 404.509091 185.558613 
L 404.509091 190.940731 
L 409.581818 190.940731 
L 409.581818 202.118524 
L 414.654545 202.118524 
L 414.654545 201.857657 
L 419.727273 201.857657 
L 419.727273 209.983481 
L 424.8 209.983481 
L 424.8 215.527632 
L 429.872727 215.527632 
L 429.872727 215.069205 
L 434.945455 215.069205 
L 434.945455 212.491201 
L 440.018182 212.491201 
L 440.018182 214.178222 
L 445.090909 214.178222 
L 445.090909 223.424907 
L 450.163636 223.424907 
L 450.163636 232.359128 
L 455.236364 232.359128 
L 455.236364 230.542213 
L 460.309091 230.542213 
L 460.309091 225.804729 
L 465.381818 225.804729 
L 465.381818 229.26578 
L 470.454545 229.26578 
L 470.454545 228.451622 
L 475.527273 228.451622 
L 475.527273 232.836078 
L 480.6 232.836078 
L 480.6 236.475306 
L 485.672727 236.475306 
L 485.672727 234.846505 
L 490.745455 234.846505 
L 490.745455 235.37705 
L 495.818182 235.37705 
L 495.818182 240.779598 
L 500.890909 240.779598 
L 500.890909 234.846505 
L 505.963636 234.846505 
L 505.963636 240.779598 
L 511.036364 240.779598 
L 511.036364 240.114533 
L 516.109091 240.114533 
L 516.109091 236.475306 
L 521.181818 236.475306 
L 521.181818 238.838101 
L 526.254545 238.838101 
L 526.254545 250.691612 
L 531.327273 250.691612 
L 531.327273 246.906203 
L 536.4 246.906203 
L 536.4 249.686854 
L 541.472727 249.686854 
L 541.472727 248.723118 
L 546.545455 248.723118 
L 546.545455 260.782816 
L 551.618182 260.782816 
L 551.618182 262.411617 
L 556.690909 262.411617 
L 556.690909 262.411617 
L 561.763636 262.411617 
L 561.763636 272.842515 
L 566.836364 272.842515 
L 566.836364 291.987156 
L 571.909091 291.987156 
L 571.909091 291.987156 
L 576.981818 291.987156 
L 576.981818 278.775608 
L 582.054545 278.775608 
L 582.054545 272.842515 
L 587.127273 272.842515 
L 587.127273 298.778826 
L 592.2 298.778826 
L 592.2 298.778826 
L 597.272727 298.778826 
L 597.272727 286.719128 
L 602.345455 286.719128 
L 602.345455 308.351147 
L 607.418182 308.351147 
L 607.418182 282.414835 
L 612.490909 282.414835 
L 612.490909 308.351147 
L 617.563636 308.351147 
L 617.563636 308.351147 
L 622.636364 308.351147 
L 622.636364 54503.28 
L 617.563636 54503.28 
L 617.563636 54503.28 
L 612.490909 54503.28 
L 612.490909 54503.28 
L 607.418182 54503.28 
L 607.418182 54503.28 
L 602.345455 54503.28 
L 602.345455 54503.28 
L 597.272727 54503.28 
L 597.272727 54503.28 
L 592.2 54503.28 
L 592.2 54503.28 
L 587.127273 54503.28 
L 587.127273 54503.28 
L 582.054545 54503.28 
L 582.054545 54503.28 
L 576.981818 54503.28 
L 576.981818 54503.28 
L 571.909091 54503.28 
L 571.909091 54503.28 
L 566.836364 54503.28 
L 566.836364 54503.28 
L 561.763636 54503.28 
L 561.763636 54503.28 
L 556.690909 54503.28 
L 556.690909 54503.28 
L 551.618182 54503.28 
L 551.618182 54503.28 
L 546.545455 54503.28 
L 546.545455 54503.28 
L 541.472727 54503.28 
L 541.472727 54503.28 
L 536.4 54503.28 
L 536.4 54503.28 
L 531.327273 54503.28 
L 531.327273 54503.28 
L 526.254545 54503.28 
L 526.254545 54503.28 
L 521.181818 54503.28 
L 521.181818 54503.28 
L 516.109091 54503.28 
L 516.109091 54503.28 
L 511.036364 54503.28 
L 511.036364 54503.28 
L 505.963636 54503.28 
L 505.963636 54503.28 
L 500.890909 54503.28 
L 500.890909 54503.28 
L 495.818182 54503.28 
L 495.818182 54503.28 
L 490.745455 54503.28 
L 490.745455 54503.28 
L 485.672727 54503.28 
L 485.672727 54503.28 
L 480.6 54503.28 
L 480.6 54503.28 
L 475.527273 54503.28 
L 475.527273 54503.28 
L 470.454545 54503.28 
L 470.454545 54503.28 
L 465.381818 54503.28 
L 465.381818 54503.28 
L 460.309091 54503.28 
L 460.309091 54503.28 
L 455.236364 54503.28 
L 455.236364 54503.28 
L 450.163636 54503.28 
L 450.163636 54503.28 
L 445.090909 54503.28 
L 445.090909 54503.28 
L 440.018182 54503.28 
L 440.018182 54503.28 
L 434.945455 54503.28 
L 434.945455 54503.28 
L 429.872727 54503.28 
L 429.872727 54503.28 
L 424.8 54503.28 
L 424.8 54503.28 
L 419.727273 54503.28 
L 419.727273 54503.28 
L 414.654545 54503.28 
L 414.654545 54503.28 
L 409.581818 54503.28 
L 409.581818 54503.28 
L 404.509091 54503.28 
L 404.509091 54503.28 
L 399.436364 54503.28 
L 399.436364 54503.28 
L 394.363636 54503.28 
L 394.363636 54503.28 
L 389.290909 54503.28 
L 389.290909 54503.28 
L 384.218182 54503.28 
L 384.218182 54503.28 
L 379.145455 54503.28 
L 379.145455 54503.28 
L 374.072727 54503.28 
L 374.072727 54503.28 
L 369 54503.28 
L 369 54503.28 
L 363.927273 54503.28 
L 363.927273 54503.28 
L 358.854545 54503.28 
L 358.854545 54503.28 
L 353.781818 54503.28 
L 353.781818 54503.28 
L 348.709091 54503.28 
L 348.709091 54503.28 
L 343.636364 54503.28 
L 343.636364 54503.28 
L 338.563636 54503.28 
L 338.563636 54503.28 
L 333.490909 54503.28 
L 333.490909 54503.28 
L 328.418182 54503.28 
L 328.418182 54503.28 
L 323.345455 54503.28 
L 323.345455 54503.28 
L 318.272727 54503.28 
L 318.272727 54503.28 
L 313.2 54503.28 
L 313.2 54503.28 
L 308.127273 54503.28 
L 308.127273 54503.28 
L 303.054545 54503.28 
L 303.054545 54503.28 
L 297.981818 54503.28 
L 297.981818 54503.28 
L 292.909091 54503.28 
L 292.909091 54503.28 
L 287.836364 54503.28 
L 287.836364 54503.28 
L 282.763636 54503.28 
L 282.763636 54503.28 
L 277.690909 54503.28 
L 277.690909 54503.28 
L 272.618182 54503.28 
L 272.618182 54503.28 
L 267.545455 54503.28 
L 267.545455 54503.28 
L 262.472727 54503.28 
L 262.472727 54503.28 
L 257.4 54503.28 
L 257.4 54503.28 
L 252.327273 54503.28 
L 252.327273 54503.28 
L 247.254545 54503.28 
L 247.254545 54503.28 
L 242.181818 54503.28 
L 242.181818 54503.28 
L 237.109091 54503.28 
L 237.109091 54503.28 
L 232.036364 54503.28 
L 232.036364 54503.28 
L 226.963636 54503.28 
L 226.963636 54503.28 
L 221.890909 54503.28 
L 221.890909 54503.28 
L 216.818182 54503.28 
L 216.818182 54503.28 
L 211.745455 54503.28 
L 211.745455 54503.28 
L 206.672727 54503.28 
L 206.672727 54503.28 
L 201.6 54503.28 
L 201.6 54503.28 
L 196.527273 54503.28 
L 196.527273 54503.28 
L 191.454545 54503.28 
L 191.454545 54503.28 
L 186.381818 54503.28 
L 186.381818 54503.28 
L 181.309091 54503.28 
L 181.309091 54503.28 
L 176.236364 54503.28 
L 176.236364 54503.28 
L 171.163636 54503.28 
L 171.163636 54503.28 
L 166.090909 54503.28 
L 166.090909 54503.28 
L 161.018182 54503.28 
L 161.018182 54503.28 
L 155.945455 54503.28 
L 155.945455 54503.28 
L 150.872727 54503.28 
L 150.872727 54503.28 
L 145.8 54503.28 
L 145.8 54503.28 
L 140.727273 54503.28 
L 140.727273 54503.28 
L 135.654545 54503.28 
L 135.654545 54503.28 
L 130.581818 54503.28 
L 130.581818 54503.28 
L 125.509091 54503.28 
L 125.509091 54503.28 
L 120.436364 54503.28 
L 120.436364 54503.28 
z
" style="fill:#1f77b4;opacity:0.5;"/>
   </g>
   <g id="matplotlib.axis_1">
    <g id="xtick_1">
     <g id="line2d_1">
      <defs>
       <path d="M 0 0 
L 0 3.5 
" id="m50bd9afa74" style="stroke:#000000;stroke-width:0.8;"/>
      </defs>
      <g>
       <use style="stroke:#000000;stroke-width:0.8;" x="137.743316" xlink:href="#m50bd9afa74" y="252"/>
      </g>
     </g>
     <g id="text_1">
      <!-- −1.5 -->
      <g transform="translate(125.601909 266.598437)scale(0.1 -0.1)">
       <defs>
        <path d="M 10.59375 35.5 
L 73.1875 35.5 
L 73.1875 27.203125 
L 10.59375 27.203125 
z
" id="DejaVuSans-8722"/>
        <path d="M 12.40625 8.296875 
L 28.515625 8.296875 
L 28.515625 63.921875 
L 10.984375 60.40625 
L 10.984375 69.390625 
L 28.421875 72.90625 
L 38.28125 72.90625 
L 38.28125 8.296875 
L 54.390625 8.296875 
L 54.390625 0 
L 12.40625 0 
z
" id="DejaVuSans-49"/>
        <path d="M 10.6875 12.40625 
L 21 12.40625 
L 21 0 
L 10.6875 0 
z
" id="DejaVuSans-46"/>
        <path d="M 10.796875 72.90625 
L 49.515625 72.90625 
L 49.515625 64.59375 
L 19.828125 64.59375 
L 19.828125 46.734375 
Q 21.96875 47.46875 24.109375 47.828125 
Q 26.265625 48.1875 28.421875 48.1875 
Q 40.625 48.1875 47.75 41.5 
Q 54.890625 34.8125 54.890625 23.390625 
Q 54.890625 11.625 47.5625 5.09375 
Q 40.234375 -1.421875 26.90625 -1.421875 
Q 22.3125 -1.421875 17.546875 -0.640625 
Q 12.796875 0.140625 7.71875 1.703125 
L 7.71875 11.625 
Q 12.109375 9.234375 16.796875 8.0625 
Q 21.484375 6.890625 26.703125 6.890625 
Q 35.15625 6.890625 40.078125 11.328125 
Q 45.015625 15.765625 45.015625 23.390625 
Q 45.015625 31 40.078125 35.4375 
Q 35.15625 39.890625 26.703125 39.890625 
Q 22.75 39.890625 18.8125 39.015625 
Q 14.890625 38.140625 10.796875 36.28125 
z
" id="DejaVuSans-53"/>
       </defs>
       <use xlink:href="#DejaVuSans-8722"/>
       <use x="83.789062" xlink:href="#DejaVuSans-49"/>
       <use x="147.412109" xlink:href="#DejaVuSans-46"/>
       <use x="179.199219" xlink:href="#DejaVuSans-53"/>
      </g>
     </g>
    </g>
    <g id="xtick_2">
     <g id="line2d_2">
      <g>
       <use style="stroke:#000000;stroke-width:0.8;" x="213.834225" xlink:href="#m50bd9afa74" y="252"/>
      </g>
     </g>
     <g id="text_2">
      <!-- −1.0 -->
      <g transform="translate(201.692818 266.598437)scale(0.1 -0.1)">
       <defs>
        <path d="M 31.78125 66.40625 
Q 24.171875 66.40625 20.328125 58.90625 
Q 16.5 51.421875 16.5 36.375 
Q 16.5 21.390625 20.328125 13.890625 
Q 24.171875 6.390625 31.78125 6.390625 
Q 39.453125 6.390625 43.28125 13.890625 
Q 47.125 21.390625 47.125 36.375 
Q 47.125 51.421875 43.28125 58.90625 
Q 39.453125 66.40625 31.78125 66.40625 
z
M 31.78125 74.21875 
Q 44.046875 74.21875 50.515625 64.515625 
Q 56.984375 54.828125 56.984375 36.375 
Q 56.984375 17.96875 50.515625 8.265625 
Q 44.046875 -1.421875 31.78125 -1.421875 
Q 19.53125 -1.421875 13.0625 8.265625 
Q 6.59375 17.96875 6.59375 36.375 
Q 6.59375 54.828125 13.0625 64.515625 
Q 19.53125 74.21875 31.78125 74.21875 
z
" id="DejaVuSans-48"/>
       </defs>
       <use xlink:href="#DejaVuSans-8722"/>
       <use x="83.789062" xlink:href="#DejaVuSans-49"/>
       <use x="147.412109" xlink:href="#DejaVuSans-46"/>
       <use x="179.199219" xlink:href="#DejaVuSans-48"/>
      </g>
     </g>
    </g>
    <g id="xtick_3">
     <g id="line2d_3">
      <g>
       <use style="stroke:#000000;stroke-width:0.8;" x="289.925134" xlink:href="#m50bd9afa74" y="252"/>
      </g>
     </g>
     <g id="text_3">
      <!-- −0.5 -->
      <g transform="translate(277.783727 266.598437)scale(0.1 -0.1)">
       <use xlink:href="#DejaVuSans-8722"/>
       <use x="83.789062" xlink:href="#DejaVuSans-48"/>
       <use x="147.412109" xlink:href="#DejaVuSans-46"/>
       <use x="179.199219" xlink:href="#DejaVuSans-53"/>
      </g>
     </g>
    </g>
    <g id="xtick_4">
     <g id="line2d_4">
      <g>
       <use style="stroke:#000000;stroke-width:0.8;" x="366.016043" xlink:href="#m50bd9afa74" y="252"/>
      </g>
     </g>
     <g id="text_4">
      <!-- 0.0 -->
      <g transform="translate(358.06448 266.598437)scale(0.1 -0.1)">
       <use xlink:href="#DejaVuSans-48"/>
       <use x="63.623047" xlink:href="#DejaVuSans-46"/>
       <use x="95.410156" xlink:href="#DejaVuSans-48"/>
      </g>
     </g>
    </g>
    <g id="xtick_5">
     <g id="line2d_5">
      <g>
       <use style="stroke:#000000;stroke-width:0.8;" x="442.106952" xlink:href="#m50bd9afa74" y="252"/>
      </g>
     </g>
     <g id="text_5">
      <!-- 0.5 -->
      <g transform="translate(434.155389 266.598437)scale(0.1 -0.1)">
       <use xlink:href="#DejaVuSans-48"/>
       <use x="63.623047" xlink:href="#DejaVuSans-46"/>
       <use x="95.410156" xlink:href="#DejaVuSans-53"/>
      </g>
     </g>
    </g>
    <g id="xtick_6">
     <g id="line2d_6">
      <g>
       <use style="stroke:#000000;stroke-width:0.8;" x="518.197861" xlink:href="#m50bd9afa74" y="252"/>
      </g>
     </g>
     <g id="text_6">
      <!-- 1.0 -->
      <g transform="translate(510.246298 266.598437)scale(0.1 -0.1)">
       <use xlink:href="#DejaVuSans-49"/>
       <use x="63.623047" xlink:href="#DejaVuSans-46"/>
       <use x="95.410156" xlink:href="#DejaVuSans-48"/>
      </g>
     </g>
    </g>
    <g id="xtick_7">
     <g id="line2d_7">
      <g>
       <use style="stroke:#000000;stroke-width:0.8;" x="594.28877" xlink:href="#m50bd9afa74" y="252"/>
      </g>
     </g>
     <g id="text_7">
      <!-- 1.5 -->
      <g transform="translate(586.337208 266.598437)scale(0.1 -0.1)">
       <use xlink:href="#DejaVuSans-49"/>
       <use x="63.623047" xlink:href="#DejaVuSans-46"/>
       <use x="95.410156" xlink:href="#DejaVuSans-53"/>
      </g>
     </g>
    </g>
   </g>
   <g id="matplotlib.axis_2">
    <g id="ytick_1">
     <g id="line2d_8">
      <defs>
       <path d="M 0 0 
L -3.5 0 
" id="ma03c935d14" style="stroke:#000000;stroke-width:0.8;"/>
      </defs>
      <g>
       <use style="stroke:#000000;stroke-width:0.8;" x="90" xlink:href="#ma03c935d14" y="252"/>
      </g>
     </g>
     <g id="text_8">
      <!-- $\mathdefault{10^{-2}}$ -->
      <g transform="translate(59.5 255.799219)scale(0.1 -0.1)">
       <defs>
        <path d="M 19.1875 8.296875 
L 53.609375 8.296875 
L 53.609375 0 
L 7.328125 0 
L 7.328125 8.296875 
Q 12.9375 14.109375 22.625 23.890625 
Q 32.328125 33.6875 34.8125 36.53125 
Q 39.546875 41.84375 41.421875 45.53125 
Q 43.3125 49.21875 43.3125 52.78125 
Q 43.3125 58.59375 39.234375 62.25 
Q 35.15625 65.921875 28.609375 65.921875 
Q 23.96875 65.921875 18.8125 64.3125 
Q 13.671875 62.703125 7.8125 59.421875 
L 7.8125 69.390625 
Q 13.765625 71.78125 18.9375 73 
Q 24.125 74.21875 28.421875 74.21875 
Q 39.75 74.21875 46.484375 68.546875 
Q 53.21875 62.890625 53.21875 53.421875 
Q 53.21875 48.921875 51.53125 44.890625 
Q 49.859375 40.875 45.40625 35.40625 
Q 44.1875 33.984375 37.640625 27.21875 
Q 31.109375 20.453125 19.1875 8.296875 
z
" id="DejaVuSans-50"/>
       </defs>
       <use transform="translate(0 0.765625)" xlink:href="#DejaVuSans-49"/>
       <use transform="translate(63.623047 0.765625)" xlink:href="#DejaVuSans-48"/>
       <use transform="translate(128.203125 39.046875)scale(0.7)" xlink:href="#DejaVuSans-8722"/>
       <use transform="translate(186.855469 39.046875)scale(0.7)" xlink:href="#DejaVuSans-50"/>
      </g>
     </g>
    </g>
    <g id="ytick_2">
     <g id="line2d_9">
      <g>
       <use style="stroke:#000000;stroke-width:0.8;" x="90" xlink:href="#ma03c935d14" y="197.64"/>
      </g>
     </g>
     <g id="text_9">
      <!-- $\mathdefault{10^{-1}}$ -->
      <g transform="translate(59.5 201.439219)scale(0.1 -0.1)">
       <use transform="translate(0 0.684375)" xlink:href="#DejaVuSans-49"/>
       <use transform="translate(63.623047 0.684375)" xlink:href="#DejaVuSans-48"/>
       <use transform="translate(128.203125 38.965625)scale(0.7)" xlink:href="#DejaVuSans-8722"/>
       <use transform="translate(186.855469 38.965625)scale(0.7)" xlink:href="#DejaVuSans-49"/>
      </g>
     </g>
    </g>
    <g id="ytick_3">
     <g id="line2d_10">
      <g>
       <use style="stroke:#000000;stroke-width:0.8;" x="90" xlink:href="#ma03c935d14" y="143.28"/>
      </g>
     </g>
     <g id="text_10">
      <!-- $\mathdefault{10^{0}}$ -->
      <g transform="translate(65.4 147.079219)scale(0.1 -0.1)">
       <use transform="translate(0 0.765625)" xlink:href="#DejaVuSans-49"/>
       <use transform="translate(63.623047 0.765625)" xlink:href="#DejaVuSans-48"/>
       <use transform="translate(128.203125 39.046875)scale(0.7)" xlink:href="#DejaVuSans-48"/>
      </g>
     </g>
    </g>
    <g id="ytick_4">
     <g id="line2d_11">
      <g>
       <use style="stroke:#000000;stroke-width:0.8;" x="90" xlink:href="#ma03c935d14" y="88.92"/>
      </g>
     </g>
     <g id="text_11">
      <!-- $\mathdefault{10^{1}}$ -->
      <g transform="translate(65.4 92.719219)scale(0.1 -0.1)">
       <use transform="translate(0 0.684375)" xlink:href="#DejaVuSans-49"/>
       <use transform="translate(63.623047 0.684375)" xlink:href="#DejaVuSans-48"/>
       <use transform="translate(128.203125 38.965625)scale(0.7)" xlink:href="#DejaVuSans-49"/>
      </g>
     </g>
    </g>
    <g id="ytick_5">
     <g id="line2d_12">
      <g>
       <use style="stroke:#000000;stroke-width:0.8;" x="90" xlink:href="#ma03c935d14" y="34.56"/>
      </g>
     </g>
     <g id="text_12">
      <!-- $\mathdefault{10^{2}}$ -->
      <g transform="translate(65.4 38.359219)scale(0.1 -0.1)">
       <use transform="translate(0 0.765625)" xlink:href="#DejaVuSans-49"/>
       <use transform="translate(63.623047 0.765625)" xlink:href="#DejaVuSans-48"/>
       <use transform="translate(128.203125 39.046875)scale(0.7)" xlink:href="#DejaVuSans-50"/>
      </g>
     </g>
    </g>
    <g id="ytick_6">
     <g id="line2d_13">
      <defs>
       <path d="M 0 0 
L -2 0 
" id="m33bd50b029" style="stroke:#000000;stroke-width:0.6;"/>
      </defs>
      <g>
       <use style="stroke:#000000;stroke-width:0.6;" x="90" xlink:href="#m33bd50b029" y="235.636009"/>
      </g>
     </g>
    </g>
    <g id="ytick_7">
     <g id="line2d_14">
      <g>
       <use style="stroke:#000000;stroke-width:0.6;" x="90" xlink:href="#m33bd50b029" y="226.063689"/>
      </g>
     </g>
    </g>
    <g id="ytick_8">
     <g id="line2d_15">
      <g>
       <use style="stroke:#000000;stroke-width:0.6;" x="90" xlink:href="#m33bd50b029" y="219.272019"/>
      </g>
     </g>
    </g>
    <g id="ytick_9">
     <g id="line2d_16">
      <g>
       <use style="stroke:#000000;stroke-width:0.6;" x="90" xlink:href="#m33bd50b029" y="214.003991"/>
      </g>
     </g>
    </g>
    <g id="ytick_10">
     <g id="line2d_17">
      <g>
       <use style="stroke:#000000;stroke-width:0.6;" x="90" xlink:href="#m33bd50b029" y="209.699698"/>
      </g>
     </g>
    </g>
    <g id="ytick_11">
     <g id="line2d_18">
      <g>
       <use style="stroke:#000000;stroke-width:0.6;" x="90" xlink:href="#m33bd50b029" y="206.060471"/>
      </g>
     </g>
    </g>
    <g id="ytick_12">
     <g id="line2d_19">
      <g>
       <use style="stroke:#000000;stroke-width:0.6;" x="90" xlink:href="#m33bd50b029" y="202.908028"/>
      </g>
     </g>
    </g>
    <g id="ytick_13">
     <g id="line2d_20">
      <g>
       <use style="stroke:#000000;stroke-width:0.6;" x="90" xlink:href="#m33bd50b029" y="200.127377"/>
      </g>
     </g>
    </g>
    <g id="ytick_14">
     <g id="line2d_21">
      <g>
       <use style="stroke:#000000;stroke-width:0.6;" x="90" xlink:href="#m33bd50b029" y="181.276009"/>
      </g>
     </g>
    </g>
    <g id="ytick_15">
     <g id="line2d_22">
      <g>
       <use style="stroke:#000000;stroke-width:0.6;" x="90" xlink:href="#m33bd50b029" y="171.703689"/>
      </g>
     </g>
    </g>
    <g id="ytick_16">
     <g id="line2d_23">
      <g>
       <use style="stroke:#000000;stroke-width:0.6;" x="90" xlink:href="#m33bd50b029" y="164.912019"/>
      </g>
     </g>
    </g>
    <g id="ytick_17">
     <g id="line2d_24">
      <g>
       <use style="stroke:#000000;stroke-width:0.6;" x="90" xlink:href="#m33bd50b029" y="159.643991"/>
      </g>
     </g>
    </g>
    <g id="ytick_18">
     <g id="line2d_25">
      <g>
       <use style="stroke:#000000;stroke-width:0.6;" x="90" xlink:href="#m33bd50b029" y="155.339698"/>
      </g>
     </g>
    </g>
    <g id="ytick_19">
     <g id="line2d_26">
      <g>
       <use style="stroke:#000000;stroke-width:0.6;" x="90" xlink:href="#m33bd50b029" y="151.700471"/>
      </g>
     </g>
    </g>
    <g id="ytick_20">
     <g id="line2d_27">
      <g>
       <use style="stroke:#000000;stroke-width:0.6;" x="90" xlink:href="#m33bd50b029" y="148.548028"/>
      </g>
     </g>
    </g>
    <g id="ytick_21">
     <g id="line2d_28">
      <g>
       <use style="stroke:#000000;stroke-width:0.6;" x="90" xlink:href="#m33bd50b029" y="145.767377"/>
      </g>
     </g>
    </g>
    <g id="ytick_22">
     <g id="line2d_29">
      <g>
       <use style="stroke:#000000;stroke-width:0.6;" x="90" xlink:href="#m33bd50b029" y="126.916009"/>
      </g>
     </g>
    </g>
    <g id="ytick_23">
     <g id="line2d_30">
      <g>
       <use style="stroke:#000000;stroke-width:0.6;" x="90" xlink:href="#m33bd50b029" y="117.343689"/>
      </g>
     </g>
    </g>
    <g id="ytick_24">
     <g id="line2d_31">
      <g>
       <use style="stroke:#000000;stroke-width:0.6;" x="90" xlink:href="#m33bd50b029" y="110.552019"/>
      </g>
     </g>
    </g>
    <g id="ytick_25">
     <g id="line2d_32">
      <g>
       <use style="stroke:#000000;stroke-width:0.6;" x="90" xlink:href="#m33bd50b029" y="105.283991"/>
      </g>
     </g>
    </g>
    <g id="ytick_26">
     <g id="line2d_33">
      <g>
       <use style="stroke:#000000;stroke-width:0.6;" x="90" xlink:href="#m33bd50b029" y="100.979698"/>
      </g>
     </g>
    </g>
    <g id="ytick_27">
     <g id="line2d_34">
      <g>
       <use style="stroke:#000000;stroke-width:0.6;" x="90" xlink:href="#m33bd50b029" y="97.340471"/>
      </g>
     </g>
    </g>
    <g id="ytick_28">
     <g id="line2d_35">
      <g>
       <use style="stroke:#000000;stroke-width:0.6;" x="90" xlink:href="#m33bd50b029" y="94.188028"/>
      </g>
     </g>
    </g>
    <g id="ytick_29">
     <g id="line2d_36">
      <g>
       <use style="stroke:#000000;stroke-width:0.6;" x="90" xlink:href="#m33bd50b029" y="91.407377"/>
      </g>
     </g>
    </g>
    <g id="ytick_30">
     <g id="line2d_37">
      <g>
       <use style="stroke:#000000;stroke-width:0.6;" x="90" xlink:href="#m33bd50b029" y="72.556009"/>
      </g>
     </g>
    </g>
    <g id="ytick_31">
     <g id="line2d_38">
      <g>
       <use style="stroke:#000000;stroke-width:0.6;" x="90" xlink:href="#m33bd50b029" y="62.983689"/>
      </g>
     </g>
    </g>
    <g id="ytick_32">
     <g id="line2d_39">
      <g>
       <use style="stroke:#000000;stroke-width:0.6;" x="90" xlink:href="#m33bd50b029" y="56.192019"/>
      </g>
     </g>
    </g>
    <g id="ytick_33">
     <g id="line2d_40">
      <g>
       <use style="stroke:#000000;stroke-width:0.6;" x="90" xlink:href="#m33bd50b029" y="50.923991"/>
      </g>
     </g>
    </g>
    <g id="ytick_34">
     <g id="line2d_41">
      <g>
       <use style="stroke:#000000;stroke-width:0.6;" x="90" xlink:href="#m33bd50b029" y="46.619698"/>
      </g>
     </g>
    </g>
    <g id="ytick_35">
     <g id="line2d_42">
      <g>
       <use style="stroke:#000000;stroke-width:0.6;" x="90" xlink:href="#m33bd50b029" y="42.980471"/>
      </g>
     </g>
    </g>
    <g id="ytick_36">
     <g id="line2d_43">
      <g>
       <use style="stroke:#000000;stroke-width:0.6;" x="90" xlink:href="#m33bd50b029" y="39.828028"/>
      </g>
     </g>
    </g>
    <g id="ytick_37">
     <g id="line2d_44">
      <g>
       <use style="stroke:#000000;stroke-width:0.6;" x="90" xlink:href="#m33bd50b029" y="37.047377"/>
      </g>
     </g>
    </g>
   </g>
   <g id="line2d_45">
    <path clip-path="url(#pff7228be6a)" d="M 137.743316 273.265442 
L 142.354886 272.382538 
L 146.966456 271.481242 
L 151.578026 270.560769 
L 156.189596 269.620287 
L 160.801167 268.658906 
L 165.412737 267.675677 
L 170.024307 266.669583 
L 174.635877 265.639536 
L 179.247448 264.584368 
L 183.859018 263.502822 
L 188.470588 262.393546 
L 193.082158 261.255082 
L 197.693729 260.085851 
L 202.305299 258.884144 
L 206.916869 257.648107 
L 211.528439 256.375721 
L 216.14001 255.064783 
L 220.75158 253.712884 
L 225.36315 252.317383 
L 229.97472 250.875374 
L 234.586291 249.383651 
L 239.197861 247.838663 
L 243.809431 246.236468 
L 248.421001 244.572668 
L 253.032572 242.842335 
L 257.644142 241.03993 
L 262.255712 239.15919 
L 266.867282 237.192998 
L 271.478853 235.133223 
L 276.090423 232.970515 
L 280.701993 230.694051 
L 285.313563 228.291205 
L 289.925134 225.747129 
L 294.536704 223.044196 
L 299.148274 220.161261 
L 303.759844 217.072662 
L 308.371415 213.746832 
L 312.982985 210.144344 
L 317.594555 206.215063 
L 322.206125 201.893899 
L 326.817696 197.094205 
L 331.429266 191.697121 
L 336.040836 185.533403 
L 340.652406 178.35045 
L 345.263977 169.747326 
L 349.875547 159.032312 
L 354.487117 144.862082 
L 359.098687 124.139609 
L 363.710258 89.205324 
L 368.321828 89.669693 
L 372.933398 124.417865 
L 377.544968 145.040415 
L 382.156539 159.16213 
L 386.768109 169.849097 
L 391.379679 178.434053 
L 395.991249 185.604309 
L 400.60282 191.758662 
L 405.21439 197.148559 
L 409.82596 201.942565 
L 414.43753 206.259116 
L 419.049101 210.184581 
L 423.660671 213.783861 
L 428.272241 217.106956 
L 432.883811 220.193196 
L 437.495382 223.074075 
L 442.106952 225.775201 
L 446.718522 228.317675 
L 451.330092 230.719092 
L 455.941663 232.994274 
L 460.553233 235.155825 
L 465.164803 237.214549 
L 469.776373 239.179785 
L 474.387944 241.059649 
L 478.999514 242.86125 
L 483.611084 244.590841 
L 488.222654 246.253957 
L 492.834225 247.855516 
L 497.445795 249.399912 
L 502.057365 250.891085 
L 506.668935 252.332579 
L 511.280506 253.727598 
L 515.892076 255.079044 
L 520.503646 256.389557 
L 525.115216 257.661542 
L 529.726787 258.897201 
L 534.338357 260.09855 
L 538.949927 261.267442 
L 543.561497 262.405586 
L 548.173068 263.514557 
L 552.784638 264.595813 
L 557.396208 265.650706 
L 562.007778 266.68049 
L 566.619349 267.686333 
L 571.230919 268.669323 
L 575.842489 269.630475 
L 580.454059 270.570738 
L 585.06563 271.491001 
L 589.6772 272.392096 
L 594.28877 273.274807 
" style="fill:none;stroke:#ff0000;stroke-dasharray:7.4,3.2;stroke-dashoffset:0;stroke-opacity:0.6;stroke-width:2;"/>
   </g>
   <g id="line2d_46">
    <path clip-path="url(#pff7228be6a)" d="M 264.461095 289 
L 266.867282 281.203473 
L 271.478853 266.940618 
L 276.090423 253.357314 
L 280.701993 240.453561 
L 285.313563 228.229359 
L 289.925134 216.684709 
L 294.536704 205.819611 
L 299.148274 195.634064 
L 303.759844 186.128068 
L 308.371415 177.301624 
L 312.982985 169.154731 
L 317.594555 161.68739 
L 322.206125 154.8996 
L 326.817696 148.791362 
L 331.429266 143.362675 
L 336.040836 138.613539 
L 340.652406 134.543955 
L 345.263977 131.153923 
L 349.875547 128.443441 
L 354.487117 126.412512 
L 359.098687 125.061133 
L 363.710258 124.389306 
L 368.321828 124.397031 
L 372.933398 125.084307 
L 377.544968 126.451134 
L 382.156539 128.497513 
L 386.768109 131.223444 
L 391.379679 134.628925 
L 395.991249 138.713959 
L 400.60282 143.478543 
L 405.21439 148.922679 
L 409.82596 155.046367 
L 414.43753 161.849606 
L 419.049101 169.332396 
L 423.660671 177.494738 
L 428.272241 186.336631 
L 432.883811 195.858076 
L 437.495382 206.059072 
L 442.106952 216.93962 
L 446.718522 228.499719 
L 451.330092 240.739369 
L 455.941663 253.658571 
L 460.553233 267.257325 
L 465.164803 281.535629 
L 467.4661 289 
" style="fill:none;stroke:#000000;stroke-linecap:square;stroke-opacity:0.6;stroke-width:2;"/>
   </g>
   <g id="patch_4">
    <path d="M 90 252 
L 90 34.56 
" style="fill:none;stroke:#000000;stroke-linecap:square;stroke-linejoin:miter;stroke-width:0.8;"/>
   </g>
   <g id="patch_5">
    <path d="M 648 252 
L 648 34.56 
" style="fill:none;stroke:#000000;stroke-linecap:square;stroke-linejoin:miter;stroke-width:0.8;"/>
   </g>
   <g id="patch_6">
    <path d="M 90 252 
L 648 252 
" style="fill:none;stroke:#000000;stroke-linecap:square;stroke-linejoin:miter;stroke-width:0.8;"/>
   </g>
   <g id="patch_7">
    <path d="M 90 34.56 
L 648 34.56 
" style="fill:none;stroke:#000000;stroke-linecap:square;stroke-linejoin:miter;stroke-width:0.8;"/>
   </g>
   <g id="legend_1">
    <g id="patch_8">
     <path d="M 467.509375 107.408125 
L 638.2 107.408125 
Q 641 107.408125 641 104.608125 
L 641 44.36 
Q 641 41.56 638.2 41.56 
L 467.509375 41.56 
Q 464.709375 41.56 464.709375 44.36 
L 464.709375 104.608125 
Q 464.709375 107.408125 467.509375 107.408125 
z
" style="fill:#ffffff;opacity:0.8;stroke:#cccccc;stroke-linejoin:miter;"/>
    </g>
    <g id="patch_9">
     <path d="M 470.309375 57.797813 
L 498.309375 57.797813 
L 498.309375 47.997813 
L 470.309375 47.997813 
z
" style="fill:#1f77b4;opacity:0.5;"/>
    </g>
    <g id="text_13">
     <!-- histogram -->
     <g transform="translate(509.509375 57.797813)scale(0.14 -0.14)">
      <defs>
       <path d="M 54.890625 33.015625 
L 54.890625 0 
L 45.90625 0 
L 45.90625 32.71875 
Q 45.90625 40.484375 42.875 44.328125 
Q 39.84375 48.1875 33.796875 48.1875 
Q 26.515625 48.1875 22.3125 43.546875 
Q 18.109375 38.921875 18.109375 30.90625 
L 18.109375 0 
L 9.078125 0 
L 9.078125 75.984375 
L 18.109375 75.984375 
L 18.109375 46.1875 
Q 21.34375 51.125 25.703125 53.5625 
Q 30.078125 56 35.796875 56 
Q 45.21875 56 50.046875 50.171875 
Q 54.890625 44.34375 54.890625 33.015625 
z
" id="DejaVuSans-104"/>
       <path d="M 9.421875 54.6875 
L 18.40625 54.6875 
L 18.40625 0 
L 9.421875 0 
z
M 9.421875 75.984375 
L 18.40625 75.984375 
L 18.40625 64.59375 
L 9.421875 64.59375 
z
" id="DejaVuSans-105"/>
       <path d="M 44.28125 53.078125 
L 44.28125 44.578125 
Q 40.484375 46.53125 36.375 47.5 
Q 32.28125 48.484375 27.875 48.484375 
Q 21.1875 48.484375 17.84375 46.4375 
Q 14.5 44.390625 14.5 40.28125 
Q 14.5 37.15625 16.890625 35.375 
Q 19.28125 33.59375 26.515625 31.984375 
L 29.59375 31.296875 
Q 39.15625 29.25 43.1875 25.515625 
Q 47.21875 21.78125 47.21875 15.09375 
Q 47.21875 7.46875 41.1875 3.015625 
Q 35.15625 -1.421875 24.609375 -1.421875 
Q 20.21875 -1.421875 15.453125 -0.5625 
Q 10.6875 0.296875 5.421875 2 
L 5.421875 11.28125 
Q 10.40625 8.6875 15.234375 7.390625 
Q 20.0625 6.109375 24.8125 6.109375 
Q 31.15625 6.109375 34.5625 8.28125 
Q 37.984375 10.453125 37.984375 14.40625 
Q 37.984375 18.0625 35.515625 20.015625 
Q 33.0625 21.96875 24.703125 23.78125 
L 21.578125 24.515625 
Q 13.234375 26.265625 9.515625 29.90625 
Q 5.8125 33.546875 5.8125 39.890625 
Q 5.8125 47.609375 11.28125 51.796875 
Q 16.75 56 26.8125 56 
Q 31.78125 56 36.171875 55.265625 
Q 40.578125 54.546875 44.28125 53.078125 
z
" id="DejaVuSans-115"/>
       <path d="M 18.3125 70.21875 
L 18.3125 54.6875 
L 36.8125 54.6875 
L 36.8125 47.703125 
L 18.3125 47.703125 
L 18.3125 18.015625 
Q 18.3125 11.328125 20.140625 9.421875 
Q 21.96875 7.515625 27.59375 7.515625 
L 36.8125 7.515625 
L 36.8125 0 
L 27.59375 0 
Q 17.1875 0 13.234375 3.875 
Q 9.28125 7.765625 9.28125 18.015625 
L 9.28125 47.703125 
L 2.6875 47.703125 
L 2.6875 54.6875 
L 9.28125 54.6875 
L 9.28125 70.21875 
z
" id="DejaVuSans-116"/>
       <path d="M 30.609375 48.390625 
Q 23.390625 48.390625 19.1875 42.75 
Q 14.984375 37.109375 14.984375 27.296875 
Q 14.984375 17.484375 19.15625 11.84375 
Q 23.34375 6.203125 30.609375 6.203125 
Q 37.796875 6.203125 41.984375 11.859375 
Q 46.1875 17.53125 46.1875 27.296875 
Q 46.1875 37.015625 41.984375 42.703125 
Q 37.796875 48.390625 30.609375 48.390625 
z
M 30.609375 56 
Q 42.328125 56 49.015625 48.375 
Q 55.71875 40.765625 55.71875 27.296875 
Q 55.71875 13.875 49.015625 6.21875 
Q 42.328125 -1.421875 30.609375 -1.421875 
Q 18.84375 -1.421875 12.171875 6.21875 
Q 5.515625 13.875 5.515625 27.296875 
Q 5.515625 40.765625 12.171875 48.375 
Q 18.84375 56 30.609375 56 
z
" id="DejaVuSans-111"/>
       <path d="M 45.40625 27.984375 
Q 45.40625 37.75 41.375 43.109375 
Q 37.359375 48.484375 30.078125 48.484375 
Q 22.859375 48.484375 18.828125 43.109375 
Q 14.796875 37.75 14.796875 27.984375 
Q 14.796875 18.265625 18.828125 12.890625 
Q 22.859375 7.515625 30.078125 7.515625 
Q 37.359375 7.515625 41.375 12.890625 
Q 45.40625 18.265625 45.40625 27.984375 
z
M 54.390625 6.78125 
Q 54.390625 -7.171875 48.1875 -13.984375 
Q 42 -20.796875 29.203125 -20.796875 
Q 24.46875 -20.796875 20.265625 -20.09375 
Q 16.0625 -19.390625 12.109375 -17.921875 
L 12.109375 -9.1875 
Q 16.0625 -11.328125 19.921875 -12.34375 
Q 23.78125 -13.375 27.78125 -13.375 
Q 36.625 -13.375 41.015625 -8.765625 
Q 45.40625 -4.15625 45.40625 5.171875 
L 45.40625 9.625 
Q 42.625 4.78125 38.28125 2.390625 
Q 33.9375 0 27.875 0 
Q 17.828125 0 11.671875 7.65625 
Q 5.515625 15.328125 5.515625 27.984375 
Q 5.515625 40.671875 11.671875 48.328125 
Q 17.828125 56 27.875 56 
Q 33.9375 56 38.28125 53.609375 
Q 42.625 51.21875 45.40625 46.390625 
L 45.40625 54.6875 
L 54.390625 54.6875 
z
" id="DejaVuSans-103"/>
       <path d="M 41.109375 46.296875 
Q 39.59375 47.171875 37.8125 47.578125 
Q 36.03125 48 33.890625 48 
Q 26.265625 48 22.1875 43.046875 
Q 18.109375 38.09375 18.109375 28.8125 
L 18.109375 0 
L 9.078125 0 
L 9.078125 54.6875 
L 18.109375 54.6875 
L 18.109375 46.1875 
Q 20.953125 51.171875 25.484375 53.578125 
Q 30.03125 56 36.53125 56 
Q 37.453125 56 38.578125 55.875 
Q 39.703125 55.765625 41.0625 55.515625 
z
" id="DejaVuSans-114"/>
       <path d="M 34.28125 27.484375 
Q 23.390625 27.484375 19.1875 25 
Q 14.984375 22.515625 14.984375 16.5 
Q 14.984375 11.71875 18.140625 8.90625 
Q 21.296875 6.109375 26.703125 6.109375 
Q 34.1875 6.109375 38.703125 11.40625 
Q 43.21875 16.703125 43.21875 25.484375 
L 43.21875 27.484375 
z
M 52.203125 31.203125 
L 52.203125 0 
L 43.21875 0 
L 43.21875 8.296875 
Q 40.140625 3.328125 35.546875 0.953125 
Q 30.953125 -1.421875 24.3125 -1.421875 
Q 15.921875 -1.421875 10.953125 3.296875 
Q 6 8.015625 6 15.921875 
Q 6 25.140625 12.171875 29.828125 
Q 18.359375 34.515625 30.609375 34.515625 
L 43.21875 34.515625 
L 43.21875 35.40625 
Q 43.21875 41.609375 39.140625 45 
Q 35.0625 48.390625 27.6875 48.390625 
Q 23 48.390625 18.546875 47.265625 
Q 14.109375 46.140625 10.015625 43.890625 
L 10.015625 52.203125 
Q 14.9375 54.109375 19.578125 55.046875 
Q 24.21875 56 28.609375 56 
Q 40.484375 56 46.34375 49.84375 
Q 52.203125 43.703125 52.203125 31.203125 
z
" id="DejaVuSans-97"/>
       <path d="M 52 44.1875 
Q 55.375 50.25 60.0625 53.125 
Q 64.75 56 71.09375 56 
Q 79.640625 56 84.28125 50.015625 
Q 88.921875 44.046875 88.921875 33.015625 
L 88.921875 0 
L 79.890625 0 
L 79.890625 32.71875 
Q 79.890625 40.578125 77.09375 44.375 
Q 74.3125 48.1875 68.609375 48.1875 
Q 61.625 48.1875 57.5625 43.546875 
Q 53.515625 38.921875 53.515625 30.90625 
L 53.515625 0 
L 44.484375 0 
L 44.484375 32.71875 
Q 44.484375 40.625 41.703125 44.40625 
Q 38.921875 48.1875 33.109375 48.1875 
Q 26.21875 48.1875 22.15625 43.53125 
Q 18.109375 38.875 18.109375 30.90625 
L 18.109375 0 
L 9.078125 0 
L 9.078125 54.6875 
L 18.109375 54.6875 
L 18.109375 46.1875 
Q 21.1875 51.21875 25.484375 53.609375 
Q 29.78125 56 35.6875 56 
Q 41.65625 56 45.828125 52.96875 
Q 50 49.953125 52 44.1875 
z
" id="DejaVuSans-109"/>
      </defs>
      <use xlink:href="#DejaVuSans-104"/>
      <use x="63.378906" xlink:href="#DejaVuSans-105"/>
      <use x="91.162109" xlink:href="#DejaVuSans-115"/>
      <use x="143.261719" xlink:href="#DejaVuSans-116"/>
      <use x="182.470703" xlink:href="#DejaVuSans-111"/>
      <use x="243.652344" xlink:href="#DejaVuSans-103"/>
      <use x="307.128906" xlink:href="#DejaVuSans-114"/>
      <use x="348.242188" xlink:href="#DejaVuSans-97"/>
      <use x="409.521484" xlink:href="#DejaVuSans-109"/>
     </g>
    </g>
    <g id="line2d_47">
     <path d="M 470.309375 73.447188 
L 498.309375 73.447188 
" style="fill:none;stroke:#ff0000;stroke-dasharray:7.4,3.2;stroke-dashoffset:0;stroke-opacity:0.6;stroke-width:2;"/>
    </g>
    <g id="line2d_48"/>
    <g id="text_14">
     <!-- Students t log-pdf -->
     <g transform="translate(509.509375 78.347188)scale(0.14 -0.14)">
      <defs>
       <path d="M 53.515625 70.515625 
L 53.515625 60.890625 
Q 47.90625 63.578125 42.921875 64.890625 
Q 37.9375 66.21875 33.296875 66.21875 
Q 25.25 66.21875 20.875 63.09375 
Q 16.5 59.96875 16.5 54.203125 
Q 16.5 49.359375 19.40625 46.890625 
Q 22.3125 44.4375 30.421875 42.921875 
L 36.375 41.703125 
Q 47.40625 39.59375 52.65625 34.296875 
Q 57.90625 29 57.90625 20.125 
Q 57.90625 9.515625 50.796875 4.046875 
Q 43.703125 -1.421875 29.984375 -1.421875 
Q 24.8125 -1.421875 18.96875 -0.25 
Q 13.140625 0.921875 6.890625 3.21875 
L 6.890625 13.375 
Q 12.890625 10.015625 18.65625 8.296875 
Q 24.421875 6.59375 29.984375 6.59375 
Q 38.421875 6.59375 43.015625 9.90625 
Q 47.609375 13.234375 47.609375 19.390625 
Q 47.609375 24.75 44.3125 27.78125 
Q 41.015625 30.8125 33.5 32.328125 
L 27.484375 33.5 
Q 16.453125 35.6875 11.515625 40.375 
Q 6.59375 45.0625 6.59375 53.421875 
Q 6.59375 63.09375 13.40625 68.65625 
Q 20.21875 74.21875 32.171875 74.21875 
Q 37.3125 74.21875 42.625 73.28125 
Q 47.953125 72.359375 53.515625 70.515625 
z
" id="DejaVuSans-83"/>
       <path d="M 8.5 21.578125 
L 8.5 54.6875 
L 17.484375 54.6875 
L 17.484375 21.921875 
Q 17.484375 14.15625 20.5 10.265625 
Q 23.53125 6.390625 29.59375 6.390625 
Q 36.859375 6.390625 41.078125 11.03125 
Q 45.3125 15.671875 45.3125 23.6875 
L 45.3125 54.6875 
L 54.296875 54.6875 
L 54.296875 0 
L 45.3125 0 
L 45.3125 8.40625 
Q 42.046875 3.421875 37.71875 1 
Q 33.40625 -1.421875 27.6875 -1.421875 
Q 18.265625 -1.421875 13.375 4.4375 
Q 8.5 10.296875 8.5 21.578125 
z
M 31.109375 56 
z
" id="DejaVuSans-117"/>
       <path d="M 45.40625 46.390625 
L 45.40625 75.984375 
L 54.390625 75.984375 
L 54.390625 0 
L 45.40625 0 
L 45.40625 8.203125 
Q 42.578125 3.328125 38.25 0.953125 
Q 33.9375 -1.421875 27.875 -1.421875 
Q 17.96875 -1.421875 11.734375 6.484375 
Q 5.515625 14.40625 5.515625 27.296875 
Q 5.515625 40.1875 11.734375 48.09375 
Q 17.96875 56 27.875 56 
Q 33.9375 56 38.25 53.625 
Q 42.578125 51.265625 45.40625 46.390625 
z
M 14.796875 27.296875 
Q 14.796875 17.390625 18.875 11.75 
Q 22.953125 6.109375 30.078125 6.109375 
Q 37.203125 6.109375 41.296875 11.75 
Q 45.40625 17.390625 45.40625 27.296875 
Q 45.40625 37.203125 41.296875 42.84375 
Q 37.203125 48.484375 30.078125 48.484375 
Q 22.953125 48.484375 18.875 42.84375 
Q 14.796875 37.203125 14.796875 27.296875 
z
" id="DejaVuSans-100"/>
       <path d="M 56.203125 29.59375 
L 56.203125 25.203125 
L 14.890625 25.203125 
Q 15.484375 15.921875 20.484375 11.0625 
Q 25.484375 6.203125 34.421875 6.203125 
Q 39.59375 6.203125 44.453125 7.46875 
Q 49.3125 8.734375 54.109375 11.28125 
L 54.109375 2.78125 
Q 49.265625 0.734375 44.1875 -0.34375 
Q 39.109375 -1.421875 33.890625 -1.421875 
Q 20.796875 -1.421875 13.15625 6.1875 
Q 5.515625 13.8125 5.515625 26.8125 
Q 5.515625 40.234375 12.765625 48.109375 
Q 20.015625 56 32.328125 56 
Q 43.359375 56 49.78125 48.890625 
Q 56.203125 41.796875 56.203125 29.59375 
z
M 47.21875 32.234375 
Q 47.125 39.59375 43.09375 43.984375 
Q 39.0625 48.390625 32.421875 48.390625 
Q 24.90625 48.390625 20.390625 44.140625 
Q 15.875 39.890625 15.1875 32.171875 
z
" id="DejaVuSans-101"/>
       <path d="M 54.890625 33.015625 
L 54.890625 0 
L 45.90625 0 
L 45.90625 32.71875 
Q 45.90625 40.484375 42.875 44.328125 
Q 39.84375 48.1875 33.796875 48.1875 
Q 26.515625 48.1875 22.3125 43.546875 
Q 18.109375 38.921875 18.109375 30.90625 
L 18.109375 0 
L 9.078125 0 
L 9.078125 54.6875 
L 18.109375 54.6875 
L 18.109375 46.1875 
Q 21.34375 51.125 25.703125 53.5625 
Q 30.078125 56 35.796875 56 
Q 45.21875 56 50.046875 50.171875 
Q 54.890625 44.34375 54.890625 33.015625 
z
" id="DejaVuSans-110"/>
       <path id="DejaVuSans-32"/>
       <path d="M 9.421875 75.984375 
L 18.40625 75.984375 
L 18.40625 0 
L 9.421875 0 
z
" id="DejaVuSans-108"/>
       <path d="M 4.890625 31.390625 
L 31.203125 31.390625 
L 31.203125 23.390625 
L 4.890625 23.390625 
z
" id="DejaVuSans-45"/>
       <path d="M 18.109375 8.203125 
L 18.109375 -20.796875 
L 9.078125 -20.796875 
L 9.078125 54.6875 
L 18.109375 54.6875 
L 18.109375 46.390625 
Q 20.953125 51.265625 25.265625 53.625 
Q 29.59375 56 35.59375 56 
Q 45.5625 56 51.78125 48.09375 
Q 58.015625 40.1875 58.015625 27.296875 
Q 58.015625 14.40625 51.78125 6.484375 
Q 45.5625 -1.421875 35.59375 -1.421875 
Q 29.59375 -1.421875 25.265625 0.953125 
Q 20.953125 3.328125 18.109375 8.203125 
z
M 48.6875 27.296875 
Q 48.6875 37.203125 44.609375 42.84375 
Q 40.53125 48.484375 33.40625 48.484375 
Q 26.265625 48.484375 22.1875 42.84375 
Q 18.109375 37.203125 18.109375 27.296875 
Q 18.109375 17.390625 22.1875 11.75 
Q 26.265625 6.109375 33.40625 6.109375 
Q 40.53125 6.109375 44.609375 11.75 
Q 48.6875 17.390625 48.6875 27.296875 
z
" id="DejaVuSans-112"/>
       <path d="M 37.109375 75.984375 
L 37.109375 68.5 
L 28.515625 68.5 
Q 23.6875 68.5 21.796875 66.546875 
Q 19.921875 64.59375 19.921875 59.515625 
L 19.921875 54.6875 
L 34.71875 54.6875 
L 34.71875 47.703125 
L 19.921875 47.703125 
L 19.921875 0 
L 10.890625 0 
L 10.890625 47.703125 
L 2.296875 47.703125 
L 2.296875 54.6875 
L 10.890625 54.6875 
L 10.890625 58.5 
Q 10.890625 67.625 15.140625 71.796875 
Q 19.390625 75.984375 28.609375 75.984375 
z
" id="DejaVuSans-102"/>
      </defs>
      <use xlink:href="#DejaVuSans-83"/>
      <use x="63.476562" xlink:href="#DejaVuSans-116"/>
      <use x="102.685547" xlink:href="#DejaVuSans-117"/>
      <use x="166.064453" xlink:href="#DejaVuSans-100"/>
      <use x="229.541016" xlink:href="#DejaVuSans-101"/>
      <use x="291.064453" xlink:href="#DejaVuSans-110"/>
      <use x="354.443359" xlink:href="#DejaVuSans-116"/>
      <use x="393.652344" xlink:href="#DejaVuSans-115"/>
      <use x="445.751953" xlink:href="#DejaVuSans-32"/>
      <use x="477.539062" xlink:href="#DejaVuSans-116"/>
      <use x="516.748047" xlink:href="#DejaVuSans-32"/>
      <use x="548.535156" xlink:href="#DejaVuSans-108"/>
      <use x="576.318359" xlink:href="#DejaVuSans-111"/>
      <use x="637.5" xlink:href="#DejaVuSans-103"/>
      <use x="700.976562" xlink:href="#DejaVuSans-45"/>
      <use x="737.060547" xlink:href="#DejaVuSans-112"/>
      <use x="800.537109" xlink:href="#DejaVuSans-100"/>
      <use x="864.013672" xlink:href="#DejaVuSans-102"/>
     </g>
    </g>
    <g id="line2d_49">
     <path d="M 470.309375 93.996563 
L 498.309375 93.996563 
" style="fill:none;stroke:#000000;stroke-linecap:square;stroke-opacity:0.6;stroke-width:2;"/>
    </g>
    <g id="line2d_50"/>
    <g id="text_15">
     <!-- Gaussian log-pdf -->
     <g transform="translate(509.509375 98.896563)scale(0.14 -0.14)">
      <defs>
       <path d="M 59.515625 10.40625 
L 59.515625 29.984375 
L 43.40625 29.984375 
L 43.40625 38.09375 
L 69.28125 38.09375 
L 69.28125 6.78125 
Q 63.578125 2.734375 56.6875 0.65625 
Q 49.8125 -1.421875 42 -1.421875 
Q 24.90625 -1.421875 15.25 8.5625 
Q 5.609375 18.5625 5.609375 36.375 
Q 5.609375 54.25 15.25 64.234375 
Q 24.90625 74.21875 42 74.21875 
Q 49.125 74.21875 55.546875 72.453125 
Q 61.96875 70.703125 67.390625 67.28125 
L 67.390625 56.78125 
Q 61.921875 61.421875 55.765625 63.765625 
Q 49.609375 66.109375 42.828125 66.109375 
Q 29.4375 66.109375 22.71875 58.640625 
Q 16.015625 51.171875 16.015625 36.375 
Q 16.015625 21.625 22.71875 14.15625 
Q 29.4375 6.6875 42.828125 6.6875 
Q 48.046875 6.6875 52.140625 7.59375 
Q 56.25 8.5 59.515625 10.40625 
z
" id="DejaVuSans-71"/>
      </defs>
      <use xlink:href="#DejaVuSans-71"/>
      <use x="77.490234" xlink:href="#DejaVuSans-97"/>
      <use x="138.769531" xlink:href="#DejaVuSans-117"/>
      <use x="202.148438" xlink:href="#DejaVuSans-115"/>
      <use x="254.248047" xlink:href="#DejaVuSans-115"/>
      <use x="306.347656" xlink:href="#DejaVuSans-105"/>
      <use x="334.130859" xlink:href="#DejaVuSans-97"/>
      <use x="395.410156" xlink:href="#DejaVuSans-110"/>
      <use x="458.789062" xlink:href="#DejaVuSans-32"/>
      <use x="490.576172" xlink:href="#DejaVuSans-108"/>
      <use x="518.359375" xlink:href="#DejaVuSans-111"/>
      <use x="579.541016" xlink:href="#DejaVuSans-103"/>
      <use x="643.017578" xlink:href="#DejaVuSans-45"/>
      <use x="679.101562" xlink:href="#DejaVuSans-112"/>
      <use x="742.578125" xlink:href="#DejaVuSans-100"/>
      <use x="806.054688" xlink:href="#DejaVuSans-102"/>
     </g>
    </g>
   </g>
  </g>
 </g>
 <defs>
  <clipPath id="pff7228be6a">
   <rect height="217.44" width="558" x="90" y="34.56"/>
  </clipPath>
 </defs>
</svg>
