<?xml version="1.0" encoding="utf-8" standalone="no"?>
<!DOCTYPE svg PUBLIC "-//W3C//DTD SVG 1.1//EN"
  "http://www.w3.org/Graphics/SVG/1.1/DTD/svg11.dtd">
<!-- Created with matplotlib (https://matplotlib.org/) -->
<svg height="288pt" version="1.1" viewBox="0 0 720 288" width="720pt" xmlns="http://www.w3.org/2000/svg" xmlns:xlink="http://www.w3.org/1999/xlink">
 <metadata>
  <rdf:RDF xmlns:cc="http://creativecommons.org/ns#" xmlns:dc="http://purl.org/dc/elements/1.1/" xmlns:rdf="http://www.w3.org/1999/02/22-rdf-syntax-ns#">
   <cc:Work>
    <dc:type rdf:resource="http://purl.org/dc/dcmitype/StillImage"/>
    <dc:date>2020-09-22T12:03:21.332763</dc:date>
    <dc:format>image/svg+xml</dc:format>
    <dc:creator>
     <cc:Agent>
      <dc:title>Matplotlib v3.3.1, https://matplotlib.org/</dc:title>
     </cc:Agent>
    </dc:creator>
   </cc:Work>
  </rdf:RDF>
 </metadata>
 <defs>
  <style type="text/css">*{stroke-linecap:butt;stroke-linejoin:round;}</style>
 </defs>
 <g id="figure_1">
  <g id="patch_1">
   <path d="M 0 288 
L 720 288 
L 720 0 
L 0 0 
z
" style="fill:none;"/>
  </g>
  <g id="axes_1">
   <g id="patch_2">
    <path d="M 90 252 
L 648 252 
L 648 34.56 
L 90 34.56 
z
" style="fill:#ffffff;"/>
   </g>
   <g id="PathCollection_1">
    <defs>
     <path d="M 0 1.581139 
C 0.419323 1.581139 0.821528 1.41454 1.118034 1.118034 
C 1.41454 0.821528 1.581139 0.419323 1.581139 0 
C 1.581139 -0.419323 1.41454 -0.821528 1.118034 -1.118034 
C 0.821528 -1.41454 0.419323 -1.581139 0 -1.581139 
C -0.419323 -1.581139 -0.821528 -1.41454 -1.118034 -1.118034 
C -1.41454 -0.821528 -1.581139 -0.419323 -1.581139 0 
C -1.581139 0.419323 -1.41454 0.821528 -1.118034 1.118034 
C -0.821528 1.41454 -0.419323 1.581139 0 1.581139 
z
" id="ma7dc3a6c66" style="stroke:#0000ff;"/>
    </defs>
    <g clip-path="url(#p95967db24d)">
     <use style="fill:#0000ff;stroke:#0000ff;" x="510.068242" xlink:href="#ma7dc3a6c66" y="125.877963"/>
     <use style="fill:#0000ff;stroke:#0000ff;" x="422.427159" xlink:href="#ma7dc3a6c66" y="45.828037"/>
     <use style="fill:#0000ff;stroke:#0000ff;" x="521.619472" xlink:href="#ma7dc3a6c66" y="185.77986"/>
     <use style="fill:#0000ff;stroke:#0000ff;" x="419.229867" xlink:href="#ma7dc3a6c66" y="149.862222"/>
     <use style="fill:#0000ff;stroke:#0000ff;" x="301.680776" xlink:href="#ma7dc3a6c66" y="125.423892"/>
     <use style="fill:#0000ff;stroke:#0000ff;" x="329.275263" xlink:href="#ma7dc3a6c66" y="80.036554"/>
     <use style="fill:#0000ff;stroke:#0000ff;" x="398.13181" xlink:href="#ma7dc3a6c66" y="137.988597"/>
     <use style="fill:#0000ff;stroke:#0000ff;" x="362.735137" xlink:href="#ma7dc3a6c66" y="128.769171"/>
     <use style="fill:#0000ff;stroke:#0000ff;" x="479.939225" xlink:href="#ma7dc3a6c66" y="152.201923"/>
     <use style="fill:#0000ff;stroke:#0000ff;" x="348.138356" xlink:href="#ma7dc3a6c66" y="180.422916"/>
     <use style="fill:#0000ff;stroke:#0000ff;" x="151.713663" xlink:href="#ma7dc3a6c66" y="114.855435"/>
     <use style="fill:#0000ff;stroke:#0000ff;" x="409.67108" xlink:href="#ma7dc3a6c66" y="175.555272"/>
     <use style="fill:#0000ff;stroke:#0000ff;" x="566.504616" xlink:href="#ma7dc3a6c66" y="206.527454"/>
     <use style="fill:#0000ff;stroke:#0000ff;" x="318.306651" xlink:href="#ma7dc3a6c66" y="151.420251"/>
     <use style="fill:#0000ff;stroke:#0000ff;" x="484.25816" xlink:href="#ma7dc3a6c66" y="79.380526"/>
     <use style="fill:#0000ff;stroke:#0000ff;" x="330.492133" xlink:href="#ma7dc3a6c66" y="126.834468"/>
     <use style="fill:#0000ff;stroke:#0000ff;" x="214.123111" xlink:href="#ma7dc3a6c66" y="229.420877"/>
     <use style="fill:#0000ff;stroke:#0000ff;" x="274.373004" xlink:href="#ma7dc3a6c66" y="136.480696"/>
     <use style="fill:#0000ff;stroke:#0000ff;" x="450.50044" xlink:href="#ma7dc3a6c66" y="90.990905"/>
     <use style="fill:#0000ff;stroke:#0000ff;" x="269.974327" xlink:href="#ma7dc3a6c66" y="156.426542"/>
     <use style="fill:#0000ff;stroke:#0000ff;" x="196.181489" xlink:href="#ma7dc3a6c66" y="205.03374"/>
     <use style="fill:#0000ff;stroke:#0000ff;" x="122.780247" xlink:href="#ma7dc3a6c66" y="58.44468"/>
     <use style="fill:#0000ff;stroke:#0000ff;" x="256.322817" xlink:href="#ma7dc3a6c66" y="162.330975"/>
     <use style="fill:#0000ff;stroke:#0000ff;" x="173.388038" xlink:href="#ma7dc3a6c66" y="109.468499"/>
     <use style="fill:#0000ff;stroke:#0000ff;" x="133.089" xlink:href="#ma7dc3a6c66" y="152.531649"/>
     <use style="fill:#0000ff;stroke:#0000ff;" x="213.265932" xlink:href="#ma7dc3a6c66" y="126.454384"/>
     <use style="fill:#0000ff;stroke:#0000ff;" x="256.194147" xlink:href="#ma7dc3a6c66" y="194.623332"/>
     <use style="fill:#0000ff;stroke:#0000ff;" x="310.054863" xlink:href="#ma7dc3a6c66" y="124.652704"/>
     <use style="fill:#0000ff;stroke:#0000ff;" x="320.623322" xlink:href="#ma7dc3a6c66" y="130.126102"/>
     <use style="fill:#0000ff;stroke:#0000ff;" x="242.409654" xlink:href="#ma7dc3a6c66" y="159.054888"/>
     <use style="fill:#0000ff;stroke:#0000ff;" x="238.153414" xlink:href="#ma7dc3a6c66" y="158.916248"/>
     <use style="fill:#0000ff;stroke:#0000ff;" x="222.452875" xlink:href="#ma7dc3a6c66" y="218.352578"/>
     <use style="fill:#0000ff;stroke:#0000ff;" x="333.000757" xlink:href="#ma7dc3a6c66" y="160.752649"/>
     <use style="fill:#0000ff;stroke:#0000ff;" x="131.269864" xlink:href="#ma7dc3a6c66" y="123.154525"/>
     <use style="fill:#0000ff;stroke:#0000ff;" x="211.945503" xlink:href="#ma7dc3a6c66" y="141.020999"/>
     <use style="fill:#0000ff;stroke:#0000ff;" x="394.566507" xlink:href="#ma7dc3a6c66" y="137.670791"/>
     <use style="fill:#0000ff;stroke:#0000ff;" x="440.357116" xlink:href="#ma7dc3a6c66" y="196.980105"/>
     <use style="fill:#0000ff;stroke:#0000ff;" x="358.101327" xlink:href="#ma7dc3a6c66" y="173.061021"/>
     <use style="fill:#0000ff;stroke:#0000ff;" x="216.019038" xlink:href="#ma7dc3a6c66" y="168.453014"/>
     <use style="fill:#0000ff;stroke:#0000ff;" x="278.430737" xlink:href="#ma7dc3a6c66" y="140.837482"/>
     <use style="fill:#0000ff;stroke:#0000ff;" x="183.169278" xlink:href="#ma7dc3a6c66" y="104.104858"/>
     <use style="fill:#0000ff;stroke:#0000ff;" x="365.167928" xlink:href="#ma7dc3a6c66" y="210.088165"/>
     <use style="fill:#0000ff;stroke:#0000ff;" x="479.288945" xlink:href="#ma7dc3a6c66" y="60.831572"/>
     <use style="fill:#0000ff;stroke:#0000ff;" x="444.7518" xlink:href="#ma7dc3a6c66" y="151.104571"/>
     <use style="fill:#0000ff;stroke:#0000ff;" x="193.704007" xlink:href="#ma7dc3a6c66" y="97.424003"/>
     <use style="fill:#0000ff;stroke:#0000ff;" x="268.205453" xlink:href="#ma7dc3a6c66" y="90.118309"/>
     <use style="fill:#0000ff;stroke:#0000ff;" x="336.443488" xlink:href="#ma7dc3a6c66" y="100.807922"/>
     <use style="fill:#0000ff;stroke:#0000ff;" x="352.97049" xlink:href="#ma7dc3a6c66" y="112.552546"/>
     <use style="fill:#0000ff;stroke:#0000ff;" x="314.371802" xlink:href="#ma7dc3a6c66" y="65.616064"/>
     <use style="fill:#0000ff;stroke:#0000ff;" x="327.36339" xlink:href="#ma7dc3a6c66" y="125.798287"/>
     <use style="fill:#0000ff;stroke:#0000ff;" x="523.359618" xlink:href="#ma7dc3a6c66" y="201.891346"/>
     <use style="fill:#0000ff;stroke:#0000ff;" x="171.413874" xlink:href="#ma7dc3a6c66" y="101.122876"/>
     <use style="fill:#0000ff;stroke:#0000ff;" x="182.279428" xlink:href="#ma7dc3a6c66" y="58.755802"/>
     <use style="fill:#0000ff;stroke:#0000ff;" x="267.040122" xlink:href="#ma7dc3a6c66" y="175.785315"/>
     <use style="fill:#0000ff;stroke:#0000ff;" x="527.80033" xlink:href="#ma7dc3a6c66" y="78.895373"/>
     <use style="fill:#0000ff;stroke:#0000ff;" x="521.61958" xlink:href="#ma7dc3a6c66" y="103.87793"/>
     <use style="fill:#0000ff;stroke:#0000ff;" x="217.087214" xlink:href="#ma7dc3a6c66" y="60.215095"/>
     <use style="fill:#0000ff;stroke:#0000ff;" x="283.290824" xlink:href="#ma7dc3a6c66" y="108.382776"/>
     <use style="fill:#0000ff;stroke:#0000ff;" x="418.91332" xlink:href="#ma7dc3a6c66" y="150.021079"/>
     <use style="fill:#0000ff;stroke:#0000ff;" x="381.731258" xlink:href="#ma7dc3a6c66" y="103.175076"/>
     <use style="fill:#0000ff;stroke:#0000ff;" x="355.209089" xlink:href="#ma7dc3a6c66" y="191.090742"/>
     <use style="fill:#0000ff;stroke:#0000ff;" x="346.48338" xlink:href="#ma7dc3a6c66" y="85.59813"/>
     <use style="fill:#0000ff;stroke:#0000ff;" x="235.686227" xlink:href="#ma7dc3a6c66" y="149.787307"/>
     <use style="fill:#0000ff;stroke:#0000ff;" x="264.636864" xlink:href="#ma7dc3a6c66" y="62.859219"/>
     <use style="fill:#0000ff;stroke:#0000ff;" x="388.228095" xlink:href="#ma7dc3a6c66" y="125.5603"/>
     <use style="fill:#0000ff;stroke:#0000ff;" x="227.277366" xlink:href="#ma7dc3a6c66" y="119.829131"/>
     <use style="fill:#0000ff;stroke:#0000ff;" x="237.944475" xlink:href="#ma7dc3a6c66" y="141.895753"/>
     <use style="fill:#0000ff;stroke:#0000ff;" x="242.239578" xlink:href="#ma7dc3a6c66" y="113.863269"/>
     <use style="fill:#0000ff;stroke:#0000ff;" x="377.547535" xlink:href="#ma7dc3a6c66" y="152.338496"/>
     <use style="fill:#0000ff;stroke:#0000ff;" x="357.394349" xlink:href="#ma7dc3a6c66" y="190.815059"/>
     <use style="fill:#0000ff;stroke:#0000ff;" x="146.775653" xlink:href="#ma7dc3a6c66" y="124.171734"/>
     <use style="fill:#0000ff;stroke:#0000ff;" x="331.800762" xlink:href="#ma7dc3a6c66" y="115.663753"/>
     <use style="fill:#0000ff;stroke:#0000ff;" x="579.158957" xlink:href="#ma7dc3a6c66" y="102.206476"/>
     <use style="fill:#0000ff;stroke:#0000ff;" x="211.32904" xlink:href="#ma7dc3a6c66" y="94.703196"/>
     <use style="fill:#0000ff;stroke:#0000ff;" x="166.344733" xlink:href="#ma7dc3a6c66" y="163.353391"/>
     <use style="fill:#0000ff;stroke:#0000ff;" x="305.584237" xlink:href="#ma7dc3a6c66" y="68.770152"/>
     <use style="fill:#0000ff;stroke:#0000ff;" x="230.085362" xlink:href="#ma7dc3a6c66" y="179.220159"/>
     <use style="fill:#0000ff;stroke:#0000ff;" x="302.212698" xlink:href="#ma7dc3a6c66" y="172.133344"/>
     <use style="fill:#0000ff;stroke:#0000ff;" x="438.932569" xlink:href="#ma7dc3a6c66" y="190.244061"/>
     <use style="fill:#0000ff;stroke:#0000ff;" x="185.142498" xlink:href="#ma7dc3a6c66" y="162.319918"/>
     <use style="fill:#0000ff;stroke:#0000ff;" x="257.619579" xlink:href="#ma7dc3a6c66" y="59.36851"/>
     <use style="fill:#0000ff;stroke:#0000ff;" x="419.155362" xlink:href="#ma7dc3a6c66" y="139.472572"/>
     <use style="fill:#0000ff;stroke:#0000ff;" x="176.441396" xlink:href="#ma7dc3a6c66" y="106.560343"/>
     <use style="fill:#0000ff;stroke:#0000ff;" x="201.575967" xlink:href="#ma7dc3a6c66" y="210.459005"/>
     <use style="fill:#0000ff;stroke:#0000ff;" x="445.784125" xlink:href="#ma7dc3a6c66" y="129.4968"/>
     <use style="fill:#0000ff;stroke:#0000ff;" x="415.967845" xlink:href="#ma7dc3a6c66" y="129.419172"/>
     <use style="fill:#0000ff;stroke:#0000ff;" x="408.822296" xlink:href="#ma7dc3a6c66" y="171.591801"/>
     <use style="fill:#0000ff;stroke:#0000ff;" x="197.778499" xlink:href="#ma7dc3a6c66" y="113.638818"/>
     <use style="fill:#0000ff;stroke:#0000ff;" x="223.539481" xlink:href="#ma7dc3a6c66" y="173.267141"/>
     <use style="fill:#0000ff;stroke:#0000ff;" x="262.362573" xlink:href="#ma7dc3a6c66" y="142.519866"/>
     <use style="fill:#0000ff;stroke:#0000ff;" x="273.69428" xlink:href="#ma7dc3a6c66" y="203.073882"/>
     <use style="fill:#0000ff;stroke:#0000ff;" x="241.372186" xlink:href="#ma7dc3a6c66" y="239.971356"/>
     <use style="fill:#0000ff;stroke:#0000ff;" x="382.97583" xlink:href="#ma7dc3a6c66" y="212.950283"/>
     <use style="fill:#0000ff;stroke:#0000ff;" x="189.950819" xlink:href="#ma7dc3a6c66" y="141.011445"/>
     <use style="fill:#0000ff;stroke:#0000ff;" x="230.66477" xlink:href="#ma7dc3a6c66" y="76.177381"/>
     <use style="fill:#0000ff;stroke:#0000ff;" x="168.917169" xlink:href="#ma7dc3a6c66" y="131.666492"/>
     <use style="fill:#0000ff;stroke:#0000ff;" x="308.816037" xlink:href="#ma7dc3a6c66" y="194.07805"/>
     <use style="fill:#0000ff;stroke:#0000ff;" x="371.597675" xlink:href="#ma7dc3a6c66" y="150.740207"/>
     <use style="fill:#0000ff;stroke:#0000ff;" x="399.331826" xlink:href="#ma7dc3a6c66" y="107.467451"/>
     <use style="fill:#0000ff;stroke:#0000ff;" x="554.617132" xlink:href="#ma7dc3a6c66" y="85.157073"/>
    </g>
   </g>
   <g id="matplotlib.axis_1">
    <g id="xtick_1">
     <g id="line2d_1">
      <defs>
       <path d="M 0 0 
L 0 3.5 
" id="md4f8a21231" style="stroke:#000000;stroke-width:0.8;"/>
      </defs>
      <g>
       <use style="stroke:#000000;stroke-width:0.8;" x="90" xlink:href="#md4f8a21231" y="252"/>
      </g>
     </g>
     <g id="text_1">
      <!-- 0 -->
      <g transform="translate(86.81875 266.598437)scale(0.1 -0.1)">
       <defs>
        <path d="M 31.78125 66.40625 
Q 24.171875 66.40625 20.328125 58.90625 
Q 16.5 51.421875 16.5 36.375 
Q 16.5 21.390625 20.328125 13.890625 
Q 24.171875 6.390625 31.78125 6.390625 
Q 39.453125 6.390625 43.28125 13.890625 
Q 47.125 21.390625 47.125 36.375 
Q 47.125 51.421875 43.28125 58.90625 
Q 39.453125 66.40625 31.78125 66.40625 
z
M 31.78125 74.21875 
Q 44.046875 74.21875 50.515625 64.515625 
Q 56.984375 54.828125 56.984375 36.375 
Q 56.984375 17.96875 50.515625 8.265625 
Q 44.046875 -1.421875 31.78125 -1.421875 
Q 19.53125 -1.421875 13.0625 8.265625 
Q 6.59375 17.96875 6.59375 36.375 
Q 6.59375 54.828125 13.0625 64.515625 
Q 19.53125 74.21875 31.78125 74.21875 
z
" id="DejaVuSans-48"/>
       </defs>
       <use xlink:href="#DejaVuSans-48"/>
      </g>
     </g>
    </g>
    <g id="xtick_2">
     <g id="line2d_2">
      <g>
       <use style="stroke:#000000;stroke-width:0.8;" x="201.6" xlink:href="#md4f8a21231" y="252"/>
      </g>
     </g>
     <g id="text_2">
      <!-- 2 -->
      <g transform="translate(198.41875 266.598437)scale(0.1 -0.1)">
       <defs>
        <path d="M 19.1875 8.296875 
L 53.609375 8.296875 
L 53.609375 0 
L 7.328125 0 
L 7.328125 8.296875 
Q 12.9375 14.109375 22.625 23.890625 
Q 32.328125 33.6875 34.8125 36.53125 
Q 39.546875 41.84375 41.421875 45.53125 
Q 43.3125 49.21875 43.3125 52.78125 
Q 43.3125 58.59375 39.234375 62.25 
Q 35.15625 65.921875 28.609375 65.921875 
Q 23.96875 65.921875 18.8125 64.3125 
Q 13.671875 62.703125 7.8125 59.421875 
L 7.8125 69.390625 
Q 13.765625 71.78125 18.9375 73 
Q 24.125 74.21875 28.421875 74.21875 
Q 39.75 74.21875 46.484375 68.546875 
Q 53.21875 62.890625 53.21875 53.421875 
Q 53.21875 48.921875 51.53125 44.890625 
Q 49.859375 40.875 45.40625 35.40625 
Q 44.1875 33.984375 37.640625 27.21875 
Q 31.109375 20.453125 19.1875 8.296875 
z
" id="DejaVuSans-50"/>
       </defs>
       <use xlink:href="#DejaVuSans-50"/>
      </g>
     </g>
    </g>
    <g id="xtick_3">
     <g id="line2d_3">
      <g>
       <use style="stroke:#000000;stroke-width:0.8;" x="313.2" xlink:href="#md4f8a21231" y="252"/>
      </g>
     </g>
     <g id="text_3">
      <!-- 4 -->
      <g transform="translate(310.01875 266.598437)scale(0.1 -0.1)">
       <defs>
        <path d="M 37.796875 64.3125 
L 12.890625 25.390625 
L 37.796875 25.390625 
z
M 35.203125 72.90625 
L 47.609375 72.90625 
L 47.609375 25.390625 
L 58.015625 25.390625 
L 58.015625 17.1875 
L 47.609375 17.1875 
L 47.609375 0 
L 37.796875 0 
L 37.796875 17.1875 
L 4.890625 17.1875 
L 4.890625 26.703125 
z
" id="DejaVuSans-52"/>
       </defs>
       <use xlink:href="#DejaVuSans-52"/>
      </g>
     </g>
    </g>
    <g id="xtick_4">
     <g id="line2d_4">
      <g>
       <use style="stroke:#000000;stroke-width:0.8;" x="424.8" xlink:href="#md4f8a21231" y="252"/>
      </g>
     </g>
     <g id="text_4">
      <!-- 6 -->
      <g transform="translate(421.61875 266.598437)scale(0.1 -0.1)">
       <defs>
        <path d="M 33.015625 40.375 
Q 26.375 40.375 22.484375 35.828125 
Q 18.609375 31.296875 18.609375 23.390625 
Q 18.609375 15.53125 22.484375 10.953125 
Q 26.375 6.390625 33.015625 6.390625 
Q 39.65625 6.390625 43.53125 10.953125 
Q 47.40625 15.53125 47.40625 23.390625 
Q 47.40625 31.296875 43.53125 35.828125 
Q 39.65625 40.375 33.015625 40.375 
z
M 52.59375 71.296875 
L 52.59375 62.3125 
Q 48.875 64.0625 45.09375 64.984375 
Q 41.3125 65.921875 37.59375 65.921875 
Q 27.828125 65.921875 22.671875 59.328125 
Q 17.53125 52.734375 16.796875 39.40625 
Q 19.671875 43.65625 24.015625 45.921875 
Q 28.375 48.1875 33.59375 48.1875 
Q 44.578125 48.1875 50.953125 41.515625 
Q 57.328125 34.859375 57.328125 23.390625 
Q 57.328125 12.15625 50.6875 5.359375 
Q 44.046875 -1.421875 33.015625 -1.421875 
Q 20.359375 -1.421875 13.671875 8.265625 
Q 6.984375 17.96875 6.984375 36.375 
Q 6.984375 53.65625 15.1875 63.9375 
Q 23.390625 74.21875 37.203125 74.21875 
Q 40.921875 74.21875 44.703125 73.484375 
Q 48.484375 72.75 52.59375 71.296875 
z
" id="DejaVuSans-54"/>
       </defs>
       <use xlink:href="#DejaVuSans-54"/>
      </g>
     </g>
    </g>
    <g id="xtick_5">
     <g id="line2d_5">
      <g>
       <use style="stroke:#000000;stroke-width:0.8;" x="536.4" xlink:href="#md4f8a21231" y="252"/>
      </g>
     </g>
     <g id="text_5">
      <!-- 8 -->
      <g transform="translate(533.21875 266.598437)scale(0.1 -0.1)">
       <defs>
        <path d="M 31.78125 34.625 
Q 24.75 34.625 20.71875 30.859375 
Q 16.703125 27.09375 16.703125 20.515625 
Q 16.703125 13.921875 20.71875 10.15625 
Q 24.75 6.390625 31.78125 6.390625 
Q 38.8125 6.390625 42.859375 10.171875 
Q 46.921875 13.96875 46.921875 20.515625 
Q 46.921875 27.09375 42.890625 30.859375 
Q 38.875 34.625 31.78125 34.625 
z
M 21.921875 38.8125 
Q 15.578125 40.375 12.03125 44.71875 
Q 8.5 49.078125 8.5 55.328125 
Q 8.5 64.0625 14.71875 69.140625 
Q 20.953125 74.21875 31.78125 74.21875 
Q 42.671875 74.21875 48.875 69.140625 
Q 55.078125 64.0625 55.078125 55.328125 
Q 55.078125 49.078125 51.53125 44.71875 
Q 48 40.375 41.703125 38.8125 
Q 48.828125 37.15625 52.796875 32.3125 
Q 56.78125 27.484375 56.78125 20.515625 
Q 56.78125 9.90625 50.3125 4.234375 
Q 43.84375 -1.421875 31.78125 -1.421875 
Q 19.734375 -1.421875 13.25 4.234375 
Q 6.78125 9.90625 6.78125 20.515625 
Q 6.78125 27.484375 10.78125 32.3125 
Q 14.796875 37.15625 21.921875 38.8125 
z
M 18.3125 54.390625 
Q 18.3125 48.734375 21.84375 45.5625 
Q 25.390625 42.390625 31.78125 42.390625 
Q 38.140625 42.390625 41.71875 45.5625 
Q 45.3125 48.734375 45.3125 54.390625 
Q 45.3125 60.0625 41.71875 63.234375 
Q 38.140625 66.40625 31.78125 66.40625 
Q 25.390625 66.40625 21.84375 63.234375 
Q 18.3125 60.0625 18.3125 54.390625 
z
" id="DejaVuSans-56"/>
       </defs>
       <use xlink:href="#DejaVuSans-56"/>
      </g>
     </g>
    </g>
    <g id="xtick_6">
     <g id="line2d_6">
      <g>
       <use style="stroke:#000000;stroke-width:0.8;" x="648" xlink:href="#md4f8a21231" y="252"/>
      </g>
     </g>
     <g id="text_6">
      <!-- 10 -->
      <g transform="translate(641.6375 266.598437)scale(0.1 -0.1)">
       <defs>
        <path d="M 12.40625 8.296875 
L 28.515625 8.296875 
L 28.515625 63.921875 
L 10.984375 60.40625 
L 10.984375 69.390625 
L 28.421875 72.90625 
L 38.28125 72.90625 
L 38.28125 8.296875 
L 54.390625 8.296875 
L 54.390625 0 
L 12.40625 0 
z
" id="DejaVuSans-49"/>
       </defs>
       <use xlink:href="#DejaVuSans-49"/>
       <use x="63.623047" xlink:href="#DejaVuSans-48"/>
      </g>
     </g>
    </g>
   </g>
   <g id="matplotlib.axis_2">
    <g id="ytick_1">
     <g id="line2d_7">
      <defs>
       <path d="M 0 0 
L -3.5 0 
" id="m13aadb5e64" style="stroke:#000000;stroke-width:0.8;"/>
      </defs>
      <g>
       <use style="stroke:#000000;stroke-width:0.8;" x="90" xlink:href="#m13aadb5e64" y="252"/>
      </g>
     </g>
     <g id="text_7">
      <!-- 0 -->
      <g transform="translate(76.6375 255.799219)scale(0.1 -0.1)">
       <use xlink:href="#DejaVuSans-48"/>
      </g>
     </g>
    </g>
    <g id="ytick_2">
     <g id="line2d_8">
      <g>
       <use style="stroke:#000000;stroke-width:0.8;" x="90" xlink:href="#m13aadb5e64" y="208.512"/>
      </g>
     </g>
     <g id="text_8">
      <!-- 2 -->
      <g transform="translate(76.6375 212.311219)scale(0.1 -0.1)">
       <use xlink:href="#DejaVuSans-50"/>
      </g>
     </g>
    </g>
    <g id="ytick_3">
     <g id="line2d_9">
      <g>
       <use style="stroke:#000000;stroke-width:0.8;" x="90" xlink:href="#m13aadb5e64" y="165.024"/>
      </g>
     </g>
     <g id="text_9">
      <!-- 4 -->
      <g transform="translate(76.6375 168.823219)scale(0.1 -0.1)">
       <use xlink:href="#DejaVuSans-52"/>
      </g>
     </g>
    </g>
    <g id="ytick_4">
     <g id="line2d_10">
      <g>
       <use style="stroke:#000000;stroke-width:0.8;" x="90" xlink:href="#m13aadb5e64" y="121.536"/>
      </g>
     </g>
     <g id="text_10">
      <!-- 6 -->
      <g transform="translate(76.6375 125.335219)scale(0.1 -0.1)">
       <use xlink:href="#DejaVuSans-54"/>
      </g>
     </g>
    </g>
    <g id="ytick_5">
     <g id="line2d_11">
      <g>
       <use style="stroke:#000000;stroke-width:0.8;" x="90" xlink:href="#m13aadb5e64" y="78.048"/>
      </g>
     </g>
     <g id="text_11">
      <!-- 8 -->
      <g transform="translate(76.6375 81.847219)scale(0.1 -0.1)">
       <use xlink:href="#DejaVuSans-56"/>
      </g>
     </g>
    </g>
    <g id="ytick_6">
     <g id="line2d_12">
      <g>
       <use style="stroke:#000000;stroke-width:0.8;" x="90" xlink:href="#m13aadb5e64" y="34.56"/>
      </g>
     </g>
     <g id="text_12">
      <!-- 10 -->
      <g transform="translate(70.275 38.359219)scale(0.1 -0.1)">
       <use xlink:href="#DejaVuSans-49"/>
       <use x="63.623047" xlink:href="#DejaVuSans-48"/>
      </g>
     </g>
    </g>
   </g>
   <g id="LineCollection_1"/>
   <g id="LineCollection_2">
    <path clip-path="url(#p95967db24d)" d="M 108.409384 145.88928 
L 108.234942 143.93232 
L 108.269736 141.97536 
L 108.51291 140.0184 
L 108.972 138.041181 
L 109.629843 136.10448 
L 110.509572 134.14752 
L 111.762 131.949124 
L 113.097989 130.01616 
L 114.877044 127.84176 
L 116.96062 125.66736 
L 119.365673 123.49296 
L 122.114022 121.31856 
L 125.233307 119.14416 
L 128.756471 116.96976 
L 132.72914 114.79536 
L 137.208798 112.62096 
L 141.894 110.600409 
L 146.916 108.67166 
L 152.559406 106.75008 
L 158.634 104.929073 
L 165.33 103.178884 
L 172.026 101.665261 
L 179.28 100.263701 
L 186.534 99.086617 
L 194.346 98.050604 
L 202.158 97.238025 
L 210.528 96.60309 
L 218.898 96.202115 
L 227.268 96.029258 
L 235.638 96.082108 
L 244.008 96.360706 
L 252.378 96.869707 
L 260.19 97.559534 
L 268.161205 98.48736 
L 275.63378 99.57456 
L 282.51 100.774921 
L 289.764 102.268966 
L 296.635673 103.92336 
L 302.909858 105.66288 
L 308.736 107.502705 
L 314.316 109.501215 
L 319.338 111.534086 
L 324.098737 113.70816 
L 328.316009 115.88256 
L 332.172 118.127695 
L 335.52 120.333549 
L 338.31 122.410791 
L 340.878359 124.58016 
L 343.12023 126.75456 
L 345.048843 128.92896 
L 346.68075 131.10336 
L 348.029254 133.27776 
L 349.101368 135.45216 
L 349.837176 137.40912 
L 350.405056 139.58352 
L 350.694131 141.54048 
L 350.775359 143.49744 
L 350.647601 145.4544 
L 350.312453 147.41136 
L 349.766112 149.36832 
L 349.005912 151.32528 
L 347.906648 153.49968 
L 346.531405 155.67408 
L 344.870011 157.84848 
L 342.910171 160.02288 
L 340.542 162.280206 
L 338.028139 164.37168 
L 334.962 166.613646 
L 331.703725 168.72048 
L 327.917114 170.89488 
L 323.648225 173.06928 
L 319.337242 175.02624 
L 314.316 177.058785 
L 309.082623 178.94016 
L 303.637708 180.67968 
L 297.467596 182.4192 
L 290.88 184.038942 
L 283.626 185.570965 
L 276.372 186.866448 
L 268.56 188.02044 
L 260.748 188.942692 
L 252.936 189.647883 
L 244.566 190.17268 
L 236.196 190.466279 
L 227.826 190.534255 
L 219.456 190.376445 
L 211.086 189.990694 
L 202.783053 189.37728 
L 195.462 188.639235 
L 187.65 187.635412 
L 180.396 186.491595 
L 173.142 185.125891 
L 165.888 183.515601 
L 159.192 181.786368 
L 153.054 179.967437 
L 147.42152 178.0704 
L 142.273561 176.11344 
L 137.43 174.039737 
L 132.966 171.886164 
L 129.06 169.765437 
L 125.566548 167.63328 
L 122.364 165.425348 
L 119.574 163.241341 
L 117.186405 161.11008 
L 115.072223 158.93568 
L 113.262728 156.76128 
L 111.746593 154.58688 
L 110.621497 152.62992 
L 109.716538 150.67296 
L 108.96606 148.49856 
L 108.51291 146.5416 
L 108.409384 145.88928 
L 108.409384 145.88928 
" style="fill:none;stroke:#482173;stroke-width:1.5;"/>
   </g>
   <g id="LineCollection_3">
    <path clip-path="url(#p95967db24d)" d="M 127.906046 146.5416 
L 127.616195 144.58464 
L 127.57501 142.62768 
L 127.781488 140.67072 
L 128.23693 138.71376 
L 128.945391 136.7568 
L 129.911207 134.79984 
L 131.143056 132.84288 
L 132.650245 130.88592 
L 134.446461 128.92896 
L 136.548105 126.972 
L 139.104 124.920097 
L 141.894 122.96991 
L 144.930435 121.10112 
L 148.59 119.1171 
L 152.638085 117.1872 
L 156.96 115.371541 
L 161.438572 113.70816 
L 166.771068 111.96864 
L 172.124617 110.44656 
L 178.164 108.961776 
L 184.590433 107.61984 
L 190.998 106.499294 
L 197.694 105.539837 
L 204.948 104.726181 
L 212.202 104.133134 
L 219.456 103.750155 
L 227.268 103.566292 
L 235.08 103.616309 
L 242.892 103.901247 
L 250.704 104.425665 
L 257.958 105.136088 
L 265.370754 106.09776 
L 272.060201 107.18496 
L 278.604 108.469392 
L 284.742 109.895379 
L 290.772486 111.53376 
L 295.902 113.140561 
L 301.119391 115.0128 
L 305.388 116.757998 
L 309.597551 118.70928 
L 313.307462 120.66624 
L 316.570662 122.6232 
L 319.436461 124.58016 
L 322.128 126.695251 
L 324.113633 128.49408 
L 326.034 130.518521 
L 327.546247 132.408 
L 328.837586 134.36496 
L 329.862291 136.32192 
L 330.627434 138.27888 
L 331.138607 140.23584 
L 331.400591 142.1928 
L 331.414317 144.14976 
L 331.180122 146.10672 
L 330.696868 148.06368 
L 329.959672 150.02064 
L 328.965011 151.9776 
L 327.702668 153.93456 
L 326.164502 155.89152 
L 324.334883 157.84848 
L 322.128 159.864749 
L 319.732157 161.7624 
L 316.908432 163.71936 
L 313.690997 165.67632 
L 310.033638 167.63328 
L 305.872073 169.59024 
L 301.482 171.406998 
L 296.46 173.231353 
L 291.438 174.829572 
L 285.858 176.380088 
L 279.697082 177.85296 
L 273.254187 179.1576 
L 266.821649 180.2448 
L 260.19 181.160116 
L 252.936 181.939079 
L 245.682 182.499535 
L 238.31317 182.85408 
L 230.616 183.000836 
L 222.804 182.917407 
L 214.992 182.598746 
L 207.738 182.087504 
L 200.246537 181.332 
L 193.23 180.403697 
L 186.534 179.302272 
L 179.838 177.97037 
L 173.7 176.523264 
L 168.12 174.994767 
L 162.54 173.231353 
L 157.319791 171.32976 
L 152.638085 169.3728 
L 148.536695 167.41584 
L 144.684 165.315185 
L 141.759248 163.50192 
L 138.97681 161.54496 
L 136.548105 159.588 
L 134.446461 157.63104 
L 132.650245 155.67408 
L 131.143056 153.71712 
L 129.911207 151.76016 
L 128.945391 149.8032 
L 128.23693 147.84624 
L 127.906046 146.5416 
L 127.906046 146.5416 
" style="fill:none;stroke:#433e85;stroke-width:1.5;"/>
   </g>
   <g id="LineCollection_4">
    <path clip-path="url(#p95967db24d)" d="M 141.315931 146.97648 
L 140.949009 145.23696 
L 140.808899 143.49744 
L 140.892898 141.75792 
L 141.202625 140.0184 
L 141.740225 138.27888 
L 142.510238 136.53936 
L 143.568 134.724562 
L 144.773089 133.06032 
L 146.358 131.245609 
L 148.071398 129.58128 
L 150.264 127.75138 
L 152.537707 126.10224 
L 155.286 124.354841 
L 158.634 122.497362 
L 161.982 120.868571 
L 166.016945 119.14416 
L 170.702206 117.40464 
L 175.433549 115.88256 
L 180.933781 114.36048 
L 185.976 113.165899 
L 192.114 111.938875 
L 198.617042 110.88144 
L 204.948 110.06888 
L 211.644 109.4259 
L 218.898 108.966104 
L 226.152 108.74294 
L 233.406 108.751813 
L 240.66 108.992921 
L 247.914 109.471283 
L 254.61 110.132243 
L 261.306 111.017006 
L 267.444 112.040788 
L 273.582 113.289532 
L 279.162 114.644324 
L 284.742 116.240884 
L 289.764 117.921985 
L 294.228 119.65161 
L 298.134 121.389378 
L 301.826088 123.27552 
L 305.140437 125.23248 
L 307.994814 127.18944 
L 310.437639 129.1464 
L 312.506204 131.10336 
L 314.226911 133.06032 
L 315.621338 135.01728 
L 316.598838 136.7568 
L 317.339683 138.49632 
L 317.848597 140.23584 
L 318.129872 141.97536 
L 318.185857 143.71488 
L 318.017632 145.4544 
L 317.622348 147.19392 
L 316.998494 148.93344 
L 316.140336 150.67296 
L 315.040868 152.41248 
L 313.69044 154.152 
L 312.077079 155.89152 
L 310.185674 157.63104 
L 307.698542 159.588 
L 305.140437 161.32752 
L 302.04 163.166281 
L 298.692 164.902232 
L 294.786 166.674111 
L 290.725988 168.2856 
L 285.858 169.967084 
L 280.836 171.463843 
L 275.256 172.887338 
L 269.349935 174.15648 
L 263.235505 175.24368 
L 256.842 176.158428 
L 250.146 176.892351 
L 243.339812 177.41808 
L 236.196 177.743172 
L 228.942 177.84092 
L 221.688 177.707453 
L 214.434 177.339496 
L 207.544821 176.76576 
L 201.042 176.014383 
L 194.346 175.010888 
L 188.208 173.867657 
L 182.07 172.484618 
L 176.49 170.989286 
L 171.338489 169.3728 
L 166.566209 167.63328 
L 162.427595 165.89376 
L 158.634 164.062638 
L 155.272717 162.19728 
L 152.220437 160.24032 
L 149.599784 158.28336 
L 147.368743 156.3264 
L 145.496202 154.36944 
L 143.959132 152.41248 
L 142.859664 150.67296 
L 142.001506 148.93344 
L 141.336 147.046813 
L 141.315931 146.97648 
L 141.315931 146.97648 
" style="fill:none;stroke:#38588c;stroke-width:1.5;"/>
   </g>
   <g id="LineCollection_5">
    <path clip-path="url(#p95967db24d)" d="M 151.896386 146.10672 
L 151.607713 144.3672 
L 151.565788 142.84512 
L 151.719728 141.32304 
L 152.070909 139.80096 
L 152.716916 138.06144 
L 153.631079 136.32192 
L 154.822204 134.5824 
L 156.30457 132.84288 
L 158.096285 131.10336 
L 160.308 129.298506 
L 162.71049 127.62432 
L 165.60778 125.8848 
L 168.971229 124.14528 
L 172.584 122.529967 
L 176.49 121.014224 
L 180.954 119.518561 
L 186.081246 118.05696 
L 191.545076 116.75232 
L 196.578 115.750158 
L 202.716 114.757394 
L 208.854 113.992643 
L 215.55 113.398102 
L 222.246 113.039624 
L 228.942 112.908465 
L 235.638 113.002038 
L 242.334 113.3223 
L 249.03 113.876662 
L 255.168 114.602025 
L 261.306 115.551643 
L 266.886 116.629806 
L 272.466 117.939365 
L 277.535514 119.3616 
L 282.14649 120.88368 
L 286.416 122.529967 
L 290.028771 124.14528 
L 293.39222 125.8848 
L 296.46 127.735624 
L 298.779121 129.36384 
L 300.924 131.121584 
L 302.69543 132.84288 
L 304.177796 134.5824 
L 305.388 136.354068 
L 306.283084 138.06144 
L 306.929091 139.80096 
L 307.31431 141.54048 
L 307.440197 143.06256 
L 307.370309 144.58464 
L 307.062 146.273233 
L 306.639016 147.6288 
L 305.859984 149.36832 
L 304.808716 151.10784 
L 303.474173 152.84736 
L 301.839765 154.58688 
L 299.808 156.388843 
L 297.576 158.070177 
L 294.786 159.870524 
L 291.773229 161.54496 
L 288.147587 163.28448 
L 284.484001 164.80656 
L 280.25858 166.32864 
L 275.315987 167.85072 
L 270.312721 169.15536 
L 265.212 170.276509 
L 259.390773 171.32976 
L 253.314865 172.19952 
L 247.2735 172.85184 
L 240.66 173.339333 
L 233.964 173.602479 
L 227.268 173.639869 
L 220.572 173.452368 
L 213.876 173.035761 
L 207.499888 172.41696 
L 201.6 171.639749 
L 195.462 170.602963 
L 189.609631 169.3728 
L 184.462102 168.06816 
L 179.838 166.688614 
L 175.374 165.134262 
L 171.345561 163.50192 
L 167.562 161.717099 
L 164.470225 160.02288 
L 161.731616 158.28336 
L 159.192 156.388843 
L 157.386635 154.80432 
L 155.713477 153.0648 
L 154.342048 151.32528 
L 153.256139 149.58576 
L 152.443958 147.84624 
L 151.896386 146.10672 
L 151.896386 146.10672 
" style="fill:none;stroke:#2d708e;stroke-width:1.5;"/>
   </g>
   <g id="LineCollection_6">
    <path clip-path="url(#p95967db24d)" d="M 161.378646 145.88928 
L 161.107032 144.3672 
L 161.059268 142.84512 
L 161.234649 141.32304 
L 161.634916 139.80096 
L 162.264091 138.27888 
L 163.1289 136.7568 
L 164.238287 135.23472 
L 165.605029 133.71264 
L 167.246448 132.19056 
L 169.236 130.631589 
L 171.468 129.135075 
L 174.258 127.529949 
L 177.134782 126.10224 
L 180.689371 124.58016 
L 184.302 123.248611 
L 188.766 121.843906 
L 193.23 120.659128 
L 198.252 119.548313 
L 203.832 118.553084 
L 209.412 117.78116 
L 215.55 117.166515 
L 221.688 116.78098 
L 227.826 116.614622 
L 233.964 116.663423 
L 240.102 116.928573 
L 246.24 117.416681 
L 252.378 118.140624 
L 257.958 119.021197 
L 263.538 120.138382 
L 268.56 121.375897 
L 273.024 122.693382 
L 277.187736 124.14528 
L 280.905055 125.66736 
L 284.184 127.23693 
L 287.197899 128.92896 
L 289.815171 130.66848 
L 292.005481 132.408 
L 293.812653 134.14752 
L 295.267934 135.88704 
L 296.271172 137.40912 
L 297.033712 138.9312 
L 297.576 140.498468 
L 297.867928 141.97536 
L 297.947551 143.49744 
L 297.80413 145.01952 
L 297.436109 146.5416 
L 296.839991 148.06368 
L 296.009452 149.58576 
L 294.935764 151.10784 
L 293.606487 152.62992 
L 291.996 154.160205 
L 290.111346 155.67408 
L 287.895235 157.19616 
L 285.3 158.728618 
L 282.329897 160.24032 
L 278.853037 161.7624 
L 275.256 163.118076 
L 270.792 164.553363 
L 266.328 165.763568 
L 261.306 166.898873 
L 255.726 167.917845 
L 250.06817 168.72048 
L 244.008 169.347281 
L 237.87 169.753168 
L 231.732 169.939174 
L 225.594 169.9099 
L 219.456 169.664629 
L 213.318 169.197232 
L 207.18 168.495366 
L 201.578944 167.63328 
L 196.02 166.544863 
L 190.998 165.333615 
L 186.195796 163.9368 
L 182.07 162.511764 
L 178.164 160.923164 
L 174.816 159.32307 
L 171.802101 157.63104 
L 169.184829 155.89152 
L 166.994519 154.152 
L 165.187347 152.41248 
L 163.732066 150.67296 
L 162.728828 149.15088 
L 161.966288 147.6288 
L 161.424 146.061532 
L 161.378646 145.88928 
L 161.378646 145.88928 
" style="fill:none;stroke:#25858e;stroke-width:1.5;"/>
   </g>
   <g id="LineCollection_7">
    <path clip-path="url(#p95967db24d)" d="M 170.295746 145.88928 
L 169.983601 144.3672 
L 169.928709 142.84512 
L 170.130261 141.32304 
L 170.590952 139.80096 
L 171.316923 138.27888 
L 172.318248 136.7568 
L 173.609755 135.23472 
L 175.212133 133.71264 
L 177.153914 132.19056 
L 179.474667 130.66848 
L 182.23008 129.1464 
L 185.501702 127.62432 
L 188.810603 126.31968 
L 192.717139 125.01504 
L 197.136 123.786257 
L 201.6 122.7652 
L 206.622 121.842176 
L 212.202 121.062379 
L 217.782 120.515797 
L 223.362 120.185873 
L 228.942 120.063359 
L 234.522 120.144953 
L 240.322051 120.4488 
L 245.682 120.935059 
L 251.262 121.666455 
L 256.284 122.540566 
L 261.306 123.647283 
L 265.77 124.859979 
L 269.676 126.134857 
L 273.498298 127.62432 
L 276.372 128.94655 
L 279.162 130.452206 
L 281.538837 131.97312 
L 283.626 133.574805 
L 285.3 135.14077 
L 286.515417 136.53936 
L 287.557144 138.06144 
L 288.321771 139.58352 
L 288.819886 141.1056 
L 289.058227 142.62768 
L 289.039932 144.14976 
L 288.76473 145.67184 
L 288.229047 147.19392 
L 287.42562 148.716 
L 286.343125 150.23808 
L 284.965223 151.76016 
L 283.269185 153.28224 
L 281.223742 154.80432 
L 278.785405 156.3264 
L 275.89237 157.84848 
L 272.982285 159.15312 
L 269.118 160.621167 
L 265.212 161.864829 
L 260.669619 163.06704 
L 255.726 164.127452 
L 250.704 164.977603 
L 245.124 165.685157 
L 239.544 166.165383 
L 233.964 166.432413 
L 228.384 166.493587 
L 222.326959 166.32864 
L 217.224 165.999508 
L 211.644 165.430482 
L 206.064 164.626104 
L 201.042 163.678088 
L 196.578 162.631391 
L 192.017131 161.32752 
L 188.208 160.017742 
L 184.508141 158.5008 
L 181.394287 156.97872 
L 178.722 155.426097 
L 176.49 153.87945 
L 174.72109 152.41248 
L 173.142 150.812872 
L 172.003323 149.36832 
L 171.081928 147.84624 
L 170.432636 146.32416 
L 170.295746 145.88928 
L 170.295746 145.88928 
" style="fill:none;stroke:#1e9b8a;stroke-width:1.5;"/>
   </g>
   <g id="LineCollection_8">
    <path clip-path="url(#p95967db24d)" d="M 178.717843 144.58464 
L 178.607676 143.28 
L 178.722 141.952652 
L 179.050155 140.67072 
L 179.608718 139.36608 
L 180.401215 138.06144 
L 181.512 136.677029 
L 182.740037 135.45216 
L 184.324934 134.14752 
L 186.534 132.651483 
L 188.902788 131.3208 
L 191.665825 130.01616 
L 194.970248 128.71152 
L 198.81 127.460183 
L 202.716 126.417169 
L 207.219783 125.44992 
L 212.202 124.629135 
L 217.224 124.034038 
L 222.246 123.650911 
L 227.826 123.459136 
L 233.406 123.506888 
L 238.986 123.795981 
L 244.008 124.271341 
L 249.03 124.966817 
L 253.939039 125.8848 
L 257.958 126.838811 
L 262.123648 128.0592 
L 265.77 129.368351 
L 269.118 130.832186 
L 271.691794 132.19056 
L 273.766234 133.4952 
L 275.764667 135.01728 
L 277.156899 136.32192 
L 278.443024 137.844 
L 279.275742 139.14864 
L 279.872663 140.45328 
L 280.242259 141.75792 
L 280.389267 143.06256 
L 280.31584 144.3672 
L 280.020768 145.67184 
L 279.50038 146.97648 
L 278.747462 148.28112 
L 277.751014 149.58576 
L 276.372 151.004904 
L 274.698 152.395111 
L 272.773821 153.71712 
L 270.234 155.168228 
L 267.444 156.496075 
L 264.624434 157.63104 
L 260.748 158.933191 
L 256.775167 160.02288 
L 252.378 160.99472 
L 247.914 161.767964 
L 242.872519 162.41472 
L 237.742256 162.8496 
L 232.29 163.081786 
L 226.71 163.081786 
L 221.13 162.841565 
L 216.108 162.412688 
L 211.049654 161.7624 
L 206.064 160.883703 
L 201.365644 159.80544 
L 197.556108 158.71824 
L 193.788 157.409159 
L 190.44 155.992699 
L 187.65 154.564464 
L 185.233766 153.0648 
L 183.235333 151.54272 
L 181.843101 150.23808 
L 180.556976 148.716 
L 179.724258 147.41136 
L 179.127337 146.10672 
L 178.757741 144.80208 
L 178.717843 144.58464 
L 178.717843 144.58464 
" style="fill:none;stroke:#2ab07f;stroke-width:1.5;"/>
   </g>
   <g id="LineCollection_9">
    <path clip-path="url(#p95967db24d)" d="M 187.625043 144.14976 
L 187.580559 142.84512 
L 187.748081 141.75792 
L 188.197741 140.45328 
L 188.928251 139.14864 
L 189.954083 137.844 
L 191.300029 136.53936 
L 193.000695 135.23472 
L 195.108975 133.93008 
L 197.705181 132.62544 
L 200.484 131.482811 
L 203.832 130.358188 
L 207.520687 129.36384 
L 211.086 128.599026 
L 215.55 127.869849 
L 220.014 127.362776 
L 225.036 127.032065 
L 230.058 126.940608 
L 235.08 127.084561 
L 240.102 127.470106 
L 244.756191 128.0592 
L 249.03 128.819684 
L 253.197107 129.79872 
L 256.842 130.890277 
L 260.19 132.144595 
L 262.66028 133.27776 
L 265.000331 134.5824 
L 266.897319 135.88704 
L 268.414769 137.19168 
L 269.597145 138.49632 
L 270.472617 139.80096 
L 271.061143 141.1056 
L 271.374957 142.41024 
L 271.419441 143.71488 
L 271.251919 144.80208 
L 270.802259 146.10672 
L 270.071749 147.41136 
L 269.045917 148.716 
L 267.699971 150.02064 
L 265.999305 151.32528 
L 263.891025 152.62992 
L 261.294819 153.93456 
L 258.516 155.077189 
L 255.168 156.201812 
L 251.479313 157.19616 
L 247.914 157.960974 
L 243.45 158.690151 
L 238.986 159.197224 
L 233.964 159.527935 
L 228.942 159.619392 
L 223.92 159.475439 
L 218.898 159.089894 
L 214.243809 158.5008 
L 209.97 157.740316 
L 205.802893 156.76128 
L 202.158 155.669723 
L 198.81 154.415405 
L 196.33972 153.28224 
L 193.999669 151.9776 
L 192.102681 150.67296 
L 190.585231 149.36832 
L 189.402855 148.06368 
L 188.527383 146.75904 
L 187.938857 145.4544 
L 187.625043 144.14976 
L 187.625043 144.14976 
" style="fill:none;stroke:#52c569;stroke-width:1.5;"/>
   </g>
   <g id="LineCollection_10">
    <path clip-path="url(#p95967db24d)" d="M 197.659609 144.58464 
L 197.489503 143.49744 
L 197.562369 142.41024 
L 197.880955 141.32304 
L 198.452379 140.23584 
L 199.368 139.064576 
L 200.484 138.007835 
L 201.875449 136.97424 
L 203.832 135.82372 
L 206.064 134.780349 
L 208.952696 133.71264 
L 212.202 132.782095 
L 215.970438 131.97312 
L 219.456 131.434222 
L 223.362 131.035748 
L 227.826 130.821373 
L 232.29 130.851673 
L 236.754 131.128629 
L 240.66 131.586771 
L 244.566 132.272093 
L 247.914 133.074158 
L 250.704 133.932457 
L 253.494 135.019975 
L 255.726 136.124292 
L 257.444681 137.19168 
L 258.830268 138.27888 
L 259.898933 139.36608 
L 260.748 140.565717 
L 261.202878 141.54048 
L 261.471642 142.62768 
L 261.495928 143.71488 
L 261.276789 144.80208 
L 260.807746 145.88928 
L 260.077972 146.97648 
L 259.069064 148.06368 
L 257.748769 149.15088 
L 256.073262 150.23808 
L 253.969215 151.32528 
L 251.262 152.430598 
L 248.472 153.329247 
L 245.124 154.169411 
L 241.218 154.889949 
L 237.312 155.378557 
L 233.151455 155.67408 
L 228.942 155.753768 
L 224.478 155.601228 
L 220.384736 155.2392 
L 216.666 154.709343 
L 212.844363 153.93456 
L 209.639137 153.0648 
L 207.103616 152.19504 
L 204.39 151.01933 
L 202.560013 150.02064 
L 200.960186 148.93344 
L 199.706258 147.84624 
L 198.754218 146.75904 
L 198.078491 145.67184 
L 197.659609 144.58464 
L 197.659609 144.58464 
" style="fill:none;stroke:#86d549;stroke-width:1.5;"/>
   </g>
   <g id="LineCollection_11">
    <path clip-path="url(#p95967db24d)" d="M 210.496747 144.3672 
L 210.302479 143.49744 
L 210.367209 142.62768 
L 210.69555 141.75792 
L 211.301616 140.88816 
L 212.212427 140.0184 
L 213.48564 139.14864 
L 215.212203 138.27888 
L 217.224 137.524503 
L 219.456 136.900982 
L 222.427645 136.32192 
L 225.594 135.952331 
L 228.942 135.799159 
L 232.48576 135.88704 
L 235.638 136.188501 
L 238.428 136.653849 
L 241.218 137.350319 
L 243.45 138.13606 
L 245.132415 138.9312 
L 246.504195 139.80096 
L 247.500897 140.67072 
L 248.179561 141.54048 
L 248.576131 142.41024 
L 248.705611 143.28 
L 248.576131 144.14976 
L 248.179561 145.01952 
L 247.500897 145.88928 
L 246.504195 146.75904 
L 245.124 147.633357 
L 243.266334 148.49856 
L 241.218 149.209681 
L 238.428 149.906151 
L 235.638 150.371499 
L 232.29 150.685139 
L 228.942 150.760841 
L 225.594 150.607669 
L 222.246 150.210018 
L 219.156386 149.58576 
L 216.666 148.847632 
L 214.730099 148.06368 
L 213.130003 147.19392 
L 211.955038 146.32416 
L 211.086 145.40702 
L 210.587389 144.58464 
L 210.496747 144.3672 
L 210.496747 144.3672 
" style="fill:none;stroke:#c2df23;stroke-width:1.5;"/>
   </g>
   <g id="LineCollection_12"/>
   <g id="patch_3">
    <path d="M 90 252 
L 90 34.56 
" style="fill:none;stroke:#000000;stroke-linecap:square;stroke-linejoin:miter;stroke-width:0.8;"/>
   </g>
   <g id="patch_4">
    <path d="M 648 252 
L 648 34.56 
" style="fill:none;stroke:#000000;stroke-linecap:square;stroke-linejoin:miter;stroke-width:0.8;"/>
   </g>
   <g id="patch_5">
    <path d="M 90 252 
L 648 252 
" style="fill:none;stroke:#000000;stroke-linecap:square;stroke-linejoin:miter;stroke-width:0.8;"/>
   </g>
   <g id="patch_6">
    <path d="M 90 34.56 
L 648 34.56 
" style="fill:none;stroke:#000000;stroke-linecap:square;stroke-linejoin:miter;stroke-width:0.8;"/>
   </g>
  </g>
 </g>
 <defs>
  <clipPath id="p95967db24d">
   <rect height="217.44" width="558" x="90" y="34.56"/>
  </clipPath>
 </defs>
</svg>
