<?xml version="1.0" encoding="utf-8" standalone="no"?>
<!DOCTYPE svg PUBLIC "-//W3C//DTD SVG 1.1//EN"
  "http://www.w3.org/Graphics/SVG/1.1/DTD/svg11.dtd">
<!-- Created with matplotlib (https://matplotlib.org/) -->
<svg height="288pt" version="1.1" viewBox="0 0 720 288" width="720pt" xmlns="http://www.w3.org/2000/svg" xmlns:xlink="http://www.w3.org/1999/xlink">
 <metadata>
  <rdf:RDF xmlns:cc="http://creativecommons.org/ns#" xmlns:dc="http://purl.org/dc/elements/1.1/" xmlns:rdf="http://www.w3.org/1999/02/22-rdf-syntax-ns#">
   <cc:Work>
    <dc:type rdf:resource="http://purl.org/dc/dcmitype/StillImage"/>
    <dc:date>2020-09-22T12:03:09.765469</dc:date>
    <dc:format>image/svg+xml</dc:format>
    <dc:creator>
     <cc:Agent>
      <dc:title>Matplotlib v3.3.1, https://matplotlib.org/</dc:title>
     </cc:Agent>
    </dc:creator>
   </cc:Work>
  </rdf:RDF>
 </metadata>
 <defs>
  <style type="text/css">*{stroke-linecap:butt;stroke-linejoin:round;}</style>
 </defs>
 <g id="figure_1">
  <g id="patch_1">
   <path d="M 0 288 
L 720 288 
L 720 0 
L 0 0 
z
" style="fill:none;"/>
  </g>
  <g id="axes_1">
   <g id="patch_2">
    <path d="M 90 252 
L 648 252 
L 648 34.56 
L 90 34.56 
z
" style="fill:#ffffff;"/>
   </g>
   <g id="PathCollection_1">
    <defs>
     <path d="M 0 1.581139 
C 0.419323 1.581139 0.821528 1.41454 1.118034 1.118034 
C 1.41454 0.821528 1.581139 0.419323 1.581139 0 
C 1.581139 -0.419323 1.41454 -0.821528 1.118034 -1.118034 
C 0.821528 -1.41454 0.419323 -1.581139 0 -1.581139 
C -0.419323 -1.581139 -0.821528 -1.41454 -1.118034 -1.118034 
C -1.41454 -0.821528 -1.581139 -0.419323 -1.581139 0 
C -1.581139 0.419323 -1.41454 0.821528 -1.118034 1.118034 
C -0.821528 1.41454 -0.419323 1.581139 0 1.581139 
z
" id="mae526a6466" style="stroke:#0000ff;"/>
    </defs>
    <g clip-path="url(#p20aa353a5a)">
     <use style="fill:#0000ff;stroke:#0000ff;" x="510.068242" xlink:href="#mae526a6466" y="125.877963"/>
     <use style="fill:#0000ff;stroke:#0000ff;" x="422.427159" xlink:href="#mae526a6466" y="45.828037"/>
     <use style="fill:#0000ff;stroke:#0000ff;" x="521.619472" xlink:href="#mae526a6466" y="185.77986"/>
     <use style="fill:#0000ff;stroke:#0000ff;" x="419.229867" xlink:href="#mae526a6466" y="149.862222"/>
     <use style="fill:#0000ff;stroke:#0000ff;" x="301.680776" xlink:href="#mae526a6466" y="125.423892"/>
     <use style="fill:#0000ff;stroke:#0000ff;" x="329.275263" xlink:href="#mae526a6466" y="80.036554"/>
     <use style="fill:#0000ff;stroke:#0000ff;" x="398.13181" xlink:href="#mae526a6466" y="137.988597"/>
     <use style="fill:#0000ff;stroke:#0000ff;" x="362.735137" xlink:href="#mae526a6466" y="128.769171"/>
     <use style="fill:#0000ff;stroke:#0000ff;" x="479.939225" xlink:href="#mae526a6466" y="152.201923"/>
     <use style="fill:#0000ff;stroke:#0000ff;" x="348.138356" xlink:href="#mae526a6466" y="180.422916"/>
     <use style="fill:#0000ff;stroke:#0000ff;" x="151.713663" xlink:href="#mae526a6466" y="114.855435"/>
     <use style="fill:#0000ff;stroke:#0000ff;" x="409.67108" xlink:href="#mae526a6466" y="175.555272"/>
     <use style="fill:#0000ff;stroke:#0000ff;" x="566.504616" xlink:href="#mae526a6466" y="206.527454"/>
     <use style="fill:#0000ff;stroke:#0000ff;" x="318.306651" xlink:href="#mae526a6466" y="151.420251"/>
     <use style="fill:#0000ff;stroke:#0000ff;" x="484.25816" xlink:href="#mae526a6466" y="79.380526"/>
     <use style="fill:#0000ff;stroke:#0000ff;" x="330.492133" xlink:href="#mae526a6466" y="126.834468"/>
     <use style="fill:#0000ff;stroke:#0000ff;" x="214.123111" xlink:href="#mae526a6466" y="229.420877"/>
     <use style="fill:#0000ff;stroke:#0000ff;" x="274.373004" xlink:href="#mae526a6466" y="136.480696"/>
     <use style="fill:#0000ff;stroke:#0000ff;" x="450.50044" xlink:href="#mae526a6466" y="90.990905"/>
     <use style="fill:#0000ff;stroke:#0000ff;" x="269.974327" xlink:href="#mae526a6466" y="156.426542"/>
     <use style="fill:#0000ff;stroke:#0000ff;" x="196.181489" xlink:href="#mae526a6466" y="205.03374"/>
     <use style="fill:#0000ff;stroke:#0000ff;" x="122.780247" xlink:href="#mae526a6466" y="58.44468"/>
     <use style="fill:#0000ff;stroke:#0000ff;" x="256.322817" xlink:href="#mae526a6466" y="162.330975"/>
     <use style="fill:#0000ff;stroke:#0000ff;" x="173.388038" xlink:href="#mae526a6466" y="109.468499"/>
     <use style="fill:#0000ff;stroke:#0000ff;" x="133.089" xlink:href="#mae526a6466" y="152.531649"/>
     <use style="fill:#0000ff;stroke:#0000ff;" x="213.265932" xlink:href="#mae526a6466" y="126.454384"/>
     <use style="fill:#0000ff;stroke:#0000ff;" x="256.194147" xlink:href="#mae526a6466" y="194.623332"/>
     <use style="fill:#0000ff;stroke:#0000ff;" x="310.054863" xlink:href="#mae526a6466" y="124.652704"/>
     <use style="fill:#0000ff;stroke:#0000ff;" x="320.623322" xlink:href="#mae526a6466" y="130.126102"/>
     <use style="fill:#0000ff;stroke:#0000ff;" x="242.409654" xlink:href="#mae526a6466" y="159.054888"/>
     <use style="fill:#0000ff;stroke:#0000ff;" x="238.153414" xlink:href="#mae526a6466" y="158.916248"/>
     <use style="fill:#0000ff;stroke:#0000ff;" x="222.452875" xlink:href="#mae526a6466" y="218.352578"/>
     <use style="fill:#0000ff;stroke:#0000ff;" x="333.000757" xlink:href="#mae526a6466" y="160.752649"/>
     <use style="fill:#0000ff;stroke:#0000ff;" x="131.269864" xlink:href="#mae526a6466" y="123.154525"/>
     <use style="fill:#0000ff;stroke:#0000ff;" x="211.945503" xlink:href="#mae526a6466" y="141.020999"/>
     <use style="fill:#0000ff;stroke:#0000ff;" x="394.566507" xlink:href="#mae526a6466" y="137.670791"/>
     <use style="fill:#0000ff;stroke:#0000ff;" x="440.357116" xlink:href="#mae526a6466" y="196.980105"/>
     <use style="fill:#0000ff;stroke:#0000ff;" x="358.101327" xlink:href="#mae526a6466" y="173.061021"/>
     <use style="fill:#0000ff;stroke:#0000ff;" x="216.019038" xlink:href="#mae526a6466" y="168.453014"/>
     <use style="fill:#0000ff;stroke:#0000ff;" x="278.430737" xlink:href="#mae526a6466" y="140.837482"/>
     <use style="fill:#0000ff;stroke:#0000ff;" x="183.169278" xlink:href="#mae526a6466" y="104.104858"/>
     <use style="fill:#0000ff;stroke:#0000ff;" x="365.167928" xlink:href="#mae526a6466" y="210.088165"/>
     <use style="fill:#0000ff;stroke:#0000ff;" x="479.288945" xlink:href="#mae526a6466" y="60.831572"/>
     <use style="fill:#0000ff;stroke:#0000ff;" x="444.7518" xlink:href="#mae526a6466" y="151.104571"/>
     <use style="fill:#0000ff;stroke:#0000ff;" x="193.704007" xlink:href="#mae526a6466" y="97.424003"/>
     <use style="fill:#0000ff;stroke:#0000ff;" x="268.205453" xlink:href="#mae526a6466" y="90.118309"/>
     <use style="fill:#0000ff;stroke:#0000ff;" x="336.443488" xlink:href="#mae526a6466" y="100.807922"/>
     <use style="fill:#0000ff;stroke:#0000ff;" x="352.97049" xlink:href="#mae526a6466" y="112.552546"/>
     <use style="fill:#0000ff;stroke:#0000ff;" x="314.371802" xlink:href="#mae526a6466" y="65.616064"/>
     <use style="fill:#0000ff;stroke:#0000ff;" x="327.36339" xlink:href="#mae526a6466" y="125.798287"/>
     <use style="fill:#0000ff;stroke:#0000ff;" x="523.359618" xlink:href="#mae526a6466" y="201.891346"/>
     <use style="fill:#0000ff;stroke:#0000ff;" x="171.413874" xlink:href="#mae526a6466" y="101.122876"/>
     <use style="fill:#0000ff;stroke:#0000ff;" x="182.279428" xlink:href="#mae526a6466" y="58.755802"/>
     <use style="fill:#0000ff;stroke:#0000ff;" x="267.040122" xlink:href="#mae526a6466" y="175.785315"/>
     <use style="fill:#0000ff;stroke:#0000ff;" x="527.80033" xlink:href="#mae526a6466" y="78.895373"/>
     <use style="fill:#0000ff;stroke:#0000ff;" x="521.61958" xlink:href="#mae526a6466" y="103.87793"/>
     <use style="fill:#0000ff;stroke:#0000ff;" x="217.087214" xlink:href="#mae526a6466" y="60.215095"/>
     <use style="fill:#0000ff;stroke:#0000ff;" x="283.290824" xlink:href="#mae526a6466" y="108.382776"/>
     <use style="fill:#0000ff;stroke:#0000ff;" x="418.91332" xlink:href="#mae526a6466" y="150.021079"/>
     <use style="fill:#0000ff;stroke:#0000ff;" x="381.731258" xlink:href="#mae526a6466" y="103.175076"/>
     <use style="fill:#0000ff;stroke:#0000ff;" x="355.209089" xlink:href="#mae526a6466" y="191.090742"/>
     <use style="fill:#0000ff;stroke:#0000ff;" x="346.48338" xlink:href="#mae526a6466" y="85.59813"/>
     <use style="fill:#0000ff;stroke:#0000ff;" x="235.686227" xlink:href="#mae526a6466" y="149.787307"/>
     <use style="fill:#0000ff;stroke:#0000ff;" x="264.636864" xlink:href="#mae526a6466" y="62.859219"/>
     <use style="fill:#0000ff;stroke:#0000ff;" x="388.228095" xlink:href="#mae526a6466" y="125.5603"/>
     <use style="fill:#0000ff;stroke:#0000ff;" x="227.277366" xlink:href="#mae526a6466" y="119.829131"/>
     <use style="fill:#0000ff;stroke:#0000ff;" x="237.944475" xlink:href="#mae526a6466" y="141.895753"/>
     <use style="fill:#0000ff;stroke:#0000ff;" x="242.239578" xlink:href="#mae526a6466" y="113.863269"/>
     <use style="fill:#0000ff;stroke:#0000ff;" x="377.547535" xlink:href="#mae526a6466" y="152.338496"/>
     <use style="fill:#0000ff;stroke:#0000ff;" x="357.394349" xlink:href="#mae526a6466" y="190.815059"/>
     <use style="fill:#0000ff;stroke:#0000ff;" x="146.775653" xlink:href="#mae526a6466" y="124.171734"/>
     <use style="fill:#0000ff;stroke:#0000ff;" x="331.800762" xlink:href="#mae526a6466" y="115.663753"/>
     <use style="fill:#0000ff;stroke:#0000ff;" x="579.158957" xlink:href="#mae526a6466" y="102.206476"/>
     <use style="fill:#0000ff;stroke:#0000ff;" x="211.32904" xlink:href="#mae526a6466" y="94.703196"/>
     <use style="fill:#0000ff;stroke:#0000ff;" x="166.344733" xlink:href="#mae526a6466" y="163.353391"/>
     <use style="fill:#0000ff;stroke:#0000ff;" x="305.584237" xlink:href="#mae526a6466" y="68.770152"/>
     <use style="fill:#0000ff;stroke:#0000ff;" x="230.085362" xlink:href="#mae526a6466" y="179.220159"/>
     <use style="fill:#0000ff;stroke:#0000ff;" x="302.212698" xlink:href="#mae526a6466" y="172.133344"/>
     <use style="fill:#0000ff;stroke:#0000ff;" x="438.932569" xlink:href="#mae526a6466" y="190.244061"/>
     <use style="fill:#0000ff;stroke:#0000ff;" x="185.142498" xlink:href="#mae526a6466" y="162.319918"/>
     <use style="fill:#0000ff;stroke:#0000ff;" x="257.619579" xlink:href="#mae526a6466" y="59.36851"/>
     <use style="fill:#0000ff;stroke:#0000ff;" x="419.155362" xlink:href="#mae526a6466" y="139.472572"/>
     <use style="fill:#0000ff;stroke:#0000ff;" x="176.441396" xlink:href="#mae526a6466" y="106.560343"/>
     <use style="fill:#0000ff;stroke:#0000ff;" x="201.575967" xlink:href="#mae526a6466" y="210.459005"/>
     <use style="fill:#0000ff;stroke:#0000ff;" x="445.784125" xlink:href="#mae526a6466" y="129.4968"/>
     <use style="fill:#0000ff;stroke:#0000ff;" x="415.967845" xlink:href="#mae526a6466" y="129.419172"/>
     <use style="fill:#0000ff;stroke:#0000ff;" x="408.822296" xlink:href="#mae526a6466" y="171.591801"/>
     <use style="fill:#0000ff;stroke:#0000ff;" x="197.778499" xlink:href="#mae526a6466" y="113.638818"/>
     <use style="fill:#0000ff;stroke:#0000ff;" x="223.539481" xlink:href="#mae526a6466" y="173.267141"/>
     <use style="fill:#0000ff;stroke:#0000ff;" x="262.362573" xlink:href="#mae526a6466" y="142.519866"/>
     <use style="fill:#0000ff;stroke:#0000ff;" x="273.69428" xlink:href="#mae526a6466" y="203.073882"/>
     <use style="fill:#0000ff;stroke:#0000ff;" x="241.372186" xlink:href="#mae526a6466" y="239.971356"/>
     <use style="fill:#0000ff;stroke:#0000ff;" x="382.97583" xlink:href="#mae526a6466" y="212.950283"/>
     <use style="fill:#0000ff;stroke:#0000ff;" x="189.950819" xlink:href="#mae526a6466" y="141.011445"/>
     <use style="fill:#0000ff;stroke:#0000ff;" x="230.66477" xlink:href="#mae526a6466" y="76.177381"/>
     <use style="fill:#0000ff;stroke:#0000ff;" x="168.917169" xlink:href="#mae526a6466" y="131.666492"/>
     <use style="fill:#0000ff;stroke:#0000ff;" x="308.816037" xlink:href="#mae526a6466" y="194.07805"/>
     <use style="fill:#0000ff;stroke:#0000ff;" x="371.597675" xlink:href="#mae526a6466" y="150.740207"/>
     <use style="fill:#0000ff;stroke:#0000ff;" x="399.331826" xlink:href="#mae526a6466" y="107.467451"/>
     <use style="fill:#0000ff;stroke:#0000ff;" x="554.617132" xlink:href="#mae526a6466" y="85.157073"/>
    </g>
   </g>
   <g id="matplotlib.axis_1">
    <g id="xtick_1">
     <g id="line2d_1">
      <defs>
       <path d="M 0 0 
L 0 3.5 
" id="m8e2f02253e" style="stroke:#000000;stroke-width:0.8;"/>
      </defs>
      <g>
       <use style="stroke:#000000;stroke-width:0.8;" x="90" xlink:href="#m8e2f02253e" y="252"/>
      </g>
     </g>
     <g id="text_1">
      <!-- 0 -->
      <g transform="translate(86.81875 266.598437)scale(0.1 -0.1)">
       <defs>
        <path d="M 31.78125 66.40625 
Q 24.171875 66.40625 20.328125 58.90625 
Q 16.5 51.421875 16.5 36.375 
Q 16.5 21.390625 20.328125 13.890625 
Q 24.171875 6.390625 31.78125 6.390625 
Q 39.453125 6.390625 43.28125 13.890625 
Q 47.125 21.390625 47.125 36.375 
Q 47.125 51.421875 43.28125 58.90625 
Q 39.453125 66.40625 31.78125 66.40625 
z
M 31.78125 74.21875 
Q 44.046875 74.21875 50.515625 64.515625 
Q 56.984375 54.828125 56.984375 36.375 
Q 56.984375 17.96875 50.515625 8.265625 
Q 44.046875 -1.421875 31.78125 -1.421875 
Q 19.53125 -1.421875 13.0625 8.265625 
Q 6.59375 17.96875 6.59375 36.375 
Q 6.59375 54.828125 13.0625 64.515625 
Q 19.53125 74.21875 31.78125 74.21875 
z
" id="DejaVuSans-48"/>
       </defs>
       <use xlink:href="#DejaVuSans-48"/>
      </g>
     </g>
    </g>
    <g id="xtick_2">
     <g id="line2d_2">
      <g>
       <use style="stroke:#000000;stroke-width:0.8;" x="201.6" xlink:href="#m8e2f02253e" y="252"/>
      </g>
     </g>
     <g id="text_2">
      <!-- 2 -->
      <g transform="translate(198.41875 266.598437)scale(0.1 -0.1)">
       <defs>
        <path d="M 19.1875 8.296875 
L 53.609375 8.296875 
L 53.609375 0 
L 7.328125 0 
L 7.328125 8.296875 
Q 12.9375 14.109375 22.625 23.890625 
Q 32.328125 33.6875 34.8125 36.53125 
Q 39.546875 41.84375 41.421875 45.53125 
Q 43.3125 49.21875 43.3125 52.78125 
Q 43.3125 58.59375 39.234375 62.25 
Q 35.15625 65.921875 28.609375 65.921875 
Q 23.96875 65.921875 18.8125 64.3125 
Q 13.671875 62.703125 7.8125 59.421875 
L 7.8125 69.390625 
Q 13.765625 71.78125 18.9375 73 
Q 24.125 74.21875 28.421875 74.21875 
Q 39.75 74.21875 46.484375 68.546875 
Q 53.21875 62.890625 53.21875 53.421875 
Q 53.21875 48.921875 51.53125 44.890625 
Q 49.859375 40.875 45.40625 35.40625 
Q 44.1875 33.984375 37.640625 27.21875 
Q 31.109375 20.453125 19.1875 8.296875 
z
" id="DejaVuSans-50"/>
       </defs>
       <use xlink:href="#DejaVuSans-50"/>
      </g>
     </g>
    </g>
    <g id="xtick_3">
     <g id="line2d_3">
      <g>
       <use style="stroke:#000000;stroke-width:0.8;" x="313.2" xlink:href="#m8e2f02253e" y="252"/>
      </g>
     </g>
     <g id="text_3">
      <!-- 4 -->
      <g transform="translate(310.01875 266.598437)scale(0.1 -0.1)">
       <defs>
        <path d="M 37.796875 64.3125 
L 12.890625 25.390625 
L 37.796875 25.390625 
z
M 35.203125 72.90625 
L 47.609375 72.90625 
L 47.609375 25.390625 
L 58.015625 25.390625 
L 58.015625 17.1875 
L 47.609375 17.1875 
L 47.609375 0 
L 37.796875 0 
L 37.796875 17.1875 
L 4.890625 17.1875 
L 4.890625 26.703125 
z
" id="DejaVuSans-52"/>
       </defs>
       <use xlink:href="#DejaVuSans-52"/>
      </g>
     </g>
    </g>
    <g id="xtick_4">
     <g id="line2d_4">
      <g>
       <use style="stroke:#000000;stroke-width:0.8;" x="424.8" xlink:href="#m8e2f02253e" y="252"/>
      </g>
     </g>
     <g id="text_4">
      <!-- 6 -->
      <g transform="translate(421.61875 266.598437)scale(0.1 -0.1)">
       <defs>
        <path d="M 33.015625 40.375 
Q 26.375 40.375 22.484375 35.828125 
Q 18.609375 31.296875 18.609375 23.390625 
Q 18.609375 15.53125 22.484375 10.953125 
Q 26.375 6.390625 33.015625 6.390625 
Q 39.65625 6.390625 43.53125 10.953125 
Q 47.40625 15.53125 47.40625 23.390625 
Q 47.40625 31.296875 43.53125 35.828125 
Q 39.65625 40.375 33.015625 40.375 
z
M 52.59375 71.296875 
L 52.59375 62.3125 
Q 48.875 64.0625 45.09375 64.984375 
Q 41.3125 65.921875 37.59375 65.921875 
Q 27.828125 65.921875 22.671875 59.328125 
Q 17.53125 52.734375 16.796875 39.40625 
Q 19.671875 43.65625 24.015625 45.921875 
Q 28.375 48.1875 33.59375 48.1875 
Q 44.578125 48.1875 50.953125 41.515625 
Q 57.328125 34.859375 57.328125 23.390625 
Q 57.328125 12.15625 50.6875 5.359375 
Q 44.046875 -1.421875 33.015625 -1.421875 
Q 20.359375 -1.421875 13.671875 8.265625 
Q 6.984375 17.96875 6.984375 36.375 
Q 6.984375 53.65625 15.1875 63.9375 
Q 23.390625 74.21875 37.203125 74.21875 
Q 40.921875 74.21875 44.703125 73.484375 
Q 48.484375 72.75 52.59375 71.296875 
z
" id="DejaVuSans-54"/>
       </defs>
       <use xlink:href="#DejaVuSans-54"/>
      </g>
     </g>
    </g>
    <g id="xtick_5">
     <g id="line2d_5">
      <g>
       <use style="stroke:#000000;stroke-width:0.8;" x="536.4" xlink:href="#m8e2f02253e" y="252"/>
      </g>
     </g>
     <g id="text_5">
      <!-- 8 -->
      <g transform="translate(533.21875 266.598437)scale(0.1 -0.1)">
       <defs>
        <path d="M 31.78125 34.625 
Q 24.75 34.625 20.71875 30.859375 
Q 16.703125 27.09375 16.703125 20.515625 
Q 16.703125 13.921875 20.71875 10.15625 
Q 24.75 6.390625 31.78125 6.390625 
Q 38.8125 6.390625 42.859375 10.171875 
Q 46.921875 13.96875 46.921875 20.515625 
Q 46.921875 27.09375 42.890625 30.859375 
Q 38.875 34.625 31.78125 34.625 
z
M 21.921875 38.8125 
Q 15.578125 40.375 12.03125 44.71875 
Q 8.5 49.078125 8.5 55.328125 
Q 8.5 64.0625 14.71875 69.140625 
Q 20.953125 74.21875 31.78125 74.21875 
Q 42.671875 74.21875 48.875 69.140625 
Q 55.078125 64.0625 55.078125 55.328125 
Q 55.078125 49.078125 51.53125 44.71875 
Q 48 40.375 41.703125 38.8125 
Q 48.828125 37.15625 52.796875 32.3125 
Q 56.78125 27.484375 56.78125 20.515625 
Q 56.78125 9.90625 50.3125 4.234375 
Q 43.84375 -1.421875 31.78125 -1.421875 
Q 19.734375 -1.421875 13.25 4.234375 
Q 6.78125 9.90625 6.78125 20.515625 
Q 6.78125 27.484375 10.78125 32.3125 
Q 14.796875 37.15625 21.921875 38.8125 
z
M 18.3125 54.390625 
Q 18.3125 48.734375 21.84375 45.5625 
Q 25.390625 42.390625 31.78125 42.390625 
Q 38.140625 42.390625 41.71875 45.5625 
Q 45.3125 48.734375 45.3125 54.390625 
Q 45.3125 60.0625 41.71875 63.234375 
Q 38.140625 66.40625 31.78125 66.40625 
Q 25.390625 66.40625 21.84375 63.234375 
Q 18.3125 60.0625 18.3125 54.390625 
z
" id="DejaVuSans-56"/>
       </defs>
       <use xlink:href="#DejaVuSans-56"/>
      </g>
     </g>
    </g>
    <g id="xtick_6">
     <g id="line2d_6">
      <g>
       <use style="stroke:#000000;stroke-width:0.8;" x="648" xlink:href="#m8e2f02253e" y="252"/>
      </g>
     </g>
     <g id="text_6">
      <!-- 10 -->
      <g transform="translate(641.6375 266.598437)scale(0.1 -0.1)">
       <defs>
        <path d="M 12.40625 8.296875 
L 28.515625 8.296875 
L 28.515625 63.921875 
L 10.984375 60.40625 
L 10.984375 69.390625 
L 28.421875 72.90625 
L 38.28125 72.90625 
L 38.28125 8.296875 
L 54.390625 8.296875 
L 54.390625 0 
L 12.40625 0 
z
" id="DejaVuSans-49"/>
       </defs>
       <use xlink:href="#DejaVuSans-49"/>
       <use x="63.623047" xlink:href="#DejaVuSans-48"/>
      </g>
     </g>
    </g>
   </g>
   <g id="matplotlib.axis_2">
    <g id="ytick_1">
     <g id="line2d_7">
      <defs>
       <path d="M 0 0 
L -3.5 0 
" id="mb732be3b40" style="stroke:#000000;stroke-width:0.8;"/>
      </defs>
      <g>
       <use style="stroke:#000000;stroke-width:0.8;" x="90" xlink:href="#mb732be3b40" y="252"/>
      </g>
     </g>
     <g id="text_7">
      <!-- 0 -->
      <g transform="translate(76.6375 255.799219)scale(0.1 -0.1)">
       <use xlink:href="#DejaVuSans-48"/>
      </g>
     </g>
    </g>
    <g id="ytick_2">
     <g id="line2d_8">
      <g>
       <use style="stroke:#000000;stroke-width:0.8;" x="90" xlink:href="#mb732be3b40" y="208.512"/>
      </g>
     </g>
     <g id="text_8">
      <!-- 2 -->
      <g transform="translate(76.6375 212.311219)scale(0.1 -0.1)">
       <use xlink:href="#DejaVuSans-50"/>
      </g>
     </g>
    </g>
    <g id="ytick_3">
     <g id="line2d_9">
      <g>
       <use style="stroke:#000000;stroke-width:0.8;" x="90" xlink:href="#mb732be3b40" y="165.024"/>
      </g>
     </g>
     <g id="text_9">
      <!-- 4 -->
      <g transform="translate(76.6375 168.823219)scale(0.1 -0.1)">
       <use xlink:href="#DejaVuSans-52"/>
      </g>
     </g>
    </g>
    <g id="ytick_4">
     <g id="line2d_10">
      <g>
       <use style="stroke:#000000;stroke-width:0.8;" x="90" xlink:href="#mb732be3b40" y="121.536"/>
      </g>
     </g>
     <g id="text_10">
      <!-- 6 -->
      <g transform="translate(76.6375 125.335219)scale(0.1 -0.1)">
       <use xlink:href="#DejaVuSans-54"/>
      </g>
     </g>
    </g>
    <g id="ytick_5">
     <g id="line2d_11">
      <g>
       <use style="stroke:#000000;stroke-width:0.8;" x="90" xlink:href="#mb732be3b40" y="78.048"/>
      </g>
     </g>
     <g id="text_11">
      <!-- 8 -->
      <g transform="translate(76.6375 81.847219)scale(0.1 -0.1)">
       <use xlink:href="#DejaVuSans-56"/>
      </g>
     </g>
    </g>
    <g id="ytick_6">
     <g id="line2d_12">
      <g>
       <use style="stroke:#000000;stroke-width:0.8;" x="90" xlink:href="#mb732be3b40" y="34.56"/>
      </g>
     </g>
     <g id="text_12">
      <!-- 10 -->
      <g transform="translate(70.275 38.359219)scale(0.1 -0.1)">
       <use xlink:href="#DejaVuSans-49"/>
       <use x="63.623047" xlink:href="#DejaVuSans-48"/>
      </g>
     </g>
    </g>
   </g>
   <g id="LineCollection_1"/>
   <g id="LineCollection_2">
    <path clip-path="url(#p20aa353a5a)" d="M 111.19708 145.88928 
L 111.018623 143.93232 
L 111.054218 141.97536 
L 111.303087 140.0184 
L 111.766867 138.06144 
L 112.446312 136.10448 
L 113.347572 134.14752 
L 114.614301 131.97312 
L 115.999918 130.01616 
L 117.825314 127.84176 
L 119.963878 125.66736 
L 122.436103 123.49296 
L 125.264267 121.31856 
L 128.502 119.129871 
L 132.117909 116.96976 
L 136.23153 114.79536 
L 140.39228 112.8384 
L 145.242 110.807232 
L 150.305329 108.92448 
L 155.844 107.098621 
L 161.982 105.319577 
L 168.678 103.632181 
L 175.374 102.177352 
L 182.628 100.83453 
L 189.882 99.711969 
L 197.912542 98.7048 
L 205.506 97.961809 
L 213.876 97.3643 
L 222.246 96.983543 
L 231.174 96.800206 
L 240.66 96.838174 
L 250.704 97.111675 
L 261.864 97.647996 
L 276.372 98.581996 
L 298.623818 100.00944 
L 309.294 100.462537 
L 319.896 100.696561 
L 332.73 100.742819 
L 361.746 100.754617 
L 372.348 101.039858 
L 381.834 101.525514 
L 390.762 102.219496 
L 398.679951 103.0536 
L 406.386 104.083678 
L 413.64 105.271326 
L 420.336 106.574588 
L 427.032 108.098951 
L 433.452093 109.79424 
L 439.308 111.568087 
L 444.888 113.492915 
L 449.91 115.455721 
L 454.374 117.420544 
L 458.722338 119.57904 
L 462.586099 121.75344 
L 465.985118 123.92784 
L 468.958616 126.10224 
L 471.535226 128.27664 
L 473.734993 130.45104 
L 475.404973 132.408 
L 476.7894 134.36496 
L 477.894469 136.32192 
L 478.645842 138.06144 
L 479.18092 139.80096 
L 479.500581 141.54048 
L 479.607952 143.28 
L 479.484 145.145724 
L 479.18092 146.75904 
L 478.645842 148.49856 
L 477.81 150.405435 
L 476.926317 151.9776 
L 475.572001 153.93456 
L 473.904 155.924306 
L 472.004955 157.84848 
L 469.772609 159.80544 
L 466.920746 161.97984 
L 463.652704 164.15424 
L 459.932688 166.32864 
L 456.048 168.340065 
L 451.584 170.394091 
L 447.12 172.224161 
L 441.818658 174.15648 
L 436.41953 175.896 
L 430.273364 177.63552 
L 424.098225 179.1576 
L 417.546 180.554046 
L 410.292 181.864516 
L 403.038 182.951989 
L 395.226 183.897145 
L 386.856 184.674764 
L 378.256542 185.24592 
L 369.558 185.619165 
L 358.956 185.843231 
L 345.564 185.87705 
L 318.78 185.878288 
L 308.178 186.134706 
L 297.018 186.636634 
L 283.068 187.514995 
L 258.516 189.094785 
L 247.356 189.563786 
L 237.312 189.761096 
L 227.826 189.717167 
L 218.898 189.449483 
L 210.528 188.983477 
L 202.110739 188.29008 
L 194.211929 187.42032 
L 186.534 186.355849 
L 179.28 185.13457 
L 172.026 183.682614 
L 165.33 182.115 
L 159.192 180.460971 
L 153.520592 178.72272 
L 147.891817 176.76576 
L 142.915669 174.8088 
L 138.023738 172.6344 
L 134.082 170.661377 
L 130.176 168.462814 
L 126.821703 166.32864 
L 123.803507 164.15424 
L 121.157136 161.97984 
L 118.854081 159.80544 
L 116.874551 157.63104 
L 115.200927 155.45664 
L 113.819883 153.28224 
L 112.721785 151.10784 
L 111.968299 149.15088 
L 111.433096 147.19392 
L 111.19708 145.88928 
L 111.19708 145.88928 
" style="fill:none;stroke:#482475;stroke-width:1.5;"/>
   </g>
   <g id="LineCollection_3">
    <path clip-path="url(#p20aa353a5a)" d="M 131.288071 146.75904 
L 130.983535 145.01952 
L 130.882671 143.28 
L 130.983535 141.54048 
L 131.292 139.784705 
L 131.85 137.912086 
L 132.512008 136.32192 
L 133.524 134.444832 
L 134.746835 132.62544 
L 136.341832 130.66848 
L 138.239342 128.71152 
L 140.460204 126.75456 
L 143.029084 124.7976 
L 145.976311 122.84064 
L 149.344888 120.88368 
L 153.189747 118.92672 
L 157.586351 116.96976 
L 162.043241 115.23024 
L 167.129641 113.49072 
L 172.584 111.868715 
L 178.164 110.432088 
L 184.302 109.077208 
L 190.99923 107.83728 
L 197.694 106.819552 
L 204.948 105.94454 
L 212.76 105.245024 
L 220.572 104.777957 
L 228.384 104.526889 
L 236.754 104.480448 
L 245.682 104.662889 
L 255.168 105.087377 
L 265.77 105.787436 
L 282.51 107.159986 
L 297.576 108.326976 
L 307.62 108.888758 
L 317.106 109.200263 
L 327.708 109.31636 
L 346.122 109.232373 
L 359.514 109.285566 
L 369 109.536285 
L 377.37 109.968506 
L 385.182 110.588688 
L 392.436 111.381167 
L 399.132 112.322399 
L 405.828 113.491574 
L 411.98547 114.79536 
L 417.546 116.189479 
L 422.568 117.654631 
L 427.617713 119.3616 
L 432.066401 121.10112 
L 435.96 122.84935 
L 439.333038 124.58016 
L 442.656 126.543452 
L 445.488812 128.49408 
L 447.678 130.251165 
L 449.516068 131.97312 
L 451.080567 133.71264 
L 452.36664 135.45216 
L 453.383723 137.19168 
L 454.140492 138.9312 
L 454.641984 140.67072 
L 454.891393 142.41024 
L 454.891393 144.14976 
L 454.641984 145.88928 
L 454.140492 147.6288 
L 453.383723 149.36832 
L 452.36664 151.10784 
L 451.026 152.913143 
L 449.516068 154.58688 
L 447.657892 156.3264 
L 445.446 158.097603 
L 442.984622 159.80544 
L 439.866 161.68408 
L 436.518 163.439596 
L 433.085077 165.024 
L 428.706 166.795177 
L 423.828074 168.50304 
L 418.796455 170.02512 
L 413.64 171.372823 
L 407.502 172.737148 
L 400.977897 173.93904 
L 394.668 174.888717 
L 387.414 175.750985 
L 380.16 176.395822 
L 372.348 176.8773 
L 363.304395 177.20064 
L 353.376 177.331756 
L 338.31 177.280598 
L 322.128 177.278324 
L 312.084 177.497717 
L 302.598 177.923993 
L 291.996 178.632301 
L 274.698 180.059807 
L 260.19 181.16624 
L 250.146 181.724493 
L 240.66 182.027601 
L 232.29 182.082383 
L 223.92 181.915352 
L 216.108 181.542572 
L 208.296 180.944924 
L 201.042 180.172469 
L 193.693487 179.1576 
L 187.092 178.027938 
L 180.929619 176.76576 
L 174.816 175.291132 
L 169.230737 173.7216 
L 163.869411 171.98208 
L 159.19189 170.24256 
L 154.589438 168.2856 
L 150.570303 166.32864 
L 146.916 164.291511 
L 143.967242 162.41472 
L 141.2767 160.45776 
L 138.942788 158.5008 
L 136.872 156.471156 
L 135.198 154.525384 
L 133.844418 152.62992 
L 132.723707 150.67296 
L 131.874335 148.716 
L 131.288071 146.75904 
L 131.288071 146.75904 
" style="fill:none;stroke:#414487;stroke-width:1.5;"/>
   </g>
   <g id="LineCollection_4">
    <path clip-path="url(#p20aa353a5a)" d="M 144.680373 144.3672 
L 144.650922 142.62768 
L 144.856075 140.88816 
L 145.298474 139.14864 
L 145.980591 137.40912 
L 146.916 135.659406 
L 148.092785 133.93008 
L 149.541658 132.19056 
L 151.38 130.351348 
L 153.300309 128.71152 
L 155.844 126.841748 
L 158.634 125.070673 
L 161.46877 123.49296 
L 165.02939 121.75344 
L 169.123523 120.01392 
L 173.232356 118.49184 
L 178.164 116.906204 
L 183.462254 115.44768 
L 189.046961 114.14304 
L 194.904 112.997174 
L 201.353523 111.96864 
L 207.738 111.165588 
L 214.992 110.490114 
L 222.246 110.045887 
L 230.058 109.806394 
L 237.87 109.79599 
L 246.24 110.017386 
L 255.168 110.48893 
L 265.212 111.258311 
L 278.604 112.535182 
L 297.018 114.281354 
L 306.504 114.945305 
L 315.432 115.33898 
L 324.918 115.51581 
L 337.194 115.492775 
L 356.724 115.449262 
L 365.834494 115.66512 
L 373.464 116.048222 
L 380.718 116.626126 
L 387.622187 117.40464 
L 393.552 118.27874 
L 399.424932 119.3616 
L 404.712 120.550887 
L 409.734 121.903828 
L 414.198 123.326438 
L 418.147068 124.7976 
L 422.01 126.482224 
L 425.102114 128.0592 
L 428.014517 129.79872 
L 430.470508 131.53824 
L 432.51885 133.27776 
L 434.194693 135.01728 
L 435.402 136.578051 
L 436.304123 138.06144 
L 436.988606 139.58352 
L 437.436254 141.1056 
L 437.65055 142.62768 
L 437.634 144.150057 
L 437.38668 145.67184 
L 436.905545 147.19392 
L 436.186627 148.716 
L 435.222892 150.23808 
L 434.004747 151.76016 
L 432.51885 153.28224 
L 430.748076 154.80432 
L 428.669058 156.3264 
L 425.916 158.04303 
L 423.020574 159.588 
L 419.718628 161.11008 
L 415.872 162.637064 
L 411.392261 164.15424 
L 406.386 165.58427 
L 401.364 166.787757 
L 395.784 167.89699 
L 389.646 168.88002 
L 382.95 169.708323 
L 376.254 170.316221 
L 369 170.761373 
L 360.63 171.046159 
L 350.586 171.145599 
L 330.498 171.030955 
L 319.338 171.120518 
L 310.41 171.413674 
L 301.482 171.937084 
L 291.438 172.765251 
L 273.582 174.523921 
L 260.642505 175.67856 
L 251.262 176.304977 
L 242.334 176.674581 
L 233.964 176.786342 
L 226.152 176.66381 
L 218.805698 176.33088 
L 211.644 175.788098 
L 204.609496 175.02624 
L 198.252 174.125576 
L 192.114 173.043645 
L 185.976 171.727204 
L 180.396 170.296756 
L 175.171612 168.72048 
L 170.818143 167.1984 
L 166.446 165.436708 
L 162.54 163.615816 
L 159.099658 161.7624 
L 155.971839 159.80544 
L 153.576479 158.06592 
L 151.38 156.208652 
L 149.706 154.54731 
L 148.258808 152.84736 
L 147.04313 151.10784 
L 146.082988 149.36832 
L 145.37033 147.6288 
L 144.898288 145.88928 
L 144.680373 144.3672 
L 144.680373 144.3672 
" style="fill:none;stroke:#355f8d;stroke-width:1.5;"/>
   </g>
   <g id="LineCollection_5">
    <path clip-path="url(#p20aa353a5a)" d="M 156.40155 146.5416 
L 156.059787 145.01952 
L 155.9268 143.49744 
L 156.00063 141.97536 
L 156.282364 140.45328 
L 156.774091 138.9312 
L 157.518 137.340559 
L 158.407189 135.88704 
L 159.75 134.14565 
L 161.406414 132.408 
L 163.405077 130.66848 
L 165.776475 128.92896 
L 168.562951 127.18944 
L 171.468 125.626992 
L 174.816 124.063897 
L 178.722 122.489147 
L 182.710962 121.10112 
L 187.092 119.786045 
L 192.167376 118.49184 
L 197.694 117.320256 
L 203.523165 116.31744 
L 209.412 115.518054 
L 216.108 114.844369 
L 222.804 114.398526 
L 230.058 114.151882 
L 237.312 114.132454 
L 245.124 114.345564 
L 253.177539 114.79536 
L 261.864 115.506235 
L 272.466 116.616535 
L 302.04 119.893128 
L 310.41 120.488254 
L 318.222 120.820618 
L 327.15 120.960507 
L 339.426 120.895013 
L 355.05 120.842276 
L 363.42 121.031748 
L 370.674 121.404691 
L 377.398328 121.97088 
L 383.508 122.707199 
L 389.088 123.59917 
L 394.11 124.615015 
L 398.574 125.721674 
L 403.038 127.064263 
L 406.967471 128.49408 
L 410.443002 130.01616 
L 413.337308 131.53824 
L 415.746792 133.06032 
L 417.736094 134.5824 
L 419.350453 136.10448 
L 420.621746 137.62656 
L 421.572659 139.14864 
L 422.144683 140.45328 
L 422.499378 141.75792 
L 422.640664 143.06256 
L 422.568 144.38105 
L 422.286816 145.67184 
L 421.787819 146.97648 
L 421.067465 148.28112 
L 420.11727 149.58576 
L 418.702253 151.10784 
L 416.988 152.585826 
L 415.103602 153.93456 
L 412.563496 155.45664 
L 409.734 156.877824 
L 406.386 158.294846 
L 402.48 159.678439 
L 398.373422 160.89264 
L 393.954074 161.97984 
L 389.088 162.96083 
L 383.508 163.852801 
L 377.37 164.592047 
L 370.674 165.155309 
L 363.42 165.528252 
L 355.05 165.717724 
L 344.448 165.712826 
L 322.686 165.641303 
L 314.316 165.878673 
L 306.374787 166.32864 
L 298.134 167.021973 
L 288.09 168.100818 
L 261.231638 171.11232 
L 252.378 171.819129 
L 244.008 172.259011 
L 236.196 172.438677 
L 228.942 172.385458 
L 221.688 172.102238 
L 214.992 171.619747 
L 208.296 170.905885 
L 202.142663 170.02512 
L 196.163587 168.93792 
L 190.998 167.78984 
L 185.976 166.457729 
L 181.398535 165.024 
L 177.048 163.424899 
L 173.142 161.742512 
L 169.726303 160.02288 
L 166.769949 158.28336 
L 164.214 156.517531 
L 162.114396 154.80432 
L 160.308 153.038878 
L 158.874064 151.32528 
L 157.722261 149.58576 
L 156.861844 147.84624 
L 156.40155 146.5416 
L 156.40155 146.5416 
" style="fill:none;stroke:#2a788e;stroke-width:1.5;"/>
   </g>
   <g id="LineCollection_6">
    <path clip-path="url(#p20aa353a5a)" d="M 166.390137 145.88928 
L 166.098236 144.3672 
L 166.046904 142.84512 
L 166.235385 141.32304 
L 166.665882 139.80096 
L 167.343324 138.27888 
L 168.275805 136.7568 
L 169.474942 135.23472 
L 170.956961 133.71264 
L 172.743389 132.19056 
L 174.863573 130.66848 
L 177.357168 129.1464 
L 180.396 127.568295 
L 183.744 126.087764 
L 187.765296 124.58016 
L 192.114 123.209362 
L 196.819527 121.97088 
L 201.833276 120.88368 
L 207.18 119.949742 
L 213.178475 119.14416 
L 218.898 118.58793 
L 225.036 118.20035 
L 231.732 118.004657 
L 238.428 118.028506 
L 245.682 118.283799 
L 252.936 118.758091 
L 260.748 119.487149 
L 269.676 120.549717 
L 281.952 122.265679 
L 297.576 124.431927 
L 305.388 125.29314 
L 312.642 125.869192 
L 319.896 126.208467 
L 327.708 126.336879 
L 338.31 126.263128 
L 353.934 126.166139 
L 361.746 126.354174 
L 368.442 126.73876 
L 374.022 127.263421 
L 379.602 128.017807 
L 384.066 128.823888 
L 388.53 129.853855 
L 392.436 130.988994 
L 395.784 132.191469 
L 398.735176 133.4952 
L 401.135926 134.79984 
L 403.08079 136.10448 
L 404.712 137.486631 
L 405.832533 138.71376 
L 406.710723 140.0184 
L 407.28672 141.32304 
L 407.544516 142.41024 
L 407.603612 143.49744 
L 407.465449 144.58464 
L 407.127513 145.67184 
L 406.585747 146.75904 
L 405.828 147.85184 
L 404.631885 149.15088 
L 403.038 150.487275 
L 401.135926 151.76016 
L 398.735176 153.0648 
L 396.318013 154.152 
L 392.994 155.387167 
L 389.646 156.406775 
L 385.584011 157.4136 
L 381.160051 158.28336 
L 376.254 159.025085 
L 370.674 159.636048 
L 364.536 160.074372 
L 357.84 160.329654 
L 349.47 160.409223 
L 335.52 160.262348 
L 324.918 160.244822 
L 317.034985 160.45776 
L 309.852 160.884527 
L 302.598 161.548626 
L 294.228 162.557395 
L 281.394 164.3754 
L 267.176163 166.32864 
L 258.516 167.302356 
L 250.704 167.969912 
L 243.45 168.379105 
L 236.196 168.562862 
L 229.5 168.51528 
L 222.804 168.242602 
L 216.666 167.778391 
L 210.528 167.089578 
L 204.948 166.246745 
L 199.368 165.169468 
L 194.232401 163.9368 
L 189.740002 162.63216 
L 185.939691 161.32752 
L 182.07 159.761237 
L 178.722 158.15445 
L 175.883729 156.54384 
L 173.60915 155.02176 
L 171.468 153.311033 
L 169.868728 151.76016 
L 168.590629 150.23808 
L 167.562 148.678054 
L 166.833964 147.19392 
L 166.390137 145.88928 
L 166.390137 145.88928 
" style="fill:none;stroke:#21918c;stroke-width:1.5;"/>
   </g>
   <g id="LineCollection_7">
    <path clip-path="url(#p20aa353a5a)" d="M 175.902276 145.23696 
L 175.694963 143.93232 
L 175.694963 142.62768 
L 175.932 141.205119 
L 176.319348 140.0184 
L 177.048 138.546988 
L 177.804879 137.40912 
L 178.89197 136.10448 
L 180.475227 134.5824 
L 182.42968 133.06032 
L 184.435221 131.75568 
L 187.218916 130.2336 
L 190.44 128.767089 
L 193.788 127.487634 
L 197.694 126.236228 
L 202.158 125.058479 
L 206.622 124.101376 
L 211.644 123.247053 
L 217.224 122.536988 
L 222.804 122.04972 
L 228.942 121.745981 
L 235.08 121.665884 
L 241.776 121.815356 
L 248.472 122.195694 
L 255.64038 122.84064 
L 262.422 123.657406 
L 270.234 124.815241 
L 279.72 126.460419 
L 303.714 130.746357 
L 310.41 131.616116 
L 316.548 132.171099 
L 322.686 132.481367 
L 329.382 132.575691 
L 338.868 132.443947 
L 351.702 132.281458 
L 358.398 132.425547 
L 363.978 132.761906 
L 369 133.291263 
L 373.464 134.000224 
L 377.37 134.866574 
L 380.16 135.6779 
L 383.030296 136.7568 
L 385.231397 137.844 
L 386.900098 138.9312 
L 388.128818 140.0184 
L 388.974764 141.1056 
L 389.397842 141.97536 
L 389.608012 142.84512 
L 389.608012 143.71488 
L 389.397842 144.58464 
L 388.974764 145.4544 
L 388.327193 146.32416 
L 387.414 147.216562 
L 385.955671 148.28112 
L 384.066 149.327752 
L 381.967809 150.23808 
L 379.447363 151.10784 
L 376.219673 151.9776 
L 372.348 152.761661 
L 368.442 153.339964 
L 363.42 153.842496 
L 357.84 154.156148 
L 351.144 154.280739 
L 342.216 154.185205 
L 327.15 153.991827 
L 320.454 154.164259 
L 314.874 154.515563 
L 308.736 155.137135 
L 302.04 156.06789 
L 293.67 157.495463 
L 267.345645 162.19728 
L 259.44448 163.28448 
L 252.378 164.042113 
L 245.682 164.549821 
L 238.986 164.835901 
L 232.848 164.889805 
L 226.71 164.730383 
L 220.572 164.340608 
L 214.992 163.767167 
L 209.412 162.960141 
L 204.272123 161.97984 
L 199.736391 160.89264 
L 195.462 159.637136 
L 191.656946 158.28336 
L 188.579636 156.97872 
L 185.56543 155.45664 
L 183.062302 153.93456 
L 180.954 152.37963 
L 179.28 150.861226 
L 177.969514 149.36832 
L 176.950965 147.84624 
L 176.319348 146.5416 
L 175.902276 145.23696 
L 175.902276 145.23696 
" style="fill:none;stroke:#22a884;stroke-width:1.5;"/>
   </g>
   <g id="LineCollection_8">
    <path clip-path="url(#p20aa353a5a)" d="M 185.411561 143.93232 
L 185.411561 142.62768 
L 185.663618 141.32304 
L 186.171382 140.0184 
L 186.943928 138.71376 
L 187.995558 137.40912 
L 189.346724 136.10448 
L 191.028154 134.79984 
L 193.23 133.41107 
L 195.574044 132.19056 
L 198.599492 130.88592 
L 201.64117 129.79872 
L 205.506 128.663674 
L 209.412 127.738477 
L 213.876 126.904224 
L 218.898 126.206007 
L 223.92 125.728691 
L 229.5 125.429287 
L 235.08 125.352339 
L 240.66 125.482762 
L 246.798 125.853583 
L 252.936 126.452994 
L 259.074 127.273255 
L 265.212 128.307786 
L 271.908 129.67367 
L 278.604 131.279167 
L 284.742 132.957933 
L 290.88 134.841797 
L 296.46 136.770886 
L 300.787699 138.49632 
L 303.904262 140.0184 
L 305.575337 141.1056 
L 306.504 142.001143 
L 306.884724 142.62768 
L 307.01796 143.28 
L 306.884724 143.93232 
L 306.485249 144.58464 
L 305.840991 145.23696 
L 304.636679 146.10672 
L 302.598 147.225637 
L 299.76536 148.49856 
L 295.344 150.195413 
L 290.75263 151.76016 
L 284.184 153.763043 
L 277.488 155.564686 
L 271.35 157.009534 
L 264.654 158.354883 
L 258.515083 159.37056 
L 252.378 160.170734 
L 246.24 160.74965 
L 240.102 161.099335 
L 234.522 161.2095 
L 228.915575 161.11008 
L 223.362 160.788364 
L 217.953686 160.24032 
L 213.318 159.563252 
L 208.854 158.701463 
L 204.525927 157.63104 
L 200.987952 156.54384 
L 197.523526 155.2392 
L 194.690247 153.93456 
L 192.353395 152.62992 
L 190.428631 151.32528 
L 188.766 149.930608 
L 187.612654 148.716 
L 186.656195 147.41136 
L 185.972956 146.10672 
L 185.551468 144.80208 
L 185.411561 143.93232 
L 185.411561 143.93232 
" style="fill:none;stroke:#44bf70;stroke-width:1.5;"/>
   </g>
   <g id="LineCollection_9">
    <path clip-path="url(#p20aa353a5a)" d="M 195.999569 144.3672 
L 195.886953 143.28 
L 196.02 142.103196 
L 196.34128 141.1056 
L 196.917273 140.0184 
L 197.739538 138.9312 
L 198.827209 137.844 
L 200.207983 136.7568 
L 202.158 135.535112 
L 204.39 134.414518 
L 206.622 133.492874 
L 209.97 132.375585 
L 213.318 131.495541 
L 217.410292 130.66848 
L 221.688 130.041139 
L 226.152 129.605762 
L 231.174 129.351162 
L 236.196 129.323685 
L 241.218 129.509921 
L 246.24 129.903999 
L 251.262 130.50653 
L 256.284 131.325454 
L 261.425401 132.408 
L 265.77 133.544567 
L 269.729091 134.79984 
L 273.124561 136.10448 
L 275.898889 137.40912 
L 278.103498 138.71376 
L 279.520166 139.80096 
L 280.556647 140.88816 
L 281.11097 141.75792 
L 281.419144 142.62768 
L 281.481063 143.49744 
L 281.295853 144.3672 
L 280.836 145.278647 
L 280.187572 146.10672 
L 278.99912 147.19392 
L 277.430266 148.28112 
L 275.256 149.478125 
L 272.603848 150.67296 
L 269.096223 151.9776 
L 265.212 153.174099 
L 260.748 154.309668 
L 256.258875 155.2392 
L 251.262 156.05347 
L 246.24 156.656001 
L 241.218 157.050079 
L 236.196 157.236315 
L 231.174 157.208838 
L 226.152 156.954238 
L 221.688 156.518861 
L 217.224 155.859209 
L 213.136653 155.02176 
L 209.412 154.016324 
L 206.615831 153.0648 
L 203.832 151.886706 
L 201.548113 150.67296 
L 199.618665 149.36832 
L 198.252 148.174629 
L 197.215571 146.97648 
L 196.542462 145.88928 
L 196.108645 144.80208 
L 195.999569 144.3672 
L 195.999569 144.3672 
" style="fill:none;stroke:#7ad151;stroke-width:1.5;"/>
   </g>
   <g id="LineCollection_10">
    <path clip-path="url(#p20aa353a5a)" d="M 208.834593 143.49744 
L 208.890819 142.62768 
L 209.174184 141.75792 
L 209.691197 140.88816 
L 210.528 139.952679 
L 211.644 139.049229 
L 212.8709 138.27888 
L 214.630063 137.40912 
L 216.906174 136.53936 
L 219.456 135.793877 
L 222.246 135.178214 
L 225.594 134.653079 
L 229.5 134.280207 
L 233.406 134.129515 
L 237.312 134.183064 
L 241.218 134.43485 
L 245.124 134.891239 
L 249.03 135.574454 
L 252.378 136.377157 
L 255.168 137.247977 
L 257.71803 138.27888 
L 259.632 139.299492 
L 260.947852 140.23584 
L 261.864 141.146718 
L 262.422 142.001849 
L 262.695924 142.84512 
L 262.695924 143.71488 
L 262.409905 144.58464 
L 261.831148 145.4544 
L 260.947852 146.32416 
L 259.632 147.260508 
L 257.958 148.167139 
L 255.726 149.109428 
L 253.494 149.86021 
L 250.146 150.74284 
L 246.798 151.405816 
L 242.694227 151.9776 
L 238.986 152.293223 
L 235.08 152.431935 
L 231.174 152.37021 
L 227.268 152.095818 
L 223.362 151.580451 
L 219.955062 150.8904 
L 216.906174 150.02064 
L 214.630063 149.15088 
L 212.76 148.217907 
L 211.214821 147.19392 
L 210.242311 146.32416 
L 209.538807 145.4544 
L 209.082028 144.58464 
L 208.854 143.700151 
L 208.834593 143.49744 
L 208.834593 143.49744 
" style="fill:none;stroke:#bddf26;stroke-width:1.5;"/>
   </g>
   <g id="LineCollection_11"/>
   <g id="patch_3">
    <path d="M 90 252 
L 90 34.56 
" style="fill:none;stroke:#000000;stroke-linecap:square;stroke-linejoin:miter;stroke-width:0.8;"/>
   </g>
   <g id="patch_4">
    <path d="M 648 252 
L 648 34.56 
" style="fill:none;stroke:#000000;stroke-linecap:square;stroke-linejoin:miter;stroke-width:0.8;"/>
   </g>
   <g id="patch_5">
    <path d="M 90 252 
L 648 252 
" style="fill:none;stroke:#000000;stroke-linecap:square;stroke-linejoin:miter;stroke-width:0.8;"/>
   </g>
   <g id="patch_6">
    <path d="M 90 34.56 
L 648 34.56 
" style="fill:none;stroke:#000000;stroke-linecap:square;stroke-linejoin:miter;stroke-width:0.8;"/>
   </g>
  </g>
 </g>
 <defs>
  <clipPath id="p20aa353a5a">
   <rect height="217.44" width="558" x="90" y="34.56"/>
  </clipPath>
 </defs>
</svg>
