<?xml version="1.0" encoding="UTF-8" standalone="no"?>
<!-- Created with Inkscape (http://www.inkscape.org/) -->

<svg
   xmlns:dc="http://purl.org/dc/elements/1.1/"
   xmlns:cc="http://creativecommons.org/ns#"
   xmlns:rdf="http://www.w3.org/1999/02/22-rdf-syntax-ns#"
   xmlns:svg="http://www.w3.org/2000/svg"
   xmlns="http://www.w3.org/2000/svg"
   xmlns:sodipodi="http://sodipodi.sourceforge.net/DTD/sodipodi-0.dtd"
   xmlns:inkscape="http://www.inkscape.org/namespaces/inkscape"
   version="1.1"
   id="svg2"
   xml:space="preserve"
   width="752"
   height="406.66666"
   viewBox="0 0 752 406.66666"
   sodipodi:docname="studentsT_pdf_logy.svg"
   inkscape:version="0.92.3 (2405546, 2018-03-11)"><metadata
     id="metadata8"><rdf:RDF><cc:Work
         rdf:about=""><dc:format>image/svg+xml</dc:format><dc:type
           rdf:resource="http://purl.org/dc/dcmitype/StillImage" /><dc:title></dc:title></cc:Work></rdf:RDF></metadata><defs
     id="defs6" /><sodipodi:namedview
     pagecolor="#ffffff"
     bordercolor="#666666"
     borderopacity="1"
     objecttolerance="10"
     gridtolerance="10"
     guidetolerance="10"
     inkscape:pageopacity="0"
     inkscape:pageshadow="2"
     inkscape:window-width="1920"
     inkscape:window-height="1073"
     id="namedview4"
     showgrid="false"
     inkscape:zoom="0.55984043"
     inkscape:cx="376"
     inkscape:cy="203.33333"
     inkscape:window-x="0"
     inkscape:window-y="35"
     inkscape:window-maximized="1"
     inkscape:current-layer="g10" /><g
     id="g10"
     inkscape:groupmode="layer"
     inkscape:label="ink_ext_XXXXXX"
     transform="matrix(1.3333333,0,0,-1.3333333,0,406.66667)"><g
       id="g12"
       transform="scale(0.1)"><path
         d="M 413.121,205.965 H 5610.62"
         style="fill:none;stroke:#262626;stroke-width:5.00250006;stroke-linecap:square;stroke-linejoin:round;stroke-miterlimit:10;stroke-dasharray:none;stroke-opacity:1"
         id="path14"
         inkscape:connector-curvature="0" /><path
         d="M 413.121,2785.96 H 5610.62"
         style="fill:none;stroke:#262626;stroke-width:5.00250006;stroke-linecap:square;stroke-linejoin:round;stroke-miterlimit:10;stroke-dasharray:none;stroke-opacity:1"
         id="path16"
         inkscape:connector-curvature="0" /><path
         d="m 413.121,205.965 v 51.949"
         style="fill:none;stroke:#262626;stroke-width:5.00250006;stroke-linecap:square;stroke-linejoin:round;stroke-miterlimit:10;stroke-dasharray:none;stroke-opacity:1"
         id="path18"
         inkscape:connector-curvature="0" /><path
         d="m 932.891,205.965 v 51.949"
         style="fill:none;stroke:#262626;stroke-width:5.00250006;stroke-linecap:square;stroke-linejoin:round;stroke-miterlimit:10;stroke-dasharray:none;stroke-opacity:1"
         id="path20"
         inkscape:connector-curvature="0" /><path
         d="m 1452.62,205.965 v 51.949"
         style="fill:none;stroke:#262626;stroke-width:5.00250006;stroke-linecap:square;stroke-linejoin:round;stroke-miterlimit:10;stroke-dasharray:none;stroke-opacity:1"
         id="path22"
         inkscape:connector-curvature="0" /><path
         d="m 1972.38,205.965 v 51.949"
         style="fill:none;stroke:#262626;stroke-width:5.00250006;stroke-linecap:square;stroke-linejoin:round;stroke-miterlimit:10;stroke-dasharray:none;stroke-opacity:1"
         id="path24"
         inkscape:connector-curvature="0" /><path
         d="m 2492.15,205.965 v 51.949"
         style="fill:none;stroke:#262626;stroke-width:5.00250006;stroke-linecap:square;stroke-linejoin:round;stroke-miterlimit:10;stroke-dasharray:none;stroke-opacity:1"
         id="path26"
         inkscape:connector-curvature="0" /><path
         d="m 3011.88,205.965 v 51.949"
         style="fill:none;stroke:#262626;stroke-width:5.00250006;stroke-linecap:square;stroke-linejoin:round;stroke-miterlimit:10;stroke-dasharray:none;stroke-opacity:1"
         id="path28"
         inkscape:connector-curvature="0" /><path
         d="m 3531.64,205.965 v 51.949"
         style="fill:none;stroke:#262626;stroke-width:5.00250006;stroke-linecap:square;stroke-linejoin:round;stroke-miterlimit:10;stroke-dasharray:none;stroke-opacity:1"
         id="path30"
         inkscape:connector-curvature="0" /><path
         d="m 4051.37,205.965 v 51.949"
         style="fill:none;stroke:#262626;stroke-width:5.00250006;stroke-linecap:square;stroke-linejoin:round;stroke-miterlimit:10;stroke-dasharray:none;stroke-opacity:1"
         id="path32"
         inkscape:connector-curvature="0" /><path
         d="m 4571.13,205.965 v 51.949"
         style="fill:none;stroke:#262626;stroke-width:5.00250006;stroke-linecap:square;stroke-linejoin:round;stroke-miterlimit:10;stroke-dasharray:none;stroke-opacity:1"
         id="path34"
         inkscape:connector-curvature="0" /><path
         d="m 5090.9,205.965 v 51.949"
         style="fill:none;stroke:#262626;stroke-width:5.00250006;stroke-linecap:square;stroke-linejoin:round;stroke-miterlimit:10;stroke-dasharray:none;stroke-opacity:1"
         id="path36"
         inkscape:connector-curvature="0" /><path
         d="m 5610.62,205.965 v 51.949"
         style="fill:none;stroke:#262626;stroke-width:5;stroke-linecap:square;stroke-linejoin:round;stroke-miterlimit:10;stroke-dasharray:none;stroke-opacity:1"
         id="path38"
         inkscape:connector-curvature="0" /><path
         d="m 413.121,2785.96 v -51.99"
         style="fill:none;stroke:#262626;stroke-width:5.00250006;stroke-linecap:square;stroke-linejoin:round;stroke-miterlimit:10;stroke-dasharray:none;stroke-opacity:1"
         id="path40"
         inkscape:connector-curvature="0" /><path
         d="m 932.891,2785.96 v -51.99"
         style="fill:none;stroke:#262626;stroke-width:5.00250006;stroke-linecap:square;stroke-linejoin:round;stroke-miterlimit:10;stroke-dasharray:none;stroke-opacity:1"
         id="path42"
         inkscape:connector-curvature="0" /><path
         d="m 1452.62,2785.96 v -51.99"
         style="fill:none;stroke:#262626;stroke-width:5.00250006;stroke-linecap:square;stroke-linejoin:round;stroke-miterlimit:10;stroke-dasharray:none;stroke-opacity:1"
         id="path44"
         inkscape:connector-curvature="0" /><path
         d="m 1972.38,2785.96 v -51.99"
         style="fill:none;stroke:#262626;stroke-width:5.00250006;stroke-linecap:square;stroke-linejoin:round;stroke-miterlimit:10;stroke-dasharray:none;stroke-opacity:1"
         id="path46"
         inkscape:connector-curvature="0" /><path
         d="m 2492.15,2785.96 v -51.99"
         style="fill:none;stroke:#262626;stroke-width:5.00250006;stroke-linecap:square;stroke-linejoin:round;stroke-miterlimit:10;stroke-dasharray:none;stroke-opacity:1"
         id="path48"
         inkscape:connector-curvature="0" /><path
         d="m 3011.88,2785.96 v -51.99"
         style="fill:none;stroke:#262626;stroke-width:5.00250006;stroke-linecap:square;stroke-linejoin:round;stroke-miterlimit:10;stroke-dasharray:none;stroke-opacity:1"
         id="path50"
         inkscape:connector-curvature="0" /><path
         d="m 3531.64,2785.96 v -51.99"
         style="fill:none;stroke:#262626;stroke-width:5.00250006;stroke-linecap:square;stroke-linejoin:round;stroke-miterlimit:10;stroke-dasharray:none;stroke-opacity:1"
         id="path52"
         inkscape:connector-curvature="0" /><path
         d="m 4051.37,2785.96 v -51.99"
         style="fill:none;stroke:#262626;stroke-width:5.00250006;stroke-linecap:square;stroke-linejoin:round;stroke-miterlimit:10;stroke-dasharray:none;stroke-opacity:1"
         id="path54"
         inkscape:connector-curvature="0" /><path
         d="m 4571.13,2785.96 v -51.99"
         style="fill:none;stroke:#262626;stroke-width:5.00250006;stroke-linecap:square;stroke-linejoin:round;stroke-miterlimit:10;stroke-dasharray:none;stroke-opacity:1"
         id="path56"
         inkscape:connector-curvature="0" /><path
         d="m 5090.9,2785.96 v -51.99"
         style="fill:none;stroke:#262626;stroke-width:5.00250006;stroke-linecap:square;stroke-linejoin:round;stroke-miterlimit:10;stroke-dasharray:none;stroke-opacity:1"
         id="path58"
         inkscape:connector-curvature="0" /><path
         d="m 5610.62,2785.96 v -51.99"
         style="fill:none;stroke:#262626;stroke-width:5;stroke-linecap:square;stroke-linejoin:round;stroke-miterlimit:10;stroke-dasharray:none;stroke-opacity:1"
         id="path60"
         inkscape:connector-curvature="0" /><g
         id="g62"
         transform="scale(10)"><text
           transform="matrix(1,0,0,-1,33.8129,1.34492)"
           style="font-variant:normal;font-size:15px;font-family:f-0;-inkscape-font-specification:f-0-0;writing-mode:lr-tb;fill:#262626;fill-opacity:1;fill-rule:nonzero;stroke:none"
           id="text66"><tspan
             x="0 4.9949999 51.974998 56.970001 103.95 108.945 155.925 160.92 207.90045 212.89545 262.50046 314.47546 366.45044 418.42545 470.40045 522.37543"
             y="0"
             sodipodi:role="line"
             id="tspan64">-5-4-3-2-1012345</tspan></text>
</g><path
         d="M 413.121,205.965 V 2785.96"
         style="fill:none;stroke:#262626;stroke-width:5.00250006;stroke-linecap:square;stroke-linejoin:round;stroke-miterlimit:10;stroke-dasharray:none;stroke-opacity:1"
         id="path68"
         inkscape:connector-curvature="0" /><path
         d="M 5610.62,205.965 V 2785.96"
         style="fill:none;stroke:#262626;stroke-width:5.00250006;stroke-linecap:square;stroke-linejoin:round;stroke-miterlimit:10;stroke-dasharray:none;stroke-opacity:1"
         id="path70"
         inkscape:connector-curvature="0" /><path
         d="m 413.121,205.965 h 52"
         style="fill:none;stroke:#262626;stroke-width:5.00250006;stroke-linecap:square;stroke-linejoin:round;stroke-miterlimit:10;stroke-dasharray:none;stroke-opacity:1"
         id="path72"
         inkscape:connector-curvature="0" /><path
         d="m 413.121,1724.52 h 52"
         style="fill:none;stroke:#262626;stroke-width:5.00250006;stroke-linecap:square;stroke-linejoin:round;stroke-miterlimit:10;stroke-dasharray:none;stroke-opacity:1"
         id="path74"
         inkscape:connector-curvature="0" /><path
         d="m 5610.62,205.965 h -51.99"
         style="fill:none;stroke:#262626;stroke-width:5;stroke-linecap:square;stroke-linejoin:round;stroke-miterlimit:10;stroke-dasharray:none;stroke-opacity:1"
         id="path76"
         inkscape:connector-curvature="0" /><path
         d="m 5610.62,1724.52 h -51.99"
         style="fill:none;stroke:#262626;stroke-width:5.00250006;stroke-linecap:square;stroke-linejoin:round;stroke-miterlimit:10;stroke-dasharray:none;stroke-opacity:1"
         id="path78"
         inkscape:connector-curvature="0" /><path
         d="m 413.121,663.074 h 25.981"
         style="fill:none;stroke:#262626;stroke-width:5.00250006;stroke-linecap:square;stroke-linejoin:round;stroke-miterlimit:10;stroke-dasharray:none;stroke-opacity:1"
         id="path80"
         inkscape:connector-curvature="0" /><path
         d="m 413.121,930.496 h 25.981"
         style="fill:none;stroke:#262626;stroke-width:5.00250006;stroke-linecap:square;stroke-linejoin:round;stroke-miterlimit:10;stroke-dasharray:none;stroke-opacity:1"
         id="path82"
         inkscape:connector-curvature="0" /><path
         d="m 413.121,1120.22 h 25.981"
         style="fill:none;stroke:#262626;stroke-width:5.00250006;stroke-linecap:square;stroke-linejoin:round;stroke-miterlimit:10;stroke-dasharray:none;stroke-opacity:1"
         id="path84"
         inkscape:connector-curvature="0" /><path
         d="m 413.121,1267.38 h 25.981"
         style="fill:none;stroke:#262626;stroke-width:5.00250006;stroke-linecap:square;stroke-linejoin:round;stroke-miterlimit:10;stroke-dasharray:none;stroke-opacity:1"
         id="path86"
         inkscape:connector-curvature="0" /><path
         d="m 413.121,1387.64 h 25.981"
         style="fill:none;stroke:#262626;stroke-width:5.00250006;stroke-linecap:square;stroke-linejoin:round;stroke-miterlimit:10;stroke-dasharray:none;stroke-opacity:1"
         id="path88"
         inkscape:connector-curvature="0" /><path
         d="m 413.121,1489.29 h 25.981"
         style="fill:none;stroke:#262626;stroke-width:5.00250006;stroke-linecap:square;stroke-linejoin:round;stroke-miterlimit:10;stroke-dasharray:none;stroke-opacity:1"
         id="path90"
         inkscape:connector-curvature="0" /><path
         d="m 413.121,1577.38 h 25.981"
         style="fill:none;stroke:#262626;stroke-width:5.00250006;stroke-linecap:square;stroke-linejoin:round;stroke-miterlimit:10;stroke-dasharray:none;stroke-opacity:1"
         id="path92"
         inkscape:connector-curvature="0" /><path
         d="m 413.121,1655.02 h 25.981"
         style="fill:none;stroke:#262626;stroke-width:5.00250006;stroke-linecap:square;stroke-linejoin:round;stroke-miterlimit:10;stroke-dasharray:none;stroke-opacity:1"
         id="path94"
         inkscape:connector-curvature="0" /><path
         d="m 413.121,2181.66 h 25.981"
         style="fill:none;stroke:#262626;stroke-width:5.00250006;stroke-linecap:square;stroke-linejoin:round;stroke-miterlimit:10;stroke-dasharray:none;stroke-opacity:1"
         id="path96"
         inkscape:connector-curvature="0" /><path
         d="m 413.121,2449.05 h 25.981"
         style="fill:none;stroke:#262626;stroke-width:5.00250006;stroke-linecap:square;stroke-linejoin:round;stroke-miterlimit:10;stroke-dasharray:none;stroke-opacity:1"
         id="path98"
         inkscape:connector-curvature="0" /><path
         d="m 413.121,2638.77 h 25.981"
         style="fill:none;stroke:#262626;stroke-width:5.00250006;stroke-linecap:square;stroke-linejoin:round;stroke-miterlimit:10;stroke-dasharray:none;stroke-opacity:1"
         id="path100"
         inkscape:connector-curvature="0" /><path
         d="m 5610.62,663.074 h -25.97"
         style="fill:none;stroke:#262626;stroke-width:5.00250006;stroke-linecap:square;stroke-linejoin:round;stroke-miterlimit:10;stroke-dasharray:none;stroke-opacity:1"
         id="path102"
         inkscape:connector-curvature="0" /><path
         d="m 5610.62,930.496 h -25.97"
         style="fill:none;stroke:#262626;stroke-width:5.00250006;stroke-linecap:square;stroke-linejoin:round;stroke-miterlimit:10;stroke-dasharray:none;stroke-opacity:1"
         id="path104"
         inkscape:connector-curvature="0" /><path
         d="m 5610.62,1120.22 h -25.97"
         style="fill:none;stroke:#262626;stroke-width:5.00250006;stroke-linecap:square;stroke-linejoin:round;stroke-miterlimit:10;stroke-dasharray:none;stroke-opacity:1"
         id="path106"
         inkscape:connector-curvature="0" /><path
         d="m 5610.62,1267.38 h -25.97"
         style="fill:none;stroke:#262626;stroke-width:5.00250006;stroke-linecap:square;stroke-linejoin:round;stroke-miterlimit:10;stroke-dasharray:none;stroke-opacity:1"
         id="path108"
         inkscape:connector-curvature="0" /><path
         d="m 5610.62,1387.64 h -25.97"
         style="fill:none;stroke:#262626;stroke-width:5.00250006;stroke-linecap:square;stroke-linejoin:round;stroke-miterlimit:10;stroke-dasharray:none;stroke-opacity:1"
         id="path110"
         inkscape:connector-curvature="0" /><path
         d="m 5610.62,1489.29 h -25.97"
         style="fill:none;stroke:#262626;stroke-width:5.00250006;stroke-linecap:square;stroke-linejoin:round;stroke-miterlimit:10;stroke-dasharray:none;stroke-opacity:1"
         id="path112"
         inkscape:connector-curvature="0" /><path
         d="m 5610.62,1577.38 h -25.97"
         style="fill:none;stroke:#262626;stroke-width:5.00250006;stroke-linecap:square;stroke-linejoin:round;stroke-miterlimit:10;stroke-dasharray:none;stroke-opacity:1"
         id="path114"
         inkscape:connector-curvature="0" /><path
         d="m 5610.62,1655.02 h -25.97"
         style="fill:none;stroke:#262626;stroke-width:5.00250006;stroke-linecap:square;stroke-linejoin:round;stroke-miterlimit:10;stroke-dasharray:none;stroke-opacity:1"
         id="path116"
         inkscape:connector-curvature="0" /><path
         d="m 5610.62,2181.66 h -25.97"
         style="fill:none;stroke:#262626;stroke-width:8;stroke-linecap:square;stroke-linejoin:round;stroke-miterlimit:10;stroke-dasharray:none;stroke-opacity:1"
         id="path118"
         inkscape:connector-curvature="0" /><path
         d="m 5610.62,2449.05 h -25.97"
         style="fill:none;stroke:#262626;stroke-width:5.00250006;stroke-linecap:square;stroke-linejoin:round;stroke-miterlimit:10;stroke-dasharray:none;stroke-opacity:1"
         id="path120"
         inkscape:connector-curvature="0" /><path
         d="m 5610.62,2638.77 h -25.97"
         style="fill:none;stroke:#262626;stroke-width:5.00250006;stroke-linecap:square;stroke-linejoin:round;stroke-miterlimit:10;stroke-dasharray:none;stroke-opacity:1"
         id="path122"
         inkscape:connector-curvature="0" /><g
         id="g124"
         transform="scale(10)"><text
           transform="matrix(1,0,0,-1,4.56289,13.0949)"
           style="font-variant:normal;font-size:15px;font-family:f-0;-inkscape-font-specification:f-0-0;writing-mode:lr-tb;fill:#262626;fill-opacity:1;fill-rule:nonzero;stroke:none"
           id="text128"><tspan
             x="0 8.3400002"
             y="0"
             sodipodi:role="line"
             id="tspan126">10</tspan></text>
<text
           transform="matrix(1,0,0,-1,24.06289,20.5949)"
           style="font-variant:normal;font-size:12px;font-family:f-0;-inkscape-font-specification:f-0-0;writing-mode:lr-tb;fill:#262626;fill-opacity:1;fill-rule:nonzero;stroke:none"
           id="text132"><tspan
             x="0 3.9960001"
             y="0"
             sodipodi:role="line"
             id="tspan130">-2</tspan></text>
<text
           transform="matrix(1,0,0,-1,4.56289,164.5949)"
           style="font-variant:normal;font-size:15px;font-family:f-0;-inkscape-font-specification:f-0-0;writing-mode:lr-tb;fill:#262626;fill-opacity:1;fill-rule:nonzero;stroke:none"
           id="text136"><tspan
             x="0 8.3400002"
             y="0"
             sodipodi:role="line"
             id="tspan134">10</tspan></text>
<text
           transform="matrix(1,0,0,-1,24.06289,172.0949)"
           style="font-variant:normal;font-size:12px;font-family:f-0;-inkscape-font-specification:f-0-0;writing-mode:lr-tb;fill:#262626;fill-opacity:1;fill-rule:nonzero;stroke:none"
           id="text140"><tspan
             x="0 3.9960001"
             y="0"
             sodipodi:role="line"
             id="tspan138">-1</tspan></text>
<text
           transform="matrix(1,0,0,-1,10.01799,275.0139)"
           style="font-variant:normal;font-size:15px;font-family:f-0;-inkscape-font-specification:f-0-0;writing-mode:lr-tb;fill:#262626;fill-opacity:1;fill-rule:nonzero;stroke:none"
           id="text144"><tspan
             x="0 8.3400002"
             y="0"
             sodipodi:role="line"
             id="tspan142">10</tspan></text>
<text
           transform="matrix(1,0,0,-1,29.51799,282.5139)"
           style="font-variant:normal;font-size:12px;font-family:f-0;-inkscape-font-specification:f-0-0;writing-mode:lr-tb;fill:#262626;fill-opacity:1;fill-rule:nonzero;stroke:none"
           id="text148"><tspan
             x="0 3.9960001"
             y="0"
             sodipodi:role="line"
             id="tspan146">-1</tspan></text>
</g><path
         d="m 1600.7,205.695 7.85,27.461 52,174.758 51.95,168.172 51.99,161.559 51.96,155 51.99,148.395 51.95,141.8 51.99,135.2 52,128.59 51.95,122.03 51.99,115.39 51.95,108.83 52,102.23 51.95,95.62 51.99,89.02 51.95,82.46 52,75.83 51.99,69.25 51.95,62.66 51.99,56.05 51.96,49.45 51.99,42.89 51.95,36.25 51.99,29.7 51.96,23.09 51.99,16.48 51.95,9.87 52,3.32 51.99,-3.32 51.95,-9.87 51.99,-16.48 51.96,-23.09 51.99,-29.7 51.99,-36.25 51.95,-42.89 52,-49.45 51.95,-56.05 51.99,-62.66 51.95,-69.25 52,-75.83 51.99,-82.46 51.95,-89.02 51.99,-95.62 51.96,-102.23 51.99,-108.83 51.95,-115.39 51.99,-122.03 51.96,-128.59 51.99,-135.2"
         style="fill:none;stroke:#ff0000;stroke-width:16;stroke-linecap:butt;stroke-linejoin:round;stroke-miterlimit:10;stroke-dasharray:none;stroke-opacity:1"
         id="path150"
         inkscape:connector-curvature="0" /><path
         d="m 4051.37,1318.04 51.99,-135.2 51.95,-141.8 51.99,-148.395 52,-155 51.95,-161.559 51.99,-168.172 51.96,-174.758 7.89,-27.461"
         style="fill:none;stroke:#ff0000;stroke-width:16;stroke-linecap:butt;stroke-linejoin:round;stroke-miterlimit:10;stroke-dasharray:none;stroke-opacity:1"
         id="path152"
         inkscape:connector-curvature="0" /><path
         d="m 713.711,205.695 11.289,8.75 51.949,41.129 52,41.91 51.949,42.739 51.993,43.55 51.949,44.383 52,45.309 51.99,46.168 51.95,47.152 51.95,48.09 52,49.098 51.99,50.113 51.95,51.18 51.99,52.3 51.96,53.399 51.99,54.531 51.95,55.699 51.99,56.875 52,58.13 51.95,59.34 51.99,60.59 51.96,61.78 51.99,63.05 51.95,64.22 51.99,65.39 52,66.48 51.95,67.5 51.99,68.4 51.95,69.1 52,69.65 51.95,69.93 51.99,69.84 51.95,69.41 52,68.44 51.99,66.95 51.95,64.73 51.99,61.72 51.96,57.89 51.99,53.05 51.95,47.22 51.99,40.35 51.96,32.63 51.99,23.94 51.95,14.65 52,4.93 51.99,-4.93 51.95,-14.65 51.99,-23.94 51.96,-32.63"
         style="fill:none;stroke:#ff00ff;stroke-width:16;stroke-linecap:butt;stroke-linejoin:round;stroke-miterlimit:10;stroke-dasharray:none;stroke-opacity:1"
         id="path154"
         inkscape:connector-curvature="0" /><path
         d="m 3167.81,2513.86 51.96,-32.63 51.99,-40.35 51.99,-47.22 51.95,-53.05 52,-57.89 51.95,-61.72 51.99,-64.73 51.95,-66.95 52,-68.44 51.99,-69.41 51.95,-69.84 51.99,-69.93 51.96,-69.65 51.99,-69.1 51.95,-68.4 51.99,-67.5 51.96,-66.48 51.99,-65.39 51.95,-64.22 51.99,-63.05 52,-61.78 51.95,-60.59 51.99,-59.34 51.96,-58.13 51.99,-56.875 51.95,-55.699 51.99,-54.531 51.99,-53.399 51.96,-52.3 51.99,-51.18 51.95,-50.113 52,-49.098 51.95,-48.09 51.99,-47.152 51.95,-46.168 52,-45.309 51.99,-44.383 51.95,-43.55 51.99,-42.739 51.96,-41.91 51.99,-41.129 11.25,-8.75"
         style="fill:none;stroke:#ff00ff;stroke-width:16;stroke-linecap:butt;stroke-linejoin:round;stroke-miterlimit:10;stroke-dasharray:none;stroke-opacity:1"
         id="path156"
         inkscape:connector-curvature="0" /><path
         d="m 412.621,339.125 0.5,0.281 52,25.578 51.949,26.102 51.989,26.598 51.961,27.109 51.992,27.652 51.988,28.211 51.949,28.828 52,29.371 51.949,30.079 51.993,30.66 51.949,31.41 52,32.07 51.99,32.852 51.95,33.629 51.95,34.418 52,35.273 51.99,36.129 51.95,37.109 51.99,38.012 51.96,39.059 51.99,40.125 51.95,41.2 51.99,42.39 52,43.55 51.95,44.84 51.99,46.14 51.96,47.54 51.99,48.95 51.95,50.42 51.99,51.99 52,53.57 51.95,55.14 51.99,56.84 51.95,58.45 52,60.1 51.95,61.65 51.99,63.09 51.95,64.34 52,65.26 51.99,65.86 51.95,65.82 51.99,65.04 51.96,63.28 51.99,60.2 51.95,55.62 51.99,49.26 51.96,41.1 51.99,30.93"
         style="fill:none;stroke:#00ffff;stroke-width:16;stroke-linecap:butt;stroke-linejoin:round;stroke-miterlimit:10;stroke-dasharray:none;stroke-opacity:1"
         id="path158"
         inkscape:connector-curvature="0" /><path
         d="m 2855.94,2431.32 51.99,30.93 51.95,19.34 52,6.52 51.99,-6.52 51.95,-19.34 51.99,-30.93 51.96,-41.1 51.99,-49.26 51.99,-55.62 51.95,-60.2 52,-63.28 51.95,-65.04 51.99,-65.82 51.95,-65.86 52,-65.26 51.99,-64.34 51.95,-63.09 51.99,-61.65 51.96,-60.1 51.99,-58.45 51.95,-56.84 51.99,-55.14 51.96,-53.57 51.99,-51.99 51.95,-50.42 51.99,-48.95 52,-47.54 51.95,-46.14 51.99,-44.84 51.96,-43.55 51.99,-42.39 51.95,-41.2 51.99,-40.125 51.99,-39.059 51.96,-38.012 51.99,-37.109 51.95,-36.129 52,-35.273 51.95,-34.418 51.99,-33.629 51.95,-32.852 52,-32.07 51.99,-31.41 51.95,-30.66 51.99,-30.079 51.96,-29.371 51.99,-28.828 51.95,-28.211 51.99,-27.652 51.96,-27.109 51.99,-26.598"
         style="fill:none;stroke:#00ffff;stroke-width:16;stroke-linecap:butt;stroke-linejoin:round;stroke-miterlimit:10;stroke-dasharray:none;stroke-opacity:1"
         id="path160"
         inkscape:connector-curvature="0" /><path
         d="m 5454.69,417.684 51.99,-26.598 51.95,-26.102 51.99,-25.578 0.51,-0.281"
         style="fill:none;stroke:#00ffff;stroke-width:16;stroke-linecap:butt;stroke-linejoin:round;stroke-miterlimit:10;stroke-dasharray:none;stroke-opacity:1"
         id="path162"
         inkscape:connector-curvature="0" /><path
         d="m 412.621,433.773 0.5,0.2 52,19.613 51.949,19.957 51.989,20.391 51.961,20.781 51.992,21.211 51.988,21.719 51.949,22.148 52,22.652 51.949,23.168 51.993,23.711 51.949,24.262 52,24.84 51.99,25.469 51.95,26.128 51.95,26.801 52,27.539 51.99,28.282 51.95,29.058 51.99,29.883 51.96,30.789 51.99,31.711 51.95,32.699 51.99,33.755 52,34.84 51.95,36.01 51.99,37.31 51.96,38.59 51.99,40 51.95,41.57 51.99,43.12 52,44.84 51.95,46.64 51.99,48.59 51.95,50.67 52,52.85 51.95,55.13 51.99,57.5 51.95,59.96 52,62.41 51.99,64.81 51.95,67 51.99,68.75 51.96,69.75 51.99,69.66 51.95,67.69 51.99,63.24 51.96,55.44 51.99,43.79"
         style="fill:none;stroke:#0000ff;stroke-width:16;stroke-linecap:butt;stroke-linejoin:round;stroke-miterlimit:10;stroke-dasharray:none;stroke-opacity:1"
         id="path164"
         inkscape:connector-curvature="0" /><path
         d="m 2855.94,2296.91 51.99,43.79 51.95,28.27 52,9.8 51.99,-9.8 51.95,-28.27 51.99,-43.79 51.96,-55.44 51.99,-63.24 51.99,-67.69 51.95,-69.66 52,-69.75 51.95,-68.75 51.99,-67 51.95,-64.81 52,-62.41 51.99,-59.96 51.95,-57.5 51.99,-55.13 51.96,-52.85 51.99,-50.67 51.95,-48.59 51.99,-46.64 51.96,-44.84 51.99,-43.12 51.95,-41.57 51.99,-40 52,-38.59 51.95,-37.31 51.99,-36.01 51.96,-34.84 51.99,-33.755 51.95,-32.699 51.99,-31.711 51.99,-30.789 51.96,-29.883 51.99,-29.058 51.95,-28.282 52,-27.539 51.95,-26.801 51.99,-26.128 51.95,-25.469 52,-24.84 51.99,-24.262 51.95,-23.711 51.99,-23.168 51.96,-22.652 51.99,-22.148 51.95,-21.719 51.99,-21.211 51.96,-20.781 51.99,-20.391"
         style="fill:none;stroke:#0000ff;stroke-width:16;stroke-linecap:butt;stroke-linejoin:round;stroke-miterlimit:10;stroke-dasharray:none;stroke-opacity:1"
         id="path166"
         inkscape:connector-curvature="0" /><path
         d="m 5454.69,493.934 51.99,-20.391 51.95,-19.957 51.99,-19.613 0.51,-0.2"
         style="fill:none;stroke:#0000ff;stroke-width:16;stroke-linecap:butt;stroke-linejoin:round;stroke-miterlimit:10;stroke-dasharray:none;stroke-opacity:1"
         id="path168"
         inkscape:connector-curvature="0" /><path
         d="m 3587.97,2234.48 567.73,155.94"
         style="fill:#0000ff;fill-opacity:1;fill-rule:nonzero;stroke:none"
         id="path170"
         inkscape:connector-curvature="0" /><path
         d="m 3587.97,2234.48 567.73,155.93"
         style="fill:none;stroke:#ff0000;stroke-width:9.58362007;stroke-linecap:butt;stroke-linejoin:miter;stroke-miterlimit:4;stroke-dasharray:none;stroke-opacity:1"
         id="path172"
         inkscape:connector-curvature="0" /><path
         d="m 3617.81,2058.27 548.05,151.87"
         style="fill:none;stroke:#ff00ff;stroke-width:9.29356003;stroke-linecap:butt;stroke-linejoin:miter;stroke-miterlimit:4;stroke-dasharray:none;stroke-opacity:1"
         id="path174"
         inkscape:connector-curvature="0" /><path
         d="m 3639.18,1901.52 527.15,145.5"
         style="fill:none;stroke:#00ffff;stroke-width:8.92094994;stroke-linecap:butt;stroke-linejoin:miter;stroke-miterlimit:4;stroke-dasharray:none;stroke-opacity:1"
         id="path176"
         inkscape:connector-curvature="0" /><path
         d="m 3620.74,1711.2 547.78,150.39"
         style="fill:none;stroke:#0000ff;stroke-width:9.24549007;stroke-linecap:butt;stroke-linejoin:miter;stroke-miterlimit:4;stroke-dasharray:none;stroke-opacity:1"
         id="path178"
         inkscape:connector-curvature="0" /><path
         d="m 4269.02,2414.52 -0.04,1.4 -0.03,1.33 -0.16,2.58 -0.24,2.46 -0.31,2.38 -0.43,2.19 -0.51,2.15 -0.58,2.07 -0.67,1.92 -0.74,1.83 -0.78,1.68 -0.86,1.68 -0.94,1.48 -0.97,1.45 -1.02,1.37 -1.09,1.25 -1.13,1.13 -1.18,1.09 -1.17,1.02 -1.25,0.9 -1.29,0.82 -1.25,0.74 -1.33,0.7 -1.32,0.59 -1.37,0.55 -1.29,0.43 -1.37,0.43 -1.4,0.31 -1.37,0.23 -1.33,0.24 -1.33,0.15 -1.32,0.08 h -1.33 l -0.16,-4.1 c 18.59,0 18.59,-24.61 18.59,-39.26 0,-6.91 0,-17.81 0.36,-20.97 -16.49,-14.5 -30.98,-16.53 -38.44,-16.53 -11.29,0 -16.92,8.48 -16.92,20.47 0,9.18 4.89,29.45 10.9,39.02 8.75,13.72 18.99,17.27 25.51,17.27 l 0.16,4.1 c -25.67,0 -50.43,-26.83 -50.43,-53.28 0,-17.5 11.21,-31.72 30.35,-31.72 11.84,0 25.35,4.3 39.61,15.78 2.5,-9.96 8.67,-15.78 17.11,-15.78 9.96,0 15.74,10.31 15.74,13.28 0,1.37 -1.09,1.88 -2.23,1.88 -1.32,0 -1.87,-0.51 -2.46,-1.88 -3.36,-9.14 -10.11,-9.14 -10.51,-9.14 -5.78,0 -5.78,14.65 -5.78,19.1 0,3.95 0,4.38 1.88,6.61 17.65,22.14 21.6,43.9 21.6,44.1 0,0.43 -0.23,1.87 -2.3,1.87 -1.88,0 -1.88,-0.51 -2.82,-3.94 -3.36,-11.84 -9.53,-26.06 -18.36,-37.15 z"
         style="fill:#000000;fill-opacity:1;fill-rule:nonzero;stroke:none"
         id="path180"
         inkscape:connector-curvature="0" /><path
         d="m 4481.6,2431.63 h 1.64 l 0.24,0.04 h 0.27 l 0.31,0.04 0.28,0.04 0.23,0.03 0.55,0.08 0.7,0.24 0.23,0.04 0.24,0.11 0.16,0.12 0.23,0.16 0.2,0.11 0.15,0.2 0.2,0.16 0.15,0.19 0.08,0.08 0.04,0.12 0.04,0.07 0.08,0.12 0.04,0.12 0.04,0.15 0.03,0.12 0.08,0.16 0.04,0.12 v 0.11 l 0.08,0.31 v 0.16 l 0.04,0.16 v 0.31 c 0,3.79 -3.59,3.79 -6.17,3.79 h -112.46 c -2.66,0 -6.22,0 -6.22,-3.79 0,-3.67 3.56,-3.67 6.37,-3.67 z"
         style="fill:#000000;fill-opacity:1;fill-rule:nonzero;stroke:none"
         id="path182"
         inkscape:connector-curvature="0" /><path
         d="m 4481.8,2395.14 h 0.47 l 0.54,0.04 h 0.74 l 0.55,0.08 h 0.24 l 0.27,0.04 0.27,0.08 0.28,0.04 0.23,0.08 0.2,0.07 0.27,0.08 0.23,0.08 0.59,0.35 0.39,0.31 0.16,0.2 0.07,0.08 0.08,0.11 0.08,0.08 0.04,0.12 0.04,0.08 0.08,0.11 0.08,0.24 0.03,0.16 0.08,0.11 0.04,0.16 v 0.16 l 0.04,0.11 0.04,0.16 v 0.15 l 0.04,0.16 v 0.35 c 0,3.75 -3.59,3.75 -6.37,3.75 h -112.11 c -2.81,0 -6.37,0 -6.37,-3.75 0,-3.79 3.56,-3.79 6.22,-3.79 z"
         style="fill:#000000;fill-opacity:1;fill-rule:nonzero;stroke:none"
         id="path184"
         inkscape:connector-curvature="0" /><path
         d="m 4646.02,2421.08 -0.94,1.17 -1.72,2.19 -1.56,1.95 -0.71,0.9 -0.7,0.86 -0.7,0.82 -0.59,0.78 -0.58,0.75 -0.63,0.7 -0.55,0.66 -0.54,0.63 -0.51,0.62 -0.51,0.59 -0.47,0.55 -0.51,0.54 -0.46,0.51 -0.43,0.47 -0.47,0.51 -0.86,0.86 -0.9,0.86 -1.8,1.64 -0.97,0.86 -0.55,0.39 -0.51,0.43 c -10.58,8.47 -21.09,11.83 -30.62,11.83 -21.96,0 -36.29,-20.58 -36.29,-42.54 h 4.22 c 0,18.32 12.54,33.52 29.06,33.52 10.9,0 19.3,-7.85 23.24,-11.84 4.73,-5.04 9.02,-10.86 20.51,-25.66 -7.74,-13.52 -21.64,-32.46 -42.81,-32.46 -19.89,0 -30,19.53 -30,36.44 h -4.22 c 0,-21.64 13.9,-42.46 35.51,-42.46 21.64,0 37.14,17.07 46.36,32.07 10.16,-12.77 12.39,-15.55 18.21,-20.23 10.46,-8.48 21.05,-11.84 30.66,-11.84 21.91,0 36.17,20.67 36.17,42.62 h -4.14 c 0,-18.44 -12.58,-33.63 -29.06,-33.63 -10.9,0 -19.38,7.93 -23.28,11.83 -4.69,5.08 -9.03,10.9 -20.43,25.74 7.65,13.48 21.52,32.43 42.77,32.43 19.88,0 30,-19.46 30,-36.37 h 4.14 c 0,21.52 -13.87,42.38 -35.47,42.38 -21.56,0 -37.18,-17.07 -46.36,-32.07 z"
         style="fill:#000000;fill-opacity:1;fill-rule:nonzero;stroke:none"
         id="path186"
         inkscape:connector-curvature="0" /><path
         d="m 4269.02,2230.53 -0.04,1.37 -0.03,1.33 -0.08,1.33 -0.08,1.29 -0.24,2.42 -0.31,2.38 -0.43,2.23 -0.51,2.15 -0.58,2.03 -0.67,1.91 -0.74,1.88 -0.78,1.68 -0.86,1.64 -0.94,1.52 -0.97,1.45 -1.02,1.32 -1.09,1.25 -1.13,1.18 -1.18,1.09 -1.17,0.98 -1.25,0.89 -1.29,0.86 -1.25,0.75 -1.33,0.66 -1.32,0.63 -1.37,0.5 -1.29,0.47 -1.37,0.39 -1.4,0.35 -1.37,0.24 -1.33,0.23 -1.33,0.12 -1.32,0.08 h -1.33 l -0.16,-4.1 c 18.59,0 18.59,-24.61 18.59,-39.22 0,-6.92 0,-17.81 0.36,-20.98 -16.49,-14.49 -30.98,-16.56 -38.44,-16.56 -11.29,0 -16.92,8.48 -16.92,20.47 0,9.22 4.89,29.49 10.9,39.06 8.75,13.71 18.99,17.23 25.51,17.23 l 0.16,4.1 c -25.67,0 -50.43,-26.8 -50.43,-53.24 0,-17.5 11.21,-31.76 30.35,-31.76 11.84,0 25.35,4.29 39.61,15.82 2.5,-9.96 8.67,-15.82 17.11,-15.82 9.96,0 15.74,10.35 15.74,13.32 0,1.37 -1.09,1.87 -2.23,1.87 -1.32,0 -1.87,-0.5 -2.46,-1.87 -3.36,-9.18 -10.11,-9.18 -10.51,-9.18 -5.78,0 -5.78,14.69 -5.78,19.1 0,3.98 0,4.38 1.88,6.6 17.65,22.15 21.6,43.95 21.6,44.14 0,0.39 -0.23,1.88 -2.3,1.88 -1.88,0 -1.88,-0.51 -2.82,-3.95 -3.36,-11.83 -9.53,-26.09 -18.36,-37.15 z"
         style="fill:#000000;fill-opacity:1;fill-rule:nonzero;stroke:none"
         id="path188"
         inkscape:connector-curvature="0" /><path
         d="m 4481.6,2247.64 h 1.64 l 0.24,0.04 h 0.27 l 0.31,0.04 0.24,0.04 0.27,0.04 h 0.27 l 0.28,0.04 0.93,0.31 0.24,0.12 0.16,0.12 0.23,0.15 0.2,0.12 0.15,0.19 0.2,0.12 0.15,0.2 0.08,0.11 0.04,0.12 0.04,0.08 0.08,0.12 0.04,0.11 0.04,0.16 0.11,0.23 0.04,0.12 v 0.16 l 0.08,0.31 v 0.16 l 0.04,0.15 v 0.32 c 0,3.78 -3.59,3.78 -6.17,3.78 h -112.46 c -2.66,0 -6.22,0 -6.22,-3.78 0,-3.68 3.56,-3.68 6.37,-3.68 z"
         style="fill:#000000;fill-opacity:1;fill-rule:nonzero;stroke:none"
         id="path190"
         inkscape:connector-curvature="0" /><path
         d="m 4481.8,2211.16 h 0.47 l 0.54,0.04 h 0.74 l 0.55,0.08 h 0.24 l 0.27,0.04 0.27,0.07 0.28,0.04 0.19,0.08 0.24,0.08 0.27,0.04 0.23,0.08 0.39,0.23 0.59,0.47 0.16,0.19 0.23,0.24 0.08,0.23 0.08,0.12 0.08,0.23 0.03,0.16 0.08,0.12 0.04,0.12 v 0.15 l 0.08,0.31 v 0.16 l 0.04,0.16 v 0.31 c 0,3.79 -3.59,3.79 -6.37,3.79 h -112.11 c -2.81,0 -6.37,0 -6.37,-3.79 0,-3.75 3.56,-3.75 6.22,-3.75 z"
         style="fill:#000000;fill-opacity:1;fill-rule:nonzero;stroke:none"
         id="path192"
         inkscape:connector-curvature="0" /><path
         d="m 4574.49,2200.69 19.92,19.34 c 29.22,25.86 40.55,36.01 40.55,54.76 0,21.45 -16.87,36.49 -39.8,36.49 -21.25,0 -35.16,-17.35 -35.16,-34.03 0,-10.5 9.41,-10.5 9.96,-10.5 3.24,0 9.77,2.26 9.77,9.92 0,4.92 -3.36,9.8 -9.96,9.8 -1.45,0 -1.88,0 -2.43,-0.19 4.3,12.22 14.46,19.14 25.36,19.14 17.07,0 25.19,-15.24 25.19,-30.63 0,-15 -9.41,-29.84 -19.73,-41.48 l -36.05,-40.16 c -2.11,-2.03 -2.11,-2.42 -2.11,-6.95 h 69.65 l 5.31,32.69 h -4.73 c -0.93,-5.66 -2.22,-13.9 -4.1,-16.75 -1.36,-1.45 -13.71,-1.45 -17.85,-1.45 z"
         style="fill:#000000;fill-opacity:1;fill-rule:nonzero;stroke:none"
         id="path194"
         inkscape:connector-curvature="0" /><path
         d="m 4269.02,2053.42 -0.04,1.41 -0.03,1.29 -0.08,1.33 -0.08,1.29 -0.24,2.46 -0.31,2.34 -0.43,2.23 -0.51,2.15 -0.58,2.03 -0.67,1.95 -0.74,1.84 -0.78,1.68 -0.86,1.68 -0.94,1.48 -0.97,1.45 -1.02,1.36 -1.09,1.21 -1.13,1.18 -1.18,1.09 -1.17,0.98 -1.25,0.93 -1.29,0.82 -1.25,0.75 -1.33,0.66 -1.32,0.63 -1.37,0.5 -1.29,0.47 -1.37,0.43 -1.4,0.31 -1.37,0.24 -1.33,0.23 -1.33,0.16 -1.32,0.08 h -1.33 l -0.16,-4.14 c 18.59,0 18.59,-24.57 18.59,-39.22 0,-6.92 0,-17.81 0.36,-20.98 -16.49,-14.49 -30.98,-16.52 -38.44,-16.52 -11.29,0 -16.92,8.47 -16.92,20.43 0,9.22 4.89,29.49 10.9,39.06 8.75,13.71 18.99,17.23 25.51,17.23 l 0.16,4.14 c -25.67,0 -50.43,-26.84 -50.43,-53.28 0,-17.5 11.21,-31.72 30.35,-31.72 11.84,0 25.35,4.26 39.61,15.78 2.5,-9.96 8.67,-15.78 17.11,-15.78 9.96,0 15.74,10.31 15.74,13.28 0,1.37 -1.09,1.87 -2.23,1.87 -1.32,0 -1.87,-0.5 -2.46,-1.87 -3.36,-9.14 -10.11,-9.14 -10.51,-9.14 -5.78,0 -5.78,14.65 -5.78,19.1 0,3.95 0,4.37 1.88,6.56 17.65,22.19 21.6,43.95 21.6,44.14 0,0.43 -0.23,1.88 -2.3,1.88 -1.88,0 -1.88,-0.51 -2.82,-3.95 -3.36,-11.83 -9.53,-26.09 -18.36,-37.15 z"
         style="fill:#000000;fill-opacity:1;fill-rule:nonzero;stroke:none"
         id="path196"
         inkscape:connector-curvature="0" /><path
         d="m 4481.6,2070.53 h 1.64 l 0.24,0.04 h 0.27 l 0.31,0.04 0.24,0.04 0.82,0.12 0.23,0.08 0.24,0.04 0.46,0.15 0.24,0.12 0.16,0.12 0.23,0.15 0.2,0.12 0.15,0.2 0.2,0.15 0.15,0.16 0.08,0.11 0.04,0.12 0.04,0.08 0.08,0.12 0.04,0.11 0.04,0.16 0.03,0.12 0.08,0.12 0.04,0.11 v 0.16 l 0.08,0.31 v 0.16 l 0.04,0.15 v 0.32 c 0,3.79 -3.59,3.79 -6.17,3.79 h -112.46 c -2.66,0 -6.22,0 -6.22,-3.79 0,-3.68 3.56,-3.68 6.37,-3.68 z"
         style="fill:#000000;fill-opacity:1;fill-rule:nonzero;stroke:none"
         id="path198"
         inkscape:connector-curvature="0" /><path
         d="m 4481.8,2034.05 h 0.47 l 0.54,0.04 h 0.74 l 0.55,0.08 h 0.24 l 0.27,0.04 0.27,0.07 0.28,0.04 0.19,0.08 0.24,0.08 0.27,0.08 0.23,0.08 0.2,0.07 0.19,0.12 0.59,0.47 0.16,0.2 0.07,0.07 0.08,0.12 0.08,0.08 0.04,0.08 0.04,0.11 0.08,0.12 0.08,0.24 0.03,0.15 0.08,0.12 0.04,0.16 v 0.11 l 0.08,0.31 v 0.16 l 0.04,0.16 v 0.35 c 0,3.75 -3.59,3.75 -6.37,3.75 h -112.11 c -2.81,0 -6.37,0 -6.37,-3.75 0,-3.79 3.56,-3.79 6.22,-3.79 z"
         style="fill:#000000;fill-opacity:1;fill-rule:nonzero;stroke:none"
         id="path200"
         inkscape:connector-curvature="0" /><path
         d="m 4605.82,2129.28 v 1.14 l -0.04,0.15 v 0.94 l -0.04,0.12 v 0.27 l -0.04,0.27 -0.04,0.24 -0.04,0.16 -0.07,0.39 -0.16,0.31 -0.35,0.35 -0.12,0.08 -0.15,0.08 -0.2,0.07 -0.08,0.04 -0.04,0.04 h -0.11 l -0.24,0.08 h -0.12 l -0.11,0.04 h -0.12 l -0.12,0.04 h -0.23 l -0.16,0.04 h -0.82 l -0.12,0.04 h -0.82 c -11.64,-12.03 -28.08,-12.03 -34.14,-12.03 v -5.82 c 3.79,0 14.85,0 24.57,4.88 v -97.23 c 0,-6.8 -0.5,-9.02 -17.42,-9.02 h -6.01 v -5.82 c 6.6,0.58 22.93,0.58 30.39,0.58 7.54,0 23.83,0 30.43,-0.58 v 5.82 h -5.98 c -16.91,0 -17.5,2.03 -17.5,9.02 z"
         style="fill:#000000;fill-opacity:1;fill-rule:nonzero;stroke:none"
         id="path202"
         inkscape:connector-curvature="0" /><path
         d="m 4269.02,1870.22 -0.04,1.41 -0.03,1.33 -0.08,1.32 -0.08,1.25 -0.24,2.47 -0.31,2.38 -0.43,2.22 -0.51,2.15 -0.58,2.03 -0.67,1.92 -0.74,1.83 -0.78,1.72 -0.86,1.64 -0.94,1.53 -0.97,1.4 -1.02,1.37 -1.09,1.25 -1.13,1.17 -1.18,1.1 -1.17,0.97 -1.25,0.9 -1.29,0.82 -1.25,0.74 -1.33,0.71 -1.32,0.58 -1.37,0.55 -1.29,0.43 -1.37,0.43 -1.4,0.35 -1.37,0.2 -1.33,0.23 -1.33,0.16 -1.32,0.07 h -1.33 l -0.16,-4.1 c 18.59,0 18.59,-24.61 18.59,-39.22 0,-6.95 0,-17.85 0.36,-21.01 -16.49,-14.49 -30.98,-16.52 -38.44,-16.52 -11.29,0 -16.92,8.47 -16.92,20.46 0,9.18 4.89,29.46 10.9,39.03 8.75,13.71 18.99,17.26 25.51,17.26 l 0.16,4.1 c -25.67,0 -50.43,-26.83 -50.43,-53.28 0,-17.46 11.21,-31.72 30.35,-31.72 11.84,0 25.35,4.3 39.61,15.79 2.5,-9.97 8.67,-15.79 17.11,-15.79 9.96,0 15.74,10.32 15.74,13.29 0,1.36 -1.09,1.91 -2.23,1.91 -1.32,0 -1.87,-0.55 -2.46,-1.91 -3.36,-9.14 -10.11,-9.14 -10.51,-9.14 -5.78,0 -5.78,14.64 -5.78,19.1 0,3.94 0,4.37 1.88,6.6 17.65,22.15 21.6,43.94 21.6,44.1 0,0.43 -0.23,1.91 -2.3,1.91 -1.88,0 -1.88,-0.54 -2.82,-3.98 -3.36,-11.84 -9.53,-26.06 -18.36,-37.15 z"
         style="fill:#000000;fill-opacity:1;fill-rule:nonzero;stroke:none"
         id="path204"
         inkscape:connector-curvature="0" /><path
         d="m 4481.6,1887.33 h 1.64 l 0.24,0.04 h 0.27 l 0.31,0.04 0.28,0.04 0.23,0.04 0.55,0.08 0.93,0.31 0.24,0.12 0.16,0.11 0.23,0.12 0.2,0.12 0.15,0.19 0.2,0.16 0.15,0.19 0.08,0.12 0.04,0.12 0.04,0.04 0.08,0.11 0.04,0.12 0.04,0.16 0.03,0.11 0.08,0.16 0.04,0.12 v 0.15 l 0.04,0.12 0.04,0.16 v 0.15 l 0.04,0.16 v 0.35 c 0,3.75 -3.59,3.75 -6.17,3.75 h -112.46 c -2.66,0 -6.22,0 -6.22,-3.75 0,-3.71 3.56,-3.71 6.37,-3.71 z"
         style="fill:#000000;fill-opacity:1;fill-rule:nonzero;stroke:none"
         id="path206"
         inkscape:connector-curvature="0" /><path
         d="m 4481.8,1850.89 h 1.75 l 0.55,0.07 h 0.24 l 0.27,0.04 0.27,0.08 0.28,0.04 0.23,0.08 0.2,0.08 0.27,0.07 0.23,0.08 0.39,0.24 0.2,0.15 0.2,0.12 0.19,0.16 0.16,0.19 0.07,0.08 0.08,0.12 0.08,0.08 0.08,0.23 0.08,0.12 0.04,0.08 0.04,0.11 0.03,0.16 0.08,0.12 0.04,0.15 v 0.16 l 0.08,0.31 v 0.12 l 0.04,0.15 v 0.36 c 0,3.75 -3.59,3.75 -6.37,3.75 h -112.11 c -2.81,0 -6.37,0 -6.37,-3.75 0,-3.75 3.56,-3.75 6.22,-3.75 z"
         style="fill:#000000;fill-opacity:1;fill-rule:nonzero;stroke:none"
         id="path208"
         inkscape:connector-curvature="0" /><path
         d="m 4637.03,1885.96 -0.08,5.63 -0.07,2.85 -0.12,2.77 -0.16,2.82 -0.19,2.81 -0.32,2.77 -0.39,2.74 -0.39,2.77 -0.54,2.73 -0.59,2.74 -0.74,2.69 -0.82,2.74 -0.9,2.62 -1.06,2.65 -1.17,2.58 c -8.59,18.09 -24.02,21.09 -31.91,21.09 -11.25,0 -25,-4.88 -32.66,-22.38 -6.05,-12.93 -6.99,-27.62 -6.99,-42.62 0,-14.06 0.82,-30.93 8.48,-45.19 8.08,-15.2 21.79,-18.95 30.97,-18.95 v 4.1 c -7.3,0 -18.4,4.73 -21.76,22.74 -2.07,11.21 -2.07,28.48 -2.07,39.61 0,11.99 0,24.33 1.53,34.49 3.55,22.38 17.62,24.02 22.3,24.02 6.17,0 18.64,-3.36 22.15,-21.95 1.92,-10.47 1.92,-24.8 1.92,-36.56 0,-14.1 0,-26.84 -2.07,-38.87 -2.86,-17.81 -13.56,-23.48 -22,-23.48 v -4.1 c 10.16,0 24.38,3.91 32.66,21.76 6.05,12.93 6.99,27.54 6.99,42.38 z"
         style="fill:#000000;fill-opacity:1;fill-rule:nonzero;stroke:none"
         id="path210"
         inkscape:connector-curvature="0" /><path
         d="m 4680.7,1835.89 v 0.46 l -0.04,0.55 -0.07,0.47 -0.08,0.51 -0.12,0.43 -0.12,0.51 -0.19,0.43 -0.12,0.46 -0.43,0.86 -0.27,0.43 -0.28,0.39 -0.23,0.39 -0.31,0.39 -0.63,0.71 -0.35,0.35 -0.39,0.27 -0.35,0.32 -0.39,0.27 -0.43,0.27 -0.39,0.24 -0.43,0.23 -0.43,0.2 -0.47,0.19 -0.94,0.31 -0.51,0.08 -0.46,0.08 -0.51,0.08 -0.47,0.04 h -0.55 c -5.39,0 -9.92,-4.49 -9.92,-9.92 0,-5.43 4.53,-9.97 9.92,-9.97 5.51,0 9.96,4.54 9.96,9.97 z"
         style="fill:#000000;fill-opacity:1;fill-rule:nonzero;stroke:none"
         id="path212"
         inkscape:connector-curvature="0" /><path
         d="m 4780.98,1863.66 -0.04,2.11 -0.12,2.03 -0.23,2.03 -0.32,1.99 -0.39,2 -0.47,1.91 -0.5,1.87 -0.67,1.92 -0.66,1.8 -0.78,1.75 -0.86,1.76 -0.9,1.64 -0.98,1.64 -1.05,1.53 -1.1,1.52 -1.17,1.41 -1.25,1.36 -1.25,1.33 -1.36,1.21 -1.41,1.17 -1.45,1.1 -1.48,0.97 -1.56,0.94 -1.57,0.82 -1.64,0.74 -1.68,0.67 -1.68,0.54 -1.75,0.51 -1.8,0.32 -1.8,0.27 -1.87,0.19 -1.88,0.04 c -9.02,0 -17.11,-3 -23.83,-9.53 v 36.53 c 3.75,-1.1 9.93,-2.39 15.94,-2.39 23.09,0 36.17,17.07 36.17,19.53 0,1.14 -0.5,2.07 -1.87,2.07 -0.2,0 -0.51,0 -1.45,-0.58 -3.79,-1.68 -12.97,-5.43 -25.54,-5.43 -7.5,0 -16.14,1.33 -25,5.23 -1.45,0.55 -1.88,0.55 -2.23,0.55 -1.88,0 -1.88,-1.48 -1.88,-4.45 v -55.59 c 0,-3.36 0,-4.88 2.66,-4.88 1.29,0 1.64,0.58 2.38,1.68 2.07,3.01 9.03,13.16 24.22,13.16 9.77,0 14.5,-8.67 15.94,-12.03 3.09,-6.91 3.44,-14.26 3.44,-23.67 0,-6.56 0,-17.85 -4.53,-25.74 -4.46,-7.31 -11.45,-12.15 -20.08,-12.15 -13.75,0 -24.38,9.96 -27.62,20.97 0.59,-0.15 1.17,-0.35 3.24,-0.35 6.21,0 9.38,4.73 9.38,9.22 0,4.53 -3.17,9.18 -9.38,9.18 -2.65,0 -9.25,-1.33 -9.25,-9.96 0,-16.13 12.96,-34.3 34.02,-34.3 21.76,0 40.94,18.01 40.94,41.84 z"
         style="fill:#000000;fill-opacity:1;fill-rule:nonzero;stroke:none"
         id="path214"
         inkscape:connector-curvature="0" /><g
         id="g216"
         transform="scale(10)"><text
           transform="matrix(1,0,0,-1,478.95,235.579)"
           style="font-variant:normal;font-weight:normal;font-size:14.39999962px;font-family:'DejaVu Sans';-inkscape-font-specification:DejaVuSans;writing-mode:lr-tb;fill:#000000;fill-opacity:1;fill-rule:nonzero;stroke:none"
           id="text222"><tspan
             x="0 5.6160002 16.775999 25.603201 34.7328 42.278561 49.78096 53.784161 62.611359 71.740959"
             y="0"
             sodipodi:role="line"
             id="tspan218">(Gaussian)</tspan><tspan
             x="-9.8769503 -4.2609501 5.7902498 14.61745 23.790409 31.710409 40.840008 49.364811"
             y="33.397999"
             sodipodi:role="line"
             id="tspan220">(Cauchy)</tspan></text>
<text
           transform="matrix(1,0,0,-1,206.10305,289.4833)"
           style="font-variant:normal;font-weight:normal;font-size:20px;font-family:'DejaVu Sans';-inkscape-font-specification:DejaVuSans;writing-mode:lr-tb;fill:#000000;fill-opacity:1;fill-rule:nonzero;stroke:none"
           id="text226"><tspan
             x="0 12.7 20.500078 32.740078 45.440079 57.700077 70.400078 75.960075 81.520081 87.080078 94.920074 106.76008 113.12008 125.82008 138.12007 150.80008 161.22008 166.78008 174.62007 186.46008 192.82008 199.86008 212.54008 225.28023 236.28023 244.12024 249.68024 261.92023"
             y="0"
             sodipodi:role="line"
             id="tspan224">probability density function</tspan></text>
</g><path
         d="m 1394.22,3019.01 h 34.57 c 27.54,0 37.97,15.82 37.97,18.56 0,1.05 -0.82,1.44 -1.88,1.44 -2.34,0 -7.69,-2.07 -12.93,-5.82 -1.72,-1.25 -2.07,-1.25 -6.09,-1.25 h -91.09 c -25.86,0 -54.89,-22.3 -54.89,-39.41 0,-1.25 0,-2.5 1.68,-2.5 5,0 18.13,6.87 18.6,11.91 0.19,3.52 0.58,7.46 4.76,12.89 2.11,2.54 3.75,4.18 12.97,4.18 h 41.45 c -3.52,-2.3 -4.38,-5.43 -4.77,-7.54 l -23.83,-94.41 c -2.46,-10.24 -6.83,-23.36 -12.85,-36.92 -1.25,-2.5 -1.25,-2.93 -1.25,-3.39 0,-1.22 0.82,-1.41 1.84,-1.41 4.22,0 14.37,5.58 17.5,10 1.25,2.07 10.47,23.36 14.88,40.66 z"
         style="fill:#000000;fill-opacity:1;fill-rule:nonzero;stroke:none"
         id="path228"
         inkscape:connector-curvature="0" /><path
         d="m 1486.13,2878.93 1.25,1.29 1.17,1.33 1.14,1.41 1.13,1.36 1.06,1.41 1.95,2.81 0.9,1.45 0.89,1.4 0.83,1.41 0.82,1.45 0.7,1.36 1.37,2.74 0.62,1.32 0.59,1.25 0.58,1.29 0.51,1.21 0.47,1.18 0.43,1.13 0.39,1.02 0.35,1.05 0.35,0.94 0.55,1.72 0.2,0.7 0.19,0.66 0.12,0.59 0.15,0.47 0.08,0.39 0.04,0.31 v 0.2 c 0,1.91 -1.76,1.91 -2.46,1.91 -2.11,0 -2.11,-0.39 -3.09,-3.63 -2.61,-9.65 -7.46,-18.56 -13.63,-26.41 -0.12,2.15 -0.39,11.99 -0.7,13.28 -2.15,14.46 -13.05,23.71 -27.66,23.71 l -0.19,-4.02 c 11.68,0 15.04,-11.29 16.21,-20.27 0.9,-6.29 0.58,-16.6 1.29,-24.34 -14.3,-11.72 -26.64,-13.01 -32.23,-13.01 -9.61,0 -15.04,6.41 -15.04,16.21 0,4.18 2.11,20.08 9.69,30.12 6.64,8.79 15,11.29 20.08,11.29 l 0.19,4.02 c -21.44,0 -42.03,-19.92 -42.03,-40.31 0,-13.4 9.81,-25.39 26.64,-25.39 13.48,0 25.59,6.09 33.71,12.34 3.4,-10.66 10.82,-12.34 15.16,-12.34 8.51,0 13.71,7.11 13.71,10.23 0,1.76 -1.76,1.76 -2.46,1.76 -1.88,0 -2.15,-0.58 -2.46,-1.52 -2.07,-5.47 -6.53,-6.41 -8.32,-6.41 -2.03,0 -4.49,0 -5.24,17.93 z"
         style="fill:#000000;fill-opacity:1;fill-rule:nonzero;stroke:none"
         id="path230"
         inkscape:connector-curvature="0" /><path
         d="m 1594.38,2839.48 v 0.35 l -0.04,0.04 v 0.08 l -0.04,0.04 v 0.08 l -0.08,0.07 -0.04,0.12 -0.04,0.08 -0.08,0.12 -0.04,0.07 -0.07,0.12 -0.08,0.16 -0.24,0.23 -0.11,0.16 -0.08,0.08 -0.08,0.11 -0.04,0.08 -0.43,0.43 -0.12,0.16 -0.07,0.08 -0.08,0.11 -0.16,0.12 -0.12,0.12 -0.07,0.15 -0.24,0.24 -0.15,0.12 -0.16,0.15 -0.12,0.16 -0.12,0.11 -0.19,0.16 -0.12,0.16 -0.31,0.31 c -26.06,26.29 -32.7,65.66 -32.7,97.58 0,36.29 7.89,72.62 33.52,98.59 2.7,2.58 2.7,3.01 2.7,3.63 0,1.45 -0.79,2.04 -2.04,2.04 -2.07,0 -20.86,-14.14 -33.12,-40.59 -10.7,-23.01 -13.17,-46.13 -13.17,-63.67 0,-16.29 2.27,-41.45 13.75,-65.04 12.47,-25.67 30.47,-39.18 32.54,-39.18 1.25,0 2.04,0.59 2.04,2.07 z"
         style="fill:#000000;fill-opacity:1;fill-rule:nonzero;stroke:none"
         id="path232"
         inkscape:connector-curvature="0" /><path
         d="m 1701.52,2957.45 v 3.12 l -0.04,3.21 -0.07,3.2 -0.16,3.32 -0.2,3.32 -0.23,3.32 -0.39,3.4 -0.43,3.36 -0.55,3.4 -0.66,3.36 -0.74,3.39 -0.94,3.36 -1.02,3.32 -0.58,1.61 -0.67,1.68 -0.62,1.6 -0.7,1.64 -0.75,1.56 -0.78,1.6 c -8.59,15.67 -22.97,20.7 -33.63,20.7 -12.31,0 -26.88,-5.62 -35.43,-24.21 -6.88,-15.24 -7.93,-32.5 -7.93,-49.26 0,-16.41 0.82,-31.64 7.07,-46.88 8.36,-20 24.18,-25.62 36.09,-25.62 l 0.2,12.69 c -10.86,0 -19.38,7.93 -23.56,22.93 -3.32,11.88 -3.51,23.13 -3.51,39.42 0,13.16 0,25.66 3.51,37.11 1.25,4.02 6.49,21.05 23.36,21.05 16.29,0 21.72,-15.82 23.13,-19.57 3.94,-11.72 3.94,-25.7 3.94,-38.59 0,-13.75 0,-26.92 -3.71,-40 -5.47,-19.07 -16.52,-22.35 -23.16,-22.35 l -0.2,-12.69 c 15.24,0 28.36,8.55 35.08,22.93 6.17,13.51 8.28,27.3 8.28,49.57 z"
         style="fill:#000000;fill-opacity:1;fill-rule:nonzero;stroke:none"
         id="path234"
         inkscape:connector-curvature="0" /><path
         d="m 1753.01,2889.71 v 1.25 l -0.04,1.25 -0.08,1.25 -0.16,1.18 -0.11,1.09 -0.32,2.19 -0.46,2.03 -0.28,0.94 -0.31,0.93 -0.31,0.86 -0.35,0.86 -0.36,0.78 -0.43,0.82 -0.39,0.71 -0.93,1.32 -0.51,0.59 -0.51,0.55 -0.55,0.54 -0.5,0.47 -0.59,0.39 -0.59,0.43 -0.66,0.36 -1.33,0.54 -0.66,0.2 -0.7,0.15 -0.71,0.12 -0.78,0.08 -0.74,0.04 c -6.88,0 -11.06,-5.24 -11.06,-11.06 0,-5.62 4.18,-11.05 11.06,-11.05 2.5,0 5.23,0.82 7.34,2.65 0.59,0.47 0.86,0.71 1.02,0.71 0.23,0 0.43,-0.24 0.43,-3.17 0,-15.43 -7.27,-27.96 -14.18,-34.8 -2.31,-2.27 -2.31,-2.74 -2.31,-3.32 0,-1.52 1.06,-2.31 2.07,-2.31 2.31,0 18.99,16.02 18.99,40.43 z"
         style="fill:#000000;fill-opacity:1;fill-rule:nonzero;stroke:none"
         id="path236"
         inkscape:connector-curvature="0" /><path
         d="m 1865.43,3030.92 h -4.1 c -12.38,-12.77 -29.65,-13.35 -39.65,-13.82 v -12.11 c 6.87,0.31 16.87,0.66 27.27,5.08 v -108.44 h -26.06 v -12.11 h 68.63 v 12.11 h -26.09 z"
         style="fill:#000000;fill-opacity:1;fill-rule:nonzero;stroke:none"
         id="path238"
         inkscape:connector-curvature="0" /><path
         d="m 1967.81,2941.63 v 1.56 l -0.04,1.6 -0.04,1.64 -0.03,1.72 -0.16,3.52 -0.27,3.67 -0.32,3.87 -0.47,3.98 -0.54,4.06 -0.71,4.22 -0.82,4.26 -0.93,4.34 -1.14,4.37 -1.32,4.45 -1.45,4.46 -1.64,4.49 -0.86,2.23 -0.98,2.22 -0.97,2.19 -1.02,2.23 c -12.54,25.62 -30.43,39.18 -32.54,39.18 -1.25,0 -2.11,-0.79 -2.11,-2.04 0,-0.62 0,-1.05 3.95,-4.84 20.47,-20.59 32.34,-53.79 32.34,-97.38 0,-35.63 -7.69,-72.35 -33.59,-98.63 -2.7,-2.47 -2.7,-2.93 -2.7,-3.52 0,-1.25 0.86,-2.07 2.11,-2.07 2.11,0 20.82,14.18 33.17,40.62 10.58,22.89 13.08,46.06 13.08,63.6 z"
         style="fill:#000000;fill-opacity:1;fill-rule:nonzero;stroke:none"
         id="path240"
         inkscape:connector-curvature="0" /><g
         id="g242"
         transform="scale(10)"><text
           transform="matrix(1,0,0,-1,-0.525,274.825)"
           style="font-variant:normal;font-size:15px;font-family:f-0;-inkscape-font-specification:f-0-0;writing-mode:lr-tb;fill:#262626;fill-opacity:1;fill-rule:nonzero;stroke:none"
           id="text246"><tspan
             x="0 8.3400002"
             y="0"
             sodipodi:role="line"
             id="tspan244">5.</tspan></text>
</g></g></g></svg>