<?xml version="1.0" encoding="utf-8" standalone="no"?>
<!DOCTYPE svg PUBLIC "-//W3C//DTD SVG 1.1//EN"
  "http://www.w3.org/Graphics/SVG/1.1/DTD/svg11.dtd">
<!-- Created with matplotlib (https://matplotlib.org/) -->
<svg height="720pt" version="1.1" viewBox="0 0 720 720" width="720pt" xmlns="http://www.w3.org/2000/svg" xmlns:xlink="http://www.w3.org/1999/xlink">
 <metadata>
  <rdf:RDF xmlns:cc="http://creativecommons.org/ns#" xmlns:dc="http://purl.org/dc/elements/1.1/" xmlns:rdf="http://www.w3.org/1999/02/22-rdf-syntax-ns#">
   <cc:Work>
    <dc:type rdf:resource="http://purl.org/dc/dcmitype/StillImage"/>
    <dc:date>2020-10-14T14:08:18.213089</dc:date>
    <dc:format>image/svg+xml</dc:format>
    <dc:creator>
     <cc:Agent>
      <dc:title>Matplotlib v3.3.1, https://matplotlib.org/</dc:title>
     </cc:Agent>
    </dc:creator>
   </cc:Work>
  </rdf:RDF>
 </metadata>
 <defs>
  <style type="text/css">*{stroke-linecap:butt;stroke-linejoin:round;}</style>
 </defs>
 <g id="figure_1">
  <g id="patch_1">
   <path d="M 0 720 
L 720 720 
L 720 0 
L 0 0 
z
" style="fill:#ffffff;"/>
  </g>
  <g id="axes_1">
   <g id="patch_2">
    <path d="M 48.98 316.24 
L 351.405 316.24 
L 351.405 35.424 
L 48.98 35.424 
z
" style="fill:#ffffff;"/>
   </g>
   <g id="matplotlib.axis_1">
    <g id="xtick_1">
     <g id="line2d_1">
      <path clip-path="url(#p745d7d6ec5)" d="M 48.98 316.24 
L 48.98 35.424 
" style="fill:none;stroke:#b0b0b0;stroke-linecap:square;stroke-width:0.8;"/>
     </g>
     <g id="line2d_2">
      <defs>
       <path d="M 0 0 
L 0 3.5 
" id="mf40b9bb85e" style="stroke:#000000;stroke-width:0.8;"/>
      </defs>
      <g>
       <use style="stroke:#000000;stroke-width:0.8;" x="48.98" xlink:href="#mf40b9bb85e" y="316.24"/>
      </g>
     </g>
     <g id="text_1">
      <!-- -2 -->
      <g transform="translate(43.994844 330.838438)scale(0.1 -0.1)">
       <defs>
        <path d="M 4.890625 31.390625 
L 31.203125 31.390625 
L 31.203125 23.390625 
L 4.890625 23.390625 
z
" id="DejaVuSans-45"/>
        <path d="M 19.1875 8.296875 
L 53.609375 8.296875 
L 53.609375 0 
L 7.328125 0 
L 7.328125 8.296875 
Q 12.9375 14.109375 22.625 23.890625 
Q 32.328125 33.6875 34.8125 36.53125 
Q 39.546875 41.84375 41.421875 45.53125 
Q 43.3125 49.21875 43.3125 52.78125 
Q 43.3125 58.59375 39.234375 62.25 
Q 35.15625 65.921875 28.609375 65.921875 
Q 23.96875 65.921875 18.8125 64.3125 
Q 13.671875 62.703125 7.8125 59.421875 
L 7.8125 69.390625 
Q 13.765625 71.78125 18.9375 73 
Q 24.125 74.21875 28.421875 74.21875 
Q 39.75 74.21875 46.484375 68.546875 
Q 53.21875 62.890625 53.21875 53.421875 
Q 53.21875 48.921875 51.53125 44.890625 
Q 49.859375 40.875 45.40625 35.40625 
Q 44.1875 33.984375 37.640625 27.21875 
Q 31.109375 20.453125 19.1875 8.296875 
z
" id="DejaVuSans-50"/>
       </defs>
       <use xlink:href="#DejaVuSans-45"/>
       <use x="36.083984" xlink:href="#DejaVuSans-50"/>
      </g>
     </g>
    </g>
    <g id="xtick_2">
     <g id="line2d_3">
      <path clip-path="url(#p745d7d6ec5)" d="M 200.1925 316.24 
L 200.1925 35.424 
" style="fill:none;stroke:#b0b0b0;stroke-linecap:square;stroke-width:0.8;"/>
     </g>
     <g id="line2d_4">
      <g>
       <use style="stroke:#000000;stroke-width:0.8;" x="200.1925" xlink:href="#mf40b9bb85e" y="316.24"/>
      </g>
     </g>
     <g id="text_2">
      <!-- 0 -->
      <g transform="translate(197.01125 330.838438)scale(0.1 -0.1)">
       <defs>
        <path d="M 31.78125 66.40625 
Q 24.171875 66.40625 20.328125 58.90625 
Q 16.5 51.421875 16.5 36.375 
Q 16.5 21.390625 20.328125 13.890625 
Q 24.171875 6.390625 31.78125 6.390625 
Q 39.453125 6.390625 43.28125 13.890625 
Q 47.125 21.390625 47.125 36.375 
Q 47.125 51.421875 43.28125 58.90625 
Q 39.453125 66.40625 31.78125 66.40625 
z
M 31.78125 74.21875 
Q 44.046875 74.21875 50.515625 64.515625 
Q 56.984375 54.828125 56.984375 36.375 
Q 56.984375 17.96875 50.515625 8.265625 
Q 44.046875 -1.421875 31.78125 -1.421875 
Q 19.53125 -1.421875 13.0625 8.265625 
Q 6.59375 17.96875 6.59375 36.375 
Q 6.59375 54.828125 13.0625 64.515625 
Q 19.53125 74.21875 31.78125 74.21875 
z
" id="DejaVuSans-48"/>
       </defs>
       <use xlink:href="#DejaVuSans-48"/>
      </g>
     </g>
    </g>
    <g id="xtick_3">
     <g id="line2d_5">
      <path clip-path="url(#p745d7d6ec5)" d="M 351.405 316.24 
L 351.405 35.424 
" style="fill:none;stroke:#b0b0b0;stroke-linecap:square;stroke-width:0.8;"/>
     </g>
     <g id="line2d_6">
      <g>
       <use style="stroke:#000000;stroke-width:0.8;" x="351.405" xlink:href="#mf40b9bb85e" y="316.24"/>
      </g>
     </g>
     <g id="text_3">
      <!-- 2 -->
      <g transform="translate(348.22375 330.838438)scale(0.1 -0.1)">
       <use xlink:href="#DejaVuSans-50"/>
      </g>
     </g>
    </g>
    <g id="text_4">
     <!-- $x_1$ -->
     <g transform="translate(190.5625 350.595313)scale(0.18 -0.18)">
      <defs>
       <path d="M 60.015625 54.6875 
L 34.90625 27.875 
L 50.296875 0 
L 39.984375 0 
L 28.421875 21.6875 
L 8.296875 0 
L -2.59375 0 
L 24.3125 28.8125 
L 10.015625 54.6875 
L 20.3125 54.6875 
L 30.8125 34.90625 
L 49.125 54.6875 
z
" id="DejaVuSans-Oblique-120"/>
       <path d="M 12.40625 8.296875 
L 28.515625 8.296875 
L 28.515625 63.921875 
L 10.984375 60.40625 
L 10.984375 69.390625 
L 28.421875 72.90625 
L 38.28125 72.90625 
L 38.28125 8.296875 
L 54.390625 8.296875 
L 54.390625 0 
L 12.40625 0 
z
" id="DejaVuSans-49"/>
      </defs>
      <use transform="translate(0 0.3125)" xlink:href="#DejaVuSans-Oblique-120"/>
      <use transform="translate(59.179688 -16.09375)scale(0.7)" xlink:href="#DejaVuSans-49"/>
     </g>
    </g>
   </g>
   <g id="matplotlib.axis_2">
    <g id="ytick_1">
     <g id="line2d_7">
      <path clip-path="url(#p745d7d6ec5)" d="M 48.98 316.24 
L 351.405 316.24 
" style="fill:none;stroke:#b0b0b0;stroke-linecap:square;stroke-width:0.8;"/>
     </g>
     <g id="line2d_8">
      <defs>
       <path d="M 0 0 
L -3.5 0 
" id="ma92dd01309" style="stroke:#000000;stroke-width:0.8;"/>
      </defs>
      <g>
       <use style="stroke:#000000;stroke-width:0.8;" x="48.98" xlink:href="#ma92dd01309" y="316.24"/>
      </g>
     </g>
     <g id="text_5">
      <!-- -2 -->
      <g transform="translate(32.009688 320.039219)scale(0.1 -0.1)">
       <use xlink:href="#DejaVuSans-45"/>
       <use x="36.083984" xlink:href="#DejaVuSans-50"/>
      </g>
     </g>
    </g>
    <g id="ytick_2">
     <g id="line2d_9">
      <path clip-path="url(#p745d7d6ec5)" d="M 48.98 175.832 
L 351.405 175.832 
" style="fill:none;stroke:#b0b0b0;stroke-linecap:square;stroke-width:0.8;"/>
     </g>
     <g id="line2d_10">
      <g>
       <use style="stroke:#000000;stroke-width:0.8;" x="48.98" xlink:href="#ma92dd01309" y="175.832"/>
      </g>
     </g>
     <g id="text_6">
      <!-- 0 -->
      <g transform="translate(35.6175 179.631219)scale(0.1 -0.1)">
       <use xlink:href="#DejaVuSans-48"/>
      </g>
     </g>
    </g>
    <g id="ytick_3">
     <g id="line2d_11">
      <path clip-path="url(#p745d7d6ec5)" d="M 48.98 35.424 
L 351.405 35.424 
" style="fill:none;stroke:#b0b0b0;stroke-linecap:square;stroke-width:0.8;"/>
     </g>
     <g id="line2d_12">
      <g>
       <use style="stroke:#000000;stroke-width:0.8;" x="48.98" xlink:href="#ma92dd01309" y="35.424"/>
      </g>
     </g>
     <g id="text_7">
      <!-- 2 -->
      <g transform="translate(35.6175 39.223219)scale(0.1 -0.1)">
       <use xlink:href="#DejaVuSans-50"/>
      </g>
     </g>
    </g>
    <g id="text_8">
     <!-- $x_2$ -->
     <g transform="translate(24.26625 185.462)rotate(-90)scale(0.18 -0.18)">
      <use transform="translate(0 0.3125)" xlink:href="#DejaVuSans-Oblique-120"/>
      <use transform="translate(59.179688 -16.09375)scale(0.7)" xlink:href="#DejaVuSans-50"/>
     </g>
    </g>
   </g>
   <g id="LineCollection_1"/>
   <g id="LineCollection_2">
    <path clip-path="url(#p745d7d6ec5)" d="M 91.315627 177.23608 
L 91.370292 172.3218 
L 91.681758 167.40752 
L 92.158179 163.19528 
L 92.831625 158.962081 
L 93.692796 154.7708 
L 94.759932 150.55856 
L 96.036914 146.34632 
L 97.529592 142.13408 
L 99.247254 137.92184 
L 101.204237 133.7096 
L 103.4165 129.489606 
L 105.88791 125.28512 
L 108.708937 120.998762 
L 111.205413 117.56268 
L 114.001375 114.046641 
L 117.051383 110.54228 
L 120.400984 107.03208 
L 124.086298 103.52188 
L 127.6105 100.462326 
L 131.738073 97.20352 
L 135.658393 94.39536 
L 139.7075 91.757609 
L 144.243875 89.091083 
L 148.844485 86.67292 
L 153.332148 84.5668 
L 157.853 82.679992 
L 163.145437 80.755169 
L 167.681813 79.334955 
L 172.97425 77.932845 
L 178.266687 76.795448 
L 182.803063 76.021534 
L 188.0955 75.349974 
L 193.387937 74.921073 
L 198.680375 74.734644 
L 203.972813 74.785402 
L 209.26525 75.074614 
L 214.557687 75.607293 
L 219.850125 76.384519 
L 225.142562 77.413835 
L 230.435 78.701255 
L 235.727438 80.259689 
L 241.019875 82.099537 
L 245.55625 83.916688 
L 250.100976 85.97088 
L 254.629 88.265702 
L 259.245196 90.88516 
L 262.945687 93.203257 
L 266.732289 95.79944 
L 270.506312 98.631518 
L 274.286625 101.741782 
L 278.066937 105.16377 
L 281.361927 108.43616 
L 284.8715 112.268808 
L 287.89575 115.909011 
L 290.736478 119.6688 
L 293.608195 123.88104 
L 296.212437 128.152925 
L 298.480625 132.319934 
L 300.512625 136.51776 
L 302.307444 140.73 
L 303.874501 144.94224 
L 305.285188 149.374266 
L 306.359874 153.36672 
L 307.292539 157.57896 
L 308.129573 162.49324 
L 308.703242 167.40752 
L 308.986073 171.61976 
L 309.077333 176.53404 
L 308.913039 181.44832 
L 308.565971 185.66056 
L 307.918071 190.57484 
L 307.151181 194.78708 
L 306.04125 199.5494 
L 305.013183 203.21156 
L 303.629153 207.4238 
L 302.025512 211.63604 
L 300.189993 215.84828 
L 298.110761 220.06052 
L 295.77086 224.27276 
L 293.149936 228.485 
L 290.736478 231.9952 
L 287.89575 235.754989 
L 284.8715 239.395192 
L 281.84725 242.719957 
L 278.552544 246.036 
L 274.720054 249.5462 
L 271.262375 252.433533 
L 267.482062 255.323068 
L 263.685851 257.97068 
L 259.245196 260.77884 
L 255.385063 262.988851 
L 250.848688 265.333212 
L 246.312313 267.42349 
L 241.775937 269.276389 
L 237.239563 270.908831 
L 232.703187 272.329045 
L 227.41075 273.731155 
L 222.118313 274.868552 
L 217.581937 275.642466 
L 212.2895 276.314026 
L 206.997062 276.742927 
L 201.704625 276.929356 
L 196.412187 276.878598 
L 191.11975 276.589386 
L 185.827313 276.056707 
L 180.534875 275.279481 
L 175.242437 274.250165 
L 169.95 272.962745 
L 164.657562 271.404311 
L 159.365125 269.564463 
L 154.82875 267.747312 
L 150.284024 265.69312 
L 145.756 263.398298 
L 141.139804 260.77884 
L 137.439312 258.460743 
L 133.652711 255.86456 
L 129.878687 253.032482 
L 126.098375 249.922218 
L 122.318062 246.50023 
L 119.023073 243.22784 
L 115.5135 239.395192 
L 112.48925 235.754989 
L 109.648522 231.9952 
L 106.776805 227.78296 
L 104.172562 223.511075 
L 101.904375 219.344066 
L 99.872375 215.14624 
L 98.077556 210.934 
L 96.510499 206.72176 
L 95.099812 202.289734 
L 94.025126 198.29728 
L 93.092461 194.08504 
L 92.255427 189.17076 
L 91.681758 184.25648 
L 91.398927 180.04424 
L 91.315627 177.23608 
L 91.315627 177.23608 
" style="fill:none;stroke:#472d7b;stroke-width:1.5;"/>
   </g>
   <g id="LineCollection_3">
    <path clip-path="url(#p745d7d6ec5)" d="M 111.66494 182.8524 
L 111.393216 178.64016 
L 111.354584 174.42792 
L 111.548207 170.21568 
L 111.974675 166.00344 
L 112.638459 161.7912 
L 113.543726 157.57896 
L 114.700261 153.36672 
L 116.115675 149.15448 
L 117.805864 144.94224 
L 119.434614 141.43204 
L 121.562 137.418764 
L 123.351718 134.41164 
L 125.67442 130.90144 
L 128.366562 127.269389 
L 131.17047 123.88104 
L 133.736211 121.07288 
L 136.68325 118.136266 
L 139.7075 115.399346 
L 143.487812 112.317178 
L 147.268125 109.563832 
L 151.159256 107.03208 
L 154.82875 104.894576 
L 158.823337 102.81984 
L 162.389375 101.170203 
L 166.986447 99.30964 
L 171.462125 97.762668 
L 175.9985 96.448389 
L 180.534875 95.374491 
L 185.07125 94.533907 
L 189.607625 93.917553 
L 194.144 93.521557 
L 198.680375 93.341769 
L 203.21675 93.37764 
L 207.753125 93.629949 
L 212.2895 94.098125 
L 216.825875 94.788489 
L 221.36225 95.70659 
L 225.898625 96.858366 
L 230.435 98.256268 
L 234.971375 99.913754 
L 239.50775 101.846585 
L 243.288062 103.685014 
L 247.068375 105.747003 
L 250.848688 108.052586 
L 254.629 110.628902 
L 258.409312 113.508057 
L 261.545602 116.1586 
L 264.564653 118.96676 
L 267.482062 121.957481 
L 270.506312 125.39742 
L 273.18759 128.79532 
L 275.79875 132.498788 
L 278.066937 136.11304 
L 279.871148 139.32592 
L 281.84725 143.311076 
L 283.359375 146.802511 
L 284.770725 150.55856 
L 286.099164 154.7708 
L 287.169432 158.98304 
L 287.994047 163.19528 
L 288.577921 167.40752 
L 288.927295 171.61976 
L 289.043283 175.832 
L 288.927295 180.04424 
L 288.577921 184.25648 
L 287.994047 188.46872 
L 287.139688 192.809986 
L 286.099164 196.8932 
L 284.770725 201.10544 
L 283.359375 204.861489 
L 281.84725 208.352924 
L 280.239221 211.63604 
L 278.066937 215.55096 
L 276.135353 218.65644 
L 273.530562 222.405153 
L 270.99306 225.67684 
L 267.960875 229.18704 
L 265.213875 232.056642 
L 262.189625 234.928798 
L 259.078114 237.61152 
L 255.385063 240.484688 
L 251.437548 243.22784 
L 247.824438 245.476154 
L 244.044125 247.585044 
L 240.091608 249.5462 
L 236.4835 251.137834 
L 231.947125 252.88468 
L 227.41075 254.366905 
L 222.874375 255.600424 
L 218.338 256.594219 
L 213.801625 257.359914 
L 209.26525 257.902068 
L 204.728875 258.226479 
L 200.1925 258.334179 
L 195.656125 258.226479 
L 191.11975 257.902068 
L 186.583375 257.359914 
L 181.908045 256.5666 
L 177.510625 255.600424 
L 172.97425 254.366905 
L 168.437875 252.88468 
L 163.9015 251.137834 
L 159.365125 249.107841 
L 155.584812 247.182321 
L 151.8045 245.025582 
L 147.89296 242.5258 
L 144.243875 239.922239 
L 141.219625 237.539826 
L 138.057037 234.80336 
L 135.109508 231.9952 
L 131.790165 228.485 
L 128.824947 224.9748 
L 126.098375 221.361699 
L 123.796388 217.9544 
L 121.562 214.245236 
L 119.785422 210.934 
L 118.114187 207.4238 
L 116.378048 203.21156 
L 114.917348 198.99932 
L 113.718759 194.78708 
L 112.771993 190.57484 
L 112.068522 186.3626 
L 111.66494 182.8524 
L 111.66494 182.8524 
" style="fill:none;stroke:#3b528b;stroke-width:1.5;"/>
   </g>
   <g id="LineCollection_4">
    <path clip-path="url(#p745d7d6ec5)" d="M 126.069951 184.25648 
L 125.703761 180.74628 
L 125.531513 177.23608 
L 125.550614 173.72588 
L 125.761349 170.21568 
L 126.166255 166.70548 
L 126.854437 162.771155 
L 127.6105 159.5304 
L 128.579784 156.17488 
L 129.878687 152.482573 
L 131.390812 148.877244 
L 132.965066 145.64428 
L 134.927863 142.13408 
L 137.178307 138.62388 
L 139.206776 135.81572 
L 141.975687 132.405807 
L 144.63679 129.49736 
L 147.509918 126.6892 
L 150.733633 123.88104 
L 153.424629 121.77492 
L 156.39753 119.6688 
L 160.121187 117.320324 
L 163.9015 115.23068 
L 167.811784 113.35044 
L 171.462125 111.82909 
L 175.242437 110.476641 
L 179.02275 109.336186 
L 183.559125 108.233485 
L 187.339438 107.526274 
L 191.875812 106.923068 
L 196.412187 106.580271 
L 200.948563 106.495085 
L 205.484938 106.665662 
L 210.021312 107.09511 
L 214.258386 107.73412 
L 217.74852 108.43616 
L 221.36225 109.336186 
L 225.338683 110.54228 
L 229.221444 111.94636 
L 232.703187 113.408129 
L 236.4835 115.23068 
L 240.263813 117.320324 
L 243.98747 119.6688 
L 247.068375 121.855422 
L 250.493718 124.58308 
L 253.6239 127.39124 
L 256.418148 130.1994 
L 259.165375 133.294679 
L 261.705569 136.51776 
L 264.143236 140.02796 
L 266.275407 143.53816 
L 268.238125 147.270175 
L 269.75025 150.604519 
L 271.095147 154.06876 
L 272.234997 157.57896 
L 273.161549 161.08916 
L 273.882653 164.59936 
L 274.404025 168.10956 
L 274.731079 171.61976 
L 274.864942 175.12996 
L 274.80763 178.64016 
L 274.558279 182.15036 
L 274.114753 185.66056 
L 273.47363 189.17076 
L 272.630487 192.68096 
L 271.577482 196.19116 
L 270.304718 199.70136 
L 268.800575 203.21156 
L 267.049439 206.72176 
L 265.030853 210.23196 
L 262.71943 213.74216 
L 260.080954 217.25236 
L 257.65325 220.117993 
L 254.629 223.297981 
L 251.60475 226.121502 
L 248.5805 228.645572 
L 245.012898 231.29316 
L 241.775937 233.426455 
L 237.995625 235.630824 
L 234.099677 237.61152 
L 230.435 239.231582 
L 226.654687 240.672909 
L 222.874375 241.896196 
L 219.094063 242.914633 
L 215.31375 243.736036 
L 210.777375 244.472329 
L 206.241 244.944864 
L 201.704625 245.158278 
L 197.16825 245.115698 
L 192.631875 244.8162 
L 188.0955 244.256812 
L 183.559125 243.430515 
L 179.760391 242.5258 
L 175.9985 241.432448 
L 172.218187 240.123309 
L 168.437875 238.59092 
L 164.657562 236.818201 
L 160.87725 234.783914 
L 157.096937 232.460146 
L 153.424629 229.88908 
L 150.292375 227.41812 
L 147.268125 224.750284 
L 144.243875 221.75691 
L 141.975687 219.258193 
L 139.7075 216.497713 
L 137.178307 213.04012 
L 134.927863 209.52992 
L 132.902938 205.899035 
L 131.264519 202.50952 
L 129.807998 198.99932 
L 128.579784 195.48912 
L 127.569637 191.97892 
L 126.767084 188.46872 
L 126.098375 184.462683 
L 126.069951 184.25648 
L 126.069951 184.25648 
" style="fill:none;stroke:#2c728e;stroke-width:1.5;"/>
   </g>
   <g id="LineCollection_5">
    <path clip-path="url(#p745d7d6ec5)" d="M 138.146817 184.25648 
L 137.710444 180.74628 
L 137.505184 177.23608 
L 137.527945 173.72588 
L 137.77907 170.21568 
L 138.262061 166.70548 
L 138.981653 163.19528 
L 139.946257 159.68508 
L 141.219625 156.045061 
L 142.664494 152.66468 
L 144.243875 149.542144 
L 145.756 146.933642 
L 147.519798 144.2402 
L 149.601201 141.43204 
L 151.961376 138.62388 
L 154.643478 135.81572 
L 157.096937 133.537566 
L 160.121187 131.047107 
L 163.234569 128.79532 
L 166.563735 126.6892 
L 169.95 124.826353 
L 173.426009 123.179 
L 176.896551 121.77492 
L 180.534875 120.541907 
L 184.315188 119.504201 
L 188.0955 118.700467 
L 191.875812 118.121178 
L 195.656125 117.75929 
L 199.436437 117.611169 
L 203.21675 117.674586 
L 206.997062 117.950495 
L 210.777375 118.442308 
L 214.557687 119.15526 
L 218.338 120.097902 
L 222.118313 121.282279 
L 225.898625 122.724411 
L 229.678937 124.446087 
L 232.703187 126.04397 
L 236.090574 128.09328 
L 239.138148 130.1994 
L 241.841082 132.30552 
L 244.800187 134.911734 
L 247.126264 137.2198 
L 249.640846 140.02796 
L 251.857088 142.83612 
L 253.872938 145.738783 
L 255.532597 148.45244 
L 257.386757 151.96264 
L 258.939862 155.47284 
L 260.215378 158.98304 
L 261.230557 162.49324 
L 261.998371 166.00344 
L 262.52803 169.51364 
L 262.82517 173.02384 
L 262.893468 176.53404 
L 262.733948 180.04424 
L 262.344212 183.55444 
L 261.720347 187.06464 
L 260.854765 190.57484 
L 259.737206 194.08504 
L 258.352963 197.59524 
L 256.682759 201.10544 
L 255.12307 203.9136 
L 253.116875 207.057908 
L 251.3288 209.52992 
L 249.041838 212.33808 
L 246.312313 215.280524 
L 243.482943 217.9544 
L 240.974287 220.06052 
L 237.995625 222.286147 
L 234.971375 224.280468 
L 231.314608 226.37888 
L 228.166812 227.941789 
L 224.3865 229.548651 
L 220.606188 230.88542 
L 216.729628 231.9952 
L 213.045562 232.820885 
L 209.26525 233.444369 
L 205.484938 233.849561 
L 201.704625 234.040155 
L 197.924312 234.019021 
L 194.144 233.785839 
L 190.363687 233.337359 
L 186.583375 232.669183 
L 182.803063 231.773503 
L 178.882942 230.59112 
L 175.08951 229.18704 
L 171.462125 227.585885 
L 167.783588 225.67684 
L 164.657562 223.805028 
L 161.633312 221.747141 
L 158.543918 219.35848 
L 155.584812 216.752266 
L 153.258736 214.4442 
L 150.744154 211.63604 
L 148.527912 208.82788 
L 146.512063 205.925217 
L 144.852403 203.21156 
L 142.998243 199.70136 
L 141.445138 196.19116 
L 140.169622 192.68096 
L 139.154443 189.17076 
L 138.386629 185.66056 
L 138.146817 184.25648 
L 138.146817 184.25648 
" style="fill:none;stroke:#21918c;stroke-width:1.5;"/>
   </g>
   <g id="LineCollection_6">
    <path clip-path="url(#p745d7d6ec5)" d="M 148.740922 178.64016 
L 148.657694 175.12996 
L 148.79093 172.3218 
L 149.103378 169.51364 
L 149.598009 166.70548 
L 150.292375 163.855525 
L 151.158716 161.08916 
L 152.243394 158.281 
L 153.548721 155.47284 
L 155.09406 152.66468 
L 156.904928 149.85652 
L 159.016727 147.04836 
L 160.87725 144.886161 
L 163.145437 142.561307 
L 165.413625 140.513209 
L 167.778583 138.62388 
L 170.803138 136.51776 
L 173.730312 134.764152 
L 176.754562 133.209292 
L 179.778812 131.888403 
L 182.803063 130.780632 
L 185.827313 129.870921 
L 189.607625 128.994529 
L 193.387937 128.393319 
L 197.16825 128.056762 
L 200.948563 127.979481 
L 204.728875 128.160057 
L 208.509187 128.601547 
L 212.2895 129.311281 
L 215.721307 130.1994 
L 218.338 131.038491 
L 221.615815 132.30552 
L 224.655526 133.7096 
L 227.41075 135.192149 
L 230.641707 137.2198 
L 233.519644 139.32592 
L 236.023398 141.43204 
L 238.229099 143.53816 
L 240.263813 145.734136 
L 242.532 148.542579 
L 244.42055 151.2606 
L 246.095057 154.06876 
L 247.51759 156.87692 
L 248.710604 159.68508 
L 249.690318 162.49324 
L 250.469527 165.3014 
L 251.057372 168.10956 
L 251.460378 170.91772 
L 251.682933 173.72588 
L 251.71067 177.23608 
L 251.532834 180.04424 
L 251.175215 182.8524 
L 250.63415 185.66056 
L 249.90356 188.46872 
L 248.974871 191.27688 
L 247.824438 194.112665 
L 246.312313 197.193878 
L 244.800187 199.804224 
L 242.981852 202.50952 
L 240.788125 205.31768 
L 238.751688 207.586997 
L 236.4835 209.813584 
L 234.215312 211.780311 
L 231.191062 214.065664 
L 228.166812 216.02657 
L 225.142562 217.708047 
L 222.118313 219.142968 
L 219.094063 220.355026 
L 215.721307 221.4646 
L 212.2895 222.352719 
L 208.509187 223.062453 
L 204.728875 223.503943 
L 200.948563 223.684519 
L 197.16825 223.607238 
L 193.387937 223.270681 
L 189.607625 222.669471 
L 185.827313 221.793079 
L 182.447427 220.76256 
L 179.778812 219.775597 
L 176.754562 218.454708 
L 173.730312 216.899848 
L 170.706062 215.083817 
L 167.681813 212.967453 
L 165.160169 210.934 
L 162.861379 208.82788 
L 160.826018 206.72176 
L 158.457996 203.9136 
L 156.340875 200.978062 
L 154.683827 198.29728 
L 153.200606 195.48912 
L 151.8045 192.309144 
L 150.920307 189.8728 
L 150.091978 187.06464 
L 149.456979 184.25648 
L 149.008342 181.44832 
L 148.740922 178.64016 
L 148.740922 178.64016 
" style="fill:none;stroke:#28ae80;stroke-width:1.5;"/>
   </g>
   <g id="LineCollection_7">
    <path clip-path="url(#p745d7d6ec5)" d="M 160.079538 177.93812 
L 160.022763 175.12996 
L 160.193822 172.3218 
L 160.596475 169.51364 
L 161.236952 166.70548 
L 162.127523 163.89732 
L 163.286236 161.08916 
L 164.739619 158.281 
L 166.169688 155.991413 
L 167.681813 153.913879 
L 169.316128 151.96264 
L 171.462125 149.754494 
L 173.74271 147.7504 
L 175.9985 146.049375 
L 178.825165 144.2402 
L 181.44702 142.83612 
L 184.315188 141.562778 
L 187.339438 140.486858 
L 190.363687 139.659921 
L 193.387937 139.065207 
L 196.412187 138.691325 
L 199.436437 138.532488 
L 202.460688 138.585206 
L 205.484938 138.851304 
L 208.509187 139.333619 
L 211.533437 140.042729 
L 214.557687 140.992524 
L 217.581937 142.201299 
L 220.606188 143.700644 
L 222.874375 145.039799 
L 225.142562 146.592092 
L 227.482083 148.45244 
L 229.744873 150.55856 
L 231.947125 152.978795 
L 233.45925 154.91486 
L 235.231218 157.57896 
L 236.763901 160.38712 
L 237.995625 163.197989 
L 238.949637 166.00344 
L 239.651397 168.8116 
L 240.112263 171.61976 
L 240.340952 174.42792 
L 240.340952 177.23608 
L 240.112263 180.04424 
L 239.651397 182.8524 
L 238.949637 185.66056 
L 237.994597 188.46872 
L 236.763901 191.27688 
L 235.645381 193.383 
L 234.215312 195.672587 
L 232.703187 197.750121 
L 231.068872 199.70136 
L 228.922875 201.909506 
L 226.64229 203.9136 
L 224.3865 205.614625 
L 221.559835 207.4238 
L 218.93798 208.82788 
L 216.069812 210.101222 
L 213.045562 211.177142 
L 210.021312 212.004079 
L 206.997062 212.598793 
L 203.972813 212.972675 
L 200.948563 213.131512 
L 197.924312 213.078794 
L 194.900062 212.812696 
L 191.875812 212.330381 
L 188.851562 211.621271 
L 185.827313 210.671476 
L 182.803063 209.462701 
L 179.778812 207.963356 
L 177.510625 206.624201 
L 175.242437 205.071908 
L 172.902917 203.21156 
L 170.640127 201.10544 
L 168.437875 198.685205 
L 166.92575 196.74914 
L 165.153782 194.08504 
L 163.621099 191.27688 
L 162.389375 188.466011 
L 161.435363 185.66056 
L 160.733603 182.8524 
L 160.272737 180.04424 
L 160.079538 177.93812 
L 160.079538 177.93812 
" style="fill:none;stroke:#5ec962;stroke-width:1.5;"/>
   </g>
   <g id="LineCollection_8">
    <path clip-path="url(#p745d7d6ec5)" d="M 173.641032 180.74628 
L 173.289249 178.64016 
L 173.129731 176.53404 
L 173.161616 174.42792 
L 173.385075 172.3218 
L 173.802866 170.21568 
L 174.486375 167.945874 
L 175.273074 166.00344 
L 176.365641 163.89732 
L 177.736234 161.7912 
L 179.443461 159.68508 
L 181.290937 157.835163 
L 183.317523 156.17488 
L 185.412898 154.7708 
L 187.339438 153.707628 
L 189.68152 152.66468 
L 191.875812 151.907952 
L 194.47865 151.2606 
L 196.412187 150.94003 
L 198.680375 150.732538 
L 200.948563 150.702932 
L 203.21675 150.851052 
L 205.90635 151.2606 
L 207.753125 151.69389 
L 210.021312 152.408909 
L 212.343605 153.36672 
L 214.557687 154.524508 
L 216.825875 155.997664 
L 218.806854 157.57896 
L 220.606188 159.320834 
L 222.122912 161.08916 
L 223.630437 163.24819 
L 224.775124 165.3014 
L 225.700034 167.40752 
L 226.396218 169.51364 
L 226.882688 171.61976 
L 227.170222 173.72588 
L 227.265895 175.832 
L 227.170222 177.93812 
L 226.882688 180.04424 
L 226.396218 182.15036 
L 225.700034 184.25648 
L 224.775124 186.3626 
L 223.597786 188.46872 
L 222.118313 190.580696 
L 220.283681 192.68096 
L 218.338 194.487617 
L 216.825875 195.666336 
L 214.557687 197.139492 
L 212.2895 198.322827 
L 210.021312 199.255091 
L 207.753125 199.97011 
L 205.484938 200.486301 
L 203.21675 200.812948 
L 200.948563 200.961068 
L 198.680375 200.931462 
L 196.412187 200.72397 
L 194.144 200.336031 
L 191.699531 199.70136 
L 189.607625 198.970873 
L 187.339438 197.956372 
L 185.07125 196.683711 
L 182.803063 195.098469 
L 180.810793 193.383 
L 179.02275 191.501219 
L 177.510625 189.555563 
L 176.365641 187.76668 
L 175.242437 185.591945 
L 174.427479 183.55444 
L 173.730312 181.137582 
L 173.641032 180.74628 
L 173.641032 180.74628 
" style="fill:none;stroke:#addc30;stroke-width:1.5;"/>
   </g>
   <g id="LineCollection_9"/>
   <g id="patch_3">
    <path d="M 48.98 316.24 
L 48.98 35.424 
" style="fill:none;stroke:#000000;stroke-linecap:square;stroke-linejoin:miter;stroke-width:0.8;"/>
   </g>
   <g id="patch_4">
    <path d="M 351.405 316.24 
L 351.405 35.424 
" style="fill:none;stroke:#000000;stroke-linecap:square;stroke-linejoin:miter;stroke-width:0.8;"/>
   </g>
   <g id="patch_5">
    <path d="M 48.98 316.24 
L 351.405 316.24 
" style="fill:none;stroke:#000000;stroke-linecap:square;stroke-linejoin:miter;stroke-width:0.8;"/>
   </g>
   <g id="patch_6">
    <path d="M 48.98 35.424 
L 351.405 35.424 
" style="fill:none;stroke:#000000;stroke-linecap:square;stroke-linejoin:miter;stroke-width:0.8;"/>
   </g>
   <g id="text_9">
    <!-- $(\sigma_1^2, \sigma_2^2, \rho) = (0.5, 0.5, 0.0)$ -->
    <g transform="translate(87.2425 29.424)scale(0.18 -0.18)">
     <defs>
      <path d="M 31 75.875 
Q 24.46875 64.65625 21.28125 53.65625 
Q 18.109375 42.671875 18.109375 31.390625 
Q 18.109375 20.125 21.3125 9.0625 
Q 24.515625 -2 31 -13.1875 
L 23.1875 -13.1875 
Q 15.875 -1.703125 12.234375 9.375 
Q 8.59375 20.453125 8.59375 31.390625 
Q 8.59375 42.28125 12.203125 53.3125 
Q 15.828125 64.359375 23.1875 75.875 
z
" id="DejaVuSans-40"/>
      <path d="M 34.671875 47.5625 
Q 27.25 47.5625 22.21875 42.1875 
Q 16.890625 36.578125 15.140625 27.296875 
Q 13.1875 17.484375 16.3125 11.8125 
Q 19.390625 6.203125 26.65625 6.203125 
Q 33.84375 6.203125 39.109375 11.859375 
Q 44.4375 17.53125 46.34375 27.296875 
Q 48.046875 36.234375 45.015625 42.1875 
Q 42.1875 47.5625 34.671875 47.5625 
z
M 36.078125 54.734375 
L 65.921875 54.6875 
L 64.15625 45.703125 
L 54.109375 45.703125 
Q 57.90625 38.09375 55.859375 27.296875 
Q 53.21875 13.875 45.0625 6.25 
Q 36.859375 -1.421875 25.140625 -1.421875 
Q 13.375 -1.421875 8.203125 6.25 
Q 3.03125 13.875 5.671875 27.296875 
Q 8.25 40.765625 16.40625 48.390625 
Q 23.1875 54.734375 36.078125 54.734375 
z
" id="DejaVuSans-Oblique-963"/>
      <path d="M 11.71875 12.40625 
L 22.015625 12.40625 
L 22.015625 4 
L 14.015625 -11.625 
L 7.71875 -11.625 
L 11.71875 4 
z
" id="DejaVuSans-44"/>
      <path d="M 18.796875 44.921875 
Q 22.703125 49.90625 30.953125 54.296875 
Q 34.1875 56 43.0625 56 
Q 53.03125 56 57.71875 48.09375 
Q 62.40625 40.1875 59.90625 27.296875 
Q 57.375 14.40625 49.609375 6.484375 
Q 41.84375 -1.421875 31.890625 -1.421875 
Q 25.875 -1.421875 22.015625 0.984375 
Q 18.171875 3.328125 16.3125 8.203125 
L 10.640625 -20.796875 
L 1.609375 -20.796875 
L 10.890625 26.8125 
Q 13.09375 38.09375 18.796875 44.921875 
z
M 50.59375 27.296875 
Q 52.484375 37.203125 49.515625 42.875 
Q 46.53125 48.484375 39.40625 48.484375 
Q 32.28125 48.484375 27.09375 42.875 
Q 21.921875 37.203125 20.015625 27.296875 
Q 18.0625 17.390625 21.046875 11.71875 
Q 24.03125 6.109375 31.15625 6.109375 
Q 38.28125 6.109375 43.453125 11.71875 
Q 48.640625 17.390625 50.59375 27.296875 
z
" id="DejaVuSans-Oblique-961"/>
      <path d="M 8.015625 75.875 
L 15.828125 75.875 
Q 23.140625 64.359375 26.78125 53.3125 
Q 30.421875 42.28125 30.421875 31.390625 
Q 30.421875 20.453125 26.78125 9.375 
Q 23.140625 -1.703125 15.828125 -13.1875 
L 8.015625 -13.1875 
Q 14.5 -2 17.703125 9.0625 
Q 20.90625 20.125 20.90625 31.390625 
Q 20.90625 42.671875 17.703125 53.65625 
Q 14.5 64.65625 8.015625 75.875 
z
" id="DejaVuSans-41"/>
      <path d="M 10.59375 45.40625 
L 73.1875 45.40625 
L 73.1875 37.203125 
L 10.59375 37.203125 
z
M 10.59375 25.484375 
L 73.1875 25.484375 
L 73.1875 17.1875 
L 10.59375 17.1875 
z
" id="DejaVuSans-61"/>
      <path d="M 10.6875 12.40625 
L 21 12.40625 
L 21 0 
L 10.6875 0 
z
" id="DejaVuSans-46"/>
      <path d="M 10.796875 72.90625 
L 49.515625 72.90625 
L 49.515625 64.59375 
L 19.828125 64.59375 
L 19.828125 46.734375 
Q 21.96875 47.46875 24.109375 47.828125 
Q 26.265625 48.1875 28.421875 48.1875 
Q 40.625 48.1875 47.75 41.5 
Q 54.890625 34.8125 54.890625 23.390625 
Q 54.890625 11.625 47.5625 5.09375 
Q 40.234375 -1.421875 26.90625 -1.421875 
Q 22.3125 -1.421875 17.546875 -0.640625 
Q 12.796875 0.140625 7.71875 1.703125 
L 7.71875 11.625 
Q 12.109375 9.234375 16.796875 8.0625 
Q 21.484375 6.890625 26.703125 6.890625 
Q 35.15625 6.890625 40.078125 11.328125 
Q 45.015625 15.765625 45.015625 23.390625 
Q 45.015625 31 40.078125 35.4375 
Q 35.15625 39.890625 26.703125 39.890625 
Q 22.75 39.890625 18.8125 39.015625 
Q 14.890625 38.140625 10.796875 36.28125 
z
" id="DejaVuSans-53"/>
     </defs>
     <use transform="translate(0 0.765625)" xlink:href="#DejaVuSans-40"/>
     <use transform="translate(39.013672 0.765625)" xlink:href="#DejaVuSans-Oblique-963"/>
     <use transform="translate(106.865286 39.046875)scale(0.7)" xlink:href="#DejaVuSans-50"/>
     <use transform="translate(102.392578 -26.578125)scale(0.7)" xlink:href="#DejaVuSans-49"/>
     <use transform="translate(154.135794 0.765625)" xlink:href="#DejaVuSans-44"/>
     <use transform="translate(205.405326 0.765625)" xlink:href="#DejaVuSans-Oblique-963"/>
     <use transform="translate(273.25694 39.046875)scale(0.7)" xlink:href="#DejaVuSans-50"/>
     <use transform="translate(268.784232 -26.578125)scale(0.7)" xlink:href="#DejaVuSans-50"/>
     <use transform="translate(320.527448 0.765625)" xlink:href="#DejaVuSans-44"/>
     <use transform="translate(371.796979 0.765625)" xlink:href="#DejaVuSans-Oblique-961"/>
     <use transform="translate(435.273542 0.765625)" xlink:href="#DejaVuSans-41"/>
     <use transform="translate(493.769635 0.765625)" xlink:href="#DejaVuSans-61"/>
     <use transform="translate(597.04112 0.765625)" xlink:href="#DejaVuSans-40"/>
     <use transform="translate(636.054792 0.765625)" xlink:href="#DejaVuSans-48"/>
     <use transform="translate(699.677839 0.765625)" xlink:href="#DejaVuSans-46"/>
     <use transform="translate(731.464948 0.765625)" xlink:href="#DejaVuSans-53"/>
     <use transform="translate(795.087995 0.765625)" xlink:href="#DejaVuSans-44"/>
     <use transform="translate(846.357526 0.765625)" xlink:href="#DejaVuSans-48"/>
     <use transform="translate(909.980573 0.765625)" xlink:href="#DejaVuSans-46"/>
     <use transform="translate(941.767682 0.765625)" xlink:href="#DejaVuSans-53"/>
     <use transform="translate(1005.390729 0.765625)" xlink:href="#DejaVuSans-44"/>
     <use transform="translate(1056.66026 0.765625)" xlink:href="#DejaVuSans-48"/>
     <use transform="translate(1120.283307 0.765625)" xlink:href="#DejaVuSans-46"/>
     <use transform="translate(1152.070417 0.765625)" xlink:href="#DejaVuSans-48"/>
     <use transform="translate(1215.693464 0.765625)" xlink:href="#DejaVuSans-41"/>
    </g>
   </g>
  </g>
  <g id="axes_2">
   <g id="patch_7">
    <path d="M 403.58 316.24 
L 706.005 316.24 
L 706.005 35.424 
L 403.58 35.424 
z
" style="fill:#ffffff;"/>
   </g>
   <g id="matplotlib.axis_3">
    <g id="xtick_4">
     <g id="line2d_13">
      <path clip-path="url(#p1b1025661f)" d="M 403.58 316.24 
L 403.58 35.424 
" style="fill:none;stroke:#b0b0b0;stroke-linecap:square;stroke-width:0.8;"/>
     </g>
     <g id="line2d_14">
      <g>
       <use style="stroke:#000000;stroke-width:0.8;" x="403.58" xlink:href="#mf40b9bb85e" y="316.24"/>
      </g>
     </g>
     <g id="text_10">
      <!-- -2 -->
      <g transform="translate(398.594844 330.838438)scale(0.1 -0.1)">
       <use xlink:href="#DejaVuSans-45"/>
       <use x="36.083984" xlink:href="#DejaVuSans-50"/>
      </g>
     </g>
    </g>
    <g id="xtick_5">
     <g id="line2d_15">
      <path clip-path="url(#p1b1025661f)" d="M 554.7925 316.24 
L 554.7925 35.424 
" style="fill:none;stroke:#b0b0b0;stroke-linecap:square;stroke-width:0.8;"/>
     </g>
     <g id="line2d_16">
      <g>
       <use style="stroke:#000000;stroke-width:0.8;" x="554.7925" xlink:href="#mf40b9bb85e" y="316.24"/>
      </g>
     </g>
     <g id="text_11">
      <!-- 0 -->
      <g transform="translate(551.61125 330.838438)scale(0.1 -0.1)">
       <use xlink:href="#DejaVuSans-48"/>
      </g>
     </g>
    </g>
    <g id="xtick_6">
     <g id="line2d_17">
      <path clip-path="url(#p1b1025661f)" d="M 706.005 316.24 
L 706.005 35.424 
" style="fill:none;stroke:#b0b0b0;stroke-linecap:square;stroke-width:0.8;"/>
     </g>
     <g id="line2d_18">
      <g>
       <use style="stroke:#000000;stroke-width:0.8;" x="706.005" xlink:href="#mf40b9bb85e" y="316.24"/>
      </g>
     </g>
     <g id="text_12">
      <!-- 2 -->
      <g transform="translate(702.82375 330.838438)scale(0.1 -0.1)">
       <use xlink:href="#DejaVuSans-50"/>
      </g>
     </g>
    </g>
    <g id="text_13">
     <!-- $x_1$ -->
     <g transform="translate(545.1625 350.595313)scale(0.18 -0.18)">
      <use transform="translate(0 0.3125)" xlink:href="#DejaVuSans-Oblique-120"/>
      <use transform="translate(59.179688 -16.09375)scale(0.7)" xlink:href="#DejaVuSans-49"/>
     </g>
    </g>
   </g>
   <g id="matplotlib.axis_4">
    <g id="ytick_4">
     <g id="line2d_19">
      <path clip-path="url(#p1b1025661f)" d="M 403.58 316.24 
L 706.005 316.24 
" style="fill:none;stroke:#b0b0b0;stroke-linecap:square;stroke-width:0.8;"/>
     </g>
     <g id="line2d_20">
      <g>
       <use style="stroke:#000000;stroke-width:0.8;" x="403.58" xlink:href="#ma92dd01309" y="316.24"/>
      </g>
     </g>
     <g id="text_14">
      <!-- -2 -->
      <g transform="translate(386.609688 320.039219)scale(0.1 -0.1)">
       <use xlink:href="#DejaVuSans-45"/>
       <use x="36.083984" xlink:href="#DejaVuSans-50"/>
      </g>
     </g>
    </g>
    <g id="ytick_5">
     <g id="line2d_21">
      <path clip-path="url(#p1b1025661f)" d="M 403.58 175.832 
L 706.005 175.832 
" style="fill:none;stroke:#b0b0b0;stroke-linecap:square;stroke-width:0.8;"/>
     </g>
     <g id="line2d_22">
      <g>
       <use style="stroke:#000000;stroke-width:0.8;" x="403.58" xlink:href="#ma92dd01309" y="175.832"/>
      </g>
     </g>
     <g id="text_15">
      <!-- 0 -->
      <g transform="translate(390.2175 179.631219)scale(0.1 -0.1)">
       <use xlink:href="#DejaVuSans-48"/>
      </g>
     </g>
    </g>
    <g id="ytick_6">
     <g id="line2d_23">
      <path clip-path="url(#p1b1025661f)" d="M 403.58 35.424 
L 706.005 35.424 
" style="fill:none;stroke:#b0b0b0;stroke-linecap:square;stroke-width:0.8;"/>
     </g>
     <g id="line2d_24">
      <g>
       <use style="stroke:#000000;stroke-width:0.8;" x="403.58" xlink:href="#ma92dd01309" y="35.424"/>
      </g>
     </g>
     <g id="text_16">
      <!-- 2 -->
      <g transform="translate(390.2175 39.223219)scale(0.1 -0.1)">
       <use xlink:href="#DejaVuSans-50"/>
      </g>
     </g>
    </g>
    <g id="text_17">
     <!-- $x_2$ -->
     <g transform="translate(378.86625 185.462)rotate(-90)scale(0.18 -0.18)">
      <use transform="translate(0 0.3125)" xlink:href="#DejaVuSans-Oblique-120"/>
      <use transform="translate(59.179688 -16.09375)scale(0.7)" xlink:href="#DejaVuSans-50"/>
     </g>
    </g>
   </g>
   <g id="LineCollection_10"/>
   <g id="LineCollection_11">
    <path clip-path="url(#p1b1025661f)" d="M 437.602813 152.397821 
L 442.139188 150.355221 
L 447.431625 148.25231 
L 452.858597 146.34632 
L 458.772562 144.500496 
L 465.577125 142.629176 
L 472.381687 140.984532 
L 480.698375 139.240141 
L 488.259 137.874249 
L 495.819625 136.693385 
L 505.648438 135.412719 
L 515.33406 134.41164 
L 523.793937 133.72753 
L 534.378812 133.111321 
L 544.963687 132.752192 
L 554.7925 132.64459 
L 564.621313 132.752192 
L 574.450125 133.07792 
L 584.278937 133.622331 
L 594.25094 134.41164 
L 603.1805 135.325878 
L 611.497187 136.373853 
L 620.569938 137.746653 
L 629.642687 139.388176 
L 637.203313 140.984532 
L 644.007875 142.629176 
L 650.812437 144.500496 
L 656.860937 146.390709 
L 662.153375 148.25231 
L 667.445812 150.355221 
L 671.226125 152.039673 
L 671.226125 152.039673 
" style="fill:none;stroke:#46327e;stroke-width:1.5;"/>
    <path clip-path="url(#p1b1025661f)" d="M 671.226125 199.624327 
L 667.445812 201.308779 
L 662.153375 203.41169 
L 656.726403 205.31768 
L 650.812437 207.163504 
L 644.007875 209.034824 
L 637.203313 210.679468 
L 628.886625 212.423859 
L 621.326 213.789751 
L 613.765375 214.970615 
L 603.936563 216.251281 
L 594.25094 217.25236 
L 585.791063 217.93647 
L 575.206188 218.552679 
L 564.621313 218.911808 
L 554.7925 219.01941 
L 544.963687 218.911808 
L 535.134875 218.58608 
L 525.306063 218.041669 
L 515.33406 217.25236 
L 506.4045 216.338122 
L 498.087813 215.290147 
L 489.015062 213.917347 
L 479.942313 212.275824 
L 472.381687 210.679468 
L 465.577125 209.034824 
L 458.772562 207.163504 
L 452.724063 205.273291 
L 447.431625 203.41169 
L 442.139188 201.308779 
L 437.602813 199.266179 
L 437.602813 199.266179 
" style="fill:none;stroke:#46327e;stroke-width:1.5;"/>
   </g>
   <g id="LineCollection_12">
    <path clip-path="url(#p1b1025661f)" d="M 444.315919 179.3422 
L 443.94353 177.93812 
L 443.758449 176.53404 
L 443.758449 175.12996 
L 443.94353 173.72588 
L 444.407375 172.071817 
L 444.875709 170.91772 
L 445.9195 169.056393 
L 446.675563 167.979432 
L 448.187688 166.201276 
L 449.699813 164.721396 
L 451.51191 163.19528 
L 454.236188 161.243569 
L 456.750753 159.68508 
L 460.284688 157.780256 
L 464.065 156.008601 
L 468.601375 154.155583 
L 473.13775 152.533453 
L 478.430187 150.872778 
L 484.478687 149.224848 
L 490.744824 147.7504 
L 497.33175 146.416247 
L 504.892375 145.122047 
L 513.209063 143.95676 
L 521.52575 143.034768 
L 529.842437 142.334949 
L 538.915188 141.808836 
L 547.987938 141.521644 
L 557.060687 141.464892 
L 566.133438 141.635832 
L 575.206188 142.042761 
L 584.278937 142.690376 
L 592.83705 143.53816 
L 600.15625 144.454936 
L 607.906122 145.64428 
L 614.521438 146.85166 
L 621.326 148.308816 
L 628.130562 150.018585 
L 633.423 151.557008 
L 638.848986 153.36672 
L 643.251813 155.049674 
L 647.438252 156.87692 
L 650.812437 158.561993 
L 654.007808 160.38712 
L 656.860937 162.287435 
L 658.941026 163.89732 
L 660.64125 165.431918 
L 662.463055 167.40752 
L 663.6655 169.056393 
L 664.421563 170.344307 
L 665.177625 172.071817 
L 665.478916 173.02384 
L 665.757232 174.42792 
L 665.849634 175.832 
L 665.757232 177.23608 
L 665.478916 178.64016 
L 665.012881 180.04424 
L 664.357131 181.44832 
L 663.508931 182.8524 
L 662.153375 184.620108 
L 660.64125 186.232082 
L 658.941026 187.76668 
L 656.860937 189.376565 
L 654.007808 191.27688 
L 650.812437 193.102007 
L 647.438252 194.78708 
L 643.251813 196.614326 
L 638.715438 198.345027 
L 633.423 200.106992 
L 627.3745 201.848963 
L 621.326 203.355184 
L 614.521438 204.81234 
L 607.716875 206.051931 
L 600.15625 207.209064 
L 591.839563 208.238045 
L 583.522875 209.037602 
L 575.206188 209.621239 
L 566.8895 210.003466 
L 557.81675 210.1936 
L 548.744 210.155776 
L 539.67125 209.888162 
L 530.5985 209.381795 
L 522.281813 208.701307 
L 513.965125 207.800816 
L 506.074509 206.72176 
L 498.843875 205.526518 
L 491.28325 204.031311 
L 484.478687 202.439152 
L 478.430187 200.791222 
L 472.749209 198.99932 
L 467.845313 197.21707 
L 463.308938 195.319556 
L 459.302818 193.383 
L 455.748312 191.380469 
L 453.422986 189.8728 
L 450.643974 187.76668 
L 448.94375 186.232082 
L 447.121945 184.25648 
L 445.9195 182.607607 
L 445.163437 181.319693 
L 444.407375 179.592183 
L 444.315919 179.3422 
L 444.315919 179.3422 
" style="fill:none;stroke:#365c8d;stroke-width:1.5;"/>
   </g>
   <g id="LineCollection_13">
    <path clip-path="url(#p1b1025661f)" d="M 464.707115 177.93812 
L 464.478744 176.53404 
L 464.478744 175.12996 
L 464.707115 173.72588 
L 465.164944 172.3218 
L 465.856464 170.91772 
L 467.08925 169.13175 
L 467.964133 168.10956 
L 469.398132 166.70548 
L 471.625625 164.915522 
L 473.893813 163.388355 
L 476.162 162.065948 
L 479.18625 160.527733 
L 482.693227 158.98304 
L 486.746875 157.439407 
L 491.28325 155.945767 
L 496.575688 154.449967 
L 502.624188 153.002869 
L 508.672688 151.787626 
L 515.47725 150.656135 
L 523.037875 149.653285 
L 530.5985 148.890137 
L 538.159125 148.347192 
L 545.71975 148.009986 
L 554.036438 147.870053 
L 562.353125 147.966811 
L 570.669813 148.304193 
L 578.230437 148.826116 
L 585.791063 149.566469 
L 593.351688 150.544617 
L 600.15625 151.650102 
L 606.20475 152.839167 
L 612.25325 154.254875 
L 617.545687 155.717143 
L 622.082063 157.175156 
L 626.618438 158.872351 
L 630.102708 160.38712 
L 633.423 162.065948 
L 636.44725 163.868513 
L 638.483169 165.3014 
L 640.227562 166.743267 
L 641.739688 168.243389 
L 642.798108 169.51364 
L 643.728536 170.91772 
L 644.420056 172.3218 
L 644.877885 173.72588 
L 645.106256 175.12996 
L 645.106256 176.53404 
L 644.877885 177.93812 
L 644.420056 179.3422 
L 643.728536 180.74628 
L 642.49575 182.53225 
L 641.620867 183.55444 
L 640.186868 184.95852 
L 637.959375 186.748478 
L 635.691188 188.275645 
L 633.423 189.598052 
L 630.39875 191.136267 
L 626.891773 192.68096 
L 622.838125 194.224593 
L 618.30175 195.718233 
L 613.009312 197.214033 
L 606.960812 198.661131 
L 600.912312 199.876374 
L 594.10775 201.007865 
L 586.547125 202.010715 
L 578.9865 202.773863 
L 571.425875 203.316808 
L 563.86525 203.654014 
L 555.548563 203.793947 
L 547.231875 203.697189 
L 538.915188 203.359807 
L 531.354563 202.837884 
L 523.793937 202.097531 
L 516.233313 201.119383 
L 509.42875 200.013898 
L 503.38025 198.824833 
L 497.33175 197.409125 
L 492.039312 195.946857 
L 487.502938 194.488844 
L 482.966563 192.791649 
L 479.482292 191.27688 
L 476.162 189.598052 
L 473.13775 187.795487 
L 471.101831 186.3626 
L 469.357438 184.920733 
L 467.845313 183.420611 
L 466.786892 182.15036 
L 465.856464 180.74628 
L 465.164944 179.3422 
L 464.707115 177.93812 
L 464.707115 177.93812 
" style="fill:none;stroke:#277f8e;stroke-width:1.5;"/>
   </g>
   <g id="LineCollection_14">
    <path clip-path="url(#p1b1025661f)" d="M 482.813356 177.23608 
L 482.670544 175.832 
L 482.813356 174.42792 
L 483.243502 173.02384 
L 483.966211 171.61976 
L 484.99057 170.21568 
L 486.33014 168.8116 
L 488.259 167.220889 
L 490.527188 165.704864 
L 492.795375 164.429194 
L 495.819625 162.984064 
L 499.599938 161.46495 
L 503.38025 160.178259 
L 507.916625 158.867981 
L 513.274496 157.57896 
L 519.257563 156.4074 
L 525.306063 155.460043 
L 532.110625 154.641917 
L 538.915188 154.056764 
L 545.71975 153.686467 
L 552.524313 153.52016 
L 560.084938 153.569306 
L 566.8895 153.825391 
L 573.694062 154.289536 
L 580.498625 154.975509 
L 586.547125 155.78985 
L 592.88463 156.87692 
L 598.644125 158.110289 
L 603.1805 159.280527 
L 607.716875 160.66913 
L 611.497187 162.040563 
L 614.521438 163.322426 
L 617.545687 164.833319 
L 619.813875 166.177226 
L 622.082063 167.804893 
L 623.594187 169.1452 
L 624.59443 170.21568 
L 625.618789 171.61976 
L 626.341498 173.02384 
L 626.771644 174.42792 
L 626.914456 175.832 
L 626.771644 177.23608 
L 626.341498 178.64016 
L 625.618789 180.04424 
L 624.59443 181.44832 
L 623.25486 182.8524 
L 621.326 184.443111 
L 619.057812 185.959136 
L 616.789625 187.234806 
L 613.765375 188.679936 
L 609.985063 190.19905 
L 606.20475 191.485741 
L 601.668375 192.796019 
L 596.310504 194.08504 
L 590.327437 195.2566 
L 584.278937 196.203957 
L 577.474375 197.022083 
L 570.669813 197.607236 
L 563.86525 197.977533 
L 557.060687 198.14384 
L 549.500063 198.094694 
L 542.6955 197.838609 
L 535.890938 197.374464 
L 529.086375 196.688491 
L 523.037875 195.87415 
L 516.70037 194.78708 
L 510.940875 193.553711 
L 506.4045 192.383473 
L 501.868125 190.99487 
L 498.087813 189.623437 
L 495.063562 188.341574 
L 492.039312 186.830681 
L 489.771125 185.486774 
L 487.502938 183.859107 
L 485.990813 182.5188 
L 484.99057 181.44832 
L 483.966211 180.04424 
L 483.243502 178.64016 
L 482.813356 177.23608 
L 482.813356 177.23608 
" style="fill:none;stroke:#1fa187;stroke-width:1.5;"/>
   </g>
   <g id="LineCollection_15">
    <path clip-path="url(#p1b1025661f)" d="M 501.08045 177.23608 
L 500.889609 175.832 
L 501.08045 174.42792 
L 501.658642 173.02384 
L 502.635423 171.61976 
L 504.136313 170.132977 
L 505.894258 168.8116 
L 508.266621 167.40752 
L 511.236436 166.00344 
L 514.937069 164.59936 
L 519.257563 163.288273 
L 523.037875 162.352225 
L 528.330312 161.298914 
L 533.62275 160.489654 
L 538.915188 159.889797 
L 544.963687 159.429317 
L 551.012187 159.190508 
L 557.060687 159.164091 
L 563.109188 159.349501 
L 569.157688 159.752073 
L 575.206188 160.390788 
L 580.498625 161.168425 
L 585.791063 162.185626 
L 590.327437 163.288273 
L 594.647931 164.59936 
L 598.348564 166.00344 
L 601.318379 167.40752 
L 603.690742 168.8116 
L 605.549579 170.21568 
L 606.960812 171.634212 
L 607.926358 173.02384 
L 608.50455 174.42792 
L 608.695391 175.832 
L 608.50455 177.23608 
L 607.926358 178.64016 
L 606.949577 180.04424 
L 605.448688 181.531023 
L 603.690742 182.8524 
L 601.318379 184.25648 
L 598.348564 185.66056 
L 594.647931 187.06464 
L 590.327437 188.375727 
L 586.547125 189.311775 
L 581.254688 190.365086 
L 575.96225 191.174346 
L 570.669813 191.774203 
L 564.621313 192.234683 
L 558.572813 192.473492 
L 552.524313 192.499909 
L 546.475812 192.314499 
L 540.427312 191.911927 
L 534.378812 191.273212 
L 529.086375 190.495575 
L 523.793937 189.478374 
L 519.257563 188.375727 
L 514.937069 187.06464 
L 511.236436 185.66056 
L 508.266621 184.25648 
L 505.894258 182.8524 
L 504.035421 181.44832 
L 502.624188 180.029788 
L 501.658642 178.64016 
L 501.08045 177.23608 
L 501.08045 177.23608 
" style="fill:none;stroke:#4ac16d;stroke-width:1.5;"/>
   </g>
   <g id="LineCollection_16">
    <path clip-path="url(#p1b1025661f)" d="M 523.027458 177.23608 
L 522.786925 176.53404 
L 522.706828 175.832 
L 522.786925 175.12996 
L 523.037875 174.409669 
L 523.793937 173.289118 
L 524.55 172.528024 
L 525.306063 171.930107 
L 526.818188 170.970553 
L 528.330312 170.214904 
L 531.354563 169.05648 
L 534.378812 168.171782 
L 537.403063 167.487934 
L 541.183375 166.841555 
L 544.963687 166.383132 
L 549.500063 166.037403 
L 554.036438 165.905545 
L 558.572813 165.970483 
L 563.109188 166.244564 
L 567.645562 166.732871 
L 572.181938 167.487934 
L 575.96225 168.37551 
L 578.9865 169.315209 
L 581.256485 170.21568 
L 583.522875 171.420274 
L 584.807272 172.3218 
L 585.791063 173.289118 
L 586.14829 173.72588 
L 586.557542 174.42792 
L 586.798075 175.12996 
L 586.878172 175.832 
L 586.798075 176.53404 
L 586.547125 177.254331 
L 585.791063 178.374882 
L 585.035 179.135976 
L 584.278937 179.733893 
L 582.766813 180.693447 
L 581.254688 181.449096 
L 578.230437 182.60752 
L 575.206188 183.492218 
L 572.181938 184.176066 
L 568.401625 184.822445 
L 564.621313 185.280868 
L 560.084938 185.626597 
L 555.548563 185.758455 
L 551.012187 185.693517 
L 546.475812 185.419436 
L 541.939438 184.931129 
L 537.403063 184.176066 
L 533.62275 183.28849 
L 530.5985 182.348791 
L 528.328515 181.44832 
L 526.062125 180.243726 
L 524.777728 179.3422 
L 523.793937 178.374882 
L 523.43671 177.93812 
L 523.027458 177.23608 
L 523.027458 177.23608 
" style="fill:none;stroke:#a0da39;stroke-width:1.5;"/>
   </g>
   <g id="LineCollection_17"/>
   <g id="patch_8">
    <path d="M 403.58 316.24 
L 403.58 35.424 
" style="fill:none;stroke:#000000;stroke-linecap:square;stroke-linejoin:miter;stroke-width:0.8;"/>
   </g>
   <g id="patch_9">
    <path d="M 706.005 316.24 
L 706.005 35.424 
" style="fill:none;stroke:#000000;stroke-linecap:square;stroke-linejoin:miter;stroke-width:0.8;"/>
   </g>
   <g id="patch_10">
    <path d="M 403.58 316.24 
L 706.005 316.24 
" style="fill:none;stroke:#000000;stroke-linecap:square;stroke-linejoin:miter;stroke-width:0.8;"/>
   </g>
   <g id="patch_11">
    <path d="M 403.58 35.424 
L 706.005 35.424 
" style="fill:none;stroke:#000000;stroke-linecap:square;stroke-linejoin:miter;stroke-width:0.8;"/>
   </g>
   <g id="text_18">
    <!-- $(\sigma_1^2, \sigma_2^2, \rho) = (0.9, 0.1, 0.0)$ -->
    <g transform="translate(441.8425 29.424)scale(0.18 -0.18)">
     <defs>
      <path d="M 10.984375 1.515625 
L 10.984375 10.5 
Q 14.703125 8.734375 18.5 7.8125 
Q 22.3125 6.890625 25.984375 6.890625 
Q 35.75 6.890625 40.890625 13.453125 
Q 46.046875 20.015625 46.78125 33.40625 
Q 43.953125 29.203125 39.59375 26.953125 
Q 35.25 24.703125 29.984375 24.703125 
Q 19.046875 24.703125 12.671875 31.3125 
Q 6.296875 37.9375 6.296875 49.421875 
Q 6.296875 60.640625 12.9375 67.421875 
Q 19.578125 74.21875 30.609375 74.21875 
Q 43.265625 74.21875 49.921875 64.515625 
Q 56.59375 54.828125 56.59375 36.375 
Q 56.59375 19.140625 48.40625 8.859375 
Q 40.234375 -1.421875 26.421875 -1.421875 
Q 22.703125 -1.421875 18.890625 -0.6875 
Q 15.09375 0.046875 10.984375 1.515625 
z
M 30.609375 32.421875 
Q 37.25 32.421875 41.125 36.953125 
Q 45.015625 41.5 45.015625 49.421875 
Q 45.015625 57.28125 41.125 61.84375 
Q 37.25 66.40625 30.609375 66.40625 
Q 23.96875 66.40625 20.09375 61.84375 
Q 16.21875 57.28125 16.21875 49.421875 
Q 16.21875 41.5 20.09375 36.953125 
Q 23.96875 32.421875 30.609375 32.421875 
z
" id="DejaVuSans-57"/>
     </defs>
     <use transform="translate(0 0.765625)" xlink:href="#DejaVuSans-40"/>
     <use transform="translate(39.013672 0.765625)" xlink:href="#DejaVuSans-Oblique-963"/>
     <use transform="translate(106.865286 39.046875)scale(0.7)" xlink:href="#DejaVuSans-50"/>
     <use transform="translate(102.392578 -26.578125)scale(0.7)" xlink:href="#DejaVuSans-49"/>
     <use transform="translate(154.135794 0.765625)" xlink:href="#DejaVuSans-44"/>
     <use transform="translate(205.405326 0.765625)" xlink:href="#DejaVuSans-Oblique-963"/>
     <use transform="translate(273.25694 39.046875)scale(0.7)" xlink:href="#DejaVuSans-50"/>
     <use transform="translate(268.784232 -26.578125)scale(0.7)" xlink:href="#DejaVuSans-50"/>
     <use transform="translate(320.527448 0.765625)" xlink:href="#DejaVuSans-44"/>
     <use transform="translate(371.796979 0.765625)" xlink:href="#DejaVuSans-Oblique-961"/>
     <use transform="translate(435.273542 0.765625)" xlink:href="#DejaVuSans-41"/>
     <use transform="translate(493.769635 0.765625)" xlink:href="#DejaVuSans-61"/>
     <use transform="translate(597.04112 0.765625)" xlink:href="#DejaVuSans-40"/>
     <use transform="translate(636.054792 0.765625)" xlink:href="#DejaVuSans-48"/>
     <use transform="translate(699.677839 0.765625)" xlink:href="#DejaVuSans-46"/>
     <use transform="translate(731.464948 0.765625)" xlink:href="#DejaVuSans-57"/>
     <use transform="translate(795.087995 0.765625)" xlink:href="#DejaVuSans-44"/>
     <use transform="translate(846.357526 0.765625)" xlink:href="#DejaVuSans-48"/>
     <use transform="translate(909.980573 0.765625)" xlink:href="#DejaVuSans-46"/>
     <use transform="translate(941.767682 0.765625)" xlink:href="#DejaVuSans-49"/>
     <use transform="translate(1005.390729 0.765625)" xlink:href="#DejaVuSans-44"/>
     <use transform="translate(1056.66026 0.765625)" xlink:href="#DejaVuSans-48"/>
     <use transform="translate(1120.283307 0.765625)" xlink:href="#DejaVuSans-46"/>
     <use transform="translate(1152.070417 0.765625)" xlink:href="#DejaVuSans-48"/>
     <use transform="translate(1215.693464 0.765625)" xlink:href="#DejaVuSans-41"/>
    </g>
   </g>
  </g>
  <g id="axes_3">
   <g id="patch_12">
    <path d="M 48.98 670.84 
L 351.405 670.84 
L 351.405 390.024 
L 48.98 390.024 
z
" style="fill:#ffffff;"/>
   </g>
   <g id="matplotlib.axis_5">
    <g id="xtick_7">
     <g id="line2d_25">
      <path clip-path="url(#pb45d3b45db)" d="M 48.98 670.84 
L 48.98 390.024 
" style="fill:none;stroke:#b0b0b0;stroke-linecap:square;stroke-width:0.8;"/>
     </g>
     <g id="line2d_26">
      <g>
       <use style="stroke:#000000;stroke-width:0.8;" x="48.98" xlink:href="#mf40b9bb85e" y="670.84"/>
      </g>
     </g>
     <g id="text_19">
      <!-- -2 -->
      <g transform="translate(43.994844 685.438437)scale(0.1 -0.1)">
       <use xlink:href="#DejaVuSans-45"/>
       <use x="36.083984" xlink:href="#DejaVuSans-50"/>
      </g>
     </g>
    </g>
    <g id="xtick_8">
     <g id="line2d_27">
      <path clip-path="url(#pb45d3b45db)" d="M 200.1925 670.84 
L 200.1925 390.024 
" style="fill:none;stroke:#b0b0b0;stroke-linecap:square;stroke-width:0.8;"/>
     </g>
     <g id="line2d_28">
      <g>
       <use style="stroke:#000000;stroke-width:0.8;" x="200.1925" xlink:href="#mf40b9bb85e" y="670.84"/>
      </g>
     </g>
     <g id="text_20">
      <!-- 0 -->
      <g transform="translate(197.01125 685.438437)scale(0.1 -0.1)">
       <use xlink:href="#DejaVuSans-48"/>
      </g>
     </g>
    </g>
    <g id="xtick_9">
     <g id="line2d_29">
      <path clip-path="url(#pb45d3b45db)" d="M 351.405 670.84 
L 351.405 390.024 
" style="fill:none;stroke:#b0b0b0;stroke-linecap:square;stroke-width:0.8;"/>
     </g>
     <g id="line2d_30">
      <g>
       <use style="stroke:#000000;stroke-width:0.8;" x="351.405" xlink:href="#mf40b9bb85e" y="670.84"/>
      </g>
     </g>
     <g id="text_21">
      <!-- 2 -->
      <g transform="translate(348.22375 685.438437)scale(0.1 -0.1)">
       <use xlink:href="#DejaVuSans-50"/>
      </g>
     </g>
    </g>
    <g id="text_22">
     <!-- $x_1$ -->
     <g transform="translate(190.5625 705.195312)scale(0.18 -0.18)">
      <use transform="translate(0 0.3125)" xlink:href="#DejaVuSans-Oblique-120"/>
      <use transform="translate(59.179688 -16.09375)scale(0.7)" xlink:href="#DejaVuSans-49"/>
     </g>
    </g>
   </g>
   <g id="matplotlib.axis_6">
    <g id="ytick_7">
     <g id="line2d_31">
      <path clip-path="url(#pb45d3b45db)" d="M 48.98 670.84 
L 351.405 670.84 
" style="fill:none;stroke:#b0b0b0;stroke-linecap:square;stroke-width:0.8;"/>
     </g>
     <g id="line2d_32">
      <g>
       <use style="stroke:#000000;stroke-width:0.8;" x="48.98" xlink:href="#ma92dd01309" y="670.84"/>
      </g>
     </g>
     <g id="text_23">
      <!-- -2 -->
      <g transform="translate(32.009688 674.639219)scale(0.1 -0.1)">
       <use xlink:href="#DejaVuSans-45"/>
       <use x="36.083984" xlink:href="#DejaVuSans-50"/>
      </g>
     </g>
    </g>
    <g id="ytick_8">
     <g id="line2d_33">
      <path clip-path="url(#pb45d3b45db)" d="M 48.98 530.432 
L 351.405 530.432 
" style="fill:none;stroke:#b0b0b0;stroke-linecap:square;stroke-width:0.8;"/>
     </g>
     <g id="line2d_34">
      <g>
       <use style="stroke:#000000;stroke-width:0.8;" x="48.98" xlink:href="#ma92dd01309" y="530.432"/>
      </g>
     </g>
     <g id="text_24">
      <!-- 0 -->
      <g transform="translate(35.6175 534.231219)scale(0.1 -0.1)">
       <use xlink:href="#DejaVuSans-48"/>
      </g>
     </g>
    </g>
    <g id="ytick_9">
     <g id="line2d_35">
      <path clip-path="url(#pb45d3b45db)" d="M 48.98 390.024 
L 351.405 390.024 
" style="fill:none;stroke:#b0b0b0;stroke-linecap:square;stroke-width:0.8;"/>
     </g>
     <g id="line2d_36">
      <g>
       <use style="stroke:#000000;stroke-width:0.8;" x="48.98" xlink:href="#ma92dd01309" y="390.024"/>
      </g>
     </g>
     <g id="text_25">
      <!-- 2 -->
      <g transform="translate(35.6175 393.823219)scale(0.1 -0.1)">
       <use xlink:href="#DejaVuSans-50"/>
      </g>
     </g>
    </g>
    <g id="text_26">
     <!-- $x_2$ -->
     <g transform="translate(24.26625 540.062)rotate(-90)scale(0.18 -0.18)">
      <use transform="translate(0 0.3125)" xlink:href="#DejaVuSans-Oblique-120"/>
      <use transform="translate(59.179688 -16.09375)scale(0.7)" xlink:href="#DejaVuSans-50"/>
     </g>
    </g>
   </g>
   <g id="LineCollection_18"/>
   <g id="LineCollection_19">
    <path clip-path="url(#pb45d3b45db)" d="M 174.955043 639.2482 
L 172.755264 635.03596 
L 170.706062 630.615106 
L 168.757073 625.90944 
L 166.691067 620.29312 
L 164.860187 614.6768 
L 162.849229 607.6564 
L 161.10408 600.636 
L 159.451117 592.91356 
L 157.926925 584.48908 
L 156.662925 576.0646 
L 155.644328 567.64012 
L 154.791 558.5136 
L 154.221873 550.08912 
L 153.836309 540.9626 
L 153.684517 531.83608 
L 153.764645 522.70956 
L 154.080881 513.58304 
L 154.575951 505.15856 
L 155.352153 496.03204 
L 156.340875 487.288257 
L 157.368668 479.88512 
L 158.655005 472.16268 
L 160.02248 465.14228 
L 161.773592 457.41984 
L 163.422767 451.10148 
L 165.298615 444.78312 
L 167.436014 438.46476 
L 169.602043 432.84844 
L 171.749061 427.93416 
L 173.821641 423.72192 
L 174.569336 422.31784 
L 174.569336 422.31784 
" style="fill:none;stroke:#46327e;stroke-width:1.5;"/>
    <path clip-path="url(#pb45d3b45db)" d="M 225.815664 422.31784 
L 227.629736 425.82804 
L 229.678937 430.248894 
L 231.627927 434.95456 
L 233.693933 440.57088 
L 235.524813 446.1872 
L 237.535771 453.2076 
L 239.28092 460.228 
L 240.933883 467.95044 
L 242.458075 476.37492 
L 243.722075 484.7994 
L 244.740672 493.22388 
L 245.594 502.3504 
L 246.163127 510.77488 
L 246.548691 519.9014 
L 246.700483 529.02792 
L 246.620355 538.15444 
L 246.304119 547.28096 
L 245.809049 555.70544 
L 245.032847 564.83196 
L 244.044125 573.575743 
L 243.016332 580.97888 
L 241.729995 588.70132 
L 240.36252 595.72172 
L 238.611408 603.44416 
L 236.962233 609.76252 
L 235.086385 616.08088 
L 232.948986 622.39924 
L 230.782957 628.01556 
L 228.635939 632.92984 
L 226.563359 637.14208 
L 225.429957 639.2482 
L 225.429957 639.2482 
" style="fill:none;stroke:#46327e;stroke-width:1.5;"/>
   </g>
   <g id="LineCollection_20">
    <path clip-path="url(#pb45d3b45db)" d="M 163.851725 550.08912 
L 163.419884 542.36668 
L 163.203709 534.64424 
L 163.194378 526.9218 
L 163.391514 519.19936 
L 163.803154 511.47692 
L 164.431702 503.75448 
L 165.292786 496.03204 
L 166.400947 488.3096 
L 167.647123 481.2892 
L 169.145241 474.2688 
L 170.742278 467.95044 
L 172.392723 462.33412 
L 174.04953 457.41984 
L 175.9985 452.381554 
L 177.810959 448.29332 
L 179.778812 444.406012 
L 181.593554 441.27292 
L 183.559125 438.305866 
L 185.60567 435.6566 
L 187.339438 433.725139 
L 188.992124 432.1464 
L 191.11975 430.454768 
L 192.895505 429.33824 
L 194.282525 428.6362 
L 196.142968 427.93416 
L 197.16825 427.654397 
L 198.680375 427.395967 
L 200.1925 427.310168 
L 201.704625 427.395967 
L 203.21675 427.654397 
L 204.728875 428.087133 
L 206.241 428.696028 
L 207.753125 429.483622 
L 209.656859 430.74232 
L 211.392876 432.1464 
L 213.045562 433.725139 
L 214.77933 435.6566 
L 216.825875 438.305866 
L 218.791446 441.27292 
L 220.606188 444.406012 
L 222.574041 448.29332 
L 224.437921 452.50556 
L 226.33547 457.41984 
L 228.166812 462.892998 
L 229.678937 468.08401 
L 231.191062 474.062379 
L 232.460801 479.88512 
L 233.754138 486.90552 
L 234.815606 493.92592 
L 235.74028 501.64836 
L 236.378836 508.66876 
L 236.903039 517.09324 
L 237.157516 524.81568 
L 237.204183 532.53812 
L 237.044933 540.26056 
L 236.673284 547.983 
L 236.084906 555.70544 
L 235.267486 563.42788 
L 234.215312 571.072338 
L 233.138054 577.46868 
L 231.871818 583.78704 
L 230.384045 590.1054 
L 228.847092 595.72172 
L 227.072353 601.33804 
L 225.283887 606.25232 
L 223.536934 610.46456 
L 221.541324 614.6768 
L 219.633339 618.187 
L 217.581937 621.468426 
L 215.903522 623.80332 
L 213.801625 626.332941 
L 212.158073 628.01556 
L 210.021312 629.853059 
L 208.509187 630.917784 
L 206.997062 631.797197 
L 205.484938 632.494969 
L 203.972813 633.014761 
L 202.460688 633.360542 
L 200.948563 633.532398 
L 199.436437 633.532398 
L 197.924312 633.360542 
L 196.142968 632.92984 
L 194.900062 632.494969 
L 192.895505 631.52576 
L 191.735671 630.82372 
L 189.820685 629.41964 
L 188.226927 628.01556 
L 186.583375 626.332941 
L 184.481478 623.80332 
L 182.803063 621.468426 
L 180.751661 618.187 
L 179.02275 615.028091 
L 177.161833 611.1666 
L 175.242437 606.613099 
L 173.553772 602.04008 
L 171.957162 597.1258 
L 170.364012 591.50948 
L 168.822422 585.19112 
L 167.51076 578.87276 
L 166.289942 571.85236 
L 165.204003 564.12992 
L 164.431702 557.10952 
L 163.851725 550.08912 
L 163.851725 550.08912 
" style="fill:none;stroke:#365c8d;stroke-width:1.5;"/>
   </g>
   <g id="LineCollection_21">
    <path clip-path="url(#pb45d3b45db)" d="M 170.692166 547.28096 
L 170.284659 540.26056 
L 170.094612 533.24016 
L 170.115634 526.21976 
L 170.348432 519.19936 
L 170.799585 512.17896 
L 171.477721 505.15856 
L 172.295373 498.8402 
L 173.328447 492.52184 
L 174.604041 486.20348 
L 175.9985 480.484611 
L 177.510625 475.252629 
L 179.027545 470.7586 
L 180.677002 466.54636 
L 182.263565 463.03616 
L 184.102913 459.52596 
L 185.827313 456.705025 
L 187.857876 453.90964 
L 189.048016 452.50556 
L 190.404382 451.10148 
L 192.01994 449.6974 
L 193.387937 448.714606 
L 194.900062 447.85066 
L 196.412187 447.208551 
L 197.924312 446.783434 
L 199.436437 446.571381 
L 200.948563 446.571381 
L 202.460688 446.783434 
L 203.972813 447.208551 
L 205.484938 447.85066 
L 207.408339 448.99536 
L 208.509187 449.80773 
L 210.021312 451.139267 
L 211.94901 453.2076 
L 213.593693 455.31372 
L 215.01786 457.41984 
L 216.674442 460.228 
L 218.121435 463.03616 
L 219.707998 466.54636 
L 221.098572 470.05656 
L 222.560733 474.2688 
L 224.033194 479.18308 
L 225.461383 484.7994 
L 226.659285 490.41572 
L 227.770721 496.73408 
L 228.658206 503.05244 
L 229.40717 510.07284 
L 229.924453 517.09324 
L 230.221979 524.11364 
L 230.30614 531.13404 
L 230.179758 538.15444 
L 229.838592 545.17484 
L 229.276507 552.19524 
L 228.479183 559.21564 
L 227.543713 565.534 
L 226.379904 571.85236 
L 225.127067 577.46868 
L 223.630437 583.102822 
L 222.096245 587.99928 
L 220.563639 592.21152 
L 218.782257 596.42376 
L 217.053203 599.93396 
L 215.31375 602.976411 
L 213.593693 605.55028 
L 211.94901 607.6564 
L 210.684021 609.06048 
L 209.213726 610.46456 
L 207.408339 611.86864 
L 206.241 612.609208 
L 204.728875 613.361555 
L 202.89086 613.97476 
L 201.704625 614.213198 
L 200.1925 614.319066 
L 198.680375 614.213198 
L 197.16825 613.894709 
L 195.462974 613.27272 
L 194.080413 612.57068 
L 192.631875 611.632041 
L 191.11975 610.420957 
L 189.607625 608.965969 
L 187.857876 606.95436 
L 186.296066 604.84824 
L 184.50873 602.04008 
L 182.964383 599.23192 
L 181.602743 596.42376 
L 180.099998 592.91356 
L 178.52979 588.70132 
L 176.955 583.78704 
L 175.60665 578.87276 
L 174.297894 573.25644 
L 173.202349 567.64012 
L 172.194444 561.32176 
L 171.399036 555.0034 
L 170.744821 547.983 
L 170.692166 547.28096 
L 170.692166 547.28096 
" style="fill:none;stroke:#277f8e;stroke-width:1.5;"/>
   </g>
   <g id="LineCollection_22">
    <path clip-path="url(#pb45d3b45db)" d="M 176.741643 545.17484 
L 176.342852 538.85648 
L 176.163748 532.53812 
L 176.199461 526.21976 
L 176.450962 519.9014 
L 176.925314 513.58304 
L 177.636445 507.26468 
L 178.486207 501.64836 
L 179.566643 496.03204 
L 180.731433 491.11776 
L 182.141575 486.20348 
L 183.592886 481.99124 
L 185.07125 478.369738 
L 186.720305 474.97084 
L 188.347462 472.16268 
L 189.794784 470.05656 
L 191.547701 467.95044 
L 192.991146 466.54636 
L 194.144 465.617588 
L 195.656125 464.666422 
L 197.16825 463.995351 
L 198.680375 463.59594 
L 200.1925 463.463333 
L 201.704625 463.59594 
L 203.21675 463.995351 
L 204.728875 464.666422 
L 206.535988 465.84432 
L 207.753125 466.861442 
L 209.466243 468.65248 
L 211.098926 470.7586 
L 212.47276 472.86472 
L 214.029095 475.67288 
L 215.665105 479.18308 
L 217.050808 482.69328 
L 218.461913 486.90552 
L 219.850125 491.880559 
L 220.967017 496.73408 
L 222.017199 502.3504 
L 222.874375 508.238994 
L 223.523793 514.28508 
L 223.9728 520.60344 
L 224.200095 526.9218 
L 224.211999 533.24016 
L 224.008833 539.55852 
L 223.585015 545.87688 
L 222.928207 552.19524 
L 222.118313 557.896505 
L 221.111837 563.42788 
L 220.009559 568.34216 
L 218.67381 573.25644 
L 217.30304 577.46868 
L 215.961234 580.97888 
L 214.380806 584.48908 
L 212.887595 587.29724 
L 211.533437 589.480701 
L 210.021312 591.547929 
L 208.152309 593.6156 
L 206.997062 594.662034 
L 205.484938 595.757714 
L 203.972813 596.567517 
L 202.352273 597.1258 
L 200.948563 597.36754 
L 199.436437 597.36754 
L 197.924312 597.101927 
L 196.412187 596.567517 
L 194.846446 595.72172 
L 193.387937 594.662034 
L 191.875812 593.265611 
L 190.333811 591.50948 
L 188.800956 589.40336 
L 187.101497 586.5952 
L 185.665515 583.78704 
L 184.138809 580.27684 
L 182.598375 576.0646 
L 181.290937 571.813719 
L 180.038806 566.93808 
L 178.995048 562.0238 
L 178.034314 556.40748 
L 177.289916 550.79116 
L 176.741643 545.17484 
L 176.741643 545.17484 
" style="fill:none;stroke:#1fa187;stroke-width:1.5;"/>
   </g>
   <g id="LineCollection_23">
    <path clip-path="url(#pb45d3b45db)" d="M 182.743516 542.36668 
L 182.370205 536.75036 
L 182.227768 531.13404 
L 182.313154 525.51772 
L 182.628191 519.9014 
L 183.103529 514.98712 
L 183.780239 510.07284 
L 184.686249 505.15856 
L 185.675446 500.94632 
L 186.683524 497.43612 
L 188.0955 493.424336 
L 189.403899 490.41572 
L 190.490861 488.3096 
L 191.875812 486.065133 
L 193.397994 484.09736 
L 194.900062 482.60096 
L 196.412187 481.500976 
L 197.924312 480.781008 
L 199.436437 480.42487 
L 200.948563 480.42487 
L 202.460688 480.781008 
L 203.972813 481.500976 
L 205.585829 482.69328 
L 206.997062 484.108272 
L 208.600802 486.20348 
L 210.021312 488.533533 
L 211.533437 491.610909 
L 212.744015 494.62796 
L 213.918228 498.13816 
L 215.063272 502.3504 
L 215.984448 506.56264 
L 216.715451 510.77488 
L 217.361467 515.68916 
L 217.80893 520.60344 
L 218.094994 526.21976 
L 218.151902 531.83608 
L 217.980873 537.4524 
L 217.578165 543.06872 
L 216.92194 548.68504 
L 216.119061 553.59932 
L 215.232514 557.81156 
L 214.125642 562.0238 
L 212.999985 565.534 
L 211.533437 569.253091 
L 210.021312 572.330467 
L 208.509187 574.798867 
L 206.987006 576.76664 
L 205.484938 578.26304 
L 203.972813 579.363024 
L 202.460688 580.082992 
L 200.948563 580.43913 
L 199.436437 580.43913 
L 197.924312 580.082992 
L 196.412187 579.363024 
L 194.799171 578.17072 
L 193.387937 576.755728 
L 191.784198 574.66052 
L 190.363687 572.330467 
L 188.851562 569.253091 
L 187.640985 566.23604 
L 186.466772 562.72584 
L 185.321728 558.5136 
L 184.400552 554.30136 
L 183.669549 550.08912 
L 183.023533 545.17484 
L 182.743516 542.36668 
L 182.743516 542.36668 
" style="fill:none;stroke:#4ac16d;stroke-width:1.5;"/>
   </g>
   <g id="LineCollection_24">
    <path clip-path="url(#pb45d3b45db)" d="M 189.604216 534.64424 
L 189.499285 530.432 
L 189.607625 526.15664 
L 189.93876 522.00752 
L 190.510233 517.79528 
L 191.206352 514.28508 
L 192.162228 510.77488 
L 193.174238 507.96672 
L 194.144 505.858931 
L 195.441289 503.75448 
L 196.412187 502.561857 
L 197.453941 501.64836 
L 197.924312 501.316658 
L 198.680375 500.936647 
L 199.436437 500.713301 
L 200.1925 500.638927 
L 200.948563 500.713301 
L 201.72428 500.94632 
L 202.931059 501.64836 
L 203.750719 502.3504 
L 204.394646 503.05244 
L 205.428039 504.45652 
L 206.241836 505.8606 
L 207.489401 508.66876 
L 208.222772 510.77488 
L 209.007517 513.58304 
L 209.750783 517.09324 
L 210.284348 520.60344 
L 210.694393 524.81568 
L 210.874066 529.02792 
L 210.839105 533.24016 
L 210.58286 537.4524 
L 210.096967 541.66464 
L 209.481838 545.17484 
L 208.828628 547.983 
L 207.994681 550.79116 
L 206.997062 553.417772 
L 205.845018 555.70544 
L 204.728875 557.412298 
L 203.750719 558.5136 
L 202.931059 559.21564 
L 202.460688 559.547342 
L 201.704625 559.927353 
L 200.948563 560.150699 
L 200.1925 560.225073 
L 199.436437 560.150699 
L 198.66072 559.91768 
L 197.453941 559.21564 
L 196.634281 558.5136 
L 195.990354 557.81156 
L 194.956961 556.40748 
L 194.143164 555.0034 
L 192.895599 552.19524 
L 192.162228 550.08912 
L 191.377483 547.28096 
L 190.634217 543.77076 
L 190.100652 540.26056 
L 189.690607 536.04832 
L 189.604216 534.64424 
L 189.604216 534.64424 
" style="fill:none;stroke:#a0da39;stroke-width:1.5;"/>
   </g>
   <g id="LineCollection_25"/>
   <g id="patch_13">
    <path d="M 48.98 670.84 
L 48.98 390.024 
" style="fill:none;stroke:#000000;stroke-linecap:square;stroke-linejoin:miter;stroke-width:0.8;"/>
   </g>
   <g id="patch_14">
    <path d="M 351.405 670.84 
L 351.405 390.024 
" style="fill:none;stroke:#000000;stroke-linecap:square;stroke-linejoin:miter;stroke-width:0.8;"/>
   </g>
   <g id="patch_15">
    <path d="M 48.98 670.84 
L 351.405 670.84 
" style="fill:none;stroke:#000000;stroke-linecap:square;stroke-linejoin:miter;stroke-width:0.8;"/>
   </g>
   <g id="patch_16">
    <path d="M 48.98 390.024 
L 351.405 390.024 
" style="fill:none;stroke:#000000;stroke-linecap:square;stroke-linejoin:miter;stroke-width:0.8;"/>
   </g>
   <g id="text_27">
    <!-- $(\sigma_1^2, \sigma_2^2, \rho) = (0.1, 0.9, 0.0)$ -->
    <g transform="translate(87.2425 384.024)scale(0.18 -0.18)">
     <use transform="translate(0 0.765625)" xlink:href="#DejaVuSans-40"/>
     <use transform="translate(39.013672 0.765625)" xlink:href="#DejaVuSans-Oblique-963"/>
     <use transform="translate(106.865286 39.046875)scale(0.7)" xlink:href="#DejaVuSans-50"/>
     <use transform="translate(102.392578 -26.578125)scale(0.7)" xlink:href="#DejaVuSans-49"/>
     <use transform="translate(154.135794 0.765625)" xlink:href="#DejaVuSans-44"/>
     <use transform="translate(205.405326 0.765625)" xlink:href="#DejaVuSans-Oblique-963"/>
     <use transform="translate(273.25694 39.046875)scale(0.7)" xlink:href="#DejaVuSans-50"/>
     <use transform="translate(268.784232 -26.578125)scale(0.7)" xlink:href="#DejaVuSans-50"/>
     <use transform="translate(320.527448 0.765625)" xlink:href="#DejaVuSans-44"/>
     <use transform="translate(371.796979 0.765625)" xlink:href="#DejaVuSans-Oblique-961"/>
     <use transform="translate(435.273542 0.765625)" xlink:href="#DejaVuSans-41"/>
     <use transform="translate(493.769635 0.765625)" xlink:href="#DejaVuSans-61"/>
     <use transform="translate(597.04112 0.765625)" xlink:href="#DejaVuSans-40"/>
     <use transform="translate(636.054792 0.765625)" xlink:href="#DejaVuSans-48"/>
     <use transform="translate(699.677839 0.765625)" xlink:href="#DejaVuSans-46"/>
     <use transform="translate(731.464948 0.765625)" xlink:href="#DejaVuSans-49"/>
     <use transform="translate(795.087995 0.765625)" xlink:href="#DejaVuSans-44"/>
     <use transform="translate(846.357526 0.765625)" xlink:href="#DejaVuSans-48"/>
     <use transform="translate(909.980573 0.765625)" xlink:href="#DejaVuSans-46"/>
     <use transform="translate(941.767682 0.765625)" xlink:href="#DejaVuSans-57"/>
     <use transform="translate(1005.390729 0.765625)" xlink:href="#DejaVuSans-44"/>
     <use transform="translate(1056.66026 0.765625)" xlink:href="#DejaVuSans-48"/>
     <use transform="translate(1120.283307 0.765625)" xlink:href="#DejaVuSans-46"/>
     <use transform="translate(1152.070417 0.765625)" xlink:href="#DejaVuSans-48"/>
     <use transform="translate(1215.693464 0.765625)" xlink:href="#DejaVuSans-41"/>
    </g>
   </g>
  </g>
  <g id="axes_4">
   <g id="patch_17">
    <path d="M 403.58 670.84 
L 706.005 670.84 
L 706.005 390.024 
L 403.58 390.024 
z
" style="fill:#ffffff;"/>
   </g>
   <g id="matplotlib.axis_7">
    <g id="xtick_10">
     <g id="line2d_37">
      <path clip-path="url(#p5ef53b0332)" d="M 403.58 670.84 
L 403.58 390.024 
" style="fill:none;stroke:#b0b0b0;stroke-linecap:square;stroke-width:0.8;"/>
     </g>
     <g id="line2d_38">
      <g>
       <use style="stroke:#000000;stroke-width:0.8;" x="403.58" xlink:href="#mf40b9bb85e" y="670.84"/>
      </g>
     </g>
     <g id="text_28">
      <!-- -2 -->
      <g transform="translate(398.594844 685.438437)scale(0.1 -0.1)">
       <use xlink:href="#DejaVuSans-45"/>
       <use x="36.083984" xlink:href="#DejaVuSans-50"/>
      </g>
     </g>
    </g>
    <g id="xtick_11">
     <g id="line2d_39">
      <path clip-path="url(#p5ef53b0332)" d="M 554.7925 670.84 
L 554.7925 390.024 
" style="fill:none;stroke:#b0b0b0;stroke-linecap:square;stroke-width:0.8;"/>
     </g>
     <g id="line2d_40">
      <g>
       <use style="stroke:#000000;stroke-width:0.8;" x="554.7925" xlink:href="#mf40b9bb85e" y="670.84"/>
      </g>
     </g>
     <g id="text_29">
      <!-- 0 -->
      <g transform="translate(551.61125 685.438437)scale(0.1 -0.1)">
       <use xlink:href="#DejaVuSans-48"/>
      </g>
     </g>
    </g>
    <g id="xtick_12">
     <g id="line2d_41">
      <path clip-path="url(#p5ef53b0332)" d="M 706.005 670.84 
L 706.005 390.024 
" style="fill:none;stroke:#b0b0b0;stroke-linecap:square;stroke-width:0.8;"/>
     </g>
     <g id="line2d_42">
      <g>
       <use style="stroke:#000000;stroke-width:0.8;" x="706.005" xlink:href="#mf40b9bb85e" y="670.84"/>
      </g>
     </g>
     <g id="text_30">
      <!-- 2 -->
      <g transform="translate(702.82375 685.438437)scale(0.1 -0.1)">
       <use xlink:href="#DejaVuSans-50"/>
      </g>
     </g>
    </g>
    <g id="text_31">
     <!-- $x_1$ -->
     <g transform="translate(545.1625 705.195312)scale(0.18 -0.18)">
      <use transform="translate(0 0.3125)" xlink:href="#DejaVuSans-Oblique-120"/>
      <use transform="translate(59.179688 -16.09375)scale(0.7)" xlink:href="#DejaVuSans-49"/>
     </g>
    </g>
   </g>
   <g id="matplotlib.axis_8">
    <g id="ytick_10">
     <g id="line2d_43">
      <path clip-path="url(#p5ef53b0332)" d="M 403.58 670.84 
L 706.005 670.84 
" style="fill:none;stroke:#b0b0b0;stroke-linecap:square;stroke-width:0.8;"/>
     </g>
     <g id="line2d_44">
      <g>
       <use style="stroke:#000000;stroke-width:0.8;" x="403.58" xlink:href="#ma92dd01309" y="670.84"/>
      </g>
     </g>
     <g id="text_32">
      <!-- -2 -->
      <g transform="translate(386.609688 674.639219)scale(0.1 -0.1)">
       <use xlink:href="#DejaVuSans-45"/>
       <use x="36.083984" xlink:href="#DejaVuSans-50"/>
      </g>
     </g>
    </g>
    <g id="ytick_11">
     <g id="line2d_45">
      <path clip-path="url(#p5ef53b0332)" d="M 403.58 530.432 
L 706.005 530.432 
" style="fill:none;stroke:#b0b0b0;stroke-linecap:square;stroke-width:0.8;"/>
     </g>
     <g id="line2d_46">
      <g>
       <use style="stroke:#000000;stroke-width:0.8;" x="403.58" xlink:href="#ma92dd01309" y="530.432"/>
      </g>
     </g>
     <g id="text_33">
      <!-- 0 -->
      <g transform="translate(390.2175 534.231219)scale(0.1 -0.1)">
       <use xlink:href="#DejaVuSans-48"/>
      </g>
     </g>
    </g>
    <g id="ytick_12">
     <g id="line2d_47">
      <path clip-path="url(#p5ef53b0332)" d="M 403.58 390.024 
L 706.005 390.024 
" style="fill:none;stroke:#b0b0b0;stroke-linecap:square;stroke-width:0.8;"/>
     </g>
     <g id="line2d_48">
      <g>
       <use style="stroke:#000000;stroke-width:0.8;" x="403.58" xlink:href="#ma92dd01309" y="390.024"/>
      </g>
     </g>
     <g id="text_34">
      <!-- 2 -->
      <g transform="translate(390.2175 393.823219)scale(0.1 -0.1)">
       <use xlink:href="#DejaVuSans-50"/>
      </g>
     </g>
    </g>
    <g id="text_35">
     <!-- $x_2$ -->
     <g transform="translate(378.86625 540.062)rotate(-90)scale(0.18 -0.18)">
      <use transform="translate(0 0.3125)" xlink:href="#DejaVuSans-Oblique-120"/>
      <use transform="translate(59.179688 -16.09375)scale(0.7)" xlink:href="#DejaVuSans-50"/>
     </g>
    </g>
   </g>
   <g id="LineCollection_26"/>
   <g id="LineCollection_27">
    <path clip-path="url(#p5ef53b0332)" d="M 437.602813 532.828489 
L 441.474011 528.32588 
L 445.970632 523.4116 
L 451.211937 518.038491 
L 455.820552 513.58304 
L 461.796812 508.124727 
L 467.687953 503.05244 
L 473.893813 497.999168 
L 480.698375 492.762059 
L 487.792515 487.60756 
L 494.3075 483.121952 
L 501.868125 478.193057 
L 510.184813 473.089788 
L 518.5015 468.298545 
L 526.947332 463.7382 
L 534.378812 459.964676 
L 542.6955 456.007277 
L 550.256125 452.641723 
L 559.328875 448.897857 
L 566.8895 446.021156 
L 574.450125 443.370508 
L 581.254688 441.177329 
L 588.089237 439.1668 
L 594.863812 437.364825 
L 602.424438 435.595346 
L 609.229 434.227251 
L 616.033563 433.084032 
L 622.838125 432.186466 
L 628.886625 431.606903 
L 634.935125 431.254211 
L 640.227562 431.148696 
L 645.52 431.253449 
L 650.812437 431.592109 
L 655.740501 432.1464 
L 660.073303 432.84844 
L 663.6655 433.604939 
L 667.445812 434.597861 
L 671.226125 435.82575 
L 671.226125 435.82575 
" style="fill:none;stroke:#472d7b;stroke-width:1.5;"/>
    <path clip-path="url(#p5ef53b0332)" d="M 671.226125 528.93664 
L 667.445812 533.284335 
L 662.909437 538.195568 
L 658.128354 543.06872 
L 653.016294 547.983 
L 647.032125 553.406601 
L 641.739688 557.943169 
L 635.691188 562.864832 
L 628.886625 568.101941 
L 621.792485 573.25644 
L 615.2775 577.742048 
L 607.716875 582.670943 
L 599.400188 587.774212 
L 591.0835 592.565455 
L 582.637668 597.1258 
L 575.206188 600.899324 
L 566.8895 604.856723 
L 559.328875 608.222277 
L 550.256125 611.966143 
L 542.6955 614.842844 
L 535.134875 617.493492 
L 528.330312 619.686671 
L 521.495763 621.6972 
L 514.721188 623.499175 
L 507.160563 625.268654 
L 500.356 626.636749 
L 493.551438 627.779968 
L 486.746875 628.677534 
L 480.698375 629.257097 
L 474.649875 629.609789 
L 469.357438 629.715304 
L 464.065 629.610551 
L 458.772562 629.271891 
L 453.844499 628.7176 
L 449.511697 628.01556 
L 445.9195 627.259061 
L 442.139188 626.266139 
L 438.358875 625.03825 
L 437.602813 624.761009 
L 437.602813 624.761009 
" style="fill:none;stroke:#472d7b;stroke-width:1.5;"/>
   </g>
   <g id="LineCollection_28">
    <path clip-path="url(#p5ef53b0332)" d="M 439.082013 582.38296 
L 438.858589 579.5748 
L 438.866667 576.76664 
L 439.114937 573.713818 
L 439.494626 571.15032 
L 440.256785 567.64012 
L 441.275846 564.12992 
L 442.532427 560.61972 
L 444.013618 557.10952 
L 446.071048 552.89728 
L 448.417998 548.68504 
L 451.211937 544.218509 
L 453.937085 540.26056 
L 457.260438 535.836843 
L 460.50894 531.83608 
L 464.821062 526.919274 
L 469.357438 522.129928 
L 473.753219 517.79528 
L 478.430187 513.462388 
L 483.942959 508.66876 
L 489.771125 503.921024 
L 495.48948 499.54224 
L 501.323572 495.33 
L 507.510608 491.11776 
L 513.965125 486.980464 
L 521.094729 482.69328 
L 527.57425 479.038231 
L 534.378812 475.435916 
L 541.939438 471.70649 
L 549.500063 468.256324 
L 557.060687 465.082365 
L 563.86525 462.458972 
L 571.425875 459.807001 
L 578.230437 457.662469 
L 585.035 455.754253 
L 591.839563 454.093213 
L 598.644125 452.693068 
L 604.692625 451.683242 
L 610.741125 450.911666 
L 616.033563 450.450825 
L 621.326 450.208602 
L 626.618438 450.211872 
L 631.154813 450.435034 
L 635.691188 450.889566 
L 639.4715 451.472408 
L 643.251813 452.270928 
L 647.032125 453.324066 
L 650.056375 454.386267 
L 653.080625 455.686435 
L 655.348813 456.851302 
L 657.617 458.217097 
L 659.885188 459.835401 
L 661.993203 461.63208 
L 663.6655 463.33032 
L 665.177625 465.146854 
L 666.68975 467.356988 
L 667.798879 469.35452 
L 668.738274 471.46064 
L 669.471712 473.56676 
L 670.168517 476.37492 
L 670.581943 479.18308 
L 670.745162 481.99124 
L 670.682757 484.7994 
L 670.414927 487.60756 
L 669.959351 490.41572 
L 669.144149 493.92592 
L 668.07637 497.43612 
L 666.68975 501.148876 
L 665.177625 504.606442 
L 663.513952 507.96672 
L 661.167002 512.17896 
L 658.373063 516.645491 
L 655.647915 520.60344 
L 652.324562 525.027157 
L 649.07606 529.02792 
L 644.763937 533.944726 
L 640.227562 538.734072 
L 635.831781 543.06872 
L 631.154813 547.401612 
L 625.642041 552.19524 
L 619.813875 556.942976 
L 614.09552 561.32176 
L 608.261428 565.534 
L 602.074392 569.74624 
L 595.619875 573.883536 
L 588.490271 578.17072 
L 582.01075 581.825769 
L 575.206188 585.428084 
L 567.645562 589.15751 
L 560.084938 592.607676 
L 552.524313 595.781635 
L 545.71975 598.405028 
L 538.159125 601.056999 
L 531.354563 603.201531 
L 524.55 605.109747 
L 517.745437 606.770787 
L 510.940875 608.170932 
L 504.892375 609.180758 
L 498.843875 609.952334 
L 493.551438 610.413175 
L 488.259 610.655398 
L 482.966563 610.652128 
L 478.430187 610.428966 
L 473.893812 609.974434 
L 470.1135 609.391592 
L 466.333188 608.593072 
L 462.552875 607.539934 
L 459.528625 606.477733 
L 456.504375 605.177565 
L 454.236188 604.012698 
L 451.968 602.646903 
L 449.699813 601.028599 
L 447.591797 599.23192 
L 445.9195 597.53368 
L 444.407375 595.717146 
L 442.89525 593.507012 
L 441.786121 591.50948 
L 440.846726 589.40336 
L 440.113288 587.29724 
L 439.416483 584.48908 
L 439.082013 582.38296 
L 439.082013 582.38296 
" style="fill:none;stroke:#3b528b;stroke-width:1.5;"/>
   </g>
   <g id="LineCollection_29">
    <path clip-path="url(#p5ef53b0332)" d="M 458.745434 573.95848 
L 458.506811 571.15032 
L 458.545604 568.34216 
L 458.83179 565.534 
L 459.341455 562.72584 
L 460.05655 559.91768 
L 461.216976 556.40748 
L 462.652462 552.89728 
L 464.344797 549.38708 
L 466.333188 545.789856 
L 468.601375 542.137818 
L 470.869563 538.823543 
L 474.009096 534.64424 
L 477.483468 530.432 
L 481.454438 526.020732 
L 485.361876 522.00752 
L 489.773547 517.79528 
L 494.510934 513.58304 
L 499.599938 509.363435 
L 505.031938 505.15856 
L 510.864173 500.94632 
L 516.233313 497.315658 
L 522.281813 493.484153 
L 528.669403 489.71368 
L 534.378812 486.566467 
L 541.183375 483.07932 
L 547.987938 479.868733 
L 554.430404 477.07696 
L 560.084938 474.823045 
L 566.133438 472.618146 
L 572.181938 470.629521 
L 578.230437 468.862529 
L 584.623243 467.2484 
L 589.571375 466.184475 
L 595.504765 465.14228 
L 600.15625 464.513801 
L 605.448688 464.021672 
L 609.985063 463.80875 
L 614.521438 463.811949 
L 619.057812 464.062056 
L 622.838125 464.488873 
L 626.618438 465.149384 
L 629.642687 465.87712 
L 632.666938 466.818369 
L 635.691188 468.019796 
L 638.358907 469.35452 
L 640.638353 470.7586 
L 642.525711 472.16268 
L 644.109331 473.56676 
L 645.52 475.051502 
L 647.092182 477.07696 
L 648.372845 479.18308 
L 649.356946 481.2892 
L 650.089524 483.39532 
L 650.604343 485.50144 
L 650.927198 487.60756 
L 651.093187 490.41572 
L 650.990028 493.22388 
L 650.646071 496.03204 
L 650.056375 498.948116 
L 649.300313 501.707477 
L 648.102467 505.15856 
L 646.614425 508.66876 
L 644.763937 512.378603 
L 642.888501 515.68916 
L 640.673458 519.19936 
L 637.72004 523.4116 
L 634.452406 527.62384 
L 630.874803 531.83608 
L 626.987942 536.04832 
L 622.788057 540.26056 
L 618.269171 544.4728 
L 613.419909 548.68504 
L 608.22239 552.89728 
L 602.654216 557.10952 
L 597.132 561.016071 
L 591.0835 565.016128 
L 584.539827 569.0442 
L 578.413766 572.5544 
L 572.938 575.490783 
L 566.157933 578.87276 
L 560.841 581.336213 
L 554.036438 584.248274 
L 547.231875 586.892997 
L 540.427312 589.267338 
L 533.62275 591.365323 
L 527.57425 592.988488 
L 521.52575 594.372287 
L 516.233313 595.374429 
L 510.940875 596.165609 
L 505.648438 596.727355 
L 501.112062 597.007038 
L 496.575688 597.07883 
L 492.039312 596.915069 
L 488.259 596.571768 
L 484.478687 596.009271 
L 480.698375 595.187009 
L 477.674125 594.303723 
L 474.649875 593.172052 
L 472.381687 592.123878 
L 470.028837 590.80744 
L 467.845313 589.316766 
L 466.234076 587.99928 
L 464.777585 586.5952 
L 462.996514 584.48908 
L 461.603448 582.38296 
L 460.526324 580.27684 
L 459.7141 578.17072 
L 459.129825 576.0646 
L 458.745434 573.95848 
L 458.745434 573.95848 
" style="fill:none;stroke:#2c728e;stroke-width:1.5;"/>
   </g>
   <g id="LineCollection_30">
    <path clip-path="url(#p5ef53b0332)" d="M 475.386201 564.83196 
L 475.337103 562.72584 
L 475.464701 560.61972 
L 475.882174 557.81156 
L 476.555115 555.0034 
L 477.46077 552.19524 
L 478.581522 549.38708 
L 479.942313 546.503937 
L 481.823109 543.06872 
L 484.025012 539.55852 
L 486.746875 535.717165 
L 489.235791 532.53812 
L 492.234055 529.02792 
L 495.819625 525.181545 
L 499.599938 521.449417 
L 503.597746 517.79528 
L 507.916625 514.129651 
L 512.453 510.546256 
L 517.745437 506.664752 
L 523.060397 503.05244 
L 528.630552 499.54224 
L 534.378812 496.189983 
L 540.427312 492.939418 
L 546.475812 489.95831 
L 552.524313 487.237632 
L 558.572813 484.773758 
L 564.621313 482.566533 
L 570.669813 480.621781 
L 575.96225 479.142983 
L 581.254688 477.883251 
L 586.547125 476.857639 
L 591.0835 476.180508 
L 596.086681 475.67288 
L 600.15625 475.46462 
L 603.936563 475.459309 
L 607.85894 475.67288 
L 611.497187 476.104259 
L 614.521438 476.666691 
L 617.545687 477.453489 
L 620.476554 478.48104 
L 622.085015 479.18308 
L 624.685888 480.58716 
L 626.726091 481.99124 
L 628.367488 483.39532 
L 629.70853 484.7994 
L 631.154813 486.714213 
L 632.093551 488.3096 
L 633.024639 490.41572 
L 633.664638 492.52184 
L 634.057623 494.62796 
L 634.235942 496.73408 
L 634.224148 498.8402 
L 633.945136 501.64836 
L 633.396778 504.45652 
L 632.604931 507.26468 
L 631.589817 510.07284 
L 630.366827 512.881 
L 628.564359 516.3912 
L 626.473752 519.9014 
L 624.108058 523.4116 
L 621.326 527.109837 
L 618.30175 530.753849 
L 615.2775 534.100879 
L 611.497187 537.957173 
L 607.559028 541.66464 
L 603.1805 545.480898 
L 598.341611 549.38708 
L 593.351688 553.120725 
L 588.05925 556.79607 
L 582.766813 560.209192 
L 577.396146 563.42788 
L 571.425875 566.737814 
L 565.377375 569.818509 
L 559.328875 572.636121 
L 553.280375 575.196361 
L 547.231875 577.500029 
L 541.183375 579.544141 
L 535.134875 581.320494 
L 529.842437 582.644053 
L 524.279207 583.78704 
L 519.257563 584.584332 
L 514.721188 585.092212 
L 510.184813 585.375909 
L 506.4045 585.41922 
L 502.624188 585.261885 
L 498.843875 584.869905 
L 495.819625 584.357583 
L 492.795375 583.631202 
L 489.771125 582.641054 
L 487.499985 581.68092 
L 484.899112 580.27684 
L 482.858909 578.87276 
L 481.217512 577.46868 
L 479.87647 576.0646 
L 478.430187 574.149787 
L 477.491449 572.5544 
L 476.560361 570.44828 
L 475.920362 568.34216 
L 475.527377 566.23604 
L 475.386201 564.83196 
L 475.386201 564.83196 
" style="fill:none;stroke:#21918c;stroke-width:1.5;"/>
   </g>
   <g id="LineCollection_31">
    <path clip-path="url(#p5ef53b0332)" d="M 491.861833 560.61972 
L 491.504403 558.5136 
L 491.40637 556.40748 
L 491.533716 554.30136 
L 491.859735 552.19524 
L 492.365577 550.08912 
L 493.293385 547.28096 
L 494.486675 544.4728 
L 495.925589 541.66464 
L 497.595927 538.85648 
L 499.599938 535.891672 
L 502.151175 532.53812 
L 505.142804 529.02792 
L 508.461231 525.51772 
L 512.112352 522.00752 
L 516.233313 518.392981 
L 520.769688 514.758621 
L 525.306063 511.425362 
L 530.440566 507.96672 
L 535.134875 505.063082 
L 540.427312 502.059138 
L 545.71975 499.321235 
L 551.244428 496.73408 
L 556.304625 494.600097 
L 561.848105 492.52184 
L 566.8895 490.869447 
L 572.181938 489.389317 
L 576.865717 488.3096 
L 581.254688 487.509434 
L 585.941394 486.90552 
L 589.571375 486.636527 
L 593.351688 486.567727 
L 597.132 486.750424 
L 600.15625 487.114235 
L 603.1805 487.714318 
L 605.448688 488.356787 
L 607.716875 489.210559 
L 610.123228 490.41572 
L 611.497187 491.293458 
L 613.062107 492.52184 
L 614.521438 493.992673 
L 615.556056 495.33 
L 616.405955 496.73408 
L 617.056474 498.13816 
L 617.723167 500.24428 
L 618.080597 502.3504 
L 618.17863 504.45652 
L 618.051284 506.56264 
L 617.725265 508.66876 
L 617.219423 510.77488 
L 616.291615 513.58304 
L 615.098325 516.3912 
L 613.659411 519.19936 
L 611.989073 522.00752 
L 609.985063 524.972328 
L 607.433825 528.32588 
L 604.442196 531.83608 
L 601.123769 535.34628 
L 597.472648 538.85648 
L 593.351688 542.471019 
L 588.815313 546.105379 
L 584.278937 549.438638 
L 579.144434 552.89728 
L 574.450125 555.800918 
L 569.157688 558.804862 
L 563.86525 561.542765 
L 558.340572 564.12992 
L 553.280375 566.263903 
L 547.736895 568.34216 
L 542.6955 569.994553 
L 537.403063 571.474683 
L 532.719283 572.5544 
L 528.330312 573.354566 
L 523.643606 573.95848 
L 520.013625 574.227473 
L 516.233313 574.296273 
L 512.453 574.113576 
L 509.42875 573.749765 
L 506.4045 573.149682 
L 504.136313 572.507213 
L 501.868125 571.653441 
L 499.461772 570.44828 
L 498.087813 569.570542 
L 496.522893 568.34216 
L 495.063562 566.871327 
L 494.028944 565.534 
L 493.179045 564.12992 
L 492.528526 562.72584 
L 491.861833 560.61972 
L 491.861833 560.61972 
" style="fill:none;stroke:#28ae80;stroke-width:1.5;"/>
   </g>
   <g id="LineCollection_32">
    <path clip-path="url(#p5ef53b0332)" d="M 508.654009 551.4932 
L 508.522937 550.08912 
L 508.591841 547.983 
L 508.937756 545.87688 
L 509.521904 543.77076 
L 510.321298 541.66464 
L 511.316959 539.55852 
L 512.926195 536.75036 
L 514.838881 533.9422 
L 517.043137 531.13404 
L 519.534764 528.32588 
L 522.312757 525.51772 
L 525.388505 522.70956 
L 529.086375 519.65954 
L 532.866688 516.836852 
L 536.647 514.265304 
L 541.183375 511.471137 
L 545.71975 508.962519 
L 550.256125 506.714849 
L 554.7925 504.71927 
L 559.328875 502.970243 
L 563.86525 501.473749 
L 568.401625 500.238497 
L 572.181938 499.426539 
L 575.96225 498.829248 
L 579.742563 498.479821 
L 582.766813 498.404223 
L 585.791063 498.547459 
L 588.141449 498.8402 
L 590.327437 499.295138 
L 592.595625 499.999534 
L 594.10775 500.643593 
L 595.889299 501.64836 
L 597.132 502.578987 
L 598.338318 503.75448 
L 599.400188 505.170167 
L 600.15625 506.61832 
L 600.62956 507.96672 
L 600.930991 509.3708 
L 601.062063 510.77488 
L 600.993159 512.881 
L 600.647244 514.98712 
L 600.063096 517.09324 
L 599.263702 519.19936 
L 598.268041 521.30548 
L 596.658805 524.11364 
L 594.746119 526.9218 
L 592.541863 529.72996 
L 590.050236 532.53812 
L 587.272243 535.34628 
L 584.196495 538.15444 
L 580.498625 541.20446 
L 576.718313 544.027148 
L 572.938 546.598696 
L 568.401625 549.392863 
L 563.86525 551.901481 
L 559.328875 554.149151 
L 554.7925 556.14473 
L 550.256125 557.893757 
L 545.71975 559.390251 
L 541.183375 560.625503 
L 537.403063 561.437461 
L 533.62275 562.034752 
L 529.842437 562.384179 
L 526.818188 562.459777 
L 523.793937 562.316541 
L 521.443551 562.0238 
L 519.257563 561.568862 
L 516.989375 560.864466 
L 515.47725 560.220407 
L 513.695701 559.21564 
L 512.453 558.285013 
L 511.246682 557.10952 
L 510.184813 555.693833 
L 509.42875 554.24568 
L 508.95544 552.89728 
L 508.654009 551.4932 
L 508.654009 551.4932 
" style="fill:none;stroke:#5ec962;stroke-width:1.5;"/>
   </g>
   <g id="LineCollection_33">
    <path clip-path="url(#p5ef53b0332)" d="M 531.263329 540.9626 
L 531.241531 539.55852 
L 531.467633 538.15444 
L 532.110625 536.229816 
L 532.51359 535.34628 
L 533.729913 533.24016 
L 535.280035 531.13404 
L 537.148179 529.02792 
L 539.336042 526.9218 
L 541.939438 524.756039 
L 544.963687 522.58401 
L 548.154681 520.60344 
L 551.76825 518.692178 
L 554.7925 517.336293 
L 557.81675 516.19602 
L 560.841 515.27899 
L 563.86525 514.601567 
L 566.133438 514.267669 
L 568.401625 514.122491 
L 570.669813 514.198202 
L 572.181938 514.413548 
L 574.196582 514.98712 
L 575.206188 515.461096 
L 575.96225 515.938325 
L 576.718313 516.576919 
L 577.474375 517.512097 
L 577.977897 518.49732 
L 578.321671 519.9014 
L 578.343469 521.30548 
L 578.117367 522.70956 
L 577.474375 524.634184 
L 577.07141 525.51772 
L 575.855087 527.62384 
L 574.304965 529.72996 
L 572.436821 531.83608 
L 570.248958 533.9422 
L 567.645562 536.107961 
L 564.621313 538.27999 
L 561.430319 540.26056 
L 557.81675 542.171822 
L 554.7925 543.527707 
L 551.76825 544.66798 
L 548.744 545.58501 
L 545.71975 546.262433 
L 543.451563 546.596331 
L 541.183375 546.741509 
L 538.915188 546.665798 
L 537.403063 546.450452 
L 535.388418 545.87688 
L 534.378812 545.402904 
L 533.62275 544.925675 
L 532.866688 544.287081 
L 532.110625 543.351903 
L 531.607103 542.36668 
L 531.263329 540.9626 
L 531.263329 540.9626 
" style="fill:none;stroke:#addc30;stroke-width:1.5;"/>
   </g>
   <g id="LineCollection_34"/>
   <g id="patch_18">
    <path d="M 403.58 670.84 
L 403.58 390.024 
" style="fill:none;stroke:#000000;stroke-linecap:square;stroke-linejoin:miter;stroke-width:0.8;"/>
   </g>
   <g id="patch_19">
    <path d="M 706.005 670.84 
L 706.005 390.024 
" style="fill:none;stroke:#000000;stroke-linecap:square;stroke-linejoin:miter;stroke-width:0.8;"/>
   </g>
   <g id="patch_20">
    <path d="M 403.58 670.84 
L 706.005 670.84 
" style="fill:none;stroke:#000000;stroke-linecap:square;stroke-linejoin:miter;stroke-width:0.8;"/>
   </g>
   <g id="patch_21">
    <path d="M 403.58 390.024 
L 706.005 390.024 
" style="fill:none;stroke:#000000;stroke-linecap:square;stroke-linejoin:miter;stroke-width:0.8;"/>
   </g>
   <g id="text_36">
    <!-- $(\sigma_1^2, \sigma_2^2, \rho) = (0.9, 0.5, 0.4)$ -->
    <g transform="translate(441.8425 384.024)scale(0.18 -0.18)">
     <defs>
      <path d="M 37.796875 64.3125 
L 12.890625 25.390625 
L 37.796875 25.390625 
z
M 35.203125 72.90625 
L 47.609375 72.90625 
L 47.609375 25.390625 
L 58.015625 25.390625 
L 58.015625 17.1875 
L 47.609375 17.1875 
L 47.609375 0 
L 37.796875 0 
L 37.796875 17.1875 
L 4.890625 17.1875 
L 4.890625 26.703125 
z
" id="DejaVuSans-52"/>
     </defs>
     <use transform="translate(0 0.765625)" xlink:href="#DejaVuSans-40"/>
     <use transform="translate(39.013672 0.765625)" xlink:href="#DejaVuSans-Oblique-963"/>
     <use transform="translate(106.865286 39.046875)scale(0.7)" xlink:href="#DejaVuSans-50"/>
     <use transform="translate(102.392578 -26.578125)scale(0.7)" xlink:href="#DejaVuSans-49"/>
     <use transform="translate(154.135794 0.765625)" xlink:href="#DejaVuSans-44"/>
     <use transform="translate(205.405326 0.765625)" xlink:href="#DejaVuSans-Oblique-963"/>
     <use transform="translate(273.25694 39.046875)scale(0.7)" xlink:href="#DejaVuSans-50"/>
     <use transform="translate(268.784232 -26.578125)scale(0.7)" xlink:href="#DejaVuSans-50"/>
     <use transform="translate(320.527448 0.765625)" xlink:href="#DejaVuSans-44"/>
     <use transform="translate(371.796979 0.765625)" xlink:href="#DejaVuSans-Oblique-961"/>
     <use transform="translate(435.273542 0.765625)" xlink:href="#DejaVuSans-41"/>
     <use transform="translate(493.769635 0.765625)" xlink:href="#DejaVuSans-61"/>
     <use transform="translate(597.04112 0.765625)" xlink:href="#DejaVuSans-40"/>
     <use transform="translate(636.054792 0.765625)" xlink:href="#DejaVuSans-48"/>
     <use transform="translate(699.677839 0.765625)" xlink:href="#DejaVuSans-46"/>
     <use transform="translate(731.464948 0.765625)" xlink:href="#DejaVuSans-57"/>
     <use transform="translate(795.087995 0.765625)" xlink:href="#DejaVuSans-44"/>
     <use transform="translate(846.357526 0.765625)" xlink:href="#DejaVuSans-48"/>
     <use transform="translate(909.980573 0.765625)" xlink:href="#DejaVuSans-46"/>
     <use transform="translate(941.767682 0.765625)" xlink:href="#DejaVuSans-53"/>
     <use transform="translate(1005.390729 0.765625)" xlink:href="#DejaVuSans-44"/>
     <use transform="translate(1056.66026 0.765625)" xlink:href="#DejaVuSans-48"/>
     <use transform="translate(1120.283307 0.765625)" xlink:href="#DejaVuSans-46"/>
     <use transform="translate(1152.070417 0.765625)" xlink:href="#DejaVuSans-52"/>
     <use transform="translate(1215.693464 0.765625)" xlink:href="#DejaVuSans-41"/>
    </g>
   </g>
  </g>
 </g>
 <defs>
  <clipPath id="p745d7d6ec5">
   <rect height="280.816" width="302.425" x="48.98" y="35.424"/>
  </clipPath>
  <clipPath id="p1b1025661f">
   <rect height="280.816" width="302.425" x="403.58" y="35.424"/>
  </clipPath>
  <clipPath id="pb45d3b45db">
   <rect height="280.816" width="302.425" x="48.98" y="390.024"/>
  </clipPath>
  <clipPath id="p5ef53b0332">
   <rect height="280.816" width="302.425" x="403.58" y="390.024"/>
  </clipPath>
 </defs>
</svg>
